%TF.GenerationSoftware,KiCad,Pcbnew,8.0.6*%
%TF.CreationDate,2024-11-30T17:01:25-03:00*%
%TF.ProjectId,EMBARCADOS - CURSO PCB,454d4241-5243-4414-944f-53202d204355,00*%
%TF.SameCoordinates,Original*%
%TF.FileFunction,OtherDrawing,Comment*%
%FSLAX46Y46*%
G04 Gerber Fmt 4.6, Leading zero omitted, Abs format (unit mm)*
G04 Created by KiCad (PCBNEW 8.0.6) date 2024-11-30 17:01:25*
%MOMM*%
%LPD*%
G01*
G04 APERTURE LIST*
%ADD10C,0.100000*%
%ADD11C,0.150000*%
%ADD12C,0.300000*%
%ADD13C,0.400000*%
G04 APERTURE END LIST*
D10*
D11*
X177002200Y-166007200D02*
X285002200Y-166007200D01*
X285002200Y-198007200D01*
X177002200Y-198007200D01*
X177002200Y-166007200D01*
D10*
D11*
X10000000Y-10000000D02*
X287002200Y-10000000D01*
X287002200Y-200007200D01*
X10000000Y-200007200D01*
X10000000Y-10000000D01*
D10*
D11*
X12000000Y-12000000D02*
X285002200Y-12000000D01*
X285002200Y-198007200D01*
X12000000Y-198007200D01*
X12000000Y-12000000D01*
D10*
D11*
X60000000Y-12000000D02*
X60000000Y-10000000D01*
D10*
D11*
X110000000Y-12000000D02*
X110000000Y-10000000D01*
D10*
D11*
X160000000Y-12000000D02*
X160000000Y-10000000D01*
D10*
D11*
X210000000Y-12000000D02*
X210000000Y-10000000D01*
D10*
D11*
X260000000Y-12000000D02*
X260000000Y-10000000D01*
D10*
D11*
X36089160Y-11593604D02*
X35346303Y-11593604D01*
X35717731Y-11593604D02*
X35717731Y-10293604D01*
X35717731Y-10293604D02*
X35593922Y-10479319D01*
X35593922Y-10479319D02*
X35470112Y-10603128D01*
X35470112Y-10603128D02*
X35346303Y-10665033D01*
D10*
D11*
X85346303Y-10417414D02*
X85408207Y-10355509D01*
X85408207Y-10355509D02*
X85532017Y-10293604D01*
X85532017Y-10293604D02*
X85841541Y-10293604D01*
X85841541Y-10293604D02*
X85965350Y-10355509D01*
X85965350Y-10355509D02*
X86027255Y-10417414D01*
X86027255Y-10417414D02*
X86089160Y-10541223D01*
X86089160Y-10541223D02*
X86089160Y-10665033D01*
X86089160Y-10665033D02*
X86027255Y-10850747D01*
X86027255Y-10850747D02*
X85284398Y-11593604D01*
X85284398Y-11593604D02*
X86089160Y-11593604D01*
D10*
D11*
X135284398Y-10293604D02*
X136089160Y-10293604D01*
X136089160Y-10293604D02*
X135655826Y-10788842D01*
X135655826Y-10788842D02*
X135841541Y-10788842D01*
X135841541Y-10788842D02*
X135965350Y-10850747D01*
X135965350Y-10850747D02*
X136027255Y-10912652D01*
X136027255Y-10912652D02*
X136089160Y-11036461D01*
X136089160Y-11036461D02*
X136089160Y-11345985D01*
X136089160Y-11345985D02*
X136027255Y-11469795D01*
X136027255Y-11469795D02*
X135965350Y-11531700D01*
X135965350Y-11531700D02*
X135841541Y-11593604D01*
X135841541Y-11593604D02*
X135470112Y-11593604D01*
X135470112Y-11593604D02*
X135346303Y-11531700D01*
X135346303Y-11531700D02*
X135284398Y-11469795D01*
D10*
D11*
X185965350Y-10726938D02*
X185965350Y-11593604D01*
X185655826Y-10231700D02*
X185346303Y-11160271D01*
X185346303Y-11160271D02*
X186151064Y-11160271D01*
D10*
D11*
X236027255Y-10293604D02*
X235408207Y-10293604D01*
X235408207Y-10293604D02*
X235346303Y-10912652D01*
X235346303Y-10912652D02*
X235408207Y-10850747D01*
X235408207Y-10850747D02*
X235532017Y-10788842D01*
X235532017Y-10788842D02*
X235841541Y-10788842D01*
X235841541Y-10788842D02*
X235965350Y-10850747D01*
X235965350Y-10850747D02*
X236027255Y-10912652D01*
X236027255Y-10912652D02*
X236089160Y-11036461D01*
X236089160Y-11036461D02*
X236089160Y-11345985D01*
X236089160Y-11345985D02*
X236027255Y-11469795D01*
X236027255Y-11469795D02*
X235965350Y-11531700D01*
X235965350Y-11531700D02*
X235841541Y-11593604D01*
X235841541Y-11593604D02*
X235532017Y-11593604D01*
X235532017Y-11593604D02*
X235408207Y-11531700D01*
X235408207Y-11531700D02*
X235346303Y-11469795D01*
D10*
D11*
X285965350Y-10293604D02*
X285717731Y-10293604D01*
X285717731Y-10293604D02*
X285593922Y-10355509D01*
X285593922Y-10355509D02*
X285532017Y-10417414D01*
X285532017Y-10417414D02*
X285408207Y-10603128D01*
X285408207Y-10603128D02*
X285346303Y-10850747D01*
X285346303Y-10850747D02*
X285346303Y-11345985D01*
X285346303Y-11345985D02*
X285408207Y-11469795D01*
X285408207Y-11469795D02*
X285470112Y-11531700D01*
X285470112Y-11531700D02*
X285593922Y-11593604D01*
X285593922Y-11593604D02*
X285841541Y-11593604D01*
X285841541Y-11593604D02*
X285965350Y-11531700D01*
X285965350Y-11531700D02*
X286027255Y-11469795D01*
X286027255Y-11469795D02*
X286089160Y-11345985D01*
X286089160Y-11345985D02*
X286089160Y-11036461D01*
X286089160Y-11036461D02*
X286027255Y-10912652D01*
X286027255Y-10912652D02*
X285965350Y-10850747D01*
X285965350Y-10850747D02*
X285841541Y-10788842D01*
X285841541Y-10788842D02*
X285593922Y-10788842D01*
X285593922Y-10788842D02*
X285470112Y-10850747D01*
X285470112Y-10850747D02*
X285408207Y-10912652D01*
X285408207Y-10912652D02*
X285346303Y-11036461D01*
D10*
D11*
X60000000Y-198007200D02*
X60000000Y-200007200D01*
D10*
D11*
X110000000Y-198007200D02*
X110000000Y-200007200D01*
D10*
D11*
X160000000Y-198007200D02*
X160000000Y-200007200D01*
D10*
D11*
X210000000Y-198007200D02*
X210000000Y-200007200D01*
D10*
D11*
X260000000Y-198007200D02*
X260000000Y-200007200D01*
D10*
D11*
X36089160Y-199600804D02*
X35346303Y-199600804D01*
X35717731Y-199600804D02*
X35717731Y-198300804D01*
X35717731Y-198300804D02*
X35593922Y-198486519D01*
X35593922Y-198486519D02*
X35470112Y-198610328D01*
X35470112Y-198610328D02*
X35346303Y-198672233D01*
D10*
D11*
X85346303Y-198424614D02*
X85408207Y-198362709D01*
X85408207Y-198362709D02*
X85532017Y-198300804D01*
X85532017Y-198300804D02*
X85841541Y-198300804D01*
X85841541Y-198300804D02*
X85965350Y-198362709D01*
X85965350Y-198362709D02*
X86027255Y-198424614D01*
X86027255Y-198424614D02*
X86089160Y-198548423D01*
X86089160Y-198548423D02*
X86089160Y-198672233D01*
X86089160Y-198672233D02*
X86027255Y-198857947D01*
X86027255Y-198857947D02*
X85284398Y-199600804D01*
X85284398Y-199600804D02*
X86089160Y-199600804D01*
D10*
D11*
X135284398Y-198300804D02*
X136089160Y-198300804D01*
X136089160Y-198300804D02*
X135655826Y-198796042D01*
X135655826Y-198796042D02*
X135841541Y-198796042D01*
X135841541Y-198796042D02*
X135965350Y-198857947D01*
X135965350Y-198857947D02*
X136027255Y-198919852D01*
X136027255Y-198919852D02*
X136089160Y-199043661D01*
X136089160Y-199043661D02*
X136089160Y-199353185D01*
X136089160Y-199353185D02*
X136027255Y-199476995D01*
X136027255Y-199476995D02*
X135965350Y-199538900D01*
X135965350Y-199538900D02*
X135841541Y-199600804D01*
X135841541Y-199600804D02*
X135470112Y-199600804D01*
X135470112Y-199600804D02*
X135346303Y-199538900D01*
X135346303Y-199538900D02*
X135284398Y-199476995D01*
D10*
D11*
X185965350Y-198734138D02*
X185965350Y-199600804D01*
X185655826Y-198238900D02*
X185346303Y-199167471D01*
X185346303Y-199167471D02*
X186151064Y-199167471D01*
D10*
D11*
X236027255Y-198300804D02*
X235408207Y-198300804D01*
X235408207Y-198300804D02*
X235346303Y-198919852D01*
X235346303Y-198919852D02*
X235408207Y-198857947D01*
X235408207Y-198857947D02*
X235532017Y-198796042D01*
X235532017Y-198796042D02*
X235841541Y-198796042D01*
X235841541Y-198796042D02*
X235965350Y-198857947D01*
X235965350Y-198857947D02*
X236027255Y-198919852D01*
X236027255Y-198919852D02*
X236089160Y-199043661D01*
X236089160Y-199043661D02*
X236089160Y-199353185D01*
X236089160Y-199353185D02*
X236027255Y-199476995D01*
X236027255Y-199476995D02*
X235965350Y-199538900D01*
X235965350Y-199538900D02*
X235841541Y-199600804D01*
X235841541Y-199600804D02*
X235532017Y-199600804D01*
X235532017Y-199600804D02*
X235408207Y-199538900D01*
X235408207Y-199538900D02*
X235346303Y-199476995D01*
D10*
D11*
X285965350Y-198300804D02*
X285717731Y-198300804D01*
X285717731Y-198300804D02*
X285593922Y-198362709D01*
X285593922Y-198362709D02*
X285532017Y-198424614D01*
X285532017Y-198424614D02*
X285408207Y-198610328D01*
X285408207Y-198610328D02*
X285346303Y-198857947D01*
X285346303Y-198857947D02*
X285346303Y-199353185D01*
X285346303Y-199353185D02*
X285408207Y-199476995D01*
X285408207Y-199476995D02*
X285470112Y-199538900D01*
X285470112Y-199538900D02*
X285593922Y-199600804D01*
X285593922Y-199600804D02*
X285841541Y-199600804D01*
X285841541Y-199600804D02*
X285965350Y-199538900D01*
X285965350Y-199538900D02*
X286027255Y-199476995D01*
X286027255Y-199476995D02*
X286089160Y-199353185D01*
X286089160Y-199353185D02*
X286089160Y-199043661D01*
X286089160Y-199043661D02*
X286027255Y-198919852D01*
X286027255Y-198919852D02*
X285965350Y-198857947D01*
X285965350Y-198857947D02*
X285841541Y-198796042D01*
X285841541Y-198796042D02*
X285593922Y-198796042D01*
X285593922Y-198796042D02*
X285470112Y-198857947D01*
X285470112Y-198857947D02*
X285408207Y-198919852D01*
X285408207Y-198919852D02*
X285346303Y-199043661D01*
D10*
D11*
X10000000Y-60000000D02*
X12000000Y-60000000D01*
D10*
D11*
X10000000Y-110000000D02*
X12000000Y-110000000D01*
D10*
D11*
X10000000Y-160000000D02*
X12000000Y-160000000D01*
D10*
D11*
X10690476Y-35222176D02*
X11309523Y-35222176D01*
X10566666Y-35593604D02*
X10999999Y-34293604D01*
X10999999Y-34293604D02*
X11433333Y-35593604D01*
D10*
D11*
X11092857Y-84912652D02*
X11278571Y-84974557D01*
X11278571Y-84974557D02*
X11340476Y-85036461D01*
X11340476Y-85036461D02*
X11402380Y-85160271D01*
X11402380Y-85160271D02*
X11402380Y-85345985D01*
X11402380Y-85345985D02*
X11340476Y-85469795D01*
X11340476Y-85469795D02*
X11278571Y-85531700D01*
X11278571Y-85531700D02*
X11154761Y-85593604D01*
X11154761Y-85593604D02*
X10659523Y-85593604D01*
X10659523Y-85593604D02*
X10659523Y-84293604D01*
X10659523Y-84293604D02*
X11092857Y-84293604D01*
X11092857Y-84293604D02*
X11216666Y-84355509D01*
X11216666Y-84355509D02*
X11278571Y-84417414D01*
X11278571Y-84417414D02*
X11340476Y-84541223D01*
X11340476Y-84541223D02*
X11340476Y-84665033D01*
X11340476Y-84665033D02*
X11278571Y-84788842D01*
X11278571Y-84788842D02*
X11216666Y-84850747D01*
X11216666Y-84850747D02*
X11092857Y-84912652D01*
X11092857Y-84912652D02*
X10659523Y-84912652D01*
D10*
D11*
X11402380Y-135469795D02*
X11340476Y-135531700D01*
X11340476Y-135531700D02*
X11154761Y-135593604D01*
X11154761Y-135593604D02*
X11030952Y-135593604D01*
X11030952Y-135593604D02*
X10845238Y-135531700D01*
X10845238Y-135531700D02*
X10721428Y-135407890D01*
X10721428Y-135407890D02*
X10659523Y-135284080D01*
X10659523Y-135284080D02*
X10597619Y-135036461D01*
X10597619Y-135036461D02*
X10597619Y-134850747D01*
X10597619Y-134850747D02*
X10659523Y-134603128D01*
X10659523Y-134603128D02*
X10721428Y-134479319D01*
X10721428Y-134479319D02*
X10845238Y-134355509D01*
X10845238Y-134355509D02*
X11030952Y-134293604D01*
X11030952Y-134293604D02*
X11154761Y-134293604D01*
X11154761Y-134293604D02*
X11340476Y-134355509D01*
X11340476Y-134355509D02*
X11402380Y-134417414D01*
D10*
D11*
X10659523Y-185593604D02*
X10659523Y-184293604D01*
X10659523Y-184293604D02*
X10969047Y-184293604D01*
X10969047Y-184293604D02*
X11154761Y-184355509D01*
X11154761Y-184355509D02*
X11278571Y-184479319D01*
X11278571Y-184479319D02*
X11340476Y-184603128D01*
X11340476Y-184603128D02*
X11402380Y-184850747D01*
X11402380Y-184850747D02*
X11402380Y-185036461D01*
X11402380Y-185036461D02*
X11340476Y-185284080D01*
X11340476Y-185284080D02*
X11278571Y-185407890D01*
X11278571Y-185407890D02*
X11154761Y-185531700D01*
X11154761Y-185531700D02*
X10969047Y-185593604D01*
X10969047Y-185593604D02*
X10659523Y-185593604D01*
D10*
D11*
X287002200Y-60000000D02*
X285002200Y-60000000D01*
D10*
D11*
X287002200Y-110000000D02*
X285002200Y-110000000D01*
D10*
D11*
X287002200Y-160000000D02*
X285002200Y-160000000D01*
D10*
D11*
X285692676Y-35222176D02*
X286311723Y-35222176D01*
X285568866Y-35593604D02*
X286002199Y-34293604D01*
X286002199Y-34293604D02*
X286435533Y-35593604D01*
D10*
D11*
X286095057Y-84912652D02*
X286280771Y-84974557D01*
X286280771Y-84974557D02*
X286342676Y-85036461D01*
X286342676Y-85036461D02*
X286404580Y-85160271D01*
X286404580Y-85160271D02*
X286404580Y-85345985D01*
X286404580Y-85345985D02*
X286342676Y-85469795D01*
X286342676Y-85469795D02*
X286280771Y-85531700D01*
X286280771Y-85531700D02*
X286156961Y-85593604D01*
X286156961Y-85593604D02*
X285661723Y-85593604D01*
X285661723Y-85593604D02*
X285661723Y-84293604D01*
X285661723Y-84293604D02*
X286095057Y-84293604D01*
X286095057Y-84293604D02*
X286218866Y-84355509D01*
X286218866Y-84355509D02*
X286280771Y-84417414D01*
X286280771Y-84417414D02*
X286342676Y-84541223D01*
X286342676Y-84541223D02*
X286342676Y-84665033D01*
X286342676Y-84665033D02*
X286280771Y-84788842D01*
X286280771Y-84788842D02*
X286218866Y-84850747D01*
X286218866Y-84850747D02*
X286095057Y-84912652D01*
X286095057Y-84912652D02*
X285661723Y-84912652D01*
D10*
D11*
X286404580Y-135469795D02*
X286342676Y-135531700D01*
X286342676Y-135531700D02*
X286156961Y-135593604D01*
X286156961Y-135593604D02*
X286033152Y-135593604D01*
X286033152Y-135593604D02*
X285847438Y-135531700D01*
X285847438Y-135531700D02*
X285723628Y-135407890D01*
X285723628Y-135407890D02*
X285661723Y-135284080D01*
X285661723Y-135284080D02*
X285599819Y-135036461D01*
X285599819Y-135036461D02*
X285599819Y-134850747D01*
X285599819Y-134850747D02*
X285661723Y-134603128D01*
X285661723Y-134603128D02*
X285723628Y-134479319D01*
X285723628Y-134479319D02*
X285847438Y-134355509D01*
X285847438Y-134355509D02*
X286033152Y-134293604D01*
X286033152Y-134293604D02*
X286156961Y-134293604D01*
X286156961Y-134293604D02*
X286342676Y-134355509D01*
X286342676Y-134355509D02*
X286404580Y-134417414D01*
D10*
D11*
X285661723Y-185593604D02*
X285661723Y-184293604D01*
X285661723Y-184293604D02*
X285971247Y-184293604D01*
X285971247Y-184293604D02*
X286156961Y-184355509D01*
X286156961Y-184355509D02*
X286280771Y-184479319D01*
X286280771Y-184479319D02*
X286342676Y-184603128D01*
X286342676Y-184603128D02*
X286404580Y-184850747D01*
X286404580Y-184850747D02*
X286404580Y-185036461D01*
X286404580Y-185036461D02*
X286342676Y-185284080D01*
X286342676Y-185284080D02*
X286280771Y-185407890D01*
X286280771Y-185407890D02*
X286156961Y-185531700D01*
X286156961Y-185531700D02*
X285971247Y-185593604D01*
X285971247Y-185593604D02*
X285661723Y-185593604D01*
D10*
D11*
X200458026Y-193793328D02*
X200458026Y-192293328D01*
X200458026Y-192293328D02*
X200815169Y-192293328D01*
X200815169Y-192293328D02*
X201029455Y-192364757D01*
X201029455Y-192364757D02*
X201172312Y-192507614D01*
X201172312Y-192507614D02*
X201243741Y-192650471D01*
X201243741Y-192650471D02*
X201315169Y-192936185D01*
X201315169Y-192936185D02*
X201315169Y-193150471D01*
X201315169Y-193150471D02*
X201243741Y-193436185D01*
X201243741Y-193436185D02*
X201172312Y-193579042D01*
X201172312Y-193579042D02*
X201029455Y-193721900D01*
X201029455Y-193721900D02*
X200815169Y-193793328D01*
X200815169Y-193793328D02*
X200458026Y-193793328D01*
X202600884Y-193793328D02*
X202600884Y-193007614D01*
X202600884Y-193007614D02*
X202529455Y-192864757D01*
X202529455Y-192864757D02*
X202386598Y-192793328D01*
X202386598Y-192793328D02*
X202100884Y-192793328D01*
X202100884Y-192793328D02*
X201958026Y-192864757D01*
X202600884Y-193721900D02*
X202458026Y-193793328D01*
X202458026Y-193793328D02*
X202100884Y-193793328D01*
X202100884Y-193793328D02*
X201958026Y-193721900D01*
X201958026Y-193721900D02*
X201886598Y-193579042D01*
X201886598Y-193579042D02*
X201886598Y-193436185D01*
X201886598Y-193436185D02*
X201958026Y-193293328D01*
X201958026Y-193293328D02*
X202100884Y-193221900D01*
X202100884Y-193221900D02*
X202458026Y-193221900D01*
X202458026Y-193221900D02*
X202600884Y-193150471D01*
X203100884Y-192793328D02*
X203672312Y-192793328D01*
X203315169Y-192293328D02*
X203315169Y-193579042D01*
X203315169Y-193579042D02*
X203386598Y-193721900D01*
X203386598Y-193721900D02*
X203529455Y-193793328D01*
X203529455Y-193793328D02*
X203672312Y-193793328D01*
X204743741Y-193721900D02*
X204600884Y-193793328D01*
X204600884Y-193793328D02*
X204315170Y-193793328D01*
X204315170Y-193793328D02*
X204172312Y-193721900D01*
X204172312Y-193721900D02*
X204100884Y-193579042D01*
X204100884Y-193579042D02*
X204100884Y-193007614D01*
X204100884Y-193007614D02*
X204172312Y-192864757D01*
X204172312Y-192864757D02*
X204315170Y-192793328D01*
X204315170Y-192793328D02*
X204600884Y-192793328D01*
X204600884Y-192793328D02*
X204743741Y-192864757D01*
X204743741Y-192864757D02*
X204815170Y-193007614D01*
X204815170Y-193007614D02*
X204815170Y-193150471D01*
X204815170Y-193150471D02*
X204100884Y-193293328D01*
X205458026Y-193650471D02*
X205529455Y-193721900D01*
X205529455Y-193721900D02*
X205458026Y-193793328D01*
X205458026Y-193793328D02*
X205386598Y-193721900D01*
X205386598Y-193721900D02*
X205458026Y-193650471D01*
X205458026Y-193650471D02*
X205458026Y-193793328D01*
X205458026Y-192864757D02*
X205529455Y-192936185D01*
X205529455Y-192936185D02*
X205458026Y-193007614D01*
X205458026Y-193007614D02*
X205386598Y-192936185D01*
X205386598Y-192936185D02*
X205458026Y-192864757D01*
X205458026Y-192864757D02*
X205458026Y-193007614D01*
X207243741Y-192436185D02*
X207315169Y-192364757D01*
X207315169Y-192364757D02*
X207458027Y-192293328D01*
X207458027Y-192293328D02*
X207815169Y-192293328D01*
X207815169Y-192293328D02*
X207958027Y-192364757D01*
X207958027Y-192364757D02*
X208029455Y-192436185D01*
X208029455Y-192436185D02*
X208100884Y-192579042D01*
X208100884Y-192579042D02*
X208100884Y-192721900D01*
X208100884Y-192721900D02*
X208029455Y-192936185D01*
X208029455Y-192936185D02*
X207172312Y-193793328D01*
X207172312Y-193793328D02*
X208100884Y-193793328D01*
X209029455Y-192293328D02*
X209172312Y-192293328D01*
X209172312Y-192293328D02*
X209315169Y-192364757D01*
X209315169Y-192364757D02*
X209386598Y-192436185D01*
X209386598Y-192436185D02*
X209458026Y-192579042D01*
X209458026Y-192579042D02*
X209529455Y-192864757D01*
X209529455Y-192864757D02*
X209529455Y-193221900D01*
X209529455Y-193221900D02*
X209458026Y-193507614D01*
X209458026Y-193507614D02*
X209386598Y-193650471D01*
X209386598Y-193650471D02*
X209315169Y-193721900D01*
X209315169Y-193721900D02*
X209172312Y-193793328D01*
X209172312Y-193793328D02*
X209029455Y-193793328D01*
X209029455Y-193793328D02*
X208886598Y-193721900D01*
X208886598Y-193721900D02*
X208815169Y-193650471D01*
X208815169Y-193650471D02*
X208743740Y-193507614D01*
X208743740Y-193507614D02*
X208672312Y-193221900D01*
X208672312Y-193221900D02*
X208672312Y-192864757D01*
X208672312Y-192864757D02*
X208743740Y-192579042D01*
X208743740Y-192579042D02*
X208815169Y-192436185D01*
X208815169Y-192436185D02*
X208886598Y-192364757D01*
X208886598Y-192364757D02*
X209029455Y-192293328D01*
X210100883Y-192436185D02*
X210172311Y-192364757D01*
X210172311Y-192364757D02*
X210315169Y-192293328D01*
X210315169Y-192293328D02*
X210672311Y-192293328D01*
X210672311Y-192293328D02*
X210815169Y-192364757D01*
X210815169Y-192364757D02*
X210886597Y-192436185D01*
X210886597Y-192436185D02*
X210958026Y-192579042D01*
X210958026Y-192579042D02*
X210958026Y-192721900D01*
X210958026Y-192721900D02*
X210886597Y-192936185D01*
X210886597Y-192936185D02*
X210029454Y-193793328D01*
X210029454Y-193793328D02*
X210958026Y-193793328D01*
X212243740Y-192793328D02*
X212243740Y-193793328D01*
X211886597Y-192221900D02*
X211529454Y-193293328D01*
X211529454Y-193293328D02*
X212458025Y-193293328D01*
X213029453Y-193221900D02*
X214172311Y-193221900D01*
X215672311Y-193793328D02*
X214815168Y-193793328D01*
X215243739Y-193793328D02*
X215243739Y-192293328D01*
X215243739Y-192293328D02*
X215100882Y-192507614D01*
X215100882Y-192507614D02*
X214958025Y-192650471D01*
X214958025Y-192650471D02*
X214815168Y-192721900D01*
X217100882Y-193793328D02*
X216243739Y-193793328D01*
X216672310Y-193793328D02*
X216672310Y-192293328D01*
X216672310Y-192293328D02*
X216529453Y-192507614D01*
X216529453Y-192507614D02*
X216386596Y-192650471D01*
X216386596Y-192650471D02*
X216243739Y-192721900D01*
X217743738Y-193221900D02*
X218886596Y-193221900D01*
X220386596Y-193793328D02*
X219529453Y-193793328D01*
X219958024Y-193793328D02*
X219958024Y-192293328D01*
X219958024Y-192293328D02*
X219815167Y-192507614D01*
X219815167Y-192507614D02*
X219672310Y-192650471D01*
X219672310Y-192650471D02*
X219529453Y-192721900D01*
X221672310Y-192293328D02*
X221386595Y-192293328D01*
X221386595Y-192293328D02*
X221243738Y-192364757D01*
X221243738Y-192364757D02*
X221172310Y-192436185D01*
X221172310Y-192436185D02*
X221029452Y-192650471D01*
X221029452Y-192650471D02*
X220958024Y-192936185D01*
X220958024Y-192936185D02*
X220958024Y-193507614D01*
X220958024Y-193507614D02*
X221029452Y-193650471D01*
X221029452Y-193650471D02*
X221100881Y-193721900D01*
X221100881Y-193721900D02*
X221243738Y-193793328D01*
X221243738Y-193793328D02*
X221529452Y-193793328D01*
X221529452Y-193793328D02*
X221672310Y-193721900D01*
X221672310Y-193721900D02*
X221743738Y-193650471D01*
X221743738Y-193650471D02*
X221815167Y-193507614D01*
X221815167Y-193507614D02*
X221815167Y-193150471D01*
X221815167Y-193150471D02*
X221743738Y-193007614D01*
X221743738Y-193007614D02*
X221672310Y-192936185D01*
X221672310Y-192936185D02*
X221529452Y-192864757D01*
X221529452Y-192864757D02*
X221243738Y-192864757D01*
X221243738Y-192864757D02*
X221100881Y-192936185D01*
X221100881Y-192936185D02*
X221029452Y-193007614D01*
X221029452Y-193007614D02*
X220958024Y-193150471D01*
D10*
D11*
X177002200Y-194507200D02*
X285002200Y-194507200D01*
D10*
D11*
X178458026Y-196593328D02*
X178458026Y-195093328D01*
X179315169Y-196593328D02*
X178672312Y-195736185D01*
X179315169Y-195093328D02*
X178458026Y-195950471D01*
X179958026Y-196593328D02*
X179958026Y-195593328D01*
X179958026Y-195093328D02*
X179886598Y-195164757D01*
X179886598Y-195164757D02*
X179958026Y-195236185D01*
X179958026Y-195236185D02*
X180029455Y-195164757D01*
X180029455Y-195164757D02*
X179958026Y-195093328D01*
X179958026Y-195093328D02*
X179958026Y-195236185D01*
X181529455Y-196450471D02*
X181458027Y-196521900D01*
X181458027Y-196521900D02*
X181243741Y-196593328D01*
X181243741Y-196593328D02*
X181100884Y-196593328D01*
X181100884Y-196593328D02*
X180886598Y-196521900D01*
X180886598Y-196521900D02*
X180743741Y-196379042D01*
X180743741Y-196379042D02*
X180672312Y-196236185D01*
X180672312Y-196236185D02*
X180600884Y-195950471D01*
X180600884Y-195950471D02*
X180600884Y-195736185D01*
X180600884Y-195736185D02*
X180672312Y-195450471D01*
X180672312Y-195450471D02*
X180743741Y-195307614D01*
X180743741Y-195307614D02*
X180886598Y-195164757D01*
X180886598Y-195164757D02*
X181100884Y-195093328D01*
X181100884Y-195093328D02*
X181243741Y-195093328D01*
X181243741Y-195093328D02*
X181458027Y-195164757D01*
X181458027Y-195164757D02*
X181529455Y-195236185D01*
X182815170Y-196593328D02*
X182815170Y-195807614D01*
X182815170Y-195807614D02*
X182743741Y-195664757D01*
X182743741Y-195664757D02*
X182600884Y-195593328D01*
X182600884Y-195593328D02*
X182315170Y-195593328D01*
X182315170Y-195593328D02*
X182172312Y-195664757D01*
X182815170Y-196521900D02*
X182672312Y-196593328D01*
X182672312Y-196593328D02*
X182315170Y-196593328D01*
X182315170Y-196593328D02*
X182172312Y-196521900D01*
X182172312Y-196521900D02*
X182100884Y-196379042D01*
X182100884Y-196379042D02*
X182100884Y-196236185D01*
X182100884Y-196236185D02*
X182172312Y-196093328D01*
X182172312Y-196093328D02*
X182315170Y-196021900D01*
X182315170Y-196021900D02*
X182672312Y-196021900D01*
X182672312Y-196021900D02*
X182815170Y-195950471D01*
X184172313Y-196593328D02*
X184172313Y-195093328D01*
X184172313Y-196521900D02*
X184029455Y-196593328D01*
X184029455Y-196593328D02*
X183743741Y-196593328D01*
X183743741Y-196593328D02*
X183600884Y-196521900D01*
X183600884Y-196521900D02*
X183529455Y-196450471D01*
X183529455Y-196450471D02*
X183458027Y-196307614D01*
X183458027Y-196307614D02*
X183458027Y-195879042D01*
X183458027Y-195879042D02*
X183529455Y-195736185D01*
X183529455Y-195736185D02*
X183600884Y-195664757D01*
X183600884Y-195664757D02*
X183743741Y-195593328D01*
X183743741Y-195593328D02*
X184029455Y-195593328D01*
X184029455Y-195593328D02*
X184172313Y-195664757D01*
X186029455Y-195807614D02*
X186529455Y-195807614D01*
X186743741Y-196593328D02*
X186029455Y-196593328D01*
X186029455Y-196593328D02*
X186029455Y-195093328D01*
X186029455Y-195093328D02*
X186743741Y-195093328D01*
X187386598Y-196450471D02*
X187458027Y-196521900D01*
X187458027Y-196521900D02*
X187386598Y-196593328D01*
X187386598Y-196593328D02*
X187315170Y-196521900D01*
X187315170Y-196521900D02*
X187386598Y-196450471D01*
X187386598Y-196450471D02*
X187386598Y-196593328D01*
X188100884Y-196593328D02*
X188100884Y-195093328D01*
X188100884Y-195093328D02*
X188458027Y-195093328D01*
X188458027Y-195093328D02*
X188672313Y-195164757D01*
X188672313Y-195164757D02*
X188815170Y-195307614D01*
X188815170Y-195307614D02*
X188886599Y-195450471D01*
X188886599Y-195450471D02*
X188958027Y-195736185D01*
X188958027Y-195736185D02*
X188958027Y-195950471D01*
X188958027Y-195950471D02*
X188886599Y-196236185D01*
X188886599Y-196236185D02*
X188815170Y-196379042D01*
X188815170Y-196379042D02*
X188672313Y-196521900D01*
X188672313Y-196521900D02*
X188458027Y-196593328D01*
X188458027Y-196593328D02*
X188100884Y-196593328D01*
X189600884Y-196450471D02*
X189672313Y-196521900D01*
X189672313Y-196521900D02*
X189600884Y-196593328D01*
X189600884Y-196593328D02*
X189529456Y-196521900D01*
X189529456Y-196521900D02*
X189600884Y-196450471D01*
X189600884Y-196450471D02*
X189600884Y-196593328D01*
X190243742Y-196164757D02*
X190958028Y-196164757D01*
X190100885Y-196593328D02*
X190600885Y-195093328D01*
X190600885Y-195093328D02*
X191100885Y-196593328D01*
X191600884Y-196450471D02*
X191672313Y-196521900D01*
X191672313Y-196521900D02*
X191600884Y-196593328D01*
X191600884Y-196593328D02*
X191529456Y-196521900D01*
X191529456Y-196521900D02*
X191600884Y-196450471D01*
X191600884Y-196450471D02*
X191600884Y-196593328D01*
X193672313Y-195736185D02*
X193529456Y-195664757D01*
X193529456Y-195664757D02*
X193458027Y-195593328D01*
X193458027Y-195593328D02*
X193386599Y-195450471D01*
X193386599Y-195450471D02*
X193386599Y-195379042D01*
X193386599Y-195379042D02*
X193458027Y-195236185D01*
X193458027Y-195236185D02*
X193529456Y-195164757D01*
X193529456Y-195164757D02*
X193672313Y-195093328D01*
X193672313Y-195093328D02*
X193958027Y-195093328D01*
X193958027Y-195093328D02*
X194100885Y-195164757D01*
X194100885Y-195164757D02*
X194172313Y-195236185D01*
X194172313Y-195236185D02*
X194243742Y-195379042D01*
X194243742Y-195379042D02*
X194243742Y-195450471D01*
X194243742Y-195450471D02*
X194172313Y-195593328D01*
X194172313Y-195593328D02*
X194100885Y-195664757D01*
X194100885Y-195664757D02*
X193958027Y-195736185D01*
X193958027Y-195736185D02*
X193672313Y-195736185D01*
X193672313Y-195736185D02*
X193529456Y-195807614D01*
X193529456Y-195807614D02*
X193458027Y-195879042D01*
X193458027Y-195879042D02*
X193386599Y-196021900D01*
X193386599Y-196021900D02*
X193386599Y-196307614D01*
X193386599Y-196307614D02*
X193458027Y-196450471D01*
X193458027Y-196450471D02*
X193529456Y-196521900D01*
X193529456Y-196521900D02*
X193672313Y-196593328D01*
X193672313Y-196593328D02*
X193958027Y-196593328D01*
X193958027Y-196593328D02*
X194100885Y-196521900D01*
X194100885Y-196521900D02*
X194172313Y-196450471D01*
X194172313Y-196450471D02*
X194243742Y-196307614D01*
X194243742Y-196307614D02*
X194243742Y-196021900D01*
X194243742Y-196021900D02*
X194172313Y-195879042D01*
X194172313Y-195879042D02*
X194100885Y-195807614D01*
X194100885Y-195807614D02*
X193958027Y-195736185D01*
X194886598Y-196450471D02*
X194958027Y-196521900D01*
X194958027Y-196521900D02*
X194886598Y-196593328D01*
X194886598Y-196593328D02*
X194815170Y-196521900D01*
X194815170Y-196521900D02*
X194886598Y-196450471D01*
X194886598Y-196450471D02*
X194886598Y-196593328D01*
X195886599Y-195093328D02*
X196029456Y-195093328D01*
X196029456Y-195093328D02*
X196172313Y-195164757D01*
X196172313Y-195164757D02*
X196243742Y-195236185D01*
X196243742Y-195236185D02*
X196315170Y-195379042D01*
X196315170Y-195379042D02*
X196386599Y-195664757D01*
X196386599Y-195664757D02*
X196386599Y-196021900D01*
X196386599Y-196021900D02*
X196315170Y-196307614D01*
X196315170Y-196307614D02*
X196243742Y-196450471D01*
X196243742Y-196450471D02*
X196172313Y-196521900D01*
X196172313Y-196521900D02*
X196029456Y-196593328D01*
X196029456Y-196593328D02*
X195886599Y-196593328D01*
X195886599Y-196593328D02*
X195743742Y-196521900D01*
X195743742Y-196521900D02*
X195672313Y-196450471D01*
X195672313Y-196450471D02*
X195600884Y-196307614D01*
X195600884Y-196307614D02*
X195529456Y-196021900D01*
X195529456Y-196021900D02*
X195529456Y-195664757D01*
X195529456Y-195664757D02*
X195600884Y-195379042D01*
X195600884Y-195379042D02*
X195672313Y-195236185D01*
X195672313Y-195236185D02*
X195743742Y-195164757D01*
X195743742Y-195164757D02*
X195886599Y-195093328D01*
X197029455Y-196450471D02*
X197100884Y-196521900D01*
X197100884Y-196521900D02*
X197029455Y-196593328D01*
X197029455Y-196593328D02*
X196958027Y-196521900D01*
X196958027Y-196521900D02*
X197029455Y-196450471D01*
X197029455Y-196450471D02*
X197029455Y-196593328D01*
X198386599Y-195093328D02*
X198100884Y-195093328D01*
X198100884Y-195093328D02*
X197958027Y-195164757D01*
X197958027Y-195164757D02*
X197886599Y-195236185D01*
X197886599Y-195236185D02*
X197743741Y-195450471D01*
X197743741Y-195450471D02*
X197672313Y-195736185D01*
X197672313Y-195736185D02*
X197672313Y-196307614D01*
X197672313Y-196307614D02*
X197743741Y-196450471D01*
X197743741Y-196450471D02*
X197815170Y-196521900D01*
X197815170Y-196521900D02*
X197958027Y-196593328D01*
X197958027Y-196593328D02*
X198243741Y-196593328D01*
X198243741Y-196593328D02*
X198386599Y-196521900D01*
X198386599Y-196521900D02*
X198458027Y-196450471D01*
X198458027Y-196450471D02*
X198529456Y-196307614D01*
X198529456Y-196307614D02*
X198529456Y-195950471D01*
X198529456Y-195950471D02*
X198458027Y-195807614D01*
X198458027Y-195807614D02*
X198386599Y-195736185D01*
X198386599Y-195736185D02*
X198243741Y-195664757D01*
X198243741Y-195664757D02*
X197958027Y-195664757D01*
X197958027Y-195664757D02*
X197815170Y-195736185D01*
X197815170Y-195736185D02*
X197743741Y-195807614D01*
X197743741Y-195807614D02*
X197672313Y-195950471D01*
D10*
D11*
X177002200Y-191507200D02*
X285002200Y-191507200D01*
D10*
D12*
X264413853Y-193785528D02*
X263913853Y-193071242D01*
X263556710Y-193785528D02*
X263556710Y-192285528D01*
X263556710Y-192285528D02*
X264128139Y-192285528D01*
X264128139Y-192285528D02*
X264270996Y-192356957D01*
X264270996Y-192356957D02*
X264342425Y-192428385D01*
X264342425Y-192428385D02*
X264413853Y-192571242D01*
X264413853Y-192571242D02*
X264413853Y-192785528D01*
X264413853Y-192785528D02*
X264342425Y-192928385D01*
X264342425Y-192928385D02*
X264270996Y-192999814D01*
X264270996Y-192999814D02*
X264128139Y-193071242D01*
X264128139Y-193071242D02*
X263556710Y-193071242D01*
X265628139Y-193714100D02*
X265485282Y-193785528D01*
X265485282Y-193785528D02*
X265199568Y-193785528D01*
X265199568Y-193785528D02*
X265056710Y-193714100D01*
X265056710Y-193714100D02*
X264985282Y-193571242D01*
X264985282Y-193571242D02*
X264985282Y-192999814D01*
X264985282Y-192999814D02*
X265056710Y-192856957D01*
X265056710Y-192856957D02*
X265199568Y-192785528D01*
X265199568Y-192785528D02*
X265485282Y-192785528D01*
X265485282Y-192785528D02*
X265628139Y-192856957D01*
X265628139Y-192856957D02*
X265699568Y-192999814D01*
X265699568Y-192999814D02*
X265699568Y-193142671D01*
X265699568Y-193142671D02*
X264985282Y-193285528D01*
X266199567Y-192785528D02*
X266556710Y-193785528D01*
X266556710Y-193785528D02*
X266913853Y-192785528D01*
X267485281Y-193642671D02*
X267556710Y-193714100D01*
X267556710Y-193714100D02*
X267485281Y-193785528D01*
X267485281Y-193785528D02*
X267413853Y-193714100D01*
X267413853Y-193714100D02*
X267485281Y-193642671D01*
X267485281Y-193642671D02*
X267485281Y-193785528D01*
X267485281Y-192856957D02*
X267556710Y-192928385D01*
X267556710Y-192928385D02*
X267485281Y-192999814D01*
X267485281Y-192999814D02*
X267413853Y-192928385D01*
X267413853Y-192928385D02*
X267485281Y-192856957D01*
X267485281Y-192856957D02*
X267485281Y-192999814D01*
X269628139Y-192285528D02*
X269770996Y-192285528D01*
X269770996Y-192285528D02*
X269913853Y-192356957D01*
X269913853Y-192356957D02*
X269985282Y-192428385D01*
X269985282Y-192428385D02*
X270056710Y-192571242D01*
X270056710Y-192571242D02*
X270128139Y-192856957D01*
X270128139Y-192856957D02*
X270128139Y-193214100D01*
X270128139Y-193214100D02*
X270056710Y-193499814D01*
X270056710Y-193499814D02*
X269985282Y-193642671D01*
X269985282Y-193642671D02*
X269913853Y-193714100D01*
X269913853Y-193714100D02*
X269770996Y-193785528D01*
X269770996Y-193785528D02*
X269628139Y-193785528D01*
X269628139Y-193785528D02*
X269485282Y-193714100D01*
X269485282Y-193714100D02*
X269413853Y-193642671D01*
X269413853Y-193642671D02*
X269342424Y-193499814D01*
X269342424Y-193499814D02*
X269270996Y-193214100D01*
X269270996Y-193214100D02*
X269270996Y-192856957D01*
X269270996Y-192856957D02*
X269342424Y-192571242D01*
X269342424Y-192571242D02*
X269413853Y-192428385D01*
X269413853Y-192428385D02*
X269485282Y-192356957D01*
X269485282Y-192356957D02*
X269628139Y-192285528D01*
X271056710Y-192285528D02*
X271199567Y-192285528D01*
X271199567Y-192285528D02*
X271342424Y-192356957D01*
X271342424Y-192356957D02*
X271413853Y-192428385D01*
X271413853Y-192428385D02*
X271485281Y-192571242D01*
X271485281Y-192571242D02*
X271556710Y-192856957D01*
X271556710Y-192856957D02*
X271556710Y-193214100D01*
X271556710Y-193214100D02*
X271485281Y-193499814D01*
X271485281Y-193499814D02*
X271413853Y-193642671D01*
X271413853Y-193642671D02*
X271342424Y-193714100D01*
X271342424Y-193714100D02*
X271199567Y-193785528D01*
X271199567Y-193785528D02*
X271056710Y-193785528D01*
X271056710Y-193785528D02*
X270913853Y-193714100D01*
X270913853Y-193714100D02*
X270842424Y-193642671D01*
X270842424Y-193642671D02*
X270770995Y-193499814D01*
X270770995Y-193499814D02*
X270699567Y-193214100D01*
X270699567Y-193214100D02*
X270699567Y-192856957D01*
X270699567Y-192856957D02*
X270770995Y-192571242D01*
X270770995Y-192571242D02*
X270842424Y-192428385D01*
X270842424Y-192428385D02*
X270913853Y-192356957D01*
X270913853Y-192356957D02*
X271056710Y-192285528D01*
D10*
D11*
X178386598Y-193721900D02*
X178600884Y-193793328D01*
X178600884Y-193793328D02*
X178958026Y-193793328D01*
X178958026Y-193793328D02*
X179100884Y-193721900D01*
X179100884Y-193721900D02*
X179172312Y-193650471D01*
X179172312Y-193650471D02*
X179243741Y-193507614D01*
X179243741Y-193507614D02*
X179243741Y-193364757D01*
X179243741Y-193364757D02*
X179172312Y-193221900D01*
X179172312Y-193221900D02*
X179100884Y-193150471D01*
X179100884Y-193150471D02*
X178958026Y-193079042D01*
X178958026Y-193079042D02*
X178672312Y-193007614D01*
X178672312Y-193007614D02*
X178529455Y-192936185D01*
X178529455Y-192936185D02*
X178458026Y-192864757D01*
X178458026Y-192864757D02*
X178386598Y-192721900D01*
X178386598Y-192721900D02*
X178386598Y-192579042D01*
X178386598Y-192579042D02*
X178458026Y-192436185D01*
X178458026Y-192436185D02*
X178529455Y-192364757D01*
X178529455Y-192364757D02*
X178672312Y-192293328D01*
X178672312Y-192293328D02*
X179029455Y-192293328D01*
X179029455Y-192293328D02*
X179243741Y-192364757D01*
X179886597Y-193793328D02*
X179886597Y-192793328D01*
X179886597Y-192293328D02*
X179815169Y-192364757D01*
X179815169Y-192364757D02*
X179886597Y-192436185D01*
X179886597Y-192436185D02*
X179958026Y-192364757D01*
X179958026Y-192364757D02*
X179886597Y-192293328D01*
X179886597Y-192293328D02*
X179886597Y-192436185D01*
X180458026Y-192793328D02*
X181243741Y-192793328D01*
X181243741Y-192793328D02*
X180458026Y-193793328D01*
X180458026Y-193793328D02*
X181243741Y-193793328D01*
X182386598Y-193721900D02*
X182243741Y-193793328D01*
X182243741Y-193793328D02*
X181958027Y-193793328D01*
X181958027Y-193793328D02*
X181815169Y-193721900D01*
X181815169Y-193721900D02*
X181743741Y-193579042D01*
X181743741Y-193579042D02*
X181743741Y-193007614D01*
X181743741Y-193007614D02*
X181815169Y-192864757D01*
X181815169Y-192864757D02*
X181958027Y-192793328D01*
X181958027Y-192793328D02*
X182243741Y-192793328D01*
X182243741Y-192793328D02*
X182386598Y-192864757D01*
X182386598Y-192864757D02*
X182458027Y-193007614D01*
X182458027Y-193007614D02*
X182458027Y-193150471D01*
X182458027Y-193150471D02*
X181743741Y-193293328D01*
X183100883Y-193650471D02*
X183172312Y-193721900D01*
X183172312Y-193721900D02*
X183100883Y-193793328D01*
X183100883Y-193793328D02*
X183029455Y-193721900D01*
X183029455Y-193721900D02*
X183100883Y-193650471D01*
X183100883Y-193650471D02*
X183100883Y-193793328D01*
X183100883Y-192864757D02*
X183172312Y-192936185D01*
X183172312Y-192936185D02*
X183100883Y-193007614D01*
X183100883Y-193007614D02*
X183029455Y-192936185D01*
X183029455Y-192936185D02*
X183100883Y-192864757D01*
X183100883Y-192864757D02*
X183100883Y-193007614D01*
X184886598Y-193364757D02*
X185600884Y-193364757D01*
X184743741Y-193793328D02*
X185243741Y-192293328D01*
X185243741Y-192293328D02*
X185743741Y-193793328D01*
X186886598Y-192793328D02*
X186886598Y-193793328D01*
X186529455Y-192221900D02*
X186172312Y-193293328D01*
X186172312Y-193293328D02*
X187100883Y-193293328D01*
D10*
D11*
X263458026Y-196593328D02*
X263458026Y-195093328D01*
X264815170Y-196593328D02*
X264815170Y-195093328D01*
X264815170Y-196521900D02*
X264672312Y-196593328D01*
X264672312Y-196593328D02*
X264386598Y-196593328D01*
X264386598Y-196593328D02*
X264243741Y-196521900D01*
X264243741Y-196521900D02*
X264172312Y-196450471D01*
X264172312Y-196450471D02*
X264100884Y-196307614D01*
X264100884Y-196307614D02*
X264100884Y-195879042D01*
X264100884Y-195879042D02*
X264172312Y-195736185D01*
X264172312Y-195736185D02*
X264243741Y-195664757D01*
X264243741Y-195664757D02*
X264386598Y-195593328D01*
X264386598Y-195593328D02*
X264672312Y-195593328D01*
X264672312Y-195593328D02*
X264815170Y-195664757D01*
X265529455Y-196450471D02*
X265600884Y-196521900D01*
X265600884Y-196521900D02*
X265529455Y-196593328D01*
X265529455Y-196593328D02*
X265458027Y-196521900D01*
X265458027Y-196521900D02*
X265529455Y-196450471D01*
X265529455Y-196450471D02*
X265529455Y-196593328D01*
X265529455Y-195664757D02*
X265600884Y-195736185D01*
X265600884Y-195736185D02*
X265529455Y-195807614D01*
X265529455Y-195807614D02*
X265458027Y-195736185D01*
X265458027Y-195736185D02*
X265529455Y-195664757D01*
X265529455Y-195664757D02*
X265529455Y-195807614D01*
X268172313Y-196593328D02*
X267315170Y-196593328D01*
X267743741Y-196593328D02*
X267743741Y-195093328D01*
X267743741Y-195093328D02*
X267600884Y-195307614D01*
X267600884Y-195307614D02*
X267458027Y-195450471D01*
X267458027Y-195450471D02*
X267315170Y-195521900D01*
X269886598Y-195021900D02*
X268600884Y-196950471D01*
X271172313Y-196593328D02*
X270315170Y-196593328D01*
X270743741Y-196593328D02*
X270743741Y-195093328D01*
X270743741Y-195093328D02*
X270600884Y-195307614D01*
X270600884Y-195307614D02*
X270458027Y-195450471D01*
X270458027Y-195450471D02*
X270315170Y-195521900D01*
D10*
D11*
X177002200Y-187507200D02*
X285002200Y-187507200D01*
D10*
D13*
X178693928Y-188211638D02*
X179836785Y-188211638D01*
X179015357Y-190211638D02*
X179265357Y-188211638D01*
X180253452Y-190211638D02*
X180420119Y-188878304D01*
X180503452Y-188211638D02*
X180396309Y-188306876D01*
X180396309Y-188306876D02*
X180479643Y-188402114D01*
X180479643Y-188402114D02*
X180586786Y-188306876D01*
X180586786Y-188306876D02*
X180503452Y-188211638D01*
X180503452Y-188211638D02*
X180479643Y-188402114D01*
X181086786Y-188878304D02*
X181848690Y-188878304D01*
X181455833Y-188211638D02*
X181241548Y-189925923D01*
X181241548Y-189925923D02*
X181312976Y-190116400D01*
X181312976Y-190116400D02*
X181491548Y-190211638D01*
X181491548Y-190211638D02*
X181682024Y-190211638D01*
X182634405Y-190211638D02*
X182455833Y-190116400D01*
X182455833Y-190116400D02*
X182384405Y-189925923D01*
X182384405Y-189925923D02*
X182598690Y-188211638D01*
X184170119Y-190116400D02*
X183967738Y-190211638D01*
X183967738Y-190211638D02*
X183586785Y-190211638D01*
X183586785Y-190211638D02*
X183408214Y-190116400D01*
X183408214Y-190116400D02*
X183336785Y-189925923D01*
X183336785Y-189925923D02*
X183432024Y-189164019D01*
X183432024Y-189164019D02*
X183551071Y-188973542D01*
X183551071Y-188973542D02*
X183753452Y-188878304D01*
X183753452Y-188878304D02*
X184134404Y-188878304D01*
X184134404Y-188878304D02*
X184312976Y-188973542D01*
X184312976Y-188973542D02*
X184384404Y-189164019D01*
X184384404Y-189164019D02*
X184360595Y-189354495D01*
X184360595Y-189354495D02*
X183384404Y-189544971D01*
X185134405Y-190021161D02*
X185217738Y-190116400D01*
X185217738Y-190116400D02*
X185110595Y-190211638D01*
X185110595Y-190211638D02*
X185027262Y-190116400D01*
X185027262Y-190116400D02*
X185134405Y-190021161D01*
X185134405Y-190021161D02*
X185110595Y-190211638D01*
X185265357Y-188973542D02*
X185348690Y-189068780D01*
X185348690Y-189068780D02*
X185241548Y-189164019D01*
X185241548Y-189164019D02*
X185158214Y-189068780D01*
X185158214Y-189068780D02*
X185265357Y-188973542D01*
X185265357Y-188973542D02*
X185241548Y-189164019D01*
X187717739Y-189164019D02*
X188384405Y-189164019D01*
X188539167Y-190211638D02*
X187586786Y-190211638D01*
X187586786Y-190211638D02*
X187836786Y-188211638D01*
X187836786Y-188211638D02*
X188789167Y-188211638D01*
X189396310Y-190211638D02*
X189646310Y-188211638D01*
X189646310Y-188211638D02*
X190134405Y-189640209D01*
X190134405Y-189640209D02*
X190979644Y-188211638D01*
X190979644Y-188211638D02*
X190729644Y-190211638D01*
X192479643Y-189164019D02*
X192753453Y-189259257D01*
X192753453Y-189259257D02*
X192836786Y-189354495D01*
X192836786Y-189354495D02*
X192908215Y-189544971D01*
X192908215Y-189544971D02*
X192872500Y-189830685D01*
X192872500Y-189830685D02*
X192753453Y-190021161D01*
X192753453Y-190021161D02*
X192646310Y-190116400D01*
X192646310Y-190116400D02*
X192443929Y-190211638D01*
X192443929Y-190211638D02*
X191682024Y-190211638D01*
X191682024Y-190211638D02*
X191932024Y-188211638D01*
X191932024Y-188211638D02*
X192598691Y-188211638D01*
X192598691Y-188211638D02*
X192777262Y-188306876D01*
X192777262Y-188306876D02*
X192860596Y-188402114D01*
X192860596Y-188402114D02*
X192932024Y-188592590D01*
X192932024Y-188592590D02*
X192908215Y-188783066D01*
X192908215Y-188783066D02*
X192789167Y-188973542D01*
X192789167Y-188973542D02*
X192682024Y-189068780D01*
X192682024Y-189068780D02*
X192479643Y-189164019D01*
X192479643Y-189164019D02*
X191812977Y-189164019D01*
X193658215Y-189640209D02*
X194610596Y-189640209D01*
X193396310Y-190211638D02*
X194312977Y-188211638D01*
X194312977Y-188211638D02*
X194729643Y-190211638D01*
X196539167Y-190211638D02*
X195991548Y-189259257D01*
X195396310Y-190211638D02*
X195646310Y-188211638D01*
X195646310Y-188211638D02*
X196408215Y-188211638D01*
X196408215Y-188211638D02*
X196586786Y-188306876D01*
X196586786Y-188306876D02*
X196670120Y-188402114D01*
X196670120Y-188402114D02*
X196741548Y-188592590D01*
X196741548Y-188592590D02*
X196705834Y-188878304D01*
X196705834Y-188878304D02*
X196586786Y-189068780D01*
X196586786Y-189068780D02*
X196479644Y-189164019D01*
X196479644Y-189164019D02*
X196277263Y-189259257D01*
X196277263Y-189259257D02*
X195515358Y-189259257D01*
X198562977Y-190021161D02*
X198455834Y-190116400D01*
X198455834Y-190116400D02*
X198158215Y-190211638D01*
X198158215Y-190211638D02*
X197967739Y-190211638D01*
X197967739Y-190211638D02*
X197693929Y-190116400D01*
X197693929Y-190116400D02*
X197527263Y-189925923D01*
X197527263Y-189925923D02*
X197455834Y-189735447D01*
X197455834Y-189735447D02*
X197408215Y-189354495D01*
X197408215Y-189354495D02*
X197443929Y-189068780D01*
X197443929Y-189068780D02*
X197586786Y-188687828D01*
X197586786Y-188687828D02*
X197705834Y-188497352D01*
X197705834Y-188497352D02*
X197920120Y-188306876D01*
X197920120Y-188306876D02*
X198217739Y-188211638D01*
X198217739Y-188211638D02*
X198408215Y-188211638D01*
X198408215Y-188211638D02*
X198682025Y-188306876D01*
X198682025Y-188306876D02*
X198765358Y-188402114D01*
X199372501Y-189640209D02*
X200324882Y-189640209D01*
X199110596Y-190211638D02*
X200027263Y-188211638D01*
X200027263Y-188211638D02*
X200443929Y-190211638D01*
X201110596Y-190211638D02*
X201360596Y-188211638D01*
X201360596Y-188211638D02*
X201836787Y-188211638D01*
X201836787Y-188211638D02*
X202110596Y-188306876D01*
X202110596Y-188306876D02*
X202277263Y-188497352D01*
X202277263Y-188497352D02*
X202348691Y-188687828D01*
X202348691Y-188687828D02*
X202396311Y-189068780D01*
X202396311Y-189068780D02*
X202360596Y-189354495D01*
X202360596Y-189354495D02*
X202217739Y-189735447D01*
X202217739Y-189735447D02*
X202098691Y-189925923D01*
X202098691Y-189925923D02*
X201884406Y-190116400D01*
X201884406Y-190116400D02*
X201586787Y-190211638D01*
X201586787Y-190211638D02*
X201110596Y-190211638D01*
X203741549Y-188211638D02*
X204122501Y-188211638D01*
X204122501Y-188211638D02*
X204301072Y-188306876D01*
X204301072Y-188306876D02*
X204467739Y-188497352D01*
X204467739Y-188497352D02*
X204515358Y-188878304D01*
X204515358Y-188878304D02*
X204432025Y-189544971D01*
X204432025Y-189544971D02*
X204289168Y-189925923D01*
X204289168Y-189925923D02*
X204074882Y-190116400D01*
X204074882Y-190116400D02*
X203872501Y-190211638D01*
X203872501Y-190211638D02*
X203491549Y-190211638D01*
X203491549Y-190211638D02*
X203312977Y-190116400D01*
X203312977Y-190116400D02*
X203146311Y-189925923D01*
X203146311Y-189925923D02*
X203098691Y-189544971D01*
X203098691Y-189544971D02*
X203182025Y-188878304D01*
X203182025Y-188878304D02*
X203324882Y-188497352D01*
X203324882Y-188497352D02*
X203539168Y-188306876D01*
X203539168Y-188306876D02*
X203741549Y-188211638D01*
X205122501Y-190116400D02*
X205396310Y-190211638D01*
X205396310Y-190211638D02*
X205872501Y-190211638D01*
X205872501Y-190211638D02*
X206074882Y-190116400D01*
X206074882Y-190116400D02*
X206182025Y-190021161D01*
X206182025Y-190021161D02*
X206301072Y-189830685D01*
X206301072Y-189830685D02*
X206324882Y-189640209D01*
X206324882Y-189640209D02*
X206253453Y-189449733D01*
X206253453Y-189449733D02*
X206170120Y-189354495D01*
X206170120Y-189354495D02*
X205991549Y-189259257D01*
X205991549Y-189259257D02*
X205622501Y-189164019D01*
X205622501Y-189164019D02*
X205443929Y-189068780D01*
X205443929Y-189068780D02*
X205360596Y-188973542D01*
X205360596Y-188973542D02*
X205289168Y-188783066D01*
X205289168Y-188783066D02*
X205312977Y-188592590D01*
X205312977Y-188592590D02*
X205432025Y-188402114D01*
X205432025Y-188402114D02*
X205539168Y-188306876D01*
X205539168Y-188306876D02*
X205741549Y-188211638D01*
X205741549Y-188211638D02*
X206217739Y-188211638D01*
X206217739Y-188211638D02*
X206491549Y-188306876D01*
X208729644Y-189449733D02*
X210253454Y-189449733D01*
X213801073Y-190021161D02*
X213693930Y-190116400D01*
X213693930Y-190116400D02*
X213396311Y-190211638D01*
X213396311Y-190211638D02*
X213205835Y-190211638D01*
X213205835Y-190211638D02*
X212932025Y-190116400D01*
X212932025Y-190116400D02*
X212765359Y-189925923D01*
X212765359Y-189925923D02*
X212693930Y-189735447D01*
X212693930Y-189735447D02*
X212646311Y-189354495D01*
X212646311Y-189354495D02*
X212682025Y-189068780D01*
X212682025Y-189068780D02*
X212824882Y-188687828D01*
X212824882Y-188687828D02*
X212943930Y-188497352D01*
X212943930Y-188497352D02*
X213158216Y-188306876D01*
X213158216Y-188306876D02*
X213455835Y-188211638D01*
X213455835Y-188211638D02*
X213646311Y-188211638D01*
X213646311Y-188211638D02*
X213920121Y-188306876D01*
X213920121Y-188306876D02*
X214003454Y-188402114D01*
X214884406Y-188211638D02*
X214682025Y-189830685D01*
X214682025Y-189830685D02*
X214753454Y-190021161D01*
X214753454Y-190021161D02*
X214836787Y-190116400D01*
X214836787Y-190116400D02*
X215015359Y-190211638D01*
X215015359Y-190211638D02*
X215396311Y-190211638D01*
X215396311Y-190211638D02*
X215598692Y-190116400D01*
X215598692Y-190116400D02*
X215705835Y-190021161D01*
X215705835Y-190021161D02*
X215824882Y-189830685D01*
X215824882Y-189830685D02*
X216027263Y-188211638D01*
X217872501Y-190211638D02*
X217324882Y-189259257D01*
X216729644Y-190211638D02*
X216979644Y-188211638D01*
X216979644Y-188211638D02*
X217741549Y-188211638D01*
X217741549Y-188211638D02*
X217920120Y-188306876D01*
X217920120Y-188306876D02*
X218003454Y-188402114D01*
X218003454Y-188402114D02*
X218074882Y-188592590D01*
X218074882Y-188592590D02*
X218039168Y-188878304D01*
X218039168Y-188878304D02*
X217920120Y-189068780D01*
X217920120Y-189068780D02*
X217812978Y-189164019D01*
X217812978Y-189164019D02*
X217610597Y-189259257D01*
X217610597Y-189259257D02*
X216848692Y-189259257D01*
X218646311Y-190116400D02*
X218920120Y-190211638D01*
X218920120Y-190211638D02*
X219396311Y-190211638D01*
X219396311Y-190211638D02*
X219598692Y-190116400D01*
X219598692Y-190116400D02*
X219705835Y-190021161D01*
X219705835Y-190021161D02*
X219824882Y-189830685D01*
X219824882Y-189830685D02*
X219848692Y-189640209D01*
X219848692Y-189640209D02*
X219777263Y-189449733D01*
X219777263Y-189449733D02*
X219693930Y-189354495D01*
X219693930Y-189354495D02*
X219515359Y-189259257D01*
X219515359Y-189259257D02*
X219146311Y-189164019D01*
X219146311Y-189164019D02*
X218967739Y-189068780D01*
X218967739Y-189068780D02*
X218884406Y-188973542D01*
X218884406Y-188973542D02*
X218812978Y-188783066D01*
X218812978Y-188783066D02*
X218836787Y-188592590D01*
X218836787Y-188592590D02*
X218955835Y-188402114D01*
X218955835Y-188402114D02*
X219062978Y-188306876D01*
X219062978Y-188306876D02*
X219265359Y-188211638D01*
X219265359Y-188211638D02*
X219741549Y-188211638D01*
X219741549Y-188211638D02*
X220015359Y-188306876D01*
X221265359Y-188211638D02*
X221646311Y-188211638D01*
X221646311Y-188211638D02*
X221824882Y-188306876D01*
X221824882Y-188306876D02*
X221991549Y-188497352D01*
X221991549Y-188497352D02*
X222039168Y-188878304D01*
X222039168Y-188878304D02*
X221955835Y-189544971D01*
X221955835Y-189544971D02*
X221812978Y-189925923D01*
X221812978Y-189925923D02*
X221598692Y-190116400D01*
X221598692Y-190116400D02*
X221396311Y-190211638D01*
X221396311Y-190211638D02*
X221015359Y-190211638D01*
X221015359Y-190211638D02*
X220836787Y-190116400D01*
X220836787Y-190116400D02*
X220670121Y-189925923D01*
X220670121Y-189925923D02*
X220622501Y-189544971D01*
X220622501Y-189544971D02*
X220705835Y-188878304D01*
X220705835Y-188878304D02*
X220848692Y-188497352D01*
X220848692Y-188497352D02*
X221062978Y-188306876D01*
X221062978Y-188306876D02*
X221265359Y-188211638D01*
X224253454Y-190211638D02*
X224503454Y-188211638D01*
X224503454Y-188211638D02*
X225265359Y-188211638D01*
X225265359Y-188211638D02*
X225443930Y-188306876D01*
X225443930Y-188306876D02*
X225527264Y-188402114D01*
X225527264Y-188402114D02*
X225598692Y-188592590D01*
X225598692Y-188592590D02*
X225562978Y-188878304D01*
X225562978Y-188878304D02*
X225443930Y-189068780D01*
X225443930Y-189068780D02*
X225336788Y-189164019D01*
X225336788Y-189164019D02*
X225134407Y-189259257D01*
X225134407Y-189259257D02*
X224372502Y-189259257D01*
X227420121Y-190021161D02*
X227312978Y-190116400D01*
X227312978Y-190116400D02*
X227015359Y-190211638D01*
X227015359Y-190211638D02*
X226824883Y-190211638D01*
X226824883Y-190211638D02*
X226551073Y-190116400D01*
X226551073Y-190116400D02*
X226384407Y-189925923D01*
X226384407Y-189925923D02*
X226312978Y-189735447D01*
X226312978Y-189735447D02*
X226265359Y-189354495D01*
X226265359Y-189354495D02*
X226301073Y-189068780D01*
X226301073Y-189068780D02*
X226443930Y-188687828D01*
X226443930Y-188687828D02*
X226562978Y-188497352D01*
X226562978Y-188497352D02*
X226777264Y-188306876D01*
X226777264Y-188306876D02*
X227074883Y-188211638D01*
X227074883Y-188211638D02*
X227265359Y-188211638D01*
X227265359Y-188211638D02*
X227539169Y-188306876D01*
X227539169Y-188306876D02*
X227622502Y-188402114D01*
X229051073Y-189164019D02*
X229324883Y-189259257D01*
X229324883Y-189259257D02*
X229408216Y-189354495D01*
X229408216Y-189354495D02*
X229479645Y-189544971D01*
X229479645Y-189544971D02*
X229443930Y-189830685D01*
X229443930Y-189830685D02*
X229324883Y-190021161D01*
X229324883Y-190021161D02*
X229217740Y-190116400D01*
X229217740Y-190116400D02*
X229015359Y-190211638D01*
X229015359Y-190211638D02*
X228253454Y-190211638D01*
X228253454Y-190211638D02*
X228503454Y-188211638D01*
X228503454Y-188211638D02*
X229170121Y-188211638D01*
X229170121Y-188211638D02*
X229348692Y-188306876D01*
X229348692Y-188306876D02*
X229432026Y-188402114D01*
X229432026Y-188402114D02*
X229503454Y-188592590D01*
X229503454Y-188592590D02*
X229479645Y-188783066D01*
X229479645Y-188783066D02*
X229360597Y-188973542D01*
X229360597Y-188973542D02*
X229253454Y-189068780D01*
X229253454Y-189068780D02*
X229051073Y-189164019D01*
X229051073Y-189164019D02*
X228384407Y-189164019D01*
D10*
D11*
X178958026Y-185607614D02*
X178458026Y-185607614D01*
X178458026Y-186393328D02*
X178458026Y-184893328D01*
X178458026Y-184893328D02*
X179172312Y-184893328D01*
X179743740Y-186393328D02*
X179743740Y-185393328D01*
X179743740Y-184893328D02*
X179672312Y-184964757D01*
X179672312Y-184964757D02*
X179743740Y-185036185D01*
X179743740Y-185036185D02*
X179815169Y-184964757D01*
X179815169Y-184964757D02*
X179743740Y-184893328D01*
X179743740Y-184893328D02*
X179743740Y-185036185D01*
X180672312Y-186393328D02*
X180529455Y-186321900D01*
X180529455Y-186321900D02*
X180458026Y-186179042D01*
X180458026Y-186179042D02*
X180458026Y-184893328D01*
X181815169Y-186321900D02*
X181672312Y-186393328D01*
X181672312Y-186393328D02*
X181386598Y-186393328D01*
X181386598Y-186393328D02*
X181243740Y-186321900D01*
X181243740Y-186321900D02*
X181172312Y-186179042D01*
X181172312Y-186179042D02*
X181172312Y-185607614D01*
X181172312Y-185607614D02*
X181243740Y-185464757D01*
X181243740Y-185464757D02*
X181386598Y-185393328D01*
X181386598Y-185393328D02*
X181672312Y-185393328D01*
X181672312Y-185393328D02*
X181815169Y-185464757D01*
X181815169Y-185464757D02*
X181886598Y-185607614D01*
X181886598Y-185607614D02*
X181886598Y-185750471D01*
X181886598Y-185750471D02*
X181172312Y-185893328D01*
X182529454Y-186250471D02*
X182600883Y-186321900D01*
X182600883Y-186321900D02*
X182529454Y-186393328D01*
X182529454Y-186393328D02*
X182458026Y-186321900D01*
X182458026Y-186321900D02*
X182529454Y-186250471D01*
X182529454Y-186250471D02*
X182529454Y-186393328D01*
X182529454Y-185464757D02*
X182600883Y-185536185D01*
X182600883Y-185536185D02*
X182529454Y-185607614D01*
X182529454Y-185607614D02*
X182458026Y-185536185D01*
X182458026Y-185536185D02*
X182529454Y-185464757D01*
X182529454Y-185464757D02*
X182529454Y-185607614D01*
X184386597Y-185607614D02*
X184886597Y-185607614D01*
X185100883Y-186393328D02*
X184386597Y-186393328D01*
X184386597Y-186393328D02*
X184386597Y-184893328D01*
X184386597Y-184893328D02*
X185100883Y-184893328D01*
X185743740Y-186393328D02*
X185743740Y-184893328D01*
X185743740Y-184893328D02*
X186243740Y-185964757D01*
X186243740Y-185964757D02*
X186743740Y-184893328D01*
X186743740Y-184893328D02*
X186743740Y-186393328D01*
X187958026Y-185607614D02*
X188172312Y-185679042D01*
X188172312Y-185679042D02*
X188243741Y-185750471D01*
X188243741Y-185750471D02*
X188315169Y-185893328D01*
X188315169Y-185893328D02*
X188315169Y-186107614D01*
X188315169Y-186107614D02*
X188243741Y-186250471D01*
X188243741Y-186250471D02*
X188172312Y-186321900D01*
X188172312Y-186321900D02*
X188029455Y-186393328D01*
X188029455Y-186393328D02*
X187458026Y-186393328D01*
X187458026Y-186393328D02*
X187458026Y-184893328D01*
X187458026Y-184893328D02*
X187958026Y-184893328D01*
X187958026Y-184893328D02*
X188100884Y-184964757D01*
X188100884Y-184964757D02*
X188172312Y-185036185D01*
X188172312Y-185036185D02*
X188243741Y-185179042D01*
X188243741Y-185179042D02*
X188243741Y-185321900D01*
X188243741Y-185321900D02*
X188172312Y-185464757D01*
X188172312Y-185464757D02*
X188100884Y-185536185D01*
X188100884Y-185536185D02*
X187958026Y-185607614D01*
X187958026Y-185607614D02*
X187458026Y-185607614D01*
X188886598Y-185964757D02*
X189600884Y-185964757D01*
X188743741Y-186393328D02*
X189243741Y-184893328D01*
X189243741Y-184893328D02*
X189743741Y-186393328D01*
X191100883Y-186393328D02*
X190600883Y-185679042D01*
X190243740Y-186393328D02*
X190243740Y-184893328D01*
X190243740Y-184893328D02*
X190815169Y-184893328D01*
X190815169Y-184893328D02*
X190958026Y-184964757D01*
X190958026Y-184964757D02*
X191029455Y-185036185D01*
X191029455Y-185036185D02*
X191100883Y-185179042D01*
X191100883Y-185179042D02*
X191100883Y-185393328D01*
X191100883Y-185393328D02*
X191029455Y-185536185D01*
X191029455Y-185536185D02*
X190958026Y-185607614D01*
X190958026Y-185607614D02*
X190815169Y-185679042D01*
X190815169Y-185679042D02*
X190243740Y-185679042D01*
X192600883Y-186250471D02*
X192529455Y-186321900D01*
X192529455Y-186321900D02*
X192315169Y-186393328D01*
X192315169Y-186393328D02*
X192172312Y-186393328D01*
X192172312Y-186393328D02*
X191958026Y-186321900D01*
X191958026Y-186321900D02*
X191815169Y-186179042D01*
X191815169Y-186179042D02*
X191743740Y-186036185D01*
X191743740Y-186036185D02*
X191672312Y-185750471D01*
X191672312Y-185750471D02*
X191672312Y-185536185D01*
X191672312Y-185536185D02*
X191743740Y-185250471D01*
X191743740Y-185250471D02*
X191815169Y-185107614D01*
X191815169Y-185107614D02*
X191958026Y-184964757D01*
X191958026Y-184964757D02*
X192172312Y-184893328D01*
X192172312Y-184893328D02*
X192315169Y-184893328D01*
X192315169Y-184893328D02*
X192529455Y-184964757D01*
X192529455Y-184964757D02*
X192600883Y-185036185D01*
X193172312Y-185964757D02*
X193886598Y-185964757D01*
X193029455Y-186393328D02*
X193529455Y-184893328D01*
X193529455Y-184893328D02*
X194029455Y-186393328D01*
X194529454Y-186393328D02*
X194529454Y-184893328D01*
X194529454Y-184893328D02*
X194886597Y-184893328D01*
X194886597Y-184893328D02*
X195100883Y-184964757D01*
X195100883Y-184964757D02*
X195243740Y-185107614D01*
X195243740Y-185107614D02*
X195315169Y-185250471D01*
X195315169Y-185250471D02*
X195386597Y-185536185D01*
X195386597Y-185536185D02*
X195386597Y-185750471D01*
X195386597Y-185750471D02*
X195315169Y-186036185D01*
X195315169Y-186036185D02*
X195243740Y-186179042D01*
X195243740Y-186179042D02*
X195100883Y-186321900D01*
X195100883Y-186321900D02*
X194886597Y-186393328D01*
X194886597Y-186393328D02*
X194529454Y-186393328D01*
X196315169Y-184893328D02*
X196600883Y-184893328D01*
X196600883Y-184893328D02*
X196743740Y-184964757D01*
X196743740Y-184964757D02*
X196886597Y-185107614D01*
X196886597Y-185107614D02*
X196958026Y-185393328D01*
X196958026Y-185393328D02*
X196958026Y-185893328D01*
X196958026Y-185893328D02*
X196886597Y-186179042D01*
X196886597Y-186179042D02*
X196743740Y-186321900D01*
X196743740Y-186321900D02*
X196600883Y-186393328D01*
X196600883Y-186393328D02*
X196315169Y-186393328D01*
X196315169Y-186393328D02*
X196172312Y-186321900D01*
X196172312Y-186321900D02*
X196029454Y-186179042D01*
X196029454Y-186179042D02*
X195958026Y-185893328D01*
X195958026Y-185893328D02*
X195958026Y-185393328D01*
X195958026Y-185393328D02*
X196029454Y-185107614D01*
X196029454Y-185107614D02*
X196172312Y-184964757D01*
X196172312Y-184964757D02*
X196315169Y-184893328D01*
X197529455Y-186321900D02*
X197743741Y-186393328D01*
X197743741Y-186393328D02*
X198100883Y-186393328D01*
X198100883Y-186393328D02*
X198243741Y-186321900D01*
X198243741Y-186321900D02*
X198315169Y-186250471D01*
X198315169Y-186250471D02*
X198386598Y-186107614D01*
X198386598Y-186107614D02*
X198386598Y-185964757D01*
X198386598Y-185964757D02*
X198315169Y-185821900D01*
X198315169Y-185821900D02*
X198243741Y-185750471D01*
X198243741Y-185750471D02*
X198100883Y-185679042D01*
X198100883Y-185679042D02*
X197815169Y-185607614D01*
X197815169Y-185607614D02*
X197672312Y-185536185D01*
X197672312Y-185536185D02*
X197600883Y-185464757D01*
X197600883Y-185464757D02*
X197529455Y-185321900D01*
X197529455Y-185321900D02*
X197529455Y-185179042D01*
X197529455Y-185179042D02*
X197600883Y-185036185D01*
X197600883Y-185036185D02*
X197672312Y-184964757D01*
X197672312Y-184964757D02*
X197815169Y-184893328D01*
X197815169Y-184893328D02*
X198172312Y-184893328D01*
X198172312Y-184893328D02*
X198386598Y-184964757D01*
X200172311Y-185821900D02*
X201315169Y-185821900D01*
X204029454Y-186250471D02*
X203958026Y-186321900D01*
X203958026Y-186321900D02*
X203743740Y-186393328D01*
X203743740Y-186393328D02*
X203600883Y-186393328D01*
X203600883Y-186393328D02*
X203386597Y-186321900D01*
X203386597Y-186321900D02*
X203243740Y-186179042D01*
X203243740Y-186179042D02*
X203172311Y-186036185D01*
X203172311Y-186036185D02*
X203100883Y-185750471D01*
X203100883Y-185750471D02*
X203100883Y-185536185D01*
X203100883Y-185536185D02*
X203172311Y-185250471D01*
X203172311Y-185250471D02*
X203243740Y-185107614D01*
X203243740Y-185107614D02*
X203386597Y-184964757D01*
X203386597Y-184964757D02*
X203600883Y-184893328D01*
X203600883Y-184893328D02*
X203743740Y-184893328D01*
X203743740Y-184893328D02*
X203958026Y-184964757D01*
X203958026Y-184964757D02*
X204029454Y-185036185D01*
X204672311Y-184893328D02*
X204672311Y-186107614D01*
X204672311Y-186107614D02*
X204743740Y-186250471D01*
X204743740Y-186250471D02*
X204815169Y-186321900D01*
X204815169Y-186321900D02*
X204958026Y-186393328D01*
X204958026Y-186393328D02*
X205243740Y-186393328D01*
X205243740Y-186393328D02*
X205386597Y-186321900D01*
X205386597Y-186321900D02*
X205458026Y-186250471D01*
X205458026Y-186250471D02*
X205529454Y-186107614D01*
X205529454Y-186107614D02*
X205529454Y-184893328D01*
X207100883Y-186393328D02*
X206600883Y-185679042D01*
X206243740Y-186393328D02*
X206243740Y-184893328D01*
X206243740Y-184893328D02*
X206815169Y-184893328D01*
X206815169Y-184893328D02*
X206958026Y-184964757D01*
X206958026Y-184964757D02*
X207029455Y-185036185D01*
X207029455Y-185036185D02*
X207100883Y-185179042D01*
X207100883Y-185179042D02*
X207100883Y-185393328D01*
X207100883Y-185393328D02*
X207029455Y-185536185D01*
X207029455Y-185536185D02*
X206958026Y-185607614D01*
X206958026Y-185607614D02*
X206815169Y-185679042D01*
X206815169Y-185679042D02*
X206243740Y-185679042D01*
X207672312Y-186321900D02*
X207886598Y-186393328D01*
X207886598Y-186393328D02*
X208243740Y-186393328D01*
X208243740Y-186393328D02*
X208386598Y-186321900D01*
X208386598Y-186321900D02*
X208458026Y-186250471D01*
X208458026Y-186250471D02*
X208529455Y-186107614D01*
X208529455Y-186107614D02*
X208529455Y-185964757D01*
X208529455Y-185964757D02*
X208458026Y-185821900D01*
X208458026Y-185821900D02*
X208386598Y-185750471D01*
X208386598Y-185750471D02*
X208243740Y-185679042D01*
X208243740Y-185679042D02*
X207958026Y-185607614D01*
X207958026Y-185607614D02*
X207815169Y-185536185D01*
X207815169Y-185536185D02*
X207743740Y-185464757D01*
X207743740Y-185464757D02*
X207672312Y-185321900D01*
X207672312Y-185321900D02*
X207672312Y-185179042D01*
X207672312Y-185179042D02*
X207743740Y-185036185D01*
X207743740Y-185036185D02*
X207815169Y-184964757D01*
X207815169Y-184964757D02*
X207958026Y-184893328D01*
X207958026Y-184893328D02*
X208315169Y-184893328D01*
X208315169Y-184893328D02*
X208529455Y-184964757D01*
X209458026Y-184893328D02*
X209743740Y-184893328D01*
X209743740Y-184893328D02*
X209886597Y-184964757D01*
X209886597Y-184964757D02*
X210029454Y-185107614D01*
X210029454Y-185107614D02*
X210100883Y-185393328D01*
X210100883Y-185393328D02*
X210100883Y-185893328D01*
X210100883Y-185893328D02*
X210029454Y-186179042D01*
X210029454Y-186179042D02*
X209886597Y-186321900D01*
X209886597Y-186321900D02*
X209743740Y-186393328D01*
X209743740Y-186393328D02*
X209458026Y-186393328D01*
X209458026Y-186393328D02*
X209315169Y-186321900D01*
X209315169Y-186321900D02*
X209172311Y-186179042D01*
X209172311Y-186179042D02*
X209100883Y-185893328D01*
X209100883Y-185893328D02*
X209100883Y-185393328D01*
X209100883Y-185393328D02*
X209172311Y-185107614D01*
X209172311Y-185107614D02*
X209315169Y-184964757D01*
X209315169Y-184964757D02*
X209458026Y-184893328D01*
X211886597Y-186393328D02*
X211886597Y-184893328D01*
X211886597Y-184893328D02*
X212458026Y-184893328D01*
X212458026Y-184893328D02*
X212600883Y-184964757D01*
X212600883Y-184964757D02*
X212672312Y-185036185D01*
X212672312Y-185036185D02*
X212743740Y-185179042D01*
X212743740Y-185179042D02*
X212743740Y-185393328D01*
X212743740Y-185393328D02*
X212672312Y-185536185D01*
X212672312Y-185536185D02*
X212600883Y-185607614D01*
X212600883Y-185607614D02*
X212458026Y-185679042D01*
X212458026Y-185679042D02*
X211886597Y-185679042D01*
X214243740Y-186250471D02*
X214172312Y-186321900D01*
X214172312Y-186321900D02*
X213958026Y-186393328D01*
X213958026Y-186393328D02*
X213815169Y-186393328D01*
X213815169Y-186393328D02*
X213600883Y-186321900D01*
X213600883Y-186321900D02*
X213458026Y-186179042D01*
X213458026Y-186179042D02*
X213386597Y-186036185D01*
X213386597Y-186036185D02*
X213315169Y-185750471D01*
X213315169Y-185750471D02*
X213315169Y-185536185D01*
X213315169Y-185536185D02*
X213386597Y-185250471D01*
X213386597Y-185250471D02*
X213458026Y-185107614D01*
X213458026Y-185107614D02*
X213600883Y-184964757D01*
X213600883Y-184964757D02*
X213815169Y-184893328D01*
X213815169Y-184893328D02*
X213958026Y-184893328D01*
X213958026Y-184893328D02*
X214172312Y-184964757D01*
X214172312Y-184964757D02*
X214243740Y-185036185D01*
X215386597Y-185607614D02*
X215600883Y-185679042D01*
X215600883Y-185679042D02*
X215672312Y-185750471D01*
X215672312Y-185750471D02*
X215743740Y-185893328D01*
X215743740Y-185893328D02*
X215743740Y-186107614D01*
X215743740Y-186107614D02*
X215672312Y-186250471D01*
X215672312Y-186250471D02*
X215600883Y-186321900D01*
X215600883Y-186321900D02*
X215458026Y-186393328D01*
X215458026Y-186393328D02*
X214886597Y-186393328D01*
X214886597Y-186393328D02*
X214886597Y-184893328D01*
X214886597Y-184893328D02*
X215386597Y-184893328D01*
X215386597Y-184893328D02*
X215529455Y-184964757D01*
X215529455Y-184964757D02*
X215600883Y-185036185D01*
X215600883Y-185036185D02*
X215672312Y-185179042D01*
X215672312Y-185179042D02*
X215672312Y-185321900D01*
X215672312Y-185321900D02*
X215600883Y-185464757D01*
X215600883Y-185464757D02*
X215529455Y-185536185D01*
X215529455Y-185536185D02*
X215386597Y-185607614D01*
X215386597Y-185607614D02*
X214886597Y-185607614D01*
X216386597Y-186250471D02*
X216458026Y-186321900D01*
X216458026Y-186321900D02*
X216386597Y-186393328D01*
X216386597Y-186393328D02*
X216315169Y-186321900D01*
X216315169Y-186321900D02*
X216386597Y-186250471D01*
X216386597Y-186250471D02*
X216386597Y-186393328D01*
X217100883Y-186393328D02*
X217100883Y-184893328D01*
X217243741Y-185821900D02*
X217672312Y-186393328D01*
X217672312Y-185393328D02*
X217100883Y-185964757D01*
X218315169Y-186393328D02*
X218315169Y-185393328D01*
X218315169Y-184893328D02*
X218243741Y-184964757D01*
X218243741Y-184964757D02*
X218315169Y-185036185D01*
X218315169Y-185036185D02*
X218386598Y-184964757D01*
X218386598Y-184964757D02*
X218315169Y-184893328D01*
X218315169Y-184893328D02*
X218315169Y-185036185D01*
X219672313Y-186321900D02*
X219529455Y-186393328D01*
X219529455Y-186393328D02*
X219243741Y-186393328D01*
X219243741Y-186393328D02*
X219100884Y-186321900D01*
X219100884Y-186321900D02*
X219029455Y-186250471D01*
X219029455Y-186250471D02*
X218958027Y-186107614D01*
X218958027Y-186107614D02*
X218958027Y-185679042D01*
X218958027Y-185679042D02*
X219029455Y-185536185D01*
X219029455Y-185536185D02*
X219100884Y-185464757D01*
X219100884Y-185464757D02*
X219243741Y-185393328D01*
X219243741Y-185393328D02*
X219529455Y-185393328D01*
X219529455Y-185393328D02*
X219672313Y-185464757D01*
X220958027Y-186393328D02*
X220958027Y-185607614D01*
X220958027Y-185607614D02*
X220886598Y-185464757D01*
X220886598Y-185464757D02*
X220743741Y-185393328D01*
X220743741Y-185393328D02*
X220458027Y-185393328D01*
X220458027Y-185393328D02*
X220315169Y-185464757D01*
X220958027Y-186321900D02*
X220815169Y-186393328D01*
X220815169Y-186393328D02*
X220458027Y-186393328D01*
X220458027Y-186393328D02*
X220315169Y-186321900D01*
X220315169Y-186321900D02*
X220243741Y-186179042D01*
X220243741Y-186179042D02*
X220243741Y-186036185D01*
X220243741Y-186036185D02*
X220315169Y-185893328D01*
X220315169Y-185893328D02*
X220458027Y-185821900D01*
X220458027Y-185821900D02*
X220815169Y-185821900D01*
X220815169Y-185821900D02*
X220958027Y-185750471D01*
X222315170Y-186393328D02*
X222315170Y-184893328D01*
X222315170Y-186321900D02*
X222172312Y-186393328D01*
X222172312Y-186393328D02*
X221886598Y-186393328D01*
X221886598Y-186393328D02*
X221743741Y-186321900D01*
X221743741Y-186321900D02*
X221672312Y-186250471D01*
X221672312Y-186250471D02*
X221600884Y-186107614D01*
X221600884Y-186107614D02*
X221600884Y-185679042D01*
X221600884Y-185679042D02*
X221672312Y-185536185D01*
X221672312Y-185536185D02*
X221743741Y-185464757D01*
X221743741Y-185464757D02*
X221886598Y-185393328D01*
X221886598Y-185393328D02*
X222172312Y-185393328D01*
X222172312Y-185393328D02*
X222315170Y-185464757D01*
X222672313Y-186536185D02*
X223815170Y-186536185D01*
X224172312Y-185393328D02*
X224172312Y-186893328D01*
X224172312Y-185464757D02*
X224315170Y-185393328D01*
X224315170Y-185393328D02*
X224600884Y-185393328D01*
X224600884Y-185393328D02*
X224743741Y-185464757D01*
X224743741Y-185464757D02*
X224815170Y-185536185D01*
X224815170Y-185536185D02*
X224886598Y-185679042D01*
X224886598Y-185679042D02*
X224886598Y-186107614D01*
X224886598Y-186107614D02*
X224815170Y-186250471D01*
X224815170Y-186250471D02*
X224743741Y-186321900D01*
X224743741Y-186321900D02*
X224600884Y-186393328D01*
X224600884Y-186393328D02*
X224315170Y-186393328D01*
X224315170Y-186393328D02*
X224172312Y-186321900D01*
X226172313Y-186321900D02*
X226029455Y-186393328D01*
X226029455Y-186393328D02*
X225743741Y-186393328D01*
X225743741Y-186393328D02*
X225600884Y-186321900D01*
X225600884Y-186321900D02*
X225529455Y-186250471D01*
X225529455Y-186250471D02*
X225458027Y-186107614D01*
X225458027Y-186107614D02*
X225458027Y-185679042D01*
X225458027Y-185679042D02*
X225529455Y-185536185D01*
X225529455Y-185536185D02*
X225600884Y-185464757D01*
X225600884Y-185464757D02*
X225743741Y-185393328D01*
X225743741Y-185393328D02*
X226029455Y-185393328D01*
X226029455Y-185393328D02*
X226172313Y-185464757D01*
X226815169Y-186393328D02*
X226815169Y-184893328D01*
X226815169Y-185464757D02*
X226958027Y-185393328D01*
X226958027Y-185393328D02*
X227243741Y-185393328D01*
X227243741Y-185393328D02*
X227386598Y-185464757D01*
X227386598Y-185464757D02*
X227458027Y-185536185D01*
X227458027Y-185536185D02*
X227529455Y-185679042D01*
X227529455Y-185679042D02*
X227529455Y-186107614D01*
X227529455Y-186107614D02*
X227458027Y-186250471D01*
X227458027Y-186250471D02*
X227386598Y-186321900D01*
X227386598Y-186321900D02*
X227243741Y-186393328D01*
X227243741Y-186393328D02*
X226958027Y-186393328D01*
X226958027Y-186393328D02*
X226815169Y-186321900D01*
D10*
D11*
X177002200Y-181507200D02*
X285002200Y-181507200D01*
D10*
D11*
X178386598Y-183621900D02*
X178600884Y-183693328D01*
X178600884Y-183693328D02*
X178958026Y-183693328D01*
X178958026Y-183693328D02*
X179100884Y-183621900D01*
X179100884Y-183621900D02*
X179172312Y-183550471D01*
X179172312Y-183550471D02*
X179243741Y-183407614D01*
X179243741Y-183407614D02*
X179243741Y-183264757D01*
X179243741Y-183264757D02*
X179172312Y-183121900D01*
X179172312Y-183121900D02*
X179100884Y-183050471D01*
X179100884Y-183050471D02*
X178958026Y-182979042D01*
X178958026Y-182979042D02*
X178672312Y-182907614D01*
X178672312Y-182907614D02*
X178529455Y-182836185D01*
X178529455Y-182836185D02*
X178458026Y-182764757D01*
X178458026Y-182764757D02*
X178386598Y-182621900D01*
X178386598Y-182621900D02*
X178386598Y-182479042D01*
X178386598Y-182479042D02*
X178458026Y-182336185D01*
X178458026Y-182336185D02*
X178529455Y-182264757D01*
X178529455Y-182264757D02*
X178672312Y-182193328D01*
X178672312Y-182193328D02*
X179029455Y-182193328D01*
X179029455Y-182193328D02*
X179243741Y-182264757D01*
X179886597Y-183693328D02*
X179886597Y-182193328D01*
X180529455Y-183693328D02*
X180529455Y-182907614D01*
X180529455Y-182907614D02*
X180458026Y-182764757D01*
X180458026Y-182764757D02*
X180315169Y-182693328D01*
X180315169Y-182693328D02*
X180100883Y-182693328D01*
X180100883Y-182693328D02*
X179958026Y-182764757D01*
X179958026Y-182764757D02*
X179886597Y-182836185D01*
X181815169Y-183621900D02*
X181672312Y-183693328D01*
X181672312Y-183693328D02*
X181386598Y-183693328D01*
X181386598Y-183693328D02*
X181243740Y-183621900D01*
X181243740Y-183621900D02*
X181172312Y-183479042D01*
X181172312Y-183479042D02*
X181172312Y-182907614D01*
X181172312Y-182907614D02*
X181243740Y-182764757D01*
X181243740Y-182764757D02*
X181386598Y-182693328D01*
X181386598Y-182693328D02*
X181672312Y-182693328D01*
X181672312Y-182693328D02*
X181815169Y-182764757D01*
X181815169Y-182764757D02*
X181886598Y-182907614D01*
X181886598Y-182907614D02*
X181886598Y-183050471D01*
X181886598Y-183050471D02*
X181172312Y-183193328D01*
X183100883Y-183621900D02*
X182958026Y-183693328D01*
X182958026Y-183693328D02*
X182672312Y-183693328D01*
X182672312Y-183693328D02*
X182529454Y-183621900D01*
X182529454Y-183621900D02*
X182458026Y-183479042D01*
X182458026Y-183479042D02*
X182458026Y-182907614D01*
X182458026Y-182907614D02*
X182529454Y-182764757D01*
X182529454Y-182764757D02*
X182672312Y-182693328D01*
X182672312Y-182693328D02*
X182958026Y-182693328D01*
X182958026Y-182693328D02*
X183100883Y-182764757D01*
X183100883Y-182764757D02*
X183172312Y-182907614D01*
X183172312Y-182907614D02*
X183172312Y-183050471D01*
X183172312Y-183050471D02*
X182458026Y-183193328D01*
X183600883Y-182693328D02*
X184172311Y-182693328D01*
X183815168Y-182193328D02*
X183815168Y-183479042D01*
X183815168Y-183479042D02*
X183886597Y-183621900D01*
X183886597Y-183621900D02*
X184029454Y-183693328D01*
X184029454Y-183693328D02*
X184172311Y-183693328D01*
X184672311Y-183550471D02*
X184743740Y-183621900D01*
X184743740Y-183621900D02*
X184672311Y-183693328D01*
X184672311Y-183693328D02*
X184600883Y-183621900D01*
X184600883Y-183621900D02*
X184672311Y-183550471D01*
X184672311Y-183550471D02*
X184672311Y-183693328D01*
X184672311Y-182764757D02*
X184743740Y-182836185D01*
X184743740Y-182836185D02*
X184672311Y-182907614D01*
X184672311Y-182907614D02*
X184600883Y-182836185D01*
X184600883Y-182836185D02*
X184672311Y-182764757D01*
X184672311Y-182764757D02*
X184672311Y-182907614D01*
D10*
D12*
X178556710Y-180685528D02*
X178556710Y-179185528D01*
X178556710Y-179185528D02*
X179056710Y-180256957D01*
X179056710Y-180256957D02*
X179556710Y-179185528D01*
X179556710Y-179185528D02*
X179556710Y-180685528D01*
X180842425Y-180614100D02*
X180699568Y-180685528D01*
X180699568Y-180685528D02*
X180413854Y-180685528D01*
X180413854Y-180685528D02*
X180270996Y-180614100D01*
X180270996Y-180614100D02*
X180199568Y-180471242D01*
X180199568Y-180471242D02*
X180199568Y-179899814D01*
X180199568Y-179899814D02*
X180270996Y-179756957D01*
X180270996Y-179756957D02*
X180413854Y-179685528D01*
X180413854Y-179685528D02*
X180699568Y-179685528D01*
X180699568Y-179685528D02*
X180842425Y-179756957D01*
X180842425Y-179756957D02*
X180913854Y-179899814D01*
X180913854Y-179899814D02*
X180913854Y-180042671D01*
X180913854Y-180042671D02*
X180199568Y-180185528D01*
X182199568Y-180614100D02*
X182056710Y-180685528D01*
X182056710Y-180685528D02*
X181770996Y-180685528D01*
X181770996Y-180685528D02*
X181628139Y-180614100D01*
X181628139Y-180614100D02*
X181556710Y-180542671D01*
X181556710Y-180542671D02*
X181485282Y-180399814D01*
X181485282Y-180399814D02*
X181485282Y-179971242D01*
X181485282Y-179971242D02*
X181556710Y-179828385D01*
X181556710Y-179828385D02*
X181628139Y-179756957D01*
X181628139Y-179756957D02*
X181770996Y-179685528D01*
X181770996Y-179685528D02*
X182056710Y-179685528D01*
X182056710Y-179685528D02*
X182199568Y-179756957D01*
X182842424Y-180685528D02*
X182842424Y-179185528D01*
X183485282Y-180685528D02*
X183485282Y-179899814D01*
X183485282Y-179899814D02*
X183413853Y-179756957D01*
X183413853Y-179756957D02*
X183270996Y-179685528D01*
X183270996Y-179685528D02*
X183056710Y-179685528D01*
X183056710Y-179685528D02*
X182913853Y-179756957D01*
X182913853Y-179756957D02*
X182842424Y-179828385D01*
X184842425Y-180685528D02*
X184842425Y-179899814D01*
X184842425Y-179899814D02*
X184770996Y-179756957D01*
X184770996Y-179756957D02*
X184628139Y-179685528D01*
X184628139Y-179685528D02*
X184342425Y-179685528D01*
X184342425Y-179685528D02*
X184199567Y-179756957D01*
X184842425Y-180614100D02*
X184699567Y-180685528D01*
X184699567Y-180685528D02*
X184342425Y-180685528D01*
X184342425Y-180685528D02*
X184199567Y-180614100D01*
X184199567Y-180614100D02*
X184128139Y-180471242D01*
X184128139Y-180471242D02*
X184128139Y-180328385D01*
X184128139Y-180328385D02*
X184199567Y-180185528D01*
X184199567Y-180185528D02*
X184342425Y-180114100D01*
X184342425Y-180114100D02*
X184699567Y-180114100D01*
X184699567Y-180114100D02*
X184842425Y-180042671D01*
X185342425Y-179685528D02*
X185913853Y-179685528D01*
X185556710Y-179185528D02*
X185556710Y-180471242D01*
X185556710Y-180471242D02*
X185628139Y-180614100D01*
X185628139Y-180614100D02*
X185770996Y-180685528D01*
X185770996Y-180685528D02*
X185913853Y-180685528D01*
X186413853Y-180685528D02*
X186413853Y-179685528D01*
X186413853Y-179971242D02*
X186485282Y-179828385D01*
X186485282Y-179828385D02*
X186556711Y-179756957D01*
X186556711Y-179756957D02*
X186699568Y-179685528D01*
X186699568Y-179685528D02*
X186842425Y-179685528D01*
X187556710Y-180685528D02*
X187413853Y-180614100D01*
X187413853Y-180614100D02*
X187342424Y-180542671D01*
X187342424Y-180542671D02*
X187270996Y-180399814D01*
X187270996Y-180399814D02*
X187270996Y-179971242D01*
X187270996Y-179971242D02*
X187342424Y-179828385D01*
X187342424Y-179828385D02*
X187413853Y-179756957D01*
X187413853Y-179756957D02*
X187556710Y-179685528D01*
X187556710Y-179685528D02*
X187770996Y-179685528D01*
X187770996Y-179685528D02*
X187913853Y-179756957D01*
X187913853Y-179756957D02*
X187985282Y-179828385D01*
X187985282Y-179828385D02*
X188056710Y-179971242D01*
X188056710Y-179971242D02*
X188056710Y-180399814D01*
X188056710Y-180399814D02*
X187985282Y-180542671D01*
X187985282Y-180542671D02*
X187913853Y-180614100D01*
X187913853Y-180614100D02*
X187770996Y-180685528D01*
X187770996Y-180685528D02*
X187556710Y-180685528D01*
X188699567Y-179685528D02*
X188699567Y-180685528D01*
X188699567Y-179828385D02*
X188770996Y-179756957D01*
X188770996Y-179756957D02*
X188913853Y-179685528D01*
X188913853Y-179685528D02*
X189128139Y-179685528D01*
X189128139Y-179685528D02*
X189270996Y-179756957D01*
X189270996Y-179756957D02*
X189342425Y-179899814D01*
X189342425Y-179899814D02*
X189342425Y-180685528D01*
X190056710Y-180685528D02*
X190056710Y-179685528D01*
X190056710Y-179185528D02*
X189985282Y-179256957D01*
X189985282Y-179256957D02*
X190056710Y-179328385D01*
X190056710Y-179328385D02*
X190128139Y-179256957D01*
X190128139Y-179256957D02*
X190056710Y-179185528D01*
X190056710Y-179185528D02*
X190056710Y-179328385D01*
X190628139Y-180685528D02*
X191413854Y-179685528D01*
X190628139Y-179685528D02*
X191413854Y-180685528D01*
X193842425Y-180685528D02*
X193128139Y-180685528D01*
X193128139Y-180685528D02*
X193128139Y-179185528D01*
X194985283Y-180685528D02*
X194985283Y-179899814D01*
X194985283Y-179899814D02*
X194913854Y-179756957D01*
X194913854Y-179756957D02*
X194770997Y-179685528D01*
X194770997Y-179685528D02*
X194485283Y-179685528D01*
X194485283Y-179685528D02*
X194342425Y-179756957D01*
X194985283Y-180614100D02*
X194842425Y-180685528D01*
X194842425Y-180685528D02*
X194485283Y-180685528D01*
X194485283Y-180685528D02*
X194342425Y-180614100D01*
X194342425Y-180614100D02*
X194270997Y-180471242D01*
X194270997Y-180471242D02*
X194270997Y-180328385D01*
X194270997Y-180328385D02*
X194342425Y-180185528D01*
X194342425Y-180185528D02*
X194485283Y-180114100D01*
X194485283Y-180114100D02*
X194842425Y-180114100D01*
X194842425Y-180114100D02*
X194985283Y-180042671D01*
X195699568Y-180685528D02*
X195699568Y-179185528D01*
X195699568Y-179756957D02*
X195842426Y-179685528D01*
X195842426Y-179685528D02*
X196128140Y-179685528D01*
X196128140Y-179685528D02*
X196270997Y-179756957D01*
X196270997Y-179756957D02*
X196342426Y-179828385D01*
X196342426Y-179828385D02*
X196413854Y-179971242D01*
X196413854Y-179971242D02*
X196413854Y-180399814D01*
X196413854Y-180399814D02*
X196342426Y-180542671D01*
X196342426Y-180542671D02*
X196270997Y-180614100D01*
X196270997Y-180614100D02*
X196128140Y-180685528D01*
X196128140Y-180685528D02*
X195842426Y-180685528D01*
X195842426Y-180685528D02*
X195699568Y-180614100D01*
D10*
D11*
X178458026Y-176907614D02*
X178958026Y-176907614D01*
X179172312Y-177693328D02*
X178458026Y-177693328D01*
X178458026Y-177693328D02*
X178458026Y-176193328D01*
X178458026Y-176193328D02*
X179172312Y-176193328D01*
X179815169Y-176693328D02*
X179815169Y-177693328D01*
X179815169Y-176836185D02*
X179886598Y-176764757D01*
X179886598Y-176764757D02*
X180029455Y-176693328D01*
X180029455Y-176693328D02*
X180243741Y-176693328D01*
X180243741Y-176693328D02*
X180386598Y-176764757D01*
X180386598Y-176764757D02*
X180458027Y-176907614D01*
X180458027Y-176907614D02*
X180458027Y-177693328D01*
X181815170Y-176693328D02*
X181815170Y-177907614D01*
X181815170Y-177907614D02*
X181743741Y-178050471D01*
X181743741Y-178050471D02*
X181672312Y-178121900D01*
X181672312Y-178121900D02*
X181529455Y-178193328D01*
X181529455Y-178193328D02*
X181315170Y-178193328D01*
X181315170Y-178193328D02*
X181172312Y-178121900D01*
X181815170Y-177621900D02*
X181672312Y-177693328D01*
X181672312Y-177693328D02*
X181386598Y-177693328D01*
X181386598Y-177693328D02*
X181243741Y-177621900D01*
X181243741Y-177621900D02*
X181172312Y-177550471D01*
X181172312Y-177550471D02*
X181100884Y-177407614D01*
X181100884Y-177407614D02*
X181100884Y-176979042D01*
X181100884Y-176979042D02*
X181172312Y-176836185D01*
X181172312Y-176836185D02*
X181243741Y-176764757D01*
X181243741Y-176764757D02*
X181386598Y-176693328D01*
X181386598Y-176693328D02*
X181672312Y-176693328D01*
X181672312Y-176693328D02*
X181815170Y-176764757D01*
X182529455Y-177550471D02*
X182600884Y-177621900D01*
X182600884Y-177621900D02*
X182529455Y-177693328D01*
X182529455Y-177693328D02*
X182458027Y-177621900D01*
X182458027Y-177621900D02*
X182529455Y-177550471D01*
X182529455Y-177550471D02*
X182529455Y-177693328D01*
X184315170Y-177264757D02*
X185029456Y-177264757D01*
X184172313Y-177693328D02*
X184672313Y-176193328D01*
X184672313Y-176193328D02*
X185172313Y-177693328D01*
X185672312Y-176693328D02*
X185672312Y-177693328D01*
X185672312Y-176836185D02*
X185743741Y-176764757D01*
X185743741Y-176764757D02*
X185886598Y-176693328D01*
X185886598Y-176693328D02*
X186100884Y-176693328D01*
X186100884Y-176693328D02*
X186243741Y-176764757D01*
X186243741Y-176764757D02*
X186315170Y-176907614D01*
X186315170Y-176907614D02*
X186315170Y-177693328D01*
X187672313Y-177693328D02*
X187672313Y-176193328D01*
X187672313Y-177621900D02*
X187529455Y-177693328D01*
X187529455Y-177693328D02*
X187243741Y-177693328D01*
X187243741Y-177693328D02*
X187100884Y-177621900D01*
X187100884Y-177621900D02*
X187029455Y-177550471D01*
X187029455Y-177550471D02*
X186958027Y-177407614D01*
X186958027Y-177407614D02*
X186958027Y-176979042D01*
X186958027Y-176979042D02*
X187029455Y-176836185D01*
X187029455Y-176836185D02*
X187100884Y-176764757D01*
X187100884Y-176764757D02*
X187243741Y-176693328D01*
X187243741Y-176693328D02*
X187529455Y-176693328D01*
X187529455Y-176693328D02*
X187672313Y-176764757D01*
X188386598Y-177693328D02*
X188386598Y-176693328D01*
X188386598Y-176979042D02*
X188458027Y-176836185D01*
X188458027Y-176836185D02*
X188529456Y-176764757D01*
X188529456Y-176764757D02*
X188672313Y-176693328D01*
X188672313Y-176693328D02*
X188815170Y-176693328D01*
X189886598Y-177621900D02*
X189743741Y-177693328D01*
X189743741Y-177693328D02*
X189458027Y-177693328D01*
X189458027Y-177693328D02*
X189315169Y-177621900D01*
X189315169Y-177621900D02*
X189243741Y-177479042D01*
X189243741Y-177479042D02*
X189243741Y-176907614D01*
X189243741Y-176907614D02*
X189315169Y-176764757D01*
X189315169Y-176764757D02*
X189458027Y-176693328D01*
X189458027Y-176693328D02*
X189743741Y-176693328D01*
X189743741Y-176693328D02*
X189886598Y-176764757D01*
X189886598Y-176764757D02*
X189958027Y-176907614D01*
X189958027Y-176907614D02*
X189958027Y-177050471D01*
X189958027Y-177050471D02*
X189243741Y-177193328D01*
X189743741Y-176121900D02*
X189529455Y-176336185D01*
X191672312Y-177264757D02*
X192386598Y-177264757D01*
X191529455Y-177693328D02*
X192029455Y-176193328D01*
X192029455Y-176193328D02*
X192529455Y-177693328D01*
X193029454Y-177550471D02*
X193100883Y-177621900D01*
X193100883Y-177621900D02*
X193029454Y-177693328D01*
X193029454Y-177693328D02*
X192958026Y-177621900D01*
X192958026Y-177621900D02*
X193029454Y-177550471D01*
X193029454Y-177550471D02*
X193029454Y-177693328D01*
X194886597Y-177693328D02*
X194886597Y-176193328D01*
X194886597Y-176193328D02*
X195386597Y-177264757D01*
X195386597Y-177264757D02*
X195886597Y-176193328D01*
X195886597Y-176193328D02*
X195886597Y-177693328D01*
X196600883Y-177550471D02*
X196672312Y-177621900D01*
X196672312Y-177621900D02*
X196600883Y-177693328D01*
X196600883Y-177693328D02*
X196529455Y-177621900D01*
X196529455Y-177621900D02*
X196600883Y-177550471D01*
X196600883Y-177550471D02*
X196600883Y-177693328D01*
X198386598Y-177264757D02*
X199100884Y-177264757D01*
X198243741Y-177693328D02*
X198743741Y-176193328D01*
X198743741Y-176193328D02*
X199243741Y-177693328D01*
X199743740Y-177693328D02*
X199743740Y-176693328D01*
X199743740Y-176979042D02*
X199815169Y-176836185D01*
X199815169Y-176836185D02*
X199886598Y-176764757D01*
X199886598Y-176764757D02*
X200029455Y-176693328D01*
X200029455Y-176693328D02*
X200172312Y-176693328D01*
X201315169Y-177693328D02*
X201315169Y-176907614D01*
X201315169Y-176907614D02*
X201243740Y-176764757D01*
X201243740Y-176764757D02*
X201100883Y-176693328D01*
X201100883Y-176693328D02*
X200815169Y-176693328D01*
X200815169Y-176693328D02*
X200672311Y-176764757D01*
X201315169Y-177621900D02*
X201172311Y-177693328D01*
X201172311Y-177693328D02*
X200815169Y-177693328D01*
X200815169Y-177693328D02*
X200672311Y-177621900D01*
X200672311Y-177621900D02*
X200600883Y-177479042D01*
X200600883Y-177479042D02*
X200600883Y-177336185D01*
X200600883Y-177336185D02*
X200672311Y-177193328D01*
X200672311Y-177193328D02*
X200815169Y-177121900D01*
X200815169Y-177121900D02*
X201172311Y-177121900D01*
X201172311Y-177121900D02*
X201315169Y-177050471D01*
X202672312Y-176693328D02*
X202672312Y-177693328D01*
X202029454Y-176693328D02*
X202029454Y-177479042D01*
X202029454Y-177479042D02*
X202100883Y-177621900D01*
X202100883Y-177621900D02*
X202243740Y-177693328D01*
X202243740Y-177693328D02*
X202458026Y-177693328D01*
X202458026Y-177693328D02*
X202600883Y-177621900D01*
X202600883Y-177621900D02*
X202672312Y-177550471D01*
X202529454Y-176121900D02*
X202315169Y-176336185D01*
X203386597Y-176693328D02*
X203386597Y-177979042D01*
X203386597Y-177979042D02*
X203315169Y-178121900D01*
X203315169Y-178121900D02*
X203172312Y-178193328D01*
X203172312Y-178193328D02*
X203100883Y-178193328D01*
X203386597Y-176193328D02*
X203315169Y-176264757D01*
X203315169Y-176264757D02*
X203386597Y-176336185D01*
X203386597Y-176336185D02*
X203458026Y-176264757D01*
X203458026Y-176264757D02*
X203386597Y-176193328D01*
X203386597Y-176193328D02*
X203386597Y-176336185D01*
X204315169Y-177693328D02*
X204172312Y-177621900D01*
X204172312Y-177621900D02*
X204100883Y-177550471D01*
X204100883Y-177550471D02*
X204029455Y-177407614D01*
X204029455Y-177407614D02*
X204029455Y-176979042D01*
X204029455Y-176979042D02*
X204100883Y-176836185D01*
X204100883Y-176836185D02*
X204172312Y-176764757D01*
X204172312Y-176764757D02*
X204315169Y-176693328D01*
X204315169Y-176693328D02*
X204529455Y-176693328D01*
X204529455Y-176693328D02*
X204672312Y-176764757D01*
X204672312Y-176764757D02*
X204743741Y-176836185D01*
X204743741Y-176836185D02*
X204815169Y-176979042D01*
X204815169Y-176979042D02*
X204815169Y-177407614D01*
X204815169Y-177407614D02*
X204743741Y-177550471D01*
X204743741Y-177550471D02*
X204672312Y-177621900D01*
X204672312Y-177621900D02*
X204529455Y-177693328D01*
X204529455Y-177693328D02*
X204315169Y-177693328D01*
D10*
D11*
X197002200Y-191507200D02*
X197002200Y-194507200D01*
D10*
D11*
X261002200Y-191507200D02*
X261002200Y-198007200D01*
X147639047Y-15304819D02*
X147067619Y-15304819D01*
X147353333Y-15304819D02*
X147353333Y-14304819D01*
X147353333Y-14304819D02*
X147258095Y-14447676D01*
X147258095Y-14447676D02*
X147162857Y-14542914D01*
X147162857Y-14542914D02*
X147067619Y-14590533D01*
X148258095Y-14304819D02*
X148353333Y-14304819D01*
X148353333Y-14304819D02*
X148448571Y-14352438D01*
X148448571Y-14352438D02*
X148496190Y-14400057D01*
X148496190Y-14400057D02*
X148543809Y-14495295D01*
X148543809Y-14495295D02*
X148591428Y-14685771D01*
X148591428Y-14685771D02*
X148591428Y-14923866D01*
X148591428Y-14923866D02*
X148543809Y-15114342D01*
X148543809Y-15114342D02*
X148496190Y-15209580D01*
X148496190Y-15209580D02*
X148448571Y-15257200D01*
X148448571Y-15257200D02*
X148353333Y-15304819D01*
X148353333Y-15304819D02*
X148258095Y-15304819D01*
X148258095Y-15304819D02*
X148162857Y-15257200D01*
X148162857Y-15257200D02*
X148115238Y-15209580D01*
X148115238Y-15209580D02*
X148067619Y-15114342D01*
X148067619Y-15114342D02*
X148020000Y-14923866D01*
X148020000Y-14923866D02*
X148020000Y-14685771D01*
X148020000Y-14685771D02*
X148067619Y-14495295D01*
X148067619Y-14495295D02*
X148115238Y-14400057D01*
X148115238Y-14400057D02*
X148162857Y-14352438D01*
X148162857Y-14352438D02*
X148258095Y-14304819D01*
X149210476Y-14304819D02*
X149305714Y-14304819D01*
X149305714Y-14304819D02*
X149400952Y-14352438D01*
X149400952Y-14352438D02*
X149448571Y-14400057D01*
X149448571Y-14400057D02*
X149496190Y-14495295D01*
X149496190Y-14495295D02*
X149543809Y-14685771D01*
X149543809Y-14685771D02*
X149543809Y-14923866D01*
X149543809Y-14923866D02*
X149496190Y-15114342D01*
X149496190Y-15114342D02*
X149448571Y-15209580D01*
X149448571Y-15209580D02*
X149400952Y-15257200D01*
X149400952Y-15257200D02*
X149305714Y-15304819D01*
X149305714Y-15304819D02*
X149210476Y-15304819D01*
X149210476Y-15304819D02*
X149115238Y-15257200D01*
X149115238Y-15257200D02*
X149067619Y-15209580D01*
X149067619Y-15209580D02*
X149020000Y-15114342D01*
X149020000Y-15114342D02*
X148972381Y-14923866D01*
X148972381Y-14923866D02*
X148972381Y-14685771D01*
X148972381Y-14685771D02*
X149020000Y-14495295D01*
X149020000Y-14495295D02*
X149067619Y-14400057D01*
X149067619Y-14400057D02*
X149115238Y-14352438D01*
X149115238Y-14352438D02*
X149210476Y-14304819D01*
X150734286Y-15304819D02*
X150734286Y-14638152D01*
X150734286Y-14733390D02*
X150781905Y-14685771D01*
X150781905Y-14685771D02*
X150877143Y-14638152D01*
X150877143Y-14638152D02*
X151020000Y-14638152D01*
X151020000Y-14638152D02*
X151115238Y-14685771D01*
X151115238Y-14685771D02*
X151162857Y-14781009D01*
X151162857Y-14781009D02*
X151162857Y-15304819D01*
X151162857Y-14781009D02*
X151210476Y-14685771D01*
X151210476Y-14685771D02*
X151305714Y-14638152D01*
X151305714Y-14638152D02*
X151448571Y-14638152D01*
X151448571Y-14638152D02*
X151543810Y-14685771D01*
X151543810Y-14685771D02*
X151591429Y-14781009D01*
X151591429Y-14781009D02*
X151591429Y-15304819D01*
X152067619Y-15304819D02*
X152067619Y-14638152D01*
X152067619Y-14733390D02*
X152115238Y-14685771D01*
X152115238Y-14685771D02*
X152210476Y-14638152D01*
X152210476Y-14638152D02*
X152353333Y-14638152D01*
X152353333Y-14638152D02*
X152448571Y-14685771D01*
X152448571Y-14685771D02*
X152496190Y-14781009D01*
X152496190Y-14781009D02*
X152496190Y-15304819D01*
X152496190Y-14781009D02*
X152543809Y-14685771D01*
X152543809Y-14685771D02*
X152639047Y-14638152D01*
X152639047Y-14638152D02*
X152781904Y-14638152D01*
X152781904Y-14638152D02*
X152877143Y-14685771D01*
X152877143Y-14685771D02*
X152924762Y-14781009D01*
X152924762Y-14781009D02*
X152924762Y-15304819D01*
D10*
X100020000Y-34240625D02*
X100020000Y-15413580D01*
X200020000Y-34240625D02*
X200020000Y-15413580D01*
X100020000Y-16000000D02*
X200020000Y-16000000D01*
X100020000Y-16000000D02*
X200020000Y-16000000D01*
X100020000Y-16000000D02*
X101146504Y-15413579D01*
X100020000Y-16000000D02*
X101146504Y-16586421D01*
X200020000Y-16000000D02*
X198893496Y-16586421D01*
X200020000Y-16000000D02*
X198893496Y-15413579D01*
D11*
X145476191Y-19304819D02*
X145666667Y-19304819D01*
X145666667Y-19304819D02*
X145761905Y-19257200D01*
X145761905Y-19257200D02*
X145809524Y-19209580D01*
X145809524Y-19209580D02*
X145904762Y-19066723D01*
X145904762Y-19066723D02*
X145952381Y-18876247D01*
X145952381Y-18876247D02*
X145952381Y-18495295D01*
X145952381Y-18495295D02*
X145904762Y-18400057D01*
X145904762Y-18400057D02*
X145857143Y-18352438D01*
X145857143Y-18352438D02*
X145761905Y-18304819D01*
X145761905Y-18304819D02*
X145571429Y-18304819D01*
X145571429Y-18304819D02*
X145476191Y-18352438D01*
X145476191Y-18352438D02*
X145428572Y-18400057D01*
X145428572Y-18400057D02*
X145380953Y-18495295D01*
X145380953Y-18495295D02*
X145380953Y-18733390D01*
X145380953Y-18733390D02*
X145428572Y-18828628D01*
X145428572Y-18828628D02*
X145476191Y-18876247D01*
X145476191Y-18876247D02*
X145571429Y-18923866D01*
X145571429Y-18923866D02*
X145761905Y-18923866D01*
X145761905Y-18923866D02*
X145857143Y-18876247D01*
X145857143Y-18876247D02*
X145904762Y-18828628D01*
X145904762Y-18828628D02*
X145952381Y-18733390D01*
X146333334Y-18400057D02*
X146380953Y-18352438D01*
X146380953Y-18352438D02*
X146476191Y-18304819D01*
X146476191Y-18304819D02*
X146714286Y-18304819D01*
X146714286Y-18304819D02*
X146809524Y-18352438D01*
X146809524Y-18352438D02*
X146857143Y-18400057D01*
X146857143Y-18400057D02*
X146904762Y-18495295D01*
X146904762Y-18495295D02*
X146904762Y-18590533D01*
X146904762Y-18590533D02*
X146857143Y-18733390D01*
X146857143Y-18733390D02*
X146285715Y-19304819D01*
X146285715Y-19304819D02*
X146904762Y-19304819D01*
X147333334Y-19209580D02*
X147380953Y-19257200D01*
X147380953Y-19257200D02*
X147333334Y-19304819D01*
X147333334Y-19304819D02*
X147285715Y-19257200D01*
X147285715Y-19257200D02*
X147333334Y-19209580D01*
X147333334Y-19209580D02*
X147333334Y-19304819D01*
X148000000Y-18304819D02*
X148095238Y-18304819D01*
X148095238Y-18304819D02*
X148190476Y-18352438D01*
X148190476Y-18352438D02*
X148238095Y-18400057D01*
X148238095Y-18400057D02*
X148285714Y-18495295D01*
X148285714Y-18495295D02*
X148333333Y-18685771D01*
X148333333Y-18685771D02*
X148333333Y-18923866D01*
X148333333Y-18923866D02*
X148285714Y-19114342D01*
X148285714Y-19114342D02*
X148238095Y-19209580D01*
X148238095Y-19209580D02*
X148190476Y-19257200D01*
X148190476Y-19257200D02*
X148095238Y-19304819D01*
X148095238Y-19304819D02*
X148000000Y-19304819D01*
X148000000Y-19304819D02*
X147904762Y-19257200D01*
X147904762Y-19257200D02*
X147857143Y-19209580D01*
X147857143Y-19209580D02*
X147809524Y-19114342D01*
X147809524Y-19114342D02*
X147761905Y-18923866D01*
X147761905Y-18923866D02*
X147761905Y-18685771D01*
X147761905Y-18685771D02*
X147809524Y-18495295D01*
X147809524Y-18495295D02*
X147857143Y-18400057D01*
X147857143Y-18400057D02*
X147904762Y-18352438D01*
X147904762Y-18352438D02*
X148000000Y-18304819D01*
X148952381Y-18304819D02*
X149047619Y-18304819D01*
X149047619Y-18304819D02*
X149142857Y-18352438D01*
X149142857Y-18352438D02*
X149190476Y-18400057D01*
X149190476Y-18400057D02*
X149238095Y-18495295D01*
X149238095Y-18495295D02*
X149285714Y-18685771D01*
X149285714Y-18685771D02*
X149285714Y-18923866D01*
X149285714Y-18923866D02*
X149238095Y-19114342D01*
X149238095Y-19114342D02*
X149190476Y-19209580D01*
X149190476Y-19209580D02*
X149142857Y-19257200D01*
X149142857Y-19257200D02*
X149047619Y-19304819D01*
X149047619Y-19304819D02*
X148952381Y-19304819D01*
X148952381Y-19304819D02*
X148857143Y-19257200D01*
X148857143Y-19257200D02*
X148809524Y-19209580D01*
X148809524Y-19209580D02*
X148761905Y-19114342D01*
X148761905Y-19114342D02*
X148714286Y-18923866D01*
X148714286Y-18923866D02*
X148714286Y-18685771D01*
X148714286Y-18685771D02*
X148761905Y-18495295D01*
X148761905Y-18495295D02*
X148809524Y-18400057D01*
X148809524Y-18400057D02*
X148857143Y-18352438D01*
X148857143Y-18352438D02*
X148952381Y-18304819D01*
X149904762Y-18304819D02*
X150000000Y-18304819D01*
X150000000Y-18304819D02*
X150095238Y-18352438D01*
X150095238Y-18352438D02*
X150142857Y-18400057D01*
X150142857Y-18400057D02*
X150190476Y-18495295D01*
X150190476Y-18495295D02*
X150238095Y-18685771D01*
X150238095Y-18685771D02*
X150238095Y-18923866D01*
X150238095Y-18923866D02*
X150190476Y-19114342D01*
X150190476Y-19114342D02*
X150142857Y-19209580D01*
X150142857Y-19209580D02*
X150095238Y-19257200D01*
X150095238Y-19257200D02*
X150000000Y-19304819D01*
X150000000Y-19304819D02*
X149904762Y-19304819D01*
X149904762Y-19304819D02*
X149809524Y-19257200D01*
X149809524Y-19257200D02*
X149761905Y-19209580D01*
X149761905Y-19209580D02*
X149714286Y-19114342D01*
X149714286Y-19114342D02*
X149666667Y-18923866D01*
X149666667Y-18923866D02*
X149666667Y-18685771D01*
X149666667Y-18685771D02*
X149714286Y-18495295D01*
X149714286Y-18495295D02*
X149761905Y-18400057D01*
X149761905Y-18400057D02*
X149809524Y-18352438D01*
X149809524Y-18352438D02*
X149904762Y-18304819D01*
X150857143Y-18304819D02*
X150952381Y-18304819D01*
X150952381Y-18304819D02*
X151047619Y-18352438D01*
X151047619Y-18352438D02*
X151095238Y-18400057D01*
X151095238Y-18400057D02*
X151142857Y-18495295D01*
X151142857Y-18495295D02*
X151190476Y-18685771D01*
X151190476Y-18685771D02*
X151190476Y-18923866D01*
X151190476Y-18923866D02*
X151142857Y-19114342D01*
X151142857Y-19114342D02*
X151095238Y-19209580D01*
X151095238Y-19209580D02*
X151047619Y-19257200D01*
X151047619Y-19257200D02*
X150952381Y-19304819D01*
X150952381Y-19304819D02*
X150857143Y-19304819D01*
X150857143Y-19304819D02*
X150761905Y-19257200D01*
X150761905Y-19257200D02*
X150714286Y-19209580D01*
X150714286Y-19209580D02*
X150666667Y-19114342D01*
X150666667Y-19114342D02*
X150619048Y-18923866D01*
X150619048Y-18923866D02*
X150619048Y-18685771D01*
X150619048Y-18685771D02*
X150666667Y-18495295D01*
X150666667Y-18495295D02*
X150714286Y-18400057D01*
X150714286Y-18400057D02*
X150761905Y-18352438D01*
X150761905Y-18352438D02*
X150857143Y-18304819D01*
X152380953Y-19304819D02*
X152380953Y-18638152D01*
X152380953Y-18733390D02*
X152428572Y-18685771D01*
X152428572Y-18685771D02*
X152523810Y-18638152D01*
X152523810Y-18638152D02*
X152666667Y-18638152D01*
X152666667Y-18638152D02*
X152761905Y-18685771D01*
X152761905Y-18685771D02*
X152809524Y-18781009D01*
X152809524Y-18781009D02*
X152809524Y-19304819D01*
X152809524Y-18781009D02*
X152857143Y-18685771D01*
X152857143Y-18685771D02*
X152952381Y-18638152D01*
X152952381Y-18638152D02*
X153095238Y-18638152D01*
X153095238Y-18638152D02*
X153190477Y-18685771D01*
X153190477Y-18685771D02*
X153238096Y-18781009D01*
X153238096Y-18781009D02*
X153238096Y-19304819D01*
X153714286Y-19304819D02*
X153714286Y-18638152D01*
X153714286Y-18733390D02*
X153761905Y-18685771D01*
X153761905Y-18685771D02*
X153857143Y-18638152D01*
X153857143Y-18638152D02*
X154000000Y-18638152D01*
X154000000Y-18638152D02*
X154095238Y-18685771D01*
X154095238Y-18685771D02*
X154142857Y-18781009D01*
X154142857Y-18781009D02*
X154142857Y-19304819D01*
X154142857Y-18781009D02*
X154190476Y-18685771D01*
X154190476Y-18685771D02*
X154285714Y-18638152D01*
X154285714Y-18638152D02*
X154428571Y-18638152D01*
X154428571Y-18638152D02*
X154523810Y-18685771D01*
X154523810Y-18685771D02*
X154571429Y-18781009D01*
X154571429Y-18781009D02*
X154571429Y-19304819D01*
D10*
X104000000Y-32240625D02*
X104000000Y-19413580D01*
X196000000Y-32240625D02*
X196000000Y-19413580D01*
X104000000Y-20000000D02*
X196000000Y-20000000D01*
X104000000Y-20000000D02*
X196000000Y-20000000D01*
X104000000Y-20000000D02*
X105126504Y-19413579D01*
X104000000Y-20000000D02*
X105126504Y-20586421D01*
X196000000Y-20000000D02*
X194873496Y-20586421D01*
X196000000Y-20000000D02*
X194873496Y-19413579D01*
D11*
X108115238Y-126045444D02*
X107543810Y-126045444D01*
X107829524Y-126045444D02*
X107829524Y-125045444D01*
X107829524Y-125045444D02*
X107734286Y-125188301D01*
X107734286Y-125188301D02*
X107639048Y-125283539D01*
X107639048Y-125283539D02*
X107543810Y-125331158D01*
X108734286Y-125045444D02*
X108829524Y-125045444D01*
X108829524Y-125045444D02*
X108924762Y-125093063D01*
X108924762Y-125093063D02*
X108972381Y-125140682D01*
X108972381Y-125140682D02*
X109020000Y-125235920D01*
X109020000Y-125235920D02*
X109067619Y-125426396D01*
X109067619Y-125426396D02*
X109067619Y-125664491D01*
X109067619Y-125664491D02*
X109020000Y-125854967D01*
X109020000Y-125854967D02*
X108972381Y-125950205D01*
X108972381Y-125950205D02*
X108924762Y-125997825D01*
X108924762Y-125997825D02*
X108829524Y-126045444D01*
X108829524Y-126045444D02*
X108734286Y-126045444D01*
X108734286Y-126045444D02*
X108639048Y-125997825D01*
X108639048Y-125997825D02*
X108591429Y-125950205D01*
X108591429Y-125950205D02*
X108543810Y-125854967D01*
X108543810Y-125854967D02*
X108496191Y-125664491D01*
X108496191Y-125664491D02*
X108496191Y-125426396D01*
X108496191Y-125426396D02*
X108543810Y-125235920D01*
X108543810Y-125235920D02*
X108591429Y-125140682D01*
X108591429Y-125140682D02*
X108639048Y-125093063D01*
X108639048Y-125093063D02*
X108734286Y-125045444D01*
X110258096Y-126045444D02*
X110258096Y-125378777D01*
X110258096Y-125474015D02*
X110305715Y-125426396D01*
X110305715Y-125426396D02*
X110400953Y-125378777D01*
X110400953Y-125378777D02*
X110543810Y-125378777D01*
X110543810Y-125378777D02*
X110639048Y-125426396D01*
X110639048Y-125426396D02*
X110686667Y-125521634D01*
X110686667Y-125521634D02*
X110686667Y-126045444D01*
X110686667Y-125521634D02*
X110734286Y-125426396D01*
X110734286Y-125426396D02*
X110829524Y-125378777D01*
X110829524Y-125378777D02*
X110972381Y-125378777D01*
X110972381Y-125378777D02*
X111067620Y-125426396D01*
X111067620Y-125426396D02*
X111115239Y-125521634D01*
X111115239Y-125521634D02*
X111115239Y-126045444D01*
X111591429Y-126045444D02*
X111591429Y-125378777D01*
X111591429Y-125474015D02*
X111639048Y-125426396D01*
X111639048Y-125426396D02*
X111734286Y-125378777D01*
X111734286Y-125378777D02*
X111877143Y-125378777D01*
X111877143Y-125378777D02*
X111972381Y-125426396D01*
X111972381Y-125426396D02*
X112020000Y-125521634D01*
X112020000Y-125521634D02*
X112020000Y-126045444D01*
X112020000Y-125521634D02*
X112067619Y-125426396D01*
X112067619Y-125426396D02*
X112162857Y-125378777D01*
X112162857Y-125378777D02*
X112305714Y-125378777D01*
X112305714Y-125378777D02*
X112400953Y-125426396D01*
X112400953Y-125426396D02*
X112448572Y-125521634D01*
X112448572Y-125521634D02*
X112448572Y-126045444D01*
D10*
X115020000Y-97240625D02*
X115020000Y-127327045D01*
X105020000Y-97240625D02*
X105020000Y-127327045D01*
X115020000Y-126740625D02*
X105020000Y-126740625D01*
X115020000Y-126740625D02*
X105020000Y-126740625D01*
X115020000Y-126740625D02*
X113893496Y-127327046D01*
X115020000Y-126740625D02*
X113893496Y-126154204D01*
X105020000Y-126740625D02*
X106146504Y-126154204D01*
X105020000Y-126740625D02*
X106146504Y-127327046D01*
D11*
X94304819Y-103645386D02*
X94304819Y-104216814D01*
X94304819Y-103931100D02*
X93304819Y-103931100D01*
X93304819Y-103931100D02*
X93447676Y-104026338D01*
X93447676Y-104026338D02*
X93542914Y-104121576D01*
X93542914Y-104121576D02*
X93590533Y-104216814D01*
X93304819Y-103026338D02*
X93304819Y-102931100D01*
X93304819Y-102931100D02*
X93352438Y-102835862D01*
X93352438Y-102835862D02*
X93400057Y-102788243D01*
X93400057Y-102788243D02*
X93495295Y-102740624D01*
X93495295Y-102740624D02*
X93685771Y-102693005D01*
X93685771Y-102693005D02*
X93923866Y-102693005D01*
X93923866Y-102693005D02*
X94114342Y-102740624D01*
X94114342Y-102740624D02*
X94209580Y-102788243D01*
X94209580Y-102788243D02*
X94257200Y-102835862D01*
X94257200Y-102835862D02*
X94304819Y-102931100D01*
X94304819Y-102931100D02*
X94304819Y-103026338D01*
X94304819Y-103026338D02*
X94257200Y-103121576D01*
X94257200Y-103121576D02*
X94209580Y-103169195D01*
X94209580Y-103169195D02*
X94114342Y-103216814D01*
X94114342Y-103216814D02*
X93923866Y-103264433D01*
X93923866Y-103264433D02*
X93685771Y-103264433D01*
X93685771Y-103264433D02*
X93495295Y-103216814D01*
X93495295Y-103216814D02*
X93400057Y-103169195D01*
X93400057Y-103169195D02*
X93352438Y-103121576D01*
X93352438Y-103121576D02*
X93304819Y-103026338D01*
X94304819Y-101502528D02*
X93638152Y-101502528D01*
X93733390Y-101502528D02*
X93685771Y-101454909D01*
X93685771Y-101454909D02*
X93638152Y-101359671D01*
X93638152Y-101359671D02*
X93638152Y-101216814D01*
X93638152Y-101216814D02*
X93685771Y-101121576D01*
X93685771Y-101121576D02*
X93781009Y-101073957D01*
X93781009Y-101073957D02*
X94304819Y-101073957D01*
X93781009Y-101073957D02*
X93685771Y-101026338D01*
X93685771Y-101026338D02*
X93638152Y-100931100D01*
X93638152Y-100931100D02*
X93638152Y-100788243D01*
X93638152Y-100788243D02*
X93685771Y-100693004D01*
X93685771Y-100693004D02*
X93781009Y-100645385D01*
X93781009Y-100645385D02*
X94304819Y-100645385D01*
X94304819Y-100169195D02*
X93638152Y-100169195D01*
X93733390Y-100169195D02*
X93685771Y-100121576D01*
X93685771Y-100121576D02*
X93638152Y-100026338D01*
X93638152Y-100026338D02*
X93638152Y-99883481D01*
X93638152Y-99883481D02*
X93685771Y-99788243D01*
X93685771Y-99788243D02*
X93781009Y-99740624D01*
X93781009Y-99740624D02*
X94304819Y-99740624D01*
X93781009Y-99740624D02*
X93685771Y-99693005D01*
X93685771Y-99693005D02*
X93638152Y-99597767D01*
X93638152Y-99597767D02*
X93638152Y-99454910D01*
X93638152Y-99454910D02*
X93685771Y-99359671D01*
X93685771Y-99359671D02*
X93781009Y-99312052D01*
X93781009Y-99312052D02*
X94304819Y-99312052D01*
D10*
X114520000Y-106740625D02*
X94413580Y-106740625D01*
X114520000Y-96740625D02*
X94413580Y-96740625D01*
X95000000Y-106740625D02*
X95000000Y-96740625D01*
X95000000Y-106740625D02*
X95000000Y-96740625D01*
X95000000Y-106740625D02*
X94413579Y-105614121D01*
X95000000Y-106740625D02*
X95586421Y-105614121D01*
X95000000Y-96740625D02*
X95586421Y-97867129D01*
X95000000Y-96740625D02*
X94413579Y-97867129D01*
D11*
X88400057Y-99216814D02*
X88352438Y-99169195D01*
X88352438Y-99169195D02*
X88304819Y-99073957D01*
X88304819Y-99073957D02*
X88304819Y-98835862D01*
X88304819Y-98835862D02*
X88352438Y-98740624D01*
X88352438Y-98740624D02*
X88400057Y-98693005D01*
X88400057Y-98693005D02*
X88495295Y-98645386D01*
X88495295Y-98645386D02*
X88590533Y-98645386D01*
X88590533Y-98645386D02*
X88733390Y-98693005D01*
X88733390Y-98693005D02*
X89304819Y-99264433D01*
X89304819Y-99264433D02*
X89304819Y-98645386D01*
X88304819Y-98026338D02*
X88304819Y-97931100D01*
X88304819Y-97931100D02*
X88352438Y-97835862D01*
X88352438Y-97835862D02*
X88400057Y-97788243D01*
X88400057Y-97788243D02*
X88495295Y-97740624D01*
X88495295Y-97740624D02*
X88685771Y-97693005D01*
X88685771Y-97693005D02*
X88923866Y-97693005D01*
X88923866Y-97693005D02*
X89114342Y-97740624D01*
X89114342Y-97740624D02*
X89209580Y-97788243D01*
X89209580Y-97788243D02*
X89257200Y-97835862D01*
X89257200Y-97835862D02*
X89304819Y-97931100D01*
X89304819Y-97931100D02*
X89304819Y-98026338D01*
X89304819Y-98026338D02*
X89257200Y-98121576D01*
X89257200Y-98121576D02*
X89209580Y-98169195D01*
X89209580Y-98169195D02*
X89114342Y-98216814D01*
X89114342Y-98216814D02*
X88923866Y-98264433D01*
X88923866Y-98264433D02*
X88685771Y-98264433D01*
X88685771Y-98264433D02*
X88495295Y-98216814D01*
X88495295Y-98216814D02*
X88400057Y-98169195D01*
X88400057Y-98169195D02*
X88352438Y-98121576D01*
X88352438Y-98121576D02*
X88304819Y-98026338D01*
X89304819Y-96502528D02*
X88638152Y-96502528D01*
X88733390Y-96502528D02*
X88685771Y-96454909D01*
X88685771Y-96454909D02*
X88638152Y-96359671D01*
X88638152Y-96359671D02*
X88638152Y-96216814D01*
X88638152Y-96216814D02*
X88685771Y-96121576D01*
X88685771Y-96121576D02*
X88781009Y-96073957D01*
X88781009Y-96073957D02*
X89304819Y-96073957D01*
X88781009Y-96073957D02*
X88685771Y-96026338D01*
X88685771Y-96026338D02*
X88638152Y-95931100D01*
X88638152Y-95931100D02*
X88638152Y-95788243D01*
X88638152Y-95788243D02*
X88685771Y-95693004D01*
X88685771Y-95693004D02*
X88781009Y-95645385D01*
X88781009Y-95645385D02*
X89304819Y-95645385D01*
X89304819Y-95169195D02*
X88638152Y-95169195D01*
X88733390Y-95169195D02*
X88685771Y-95121576D01*
X88685771Y-95121576D02*
X88638152Y-95026338D01*
X88638152Y-95026338D02*
X88638152Y-94883481D01*
X88638152Y-94883481D02*
X88685771Y-94788243D01*
X88685771Y-94788243D02*
X88781009Y-94740624D01*
X88781009Y-94740624D02*
X89304819Y-94740624D01*
X88781009Y-94740624D02*
X88685771Y-94693005D01*
X88685771Y-94693005D02*
X88638152Y-94597767D01*
X88638152Y-94597767D02*
X88638152Y-94454910D01*
X88638152Y-94454910D02*
X88685771Y-94359671D01*
X88685771Y-94359671D02*
X88781009Y-94312052D01*
X88781009Y-94312052D02*
X89304819Y-94312052D01*
D10*
X114520000Y-106740625D02*
X89413580Y-106740625D01*
X114520000Y-86740625D02*
X89413580Y-86740625D01*
X90000000Y-106740625D02*
X90000000Y-86740625D01*
X90000000Y-106740625D02*
X90000000Y-86740625D01*
X90000000Y-106740625D02*
X89413579Y-105614121D01*
X90000000Y-106740625D02*
X90586421Y-105614121D01*
X90000000Y-86740625D02*
X90586421Y-87867129D01*
X90000000Y-86740625D02*
X89413579Y-87867129D01*
D11*
X83304819Y-76407290D02*
X83304819Y-75740624D01*
X83304819Y-75740624D02*
X84304819Y-76169195D01*
X83638152Y-74931100D02*
X84304819Y-74931100D01*
X83257200Y-75169195D02*
X83971485Y-75407290D01*
X83971485Y-75407290D02*
X83971485Y-74788243D01*
X84209580Y-74407290D02*
X84257200Y-74359671D01*
X84257200Y-74359671D02*
X84304819Y-74407290D01*
X84304819Y-74407290D02*
X84257200Y-74454909D01*
X84257200Y-74454909D02*
X84209580Y-74407290D01*
X84209580Y-74407290D02*
X84304819Y-74407290D01*
X83304819Y-73740624D02*
X83304819Y-73645386D01*
X83304819Y-73645386D02*
X83352438Y-73550148D01*
X83352438Y-73550148D02*
X83400057Y-73502529D01*
X83400057Y-73502529D02*
X83495295Y-73454910D01*
X83495295Y-73454910D02*
X83685771Y-73407291D01*
X83685771Y-73407291D02*
X83923866Y-73407291D01*
X83923866Y-73407291D02*
X84114342Y-73454910D01*
X84114342Y-73454910D02*
X84209580Y-73502529D01*
X84209580Y-73502529D02*
X84257200Y-73550148D01*
X84257200Y-73550148D02*
X84304819Y-73645386D01*
X84304819Y-73645386D02*
X84304819Y-73740624D01*
X84304819Y-73740624D02*
X84257200Y-73835862D01*
X84257200Y-73835862D02*
X84209580Y-73883481D01*
X84209580Y-73883481D02*
X84114342Y-73931100D01*
X84114342Y-73931100D02*
X83923866Y-73978719D01*
X83923866Y-73978719D02*
X83685771Y-73978719D01*
X83685771Y-73978719D02*
X83495295Y-73931100D01*
X83495295Y-73931100D02*
X83400057Y-73883481D01*
X83400057Y-73883481D02*
X83352438Y-73835862D01*
X83352438Y-73835862D02*
X83304819Y-73740624D01*
X83304819Y-72788243D02*
X83304819Y-72693005D01*
X83304819Y-72693005D02*
X83352438Y-72597767D01*
X83352438Y-72597767D02*
X83400057Y-72550148D01*
X83400057Y-72550148D02*
X83495295Y-72502529D01*
X83495295Y-72502529D02*
X83685771Y-72454910D01*
X83685771Y-72454910D02*
X83923866Y-72454910D01*
X83923866Y-72454910D02*
X84114342Y-72502529D01*
X84114342Y-72502529D02*
X84209580Y-72550148D01*
X84209580Y-72550148D02*
X84257200Y-72597767D01*
X84257200Y-72597767D02*
X84304819Y-72693005D01*
X84304819Y-72693005D02*
X84304819Y-72788243D01*
X84304819Y-72788243D02*
X84257200Y-72883481D01*
X84257200Y-72883481D02*
X84209580Y-72931100D01*
X84209580Y-72931100D02*
X84114342Y-72978719D01*
X84114342Y-72978719D02*
X83923866Y-73026338D01*
X83923866Y-73026338D02*
X83685771Y-73026338D01*
X83685771Y-73026338D02*
X83495295Y-72978719D01*
X83495295Y-72978719D02*
X83400057Y-72931100D01*
X83400057Y-72931100D02*
X83352438Y-72883481D01*
X83352438Y-72883481D02*
X83304819Y-72788243D01*
X83304819Y-71835862D02*
X83304819Y-71740624D01*
X83304819Y-71740624D02*
X83352438Y-71645386D01*
X83352438Y-71645386D02*
X83400057Y-71597767D01*
X83400057Y-71597767D02*
X83495295Y-71550148D01*
X83495295Y-71550148D02*
X83685771Y-71502529D01*
X83685771Y-71502529D02*
X83923866Y-71502529D01*
X83923866Y-71502529D02*
X84114342Y-71550148D01*
X84114342Y-71550148D02*
X84209580Y-71597767D01*
X84209580Y-71597767D02*
X84257200Y-71645386D01*
X84257200Y-71645386D02*
X84304819Y-71740624D01*
X84304819Y-71740624D02*
X84304819Y-71835862D01*
X84304819Y-71835862D02*
X84257200Y-71931100D01*
X84257200Y-71931100D02*
X84209580Y-71978719D01*
X84209580Y-71978719D02*
X84114342Y-72026338D01*
X84114342Y-72026338D02*
X83923866Y-72073957D01*
X83923866Y-72073957D02*
X83685771Y-72073957D01*
X83685771Y-72073957D02*
X83495295Y-72026338D01*
X83495295Y-72026338D02*
X83400057Y-71978719D01*
X83400057Y-71978719D02*
X83352438Y-71931100D01*
X83352438Y-71931100D02*
X83304819Y-71835862D01*
X83304819Y-70883481D02*
X83304819Y-70788243D01*
X83304819Y-70788243D02*
X83352438Y-70693005D01*
X83352438Y-70693005D02*
X83400057Y-70645386D01*
X83400057Y-70645386D02*
X83495295Y-70597767D01*
X83495295Y-70597767D02*
X83685771Y-70550148D01*
X83685771Y-70550148D02*
X83923866Y-70550148D01*
X83923866Y-70550148D02*
X84114342Y-70597767D01*
X84114342Y-70597767D02*
X84209580Y-70645386D01*
X84209580Y-70645386D02*
X84257200Y-70693005D01*
X84257200Y-70693005D02*
X84304819Y-70788243D01*
X84304819Y-70788243D02*
X84304819Y-70883481D01*
X84304819Y-70883481D02*
X84257200Y-70978719D01*
X84257200Y-70978719D02*
X84209580Y-71026338D01*
X84209580Y-71026338D02*
X84114342Y-71073957D01*
X84114342Y-71073957D02*
X83923866Y-71121576D01*
X83923866Y-71121576D02*
X83685771Y-71121576D01*
X83685771Y-71121576D02*
X83495295Y-71073957D01*
X83495295Y-71073957D02*
X83400057Y-71026338D01*
X83400057Y-71026338D02*
X83352438Y-70978719D01*
X83352438Y-70978719D02*
X83304819Y-70883481D01*
X84304819Y-69359671D02*
X83638152Y-69359671D01*
X83733390Y-69359671D02*
X83685771Y-69312052D01*
X83685771Y-69312052D02*
X83638152Y-69216814D01*
X83638152Y-69216814D02*
X83638152Y-69073957D01*
X83638152Y-69073957D02*
X83685771Y-68978719D01*
X83685771Y-68978719D02*
X83781009Y-68931100D01*
X83781009Y-68931100D02*
X84304819Y-68931100D01*
X83781009Y-68931100D02*
X83685771Y-68883481D01*
X83685771Y-68883481D02*
X83638152Y-68788243D01*
X83638152Y-68788243D02*
X83638152Y-68645386D01*
X83638152Y-68645386D02*
X83685771Y-68550147D01*
X83685771Y-68550147D02*
X83781009Y-68502528D01*
X83781009Y-68502528D02*
X84304819Y-68502528D01*
X84304819Y-68026338D02*
X83638152Y-68026338D01*
X83733390Y-68026338D02*
X83685771Y-67978719D01*
X83685771Y-67978719D02*
X83638152Y-67883481D01*
X83638152Y-67883481D02*
X83638152Y-67740624D01*
X83638152Y-67740624D02*
X83685771Y-67645386D01*
X83685771Y-67645386D02*
X83781009Y-67597767D01*
X83781009Y-67597767D02*
X84304819Y-67597767D01*
X83781009Y-67597767D02*
X83685771Y-67550148D01*
X83685771Y-67550148D02*
X83638152Y-67454910D01*
X83638152Y-67454910D02*
X83638152Y-67312053D01*
X83638152Y-67312053D02*
X83685771Y-67216814D01*
X83685771Y-67216814D02*
X83781009Y-67169195D01*
X83781009Y-67169195D02*
X84304819Y-67169195D01*
D10*
X103520000Y-108740625D02*
X84413580Y-108740625D01*
X103520000Y-34740625D02*
X84413580Y-34740625D01*
X85000000Y-108740625D02*
X85000000Y-34740625D01*
X85000000Y-108740625D02*
X85000000Y-34740625D01*
X85000000Y-108740625D02*
X84413579Y-107614121D01*
X85000000Y-108740625D02*
X85586421Y-107614121D01*
X85000000Y-34740625D02*
X85586421Y-35867129D01*
X85000000Y-34740625D02*
X84413579Y-35867129D01*
D11*
X186043809Y-125045444D02*
X185567619Y-125045444D01*
X185567619Y-125045444D02*
X185520000Y-125521634D01*
X185520000Y-125521634D02*
X185567619Y-125474015D01*
X185567619Y-125474015D02*
X185662857Y-125426396D01*
X185662857Y-125426396D02*
X185900952Y-125426396D01*
X185900952Y-125426396D02*
X185996190Y-125474015D01*
X185996190Y-125474015D02*
X186043809Y-125521634D01*
X186043809Y-125521634D02*
X186091428Y-125616872D01*
X186091428Y-125616872D02*
X186091428Y-125854967D01*
X186091428Y-125854967D02*
X186043809Y-125950205D01*
X186043809Y-125950205D02*
X185996190Y-125997825D01*
X185996190Y-125997825D02*
X185900952Y-126045444D01*
X185900952Y-126045444D02*
X185662857Y-126045444D01*
X185662857Y-126045444D02*
X185567619Y-125997825D01*
X185567619Y-125997825D02*
X185520000Y-125950205D01*
X187281905Y-126045444D02*
X187281905Y-125378777D01*
X187281905Y-125474015D02*
X187329524Y-125426396D01*
X187329524Y-125426396D02*
X187424762Y-125378777D01*
X187424762Y-125378777D02*
X187567619Y-125378777D01*
X187567619Y-125378777D02*
X187662857Y-125426396D01*
X187662857Y-125426396D02*
X187710476Y-125521634D01*
X187710476Y-125521634D02*
X187710476Y-126045444D01*
X187710476Y-125521634D02*
X187758095Y-125426396D01*
X187758095Y-125426396D02*
X187853333Y-125378777D01*
X187853333Y-125378777D02*
X187996190Y-125378777D01*
X187996190Y-125378777D02*
X188091429Y-125426396D01*
X188091429Y-125426396D02*
X188139048Y-125521634D01*
X188139048Y-125521634D02*
X188139048Y-126045444D01*
X188615238Y-126045444D02*
X188615238Y-125378777D01*
X188615238Y-125474015D02*
X188662857Y-125426396D01*
X188662857Y-125426396D02*
X188758095Y-125378777D01*
X188758095Y-125378777D02*
X188900952Y-125378777D01*
X188900952Y-125378777D02*
X188996190Y-125426396D01*
X188996190Y-125426396D02*
X189043809Y-125521634D01*
X189043809Y-125521634D02*
X189043809Y-126045444D01*
X189043809Y-125521634D02*
X189091428Y-125426396D01*
X189091428Y-125426396D02*
X189186666Y-125378777D01*
X189186666Y-125378777D02*
X189329523Y-125378777D01*
X189329523Y-125378777D02*
X189424762Y-125426396D01*
X189424762Y-125426396D02*
X189472381Y-125521634D01*
X189472381Y-125521634D02*
X189472381Y-126045444D01*
D10*
X185020000Y-97240625D02*
X185020000Y-127327045D01*
X190020000Y-97240625D02*
X190020000Y-127327045D01*
X185020000Y-126740625D02*
X190020000Y-126740625D01*
X185020000Y-126740625D02*
X190020000Y-126740625D01*
X185020000Y-126740625D02*
X186146504Y-126154204D01*
X185020000Y-126740625D02*
X186146504Y-127327046D01*
X190020000Y-126740625D02*
X188893496Y-127327046D01*
X190020000Y-126740625D02*
X188893496Y-126154204D01*
D11*
X78733390Y-74026338D02*
X78685771Y-74121576D01*
X78685771Y-74121576D02*
X78638152Y-74169195D01*
X78638152Y-74169195D02*
X78542914Y-74216814D01*
X78542914Y-74216814D02*
X78495295Y-74216814D01*
X78495295Y-74216814D02*
X78400057Y-74169195D01*
X78400057Y-74169195D02*
X78352438Y-74121576D01*
X78352438Y-74121576D02*
X78304819Y-74026338D01*
X78304819Y-74026338D02*
X78304819Y-73835862D01*
X78304819Y-73835862D02*
X78352438Y-73740624D01*
X78352438Y-73740624D02*
X78400057Y-73693005D01*
X78400057Y-73693005D02*
X78495295Y-73645386D01*
X78495295Y-73645386D02*
X78542914Y-73645386D01*
X78542914Y-73645386D02*
X78638152Y-73693005D01*
X78638152Y-73693005D02*
X78685771Y-73740624D01*
X78685771Y-73740624D02*
X78733390Y-73835862D01*
X78733390Y-73835862D02*
X78733390Y-74026338D01*
X78733390Y-74026338D02*
X78781009Y-74121576D01*
X78781009Y-74121576D02*
X78828628Y-74169195D01*
X78828628Y-74169195D02*
X78923866Y-74216814D01*
X78923866Y-74216814D02*
X79114342Y-74216814D01*
X79114342Y-74216814D02*
X79209580Y-74169195D01*
X79209580Y-74169195D02*
X79257200Y-74121576D01*
X79257200Y-74121576D02*
X79304819Y-74026338D01*
X79304819Y-74026338D02*
X79304819Y-73835862D01*
X79304819Y-73835862D02*
X79257200Y-73740624D01*
X79257200Y-73740624D02*
X79209580Y-73693005D01*
X79209580Y-73693005D02*
X79114342Y-73645386D01*
X79114342Y-73645386D02*
X78923866Y-73645386D01*
X78923866Y-73645386D02*
X78828628Y-73693005D01*
X78828628Y-73693005D02*
X78781009Y-73740624D01*
X78781009Y-73740624D02*
X78733390Y-73835862D01*
X78400057Y-73264433D02*
X78352438Y-73216814D01*
X78352438Y-73216814D02*
X78304819Y-73121576D01*
X78304819Y-73121576D02*
X78304819Y-72883481D01*
X78304819Y-72883481D02*
X78352438Y-72788243D01*
X78352438Y-72788243D02*
X78400057Y-72740624D01*
X78400057Y-72740624D02*
X78495295Y-72693005D01*
X78495295Y-72693005D02*
X78590533Y-72693005D01*
X78590533Y-72693005D02*
X78733390Y-72740624D01*
X78733390Y-72740624D02*
X79304819Y-73312052D01*
X79304819Y-73312052D02*
X79304819Y-72693005D01*
X79304819Y-71502528D02*
X78638152Y-71502528D01*
X78733390Y-71502528D02*
X78685771Y-71454909D01*
X78685771Y-71454909D02*
X78638152Y-71359671D01*
X78638152Y-71359671D02*
X78638152Y-71216814D01*
X78638152Y-71216814D02*
X78685771Y-71121576D01*
X78685771Y-71121576D02*
X78781009Y-71073957D01*
X78781009Y-71073957D02*
X79304819Y-71073957D01*
X78781009Y-71073957D02*
X78685771Y-71026338D01*
X78685771Y-71026338D02*
X78638152Y-70931100D01*
X78638152Y-70931100D02*
X78638152Y-70788243D01*
X78638152Y-70788243D02*
X78685771Y-70693004D01*
X78685771Y-70693004D02*
X78781009Y-70645385D01*
X78781009Y-70645385D02*
X79304819Y-70645385D01*
X79304819Y-70169195D02*
X78638152Y-70169195D01*
X78733390Y-70169195D02*
X78685771Y-70121576D01*
X78685771Y-70121576D02*
X78638152Y-70026338D01*
X78638152Y-70026338D02*
X78638152Y-69883481D01*
X78638152Y-69883481D02*
X78685771Y-69788243D01*
X78685771Y-69788243D02*
X78781009Y-69740624D01*
X78781009Y-69740624D02*
X79304819Y-69740624D01*
X78781009Y-69740624D02*
X78685771Y-69693005D01*
X78685771Y-69693005D02*
X78638152Y-69597767D01*
X78638152Y-69597767D02*
X78638152Y-69454910D01*
X78638152Y-69454910D02*
X78685771Y-69359671D01*
X78685771Y-69359671D02*
X78781009Y-69312052D01*
X78781009Y-69312052D02*
X79304819Y-69312052D01*
D10*
X103520000Y-30740625D02*
X79413580Y-30740625D01*
X103520000Y-112740625D02*
X79413580Y-112740625D01*
X80000000Y-30740625D02*
X80000000Y-112740625D01*
X80000000Y-30740625D02*
X80000000Y-112740625D01*
X80000000Y-30740625D02*
X80586421Y-31867129D01*
X80000000Y-30740625D02*
X79413579Y-31867129D01*
X80000000Y-112740625D02*
X79413579Y-111614121D01*
X80000000Y-112740625D02*
X80586421Y-111614121D01*
D11*
X118115238Y-126045444D02*
X117543810Y-126045444D01*
X117829524Y-126045444D02*
X117829524Y-125045444D01*
X117829524Y-125045444D02*
X117734286Y-125188301D01*
X117734286Y-125188301D02*
X117639048Y-125283539D01*
X117639048Y-125283539D02*
X117543810Y-125331158D01*
X118734286Y-125045444D02*
X118829524Y-125045444D01*
X118829524Y-125045444D02*
X118924762Y-125093063D01*
X118924762Y-125093063D02*
X118972381Y-125140682D01*
X118972381Y-125140682D02*
X119020000Y-125235920D01*
X119020000Y-125235920D02*
X119067619Y-125426396D01*
X119067619Y-125426396D02*
X119067619Y-125664491D01*
X119067619Y-125664491D02*
X119020000Y-125854967D01*
X119020000Y-125854967D02*
X118972381Y-125950205D01*
X118972381Y-125950205D02*
X118924762Y-125997825D01*
X118924762Y-125997825D02*
X118829524Y-126045444D01*
X118829524Y-126045444D02*
X118734286Y-126045444D01*
X118734286Y-126045444D02*
X118639048Y-125997825D01*
X118639048Y-125997825D02*
X118591429Y-125950205D01*
X118591429Y-125950205D02*
X118543810Y-125854967D01*
X118543810Y-125854967D02*
X118496191Y-125664491D01*
X118496191Y-125664491D02*
X118496191Y-125426396D01*
X118496191Y-125426396D02*
X118543810Y-125235920D01*
X118543810Y-125235920D02*
X118591429Y-125140682D01*
X118591429Y-125140682D02*
X118639048Y-125093063D01*
X118639048Y-125093063D02*
X118734286Y-125045444D01*
X120258096Y-126045444D02*
X120258096Y-125378777D01*
X120258096Y-125474015D02*
X120305715Y-125426396D01*
X120305715Y-125426396D02*
X120400953Y-125378777D01*
X120400953Y-125378777D02*
X120543810Y-125378777D01*
X120543810Y-125378777D02*
X120639048Y-125426396D01*
X120639048Y-125426396D02*
X120686667Y-125521634D01*
X120686667Y-125521634D02*
X120686667Y-126045444D01*
X120686667Y-125521634D02*
X120734286Y-125426396D01*
X120734286Y-125426396D02*
X120829524Y-125378777D01*
X120829524Y-125378777D02*
X120972381Y-125378777D01*
X120972381Y-125378777D02*
X121067620Y-125426396D01*
X121067620Y-125426396D02*
X121115239Y-125521634D01*
X121115239Y-125521634D02*
X121115239Y-126045444D01*
X121591429Y-126045444D02*
X121591429Y-125378777D01*
X121591429Y-125474015D02*
X121639048Y-125426396D01*
X121639048Y-125426396D02*
X121734286Y-125378777D01*
X121734286Y-125378777D02*
X121877143Y-125378777D01*
X121877143Y-125378777D02*
X121972381Y-125426396D01*
X121972381Y-125426396D02*
X122020000Y-125521634D01*
X122020000Y-125521634D02*
X122020000Y-126045444D01*
X122020000Y-125521634D02*
X122067619Y-125426396D01*
X122067619Y-125426396D02*
X122162857Y-125378777D01*
X122162857Y-125378777D02*
X122305714Y-125378777D01*
X122305714Y-125378777D02*
X122400953Y-125426396D01*
X122400953Y-125426396D02*
X122448572Y-125521634D01*
X122448572Y-125521634D02*
X122448572Y-126045444D01*
D10*
X115020000Y-97240625D02*
X115020000Y-127327045D01*
X125020000Y-97240625D02*
X125020000Y-127327045D01*
X115020000Y-126740625D02*
X125020000Y-126740625D01*
X115020000Y-126740625D02*
X125020000Y-126740625D01*
X115020000Y-126740625D02*
X116146504Y-126154204D01*
X115020000Y-126740625D02*
X116146504Y-127327046D01*
X125020000Y-126740625D02*
X123893496Y-127327046D01*
X125020000Y-126740625D02*
X123893496Y-126154204D01*
D11*
X181043809Y-125045444D02*
X180567619Y-125045444D01*
X180567619Y-125045444D02*
X180520000Y-125521634D01*
X180520000Y-125521634D02*
X180567619Y-125474015D01*
X180567619Y-125474015D02*
X180662857Y-125426396D01*
X180662857Y-125426396D02*
X180900952Y-125426396D01*
X180900952Y-125426396D02*
X180996190Y-125474015D01*
X180996190Y-125474015D02*
X181043809Y-125521634D01*
X181043809Y-125521634D02*
X181091428Y-125616872D01*
X181091428Y-125616872D02*
X181091428Y-125854967D01*
X181091428Y-125854967D02*
X181043809Y-125950205D01*
X181043809Y-125950205D02*
X180996190Y-125997825D01*
X180996190Y-125997825D02*
X180900952Y-126045444D01*
X180900952Y-126045444D02*
X180662857Y-126045444D01*
X180662857Y-126045444D02*
X180567619Y-125997825D01*
X180567619Y-125997825D02*
X180520000Y-125950205D01*
X182281905Y-126045444D02*
X182281905Y-125378777D01*
X182281905Y-125474015D02*
X182329524Y-125426396D01*
X182329524Y-125426396D02*
X182424762Y-125378777D01*
X182424762Y-125378777D02*
X182567619Y-125378777D01*
X182567619Y-125378777D02*
X182662857Y-125426396D01*
X182662857Y-125426396D02*
X182710476Y-125521634D01*
X182710476Y-125521634D02*
X182710476Y-126045444D01*
X182710476Y-125521634D02*
X182758095Y-125426396D01*
X182758095Y-125426396D02*
X182853333Y-125378777D01*
X182853333Y-125378777D02*
X182996190Y-125378777D01*
X182996190Y-125378777D02*
X183091429Y-125426396D01*
X183091429Y-125426396D02*
X183139048Y-125521634D01*
X183139048Y-125521634D02*
X183139048Y-126045444D01*
X183615238Y-126045444D02*
X183615238Y-125378777D01*
X183615238Y-125474015D02*
X183662857Y-125426396D01*
X183662857Y-125426396D02*
X183758095Y-125378777D01*
X183758095Y-125378777D02*
X183900952Y-125378777D01*
X183900952Y-125378777D02*
X183996190Y-125426396D01*
X183996190Y-125426396D02*
X184043809Y-125521634D01*
X184043809Y-125521634D02*
X184043809Y-126045444D01*
X184043809Y-125521634D02*
X184091428Y-125426396D01*
X184091428Y-125426396D02*
X184186666Y-125378777D01*
X184186666Y-125378777D02*
X184329523Y-125378777D01*
X184329523Y-125378777D02*
X184424762Y-125426396D01*
X184424762Y-125426396D02*
X184472381Y-125521634D01*
X184472381Y-125521634D02*
X184472381Y-126045444D01*
D10*
X180020000Y-97240625D02*
X180020000Y-127327045D01*
X185020000Y-97240625D02*
X185020000Y-127327045D01*
X180020000Y-126740625D02*
X185020000Y-126740625D01*
X180020000Y-126740625D02*
X185020000Y-126740625D01*
X180020000Y-126740625D02*
X181146504Y-126154204D01*
X180020000Y-126740625D02*
X181146504Y-127327046D01*
X185020000Y-126740625D02*
X183893496Y-127327046D01*
X185020000Y-126740625D02*
X183893496Y-126154204D01*
D11*
X94304819Y-93645386D02*
X94304819Y-94216814D01*
X94304819Y-93931100D02*
X93304819Y-93931100D01*
X93304819Y-93931100D02*
X93447676Y-94026338D01*
X93447676Y-94026338D02*
X93542914Y-94121576D01*
X93542914Y-94121576D02*
X93590533Y-94216814D01*
X93304819Y-93026338D02*
X93304819Y-92931100D01*
X93304819Y-92931100D02*
X93352438Y-92835862D01*
X93352438Y-92835862D02*
X93400057Y-92788243D01*
X93400057Y-92788243D02*
X93495295Y-92740624D01*
X93495295Y-92740624D02*
X93685771Y-92693005D01*
X93685771Y-92693005D02*
X93923866Y-92693005D01*
X93923866Y-92693005D02*
X94114342Y-92740624D01*
X94114342Y-92740624D02*
X94209580Y-92788243D01*
X94209580Y-92788243D02*
X94257200Y-92835862D01*
X94257200Y-92835862D02*
X94304819Y-92931100D01*
X94304819Y-92931100D02*
X94304819Y-93026338D01*
X94304819Y-93026338D02*
X94257200Y-93121576D01*
X94257200Y-93121576D02*
X94209580Y-93169195D01*
X94209580Y-93169195D02*
X94114342Y-93216814D01*
X94114342Y-93216814D02*
X93923866Y-93264433D01*
X93923866Y-93264433D02*
X93685771Y-93264433D01*
X93685771Y-93264433D02*
X93495295Y-93216814D01*
X93495295Y-93216814D02*
X93400057Y-93169195D01*
X93400057Y-93169195D02*
X93352438Y-93121576D01*
X93352438Y-93121576D02*
X93304819Y-93026338D01*
X94304819Y-91502528D02*
X93638152Y-91502528D01*
X93733390Y-91502528D02*
X93685771Y-91454909D01*
X93685771Y-91454909D02*
X93638152Y-91359671D01*
X93638152Y-91359671D02*
X93638152Y-91216814D01*
X93638152Y-91216814D02*
X93685771Y-91121576D01*
X93685771Y-91121576D02*
X93781009Y-91073957D01*
X93781009Y-91073957D02*
X94304819Y-91073957D01*
X93781009Y-91073957D02*
X93685771Y-91026338D01*
X93685771Y-91026338D02*
X93638152Y-90931100D01*
X93638152Y-90931100D02*
X93638152Y-90788243D01*
X93638152Y-90788243D02*
X93685771Y-90693004D01*
X93685771Y-90693004D02*
X93781009Y-90645385D01*
X93781009Y-90645385D02*
X94304819Y-90645385D01*
X94304819Y-90169195D02*
X93638152Y-90169195D01*
X93733390Y-90169195D02*
X93685771Y-90121576D01*
X93685771Y-90121576D02*
X93638152Y-90026338D01*
X93638152Y-90026338D02*
X93638152Y-89883481D01*
X93638152Y-89883481D02*
X93685771Y-89788243D01*
X93685771Y-89788243D02*
X93781009Y-89740624D01*
X93781009Y-89740624D02*
X94304819Y-89740624D01*
X93781009Y-89740624D02*
X93685771Y-89693005D01*
X93685771Y-89693005D02*
X93638152Y-89597767D01*
X93638152Y-89597767D02*
X93638152Y-89454910D01*
X93638152Y-89454910D02*
X93685771Y-89359671D01*
X93685771Y-89359671D02*
X93781009Y-89312052D01*
X93781009Y-89312052D02*
X94304819Y-89312052D01*
D10*
X114520000Y-96740625D02*
X94413580Y-96740625D01*
X114520000Y-86740625D02*
X94413580Y-86740625D01*
X95000000Y-96740625D02*
X95000000Y-86740625D01*
X95000000Y-96740625D02*
X95000000Y-86740625D01*
X95000000Y-96740625D02*
X94413579Y-95614121D01*
X95000000Y-96740625D02*
X95586421Y-95614121D01*
X95000000Y-86740625D02*
X95586421Y-87867129D01*
X95000000Y-86740625D02*
X94413579Y-87867129D01*
D11*
X211454819Y-111502528D02*
X211454819Y-110883481D01*
X211454819Y-110883481D02*
X211835771Y-111216814D01*
X211835771Y-111216814D02*
X211835771Y-111073957D01*
X211835771Y-111073957D02*
X211883390Y-110978719D01*
X211883390Y-110978719D02*
X211931009Y-110931100D01*
X211931009Y-110931100D02*
X212026247Y-110883481D01*
X212026247Y-110883481D02*
X212264342Y-110883481D01*
X212264342Y-110883481D02*
X212359580Y-110931100D01*
X212359580Y-110931100D02*
X212407200Y-110978719D01*
X212407200Y-110978719D02*
X212454819Y-111073957D01*
X212454819Y-111073957D02*
X212454819Y-111359671D01*
X212454819Y-111359671D02*
X212407200Y-111454909D01*
X212407200Y-111454909D02*
X212359580Y-111502528D01*
X212359580Y-110454909D02*
X212407200Y-110407290D01*
X212407200Y-110407290D02*
X212454819Y-110454909D01*
X212454819Y-110454909D02*
X212407200Y-110502528D01*
X212407200Y-110502528D02*
X212359580Y-110454909D01*
X212359580Y-110454909D02*
X212454819Y-110454909D01*
X211550057Y-110026338D02*
X211502438Y-109978719D01*
X211502438Y-109978719D02*
X211454819Y-109883481D01*
X211454819Y-109883481D02*
X211454819Y-109645386D01*
X211454819Y-109645386D02*
X211502438Y-109550148D01*
X211502438Y-109550148D02*
X211550057Y-109502529D01*
X211550057Y-109502529D02*
X211645295Y-109454910D01*
X211645295Y-109454910D02*
X211740533Y-109454910D01*
X211740533Y-109454910D02*
X211883390Y-109502529D01*
X211883390Y-109502529D02*
X212454819Y-110073957D01*
X212454819Y-110073957D02*
X212454819Y-109454910D01*
X212454819Y-108264433D02*
X211788152Y-108264433D01*
X211883390Y-108264433D02*
X211835771Y-108216814D01*
X211835771Y-108216814D02*
X211788152Y-108121576D01*
X211788152Y-108121576D02*
X211788152Y-107978719D01*
X211788152Y-107978719D02*
X211835771Y-107883481D01*
X211835771Y-107883481D02*
X211931009Y-107835862D01*
X211931009Y-107835862D02*
X212454819Y-107835862D01*
X211931009Y-107835862D02*
X211835771Y-107788243D01*
X211835771Y-107788243D02*
X211788152Y-107693005D01*
X211788152Y-107693005D02*
X211788152Y-107550148D01*
X211788152Y-107550148D02*
X211835771Y-107454909D01*
X211835771Y-107454909D02*
X211931009Y-107407290D01*
X211931009Y-107407290D02*
X212454819Y-107407290D01*
X212454819Y-106931100D02*
X211788152Y-106931100D01*
X211883390Y-106931100D02*
X211835771Y-106883481D01*
X211835771Y-106883481D02*
X211788152Y-106788243D01*
X211788152Y-106788243D02*
X211788152Y-106645386D01*
X211788152Y-106645386D02*
X211835771Y-106550148D01*
X211835771Y-106550148D02*
X211931009Y-106502529D01*
X211931009Y-106502529D02*
X212454819Y-106502529D01*
X211931009Y-106502529D02*
X211835771Y-106454910D01*
X211835771Y-106454910D02*
X211788152Y-106359672D01*
X211788152Y-106359672D02*
X211788152Y-106216815D01*
X211788152Y-106216815D02*
X211835771Y-106121576D01*
X211835771Y-106121576D02*
X211931009Y-106073957D01*
X211931009Y-106073957D02*
X212454819Y-106073957D01*
D10*
X196520000Y-107140625D02*
X210586420Y-107140625D01*
X196520000Y-110340625D02*
X210586420Y-110340625D01*
X210000000Y-107140625D02*
X210000000Y-110340625D01*
X210000000Y-107140625D02*
X210000000Y-110340625D01*
X210000000Y-107140625D02*
X210586421Y-108267129D01*
X210000000Y-107140625D02*
X209413579Y-108267129D01*
X210000000Y-110340625D02*
X209413579Y-109214121D01*
X210000000Y-110340625D02*
X210586421Y-109214121D01*
D11*
X209304819Y-60788243D02*
X209304819Y-61359671D01*
X209304819Y-61073957D02*
X208304819Y-61073957D01*
X208304819Y-61073957D02*
X208447676Y-61169195D01*
X208447676Y-61169195D02*
X208542914Y-61264433D01*
X208542914Y-61264433D02*
X208590533Y-61359671D01*
X208304819Y-59883481D02*
X208304819Y-60359671D01*
X208304819Y-60359671D02*
X208781009Y-60407290D01*
X208781009Y-60407290D02*
X208733390Y-60359671D01*
X208733390Y-60359671D02*
X208685771Y-60264433D01*
X208685771Y-60264433D02*
X208685771Y-60026338D01*
X208685771Y-60026338D02*
X208733390Y-59931100D01*
X208733390Y-59931100D02*
X208781009Y-59883481D01*
X208781009Y-59883481D02*
X208876247Y-59835862D01*
X208876247Y-59835862D02*
X209114342Y-59835862D01*
X209114342Y-59835862D02*
X209209580Y-59883481D01*
X209209580Y-59883481D02*
X209257200Y-59931100D01*
X209257200Y-59931100D02*
X209304819Y-60026338D01*
X209304819Y-60026338D02*
X209304819Y-60264433D01*
X209304819Y-60264433D02*
X209257200Y-60359671D01*
X209257200Y-60359671D02*
X209209580Y-60407290D01*
X209209580Y-59407290D02*
X209257200Y-59359671D01*
X209257200Y-59359671D02*
X209304819Y-59407290D01*
X209304819Y-59407290D02*
X209257200Y-59454909D01*
X209257200Y-59454909D02*
X209209580Y-59407290D01*
X209209580Y-59407290D02*
X209304819Y-59407290D01*
X208304819Y-58740624D02*
X208304819Y-58645386D01*
X208304819Y-58645386D02*
X208352438Y-58550148D01*
X208352438Y-58550148D02*
X208400057Y-58502529D01*
X208400057Y-58502529D02*
X208495295Y-58454910D01*
X208495295Y-58454910D02*
X208685771Y-58407291D01*
X208685771Y-58407291D02*
X208923866Y-58407291D01*
X208923866Y-58407291D02*
X209114342Y-58454910D01*
X209114342Y-58454910D02*
X209209580Y-58502529D01*
X209209580Y-58502529D02*
X209257200Y-58550148D01*
X209257200Y-58550148D02*
X209304819Y-58645386D01*
X209304819Y-58645386D02*
X209304819Y-58740624D01*
X209304819Y-58740624D02*
X209257200Y-58835862D01*
X209257200Y-58835862D02*
X209209580Y-58883481D01*
X209209580Y-58883481D02*
X209114342Y-58931100D01*
X209114342Y-58931100D02*
X208923866Y-58978719D01*
X208923866Y-58978719D02*
X208685771Y-58978719D01*
X208685771Y-58978719D02*
X208495295Y-58931100D01*
X208495295Y-58931100D02*
X208400057Y-58883481D01*
X208400057Y-58883481D02*
X208352438Y-58835862D01*
X208352438Y-58835862D02*
X208304819Y-58740624D01*
X208304819Y-57788243D02*
X208304819Y-57693005D01*
X208304819Y-57693005D02*
X208352438Y-57597767D01*
X208352438Y-57597767D02*
X208400057Y-57550148D01*
X208400057Y-57550148D02*
X208495295Y-57502529D01*
X208495295Y-57502529D02*
X208685771Y-57454910D01*
X208685771Y-57454910D02*
X208923866Y-57454910D01*
X208923866Y-57454910D02*
X209114342Y-57502529D01*
X209114342Y-57502529D02*
X209209580Y-57550148D01*
X209209580Y-57550148D02*
X209257200Y-57597767D01*
X209257200Y-57597767D02*
X209304819Y-57693005D01*
X209304819Y-57693005D02*
X209304819Y-57788243D01*
X209304819Y-57788243D02*
X209257200Y-57883481D01*
X209257200Y-57883481D02*
X209209580Y-57931100D01*
X209209580Y-57931100D02*
X209114342Y-57978719D01*
X209114342Y-57978719D02*
X208923866Y-58026338D01*
X208923866Y-58026338D02*
X208685771Y-58026338D01*
X208685771Y-58026338D02*
X208495295Y-57978719D01*
X208495295Y-57978719D02*
X208400057Y-57931100D01*
X208400057Y-57931100D02*
X208352438Y-57883481D01*
X208352438Y-57883481D02*
X208304819Y-57788243D01*
X208304819Y-56835862D02*
X208304819Y-56740624D01*
X208304819Y-56740624D02*
X208352438Y-56645386D01*
X208352438Y-56645386D02*
X208400057Y-56597767D01*
X208400057Y-56597767D02*
X208495295Y-56550148D01*
X208495295Y-56550148D02*
X208685771Y-56502529D01*
X208685771Y-56502529D02*
X208923866Y-56502529D01*
X208923866Y-56502529D02*
X209114342Y-56550148D01*
X209114342Y-56550148D02*
X209209580Y-56597767D01*
X209209580Y-56597767D02*
X209257200Y-56645386D01*
X209257200Y-56645386D02*
X209304819Y-56740624D01*
X209304819Y-56740624D02*
X209304819Y-56835862D01*
X209304819Y-56835862D02*
X209257200Y-56931100D01*
X209257200Y-56931100D02*
X209209580Y-56978719D01*
X209209580Y-56978719D02*
X209114342Y-57026338D01*
X209114342Y-57026338D02*
X208923866Y-57073957D01*
X208923866Y-57073957D02*
X208685771Y-57073957D01*
X208685771Y-57073957D02*
X208495295Y-57026338D01*
X208495295Y-57026338D02*
X208400057Y-56978719D01*
X208400057Y-56978719D02*
X208352438Y-56931100D01*
X208352438Y-56931100D02*
X208304819Y-56835862D01*
X208304819Y-55883481D02*
X208304819Y-55788243D01*
X208304819Y-55788243D02*
X208352438Y-55693005D01*
X208352438Y-55693005D02*
X208400057Y-55645386D01*
X208400057Y-55645386D02*
X208495295Y-55597767D01*
X208495295Y-55597767D02*
X208685771Y-55550148D01*
X208685771Y-55550148D02*
X208923866Y-55550148D01*
X208923866Y-55550148D02*
X209114342Y-55597767D01*
X209114342Y-55597767D02*
X209209580Y-55645386D01*
X209209580Y-55645386D02*
X209257200Y-55693005D01*
X209257200Y-55693005D02*
X209304819Y-55788243D01*
X209304819Y-55788243D02*
X209304819Y-55883481D01*
X209304819Y-55883481D02*
X209257200Y-55978719D01*
X209257200Y-55978719D02*
X209209580Y-56026338D01*
X209209580Y-56026338D02*
X209114342Y-56073957D01*
X209114342Y-56073957D02*
X208923866Y-56121576D01*
X208923866Y-56121576D02*
X208685771Y-56121576D01*
X208685771Y-56121576D02*
X208495295Y-56073957D01*
X208495295Y-56073957D02*
X208400057Y-56026338D01*
X208400057Y-56026338D02*
X208352438Y-55978719D01*
X208352438Y-55978719D02*
X208304819Y-55883481D01*
X209304819Y-54359671D02*
X208638152Y-54359671D01*
X208733390Y-54359671D02*
X208685771Y-54312052D01*
X208685771Y-54312052D02*
X208638152Y-54216814D01*
X208638152Y-54216814D02*
X208638152Y-54073957D01*
X208638152Y-54073957D02*
X208685771Y-53978719D01*
X208685771Y-53978719D02*
X208781009Y-53931100D01*
X208781009Y-53931100D02*
X209304819Y-53931100D01*
X208781009Y-53931100D02*
X208685771Y-53883481D01*
X208685771Y-53883481D02*
X208638152Y-53788243D01*
X208638152Y-53788243D02*
X208638152Y-53645386D01*
X208638152Y-53645386D02*
X208685771Y-53550147D01*
X208685771Y-53550147D02*
X208781009Y-53502528D01*
X208781009Y-53502528D02*
X209304819Y-53502528D01*
X209304819Y-53026338D02*
X208638152Y-53026338D01*
X208733390Y-53026338D02*
X208685771Y-52978719D01*
X208685771Y-52978719D02*
X208638152Y-52883481D01*
X208638152Y-52883481D02*
X208638152Y-52740624D01*
X208638152Y-52740624D02*
X208685771Y-52645386D01*
X208685771Y-52645386D02*
X208781009Y-52597767D01*
X208781009Y-52597767D02*
X209304819Y-52597767D01*
X208781009Y-52597767D02*
X208685771Y-52550148D01*
X208685771Y-52550148D02*
X208638152Y-52454910D01*
X208638152Y-52454910D02*
X208638152Y-52312053D01*
X208638152Y-52312053D02*
X208685771Y-52216814D01*
X208685771Y-52216814D02*
X208781009Y-52169195D01*
X208781009Y-52169195D02*
X209304819Y-52169195D01*
D10*
X195320000Y-49240625D02*
X210586420Y-49240625D01*
X210586420Y-64240625D02*
X197770000Y-64240625D01*
X210000000Y-49240625D02*
X210000000Y-64240625D01*
X210000000Y-49240625D02*
X210000000Y-64240625D01*
X210000000Y-49240625D02*
X210586421Y-50367129D01*
X210000000Y-49240625D02*
X209413579Y-50367129D01*
X210000000Y-64240625D02*
X209413579Y-63114121D01*
X210000000Y-64240625D02*
X210586421Y-63114121D01*
D11*
X209304819Y-77038243D02*
X209304819Y-77609671D01*
X209304819Y-77323957D02*
X208304819Y-77323957D01*
X208304819Y-77323957D02*
X208447676Y-77419195D01*
X208447676Y-77419195D02*
X208542914Y-77514433D01*
X208542914Y-77514433D02*
X208590533Y-77609671D01*
X208304819Y-76704909D02*
X208304819Y-76038243D01*
X208304819Y-76038243D02*
X209304819Y-76466814D01*
X209209580Y-75657290D02*
X209257200Y-75609671D01*
X209257200Y-75609671D02*
X209304819Y-75657290D01*
X209304819Y-75657290D02*
X209257200Y-75704909D01*
X209257200Y-75704909D02*
X209209580Y-75657290D01*
X209209580Y-75657290D02*
X209304819Y-75657290D01*
X208304819Y-74704910D02*
X208304819Y-75181100D01*
X208304819Y-75181100D02*
X208781009Y-75228719D01*
X208781009Y-75228719D02*
X208733390Y-75181100D01*
X208733390Y-75181100D02*
X208685771Y-75085862D01*
X208685771Y-75085862D02*
X208685771Y-74847767D01*
X208685771Y-74847767D02*
X208733390Y-74752529D01*
X208733390Y-74752529D02*
X208781009Y-74704910D01*
X208781009Y-74704910D02*
X208876247Y-74657291D01*
X208876247Y-74657291D02*
X209114342Y-74657291D01*
X209114342Y-74657291D02*
X209209580Y-74704910D01*
X209209580Y-74704910D02*
X209257200Y-74752529D01*
X209257200Y-74752529D02*
X209304819Y-74847767D01*
X209304819Y-74847767D02*
X209304819Y-75085862D01*
X209304819Y-75085862D02*
X209257200Y-75181100D01*
X209257200Y-75181100D02*
X209209580Y-75228719D01*
X208304819Y-74038243D02*
X208304819Y-73943005D01*
X208304819Y-73943005D02*
X208352438Y-73847767D01*
X208352438Y-73847767D02*
X208400057Y-73800148D01*
X208400057Y-73800148D02*
X208495295Y-73752529D01*
X208495295Y-73752529D02*
X208685771Y-73704910D01*
X208685771Y-73704910D02*
X208923866Y-73704910D01*
X208923866Y-73704910D02*
X209114342Y-73752529D01*
X209114342Y-73752529D02*
X209209580Y-73800148D01*
X209209580Y-73800148D02*
X209257200Y-73847767D01*
X209257200Y-73847767D02*
X209304819Y-73943005D01*
X209304819Y-73943005D02*
X209304819Y-74038243D01*
X209304819Y-74038243D02*
X209257200Y-74133481D01*
X209257200Y-74133481D02*
X209209580Y-74181100D01*
X209209580Y-74181100D02*
X209114342Y-74228719D01*
X209114342Y-74228719D02*
X208923866Y-74276338D01*
X208923866Y-74276338D02*
X208685771Y-74276338D01*
X208685771Y-74276338D02*
X208495295Y-74228719D01*
X208495295Y-74228719D02*
X208400057Y-74181100D01*
X208400057Y-74181100D02*
X208352438Y-74133481D01*
X208352438Y-74133481D02*
X208304819Y-74038243D01*
X208304819Y-73085862D02*
X208304819Y-72990624D01*
X208304819Y-72990624D02*
X208352438Y-72895386D01*
X208352438Y-72895386D02*
X208400057Y-72847767D01*
X208400057Y-72847767D02*
X208495295Y-72800148D01*
X208495295Y-72800148D02*
X208685771Y-72752529D01*
X208685771Y-72752529D02*
X208923866Y-72752529D01*
X208923866Y-72752529D02*
X209114342Y-72800148D01*
X209114342Y-72800148D02*
X209209580Y-72847767D01*
X209209580Y-72847767D02*
X209257200Y-72895386D01*
X209257200Y-72895386D02*
X209304819Y-72990624D01*
X209304819Y-72990624D02*
X209304819Y-73085862D01*
X209304819Y-73085862D02*
X209257200Y-73181100D01*
X209257200Y-73181100D02*
X209209580Y-73228719D01*
X209209580Y-73228719D02*
X209114342Y-73276338D01*
X209114342Y-73276338D02*
X208923866Y-73323957D01*
X208923866Y-73323957D02*
X208685771Y-73323957D01*
X208685771Y-73323957D02*
X208495295Y-73276338D01*
X208495295Y-73276338D02*
X208400057Y-73228719D01*
X208400057Y-73228719D02*
X208352438Y-73181100D01*
X208352438Y-73181100D02*
X208304819Y-73085862D01*
X208304819Y-72133481D02*
X208304819Y-72038243D01*
X208304819Y-72038243D02*
X208352438Y-71943005D01*
X208352438Y-71943005D02*
X208400057Y-71895386D01*
X208400057Y-71895386D02*
X208495295Y-71847767D01*
X208495295Y-71847767D02*
X208685771Y-71800148D01*
X208685771Y-71800148D02*
X208923866Y-71800148D01*
X208923866Y-71800148D02*
X209114342Y-71847767D01*
X209114342Y-71847767D02*
X209209580Y-71895386D01*
X209209580Y-71895386D02*
X209257200Y-71943005D01*
X209257200Y-71943005D02*
X209304819Y-72038243D01*
X209304819Y-72038243D02*
X209304819Y-72133481D01*
X209304819Y-72133481D02*
X209257200Y-72228719D01*
X209257200Y-72228719D02*
X209209580Y-72276338D01*
X209209580Y-72276338D02*
X209114342Y-72323957D01*
X209114342Y-72323957D02*
X208923866Y-72371576D01*
X208923866Y-72371576D02*
X208685771Y-72371576D01*
X208685771Y-72371576D02*
X208495295Y-72323957D01*
X208495295Y-72323957D02*
X208400057Y-72276338D01*
X208400057Y-72276338D02*
X208352438Y-72228719D01*
X208352438Y-72228719D02*
X208304819Y-72133481D01*
X209304819Y-70609671D02*
X208638152Y-70609671D01*
X208733390Y-70609671D02*
X208685771Y-70562052D01*
X208685771Y-70562052D02*
X208638152Y-70466814D01*
X208638152Y-70466814D02*
X208638152Y-70323957D01*
X208638152Y-70323957D02*
X208685771Y-70228719D01*
X208685771Y-70228719D02*
X208781009Y-70181100D01*
X208781009Y-70181100D02*
X209304819Y-70181100D01*
X208781009Y-70181100D02*
X208685771Y-70133481D01*
X208685771Y-70133481D02*
X208638152Y-70038243D01*
X208638152Y-70038243D02*
X208638152Y-69895386D01*
X208638152Y-69895386D02*
X208685771Y-69800147D01*
X208685771Y-69800147D02*
X208781009Y-69752528D01*
X208781009Y-69752528D02*
X209304819Y-69752528D01*
X209304819Y-69276338D02*
X208638152Y-69276338D01*
X208733390Y-69276338D02*
X208685771Y-69228719D01*
X208685771Y-69228719D02*
X208638152Y-69133481D01*
X208638152Y-69133481D02*
X208638152Y-68990624D01*
X208638152Y-68990624D02*
X208685771Y-68895386D01*
X208685771Y-68895386D02*
X208781009Y-68847767D01*
X208781009Y-68847767D02*
X209304819Y-68847767D01*
X208781009Y-68847767D02*
X208685771Y-68800148D01*
X208685771Y-68800148D02*
X208638152Y-68704910D01*
X208638152Y-68704910D02*
X208638152Y-68562053D01*
X208638152Y-68562053D02*
X208685771Y-68466814D01*
X208685771Y-68466814D02*
X208781009Y-68419195D01*
X208781009Y-68419195D02*
X209304819Y-68419195D01*
D10*
X197770000Y-64240625D02*
X210586420Y-64240625D01*
X210586420Y-81740625D02*
X196770000Y-81740625D01*
X210000000Y-64240625D02*
X210000000Y-81740625D01*
X210000000Y-64240625D02*
X210000000Y-81740625D01*
X210000000Y-64240625D02*
X210586421Y-65367129D01*
X210000000Y-64240625D02*
X209413579Y-65367129D01*
X210000000Y-81740625D02*
X209413579Y-80614121D01*
X210000000Y-81740625D02*
X210586421Y-80614121D01*
D11*
X164996191Y-130045444D02*
X165615238Y-130045444D01*
X165615238Y-130045444D02*
X165281905Y-130426396D01*
X165281905Y-130426396D02*
X165424762Y-130426396D01*
X165424762Y-130426396D02*
X165520000Y-130474015D01*
X165520000Y-130474015D02*
X165567619Y-130521634D01*
X165567619Y-130521634D02*
X165615238Y-130616872D01*
X165615238Y-130616872D02*
X165615238Y-130854967D01*
X165615238Y-130854967D02*
X165567619Y-130950205D01*
X165567619Y-130950205D02*
X165520000Y-130997825D01*
X165520000Y-130997825D02*
X165424762Y-131045444D01*
X165424762Y-131045444D02*
X165139048Y-131045444D01*
X165139048Y-131045444D02*
X165043810Y-130997825D01*
X165043810Y-130997825D02*
X164996191Y-130950205D01*
X166520000Y-130045444D02*
X166043810Y-130045444D01*
X166043810Y-130045444D02*
X165996191Y-130521634D01*
X165996191Y-130521634D02*
X166043810Y-130474015D01*
X166043810Y-130474015D02*
X166139048Y-130426396D01*
X166139048Y-130426396D02*
X166377143Y-130426396D01*
X166377143Y-130426396D02*
X166472381Y-130474015D01*
X166472381Y-130474015D02*
X166520000Y-130521634D01*
X166520000Y-130521634D02*
X166567619Y-130616872D01*
X166567619Y-130616872D02*
X166567619Y-130854967D01*
X166567619Y-130854967D02*
X166520000Y-130950205D01*
X166520000Y-130950205D02*
X166472381Y-130997825D01*
X166472381Y-130997825D02*
X166377143Y-131045444D01*
X166377143Y-131045444D02*
X166139048Y-131045444D01*
X166139048Y-131045444D02*
X166043810Y-130997825D01*
X166043810Y-130997825D02*
X165996191Y-130950205D01*
X167758096Y-131045444D02*
X167758096Y-130378777D01*
X167758096Y-130474015D02*
X167805715Y-130426396D01*
X167805715Y-130426396D02*
X167900953Y-130378777D01*
X167900953Y-130378777D02*
X168043810Y-130378777D01*
X168043810Y-130378777D02*
X168139048Y-130426396D01*
X168139048Y-130426396D02*
X168186667Y-130521634D01*
X168186667Y-130521634D02*
X168186667Y-131045444D01*
X168186667Y-130521634D02*
X168234286Y-130426396D01*
X168234286Y-130426396D02*
X168329524Y-130378777D01*
X168329524Y-130378777D02*
X168472381Y-130378777D01*
X168472381Y-130378777D02*
X168567620Y-130426396D01*
X168567620Y-130426396D02*
X168615239Y-130521634D01*
X168615239Y-130521634D02*
X168615239Y-131045444D01*
X169091429Y-131045444D02*
X169091429Y-130378777D01*
X169091429Y-130474015D02*
X169139048Y-130426396D01*
X169139048Y-130426396D02*
X169234286Y-130378777D01*
X169234286Y-130378777D02*
X169377143Y-130378777D01*
X169377143Y-130378777D02*
X169472381Y-130426396D01*
X169472381Y-130426396D02*
X169520000Y-130521634D01*
X169520000Y-130521634D02*
X169520000Y-131045444D01*
X169520000Y-130521634D02*
X169567619Y-130426396D01*
X169567619Y-130426396D02*
X169662857Y-130378777D01*
X169662857Y-130378777D02*
X169805714Y-130378777D01*
X169805714Y-130378777D02*
X169900953Y-130426396D01*
X169900953Y-130426396D02*
X169948572Y-130521634D01*
X169948572Y-130521634D02*
X169948572Y-131045444D01*
D10*
X150020000Y-72240625D02*
X150020000Y-132327045D01*
X185020000Y-132327045D02*
X185020000Y-97240625D01*
X150020000Y-131740625D02*
X185020000Y-131740625D01*
X150020000Y-131740625D02*
X185020000Y-131740625D01*
X150020000Y-131740625D02*
X151146504Y-131154204D01*
X150020000Y-131740625D02*
X151146504Y-132327046D01*
X185020000Y-131740625D02*
X183893496Y-132327046D01*
X185020000Y-131740625D02*
X183893496Y-131154204D01*
D11*
X209304819Y-44038243D02*
X209304819Y-44609671D01*
X209304819Y-44323957D02*
X208304819Y-44323957D01*
X208304819Y-44323957D02*
X208447676Y-44419195D01*
X208447676Y-44419195D02*
X208542914Y-44514433D01*
X208542914Y-44514433D02*
X208590533Y-44609671D01*
X208733390Y-43466814D02*
X208685771Y-43562052D01*
X208685771Y-43562052D02*
X208638152Y-43609671D01*
X208638152Y-43609671D02*
X208542914Y-43657290D01*
X208542914Y-43657290D02*
X208495295Y-43657290D01*
X208495295Y-43657290D02*
X208400057Y-43609671D01*
X208400057Y-43609671D02*
X208352438Y-43562052D01*
X208352438Y-43562052D02*
X208304819Y-43466814D01*
X208304819Y-43466814D02*
X208304819Y-43276338D01*
X208304819Y-43276338D02*
X208352438Y-43181100D01*
X208352438Y-43181100D02*
X208400057Y-43133481D01*
X208400057Y-43133481D02*
X208495295Y-43085862D01*
X208495295Y-43085862D02*
X208542914Y-43085862D01*
X208542914Y-43085862D02*
X208638152Y-43133481D01*
X208638152Y-43133481D02*
X208685771Y-43181100D01*
X208685771Y-43181100D02*
X208733390Y-43276338D01*
X208733390Y-43276338D02*
X208733390Y-43466814D01*
X208733390Y-43466814D02*
X208781009Y-43562052D01*
X208781009Y-43562052D02*
X208828628Y-43609671D01*
X208828628Y-43609671D02*
X208923866Y-43657290D01*
X208923866Y-43657290D02*
X209114342Y-43657290D01*
X209114342Y-43657290D02*
X209209580Y-43609671D01*
X209209580Y-43609671D02*
X209257200Y-43562052D01*
X209257200Y-43562052D02*
X209304819Y-43466814D01*
X209304819Y-43466814D02*
X209304819Y-43276338D01*
X209304819Y-43276338D02*
X209257200Y-43181100D01*
X209257200Y-43181100D02*
X209209580Y-43133481D01*
X209209580Y-43133481D02*
X209114342Y-43085862D01*
X209114342Y-43085862D02*
X208923866Y-43085862D01*
X208923866Y-43085862D02*
X208828628Y-43133481D01*
X208828628Y-43133481D02*
X208781009Y-43181100D01*
X208781009Y-43181100D02*
X208733390Y-43276338D01*
X209209580Y-42657290D02*
X209257200Y-42609671D01*
X209257200Y-42609671D02*
X209304819Y-42657290D01*
X209304819Y-42657290D02*
X209257200Y-42704909D01*
X209257200Y-42704909D02*
X209209580Y-42657290D01*
X209209580Y-42657290D02*
X209304819Y-42657290D01*
X208304819Y-41704910D02*
X208304819Y-42181100D01*
X208304819Y-42181100D02*
X208781009Y-42228719D01*
X208781009Y-42228719D02*
X208733390Y-42181100D01*
X208733390Y-42181100D02*
X208685771Y-42085862D01*
X208685771Y-42085862D02*
X208685771Y-41847767D01*
X208685771Y-41847767D02*
X208733390Y-41752529D01*
X208733390Y-41752529D02*
X208781009Y-41704910D01*
X208781009Y-41704910D02*
X208876247Y-41657291D01*
X208876247Y-41657291D02*
X209114342Y-41657291D01*
X209114342Y-41657291D02*
X209209580Y-41704910D01*
X209209580Y-41704910D02*
X209257200Y-41752529D01*
X209257200Y-41752529D02*
X209304819Y-41847767D01*
X209304819Y-41847767D02*
X209304819Y-42085862D01*
X209304819Y-42085862D02*
X209257200Y-42181100D01*
X209257200Y-42181100D02*
X209209580Y-42228719D01*
X208304819Y-41038243D02*
X208304819Y-40943005D01*
X208304819Y-40943005D02*
X208352438Y-40847767D01*
X208352438Y-40847767D02*
X208400057Y-40800148D01*
X208400057Y-40800148D02*
X208495295Y-40752529D01*
X208495295Y-40752529D02*
X208685771Y-40704910D01*
X208685771Y-40704910D02*
X208923866Y-40704910D01*
X208923866Y-40704910D02*
X209114342Y-40752529D01*
X209114342Y-40752529D02*
X209209580Y-40800148D01*
X209209580Y-40800148D02*
X209257200Y-40847767D01*
X209257200Y-40847767D02*
X209304819Y-40943005D01*
X209304819Y-40943005D02*
X209304819Y-41038243D01*
X209304819Y-41038243D02*
X209257200Y-41133481D01*
X209257200Y-41133481D02*
X209209580Y-41181100D01*
X209209580Y-41181100D02*
X209114342Y-41228719D01*
X209114342Y-41228719D02*
X208923866Y-41276338D01*
X208923866Y-41276338D02*
X208685771Y-41276338D01*
X208685771Y-41276338D02*
X208495295Y-41228719D01*
X208495295Y-41228719D02*
X208400057Y-41181100D01*
X208400057Y-41181100D02*
X208352438Y-41133481D01*
X208352438Y-41133481D02*
X208304819Y-41038243D01*
X208304819Y-40085862D02*
X208304819Y-39990624D01*
X208304819Y-39990624D02*
X208352438Y-39895386D01*
X208352438Y-39895386D02*
X208400057Y-39847767D01*
X208400057Y-39847767D02*
X208495295Y-39800148D01*
X208495295Y-39800148D02*
X208685771Y-39752529D01*
X208685771Y-39752529D02*
X208923866Y-39752529D01*
X208923866Y-39752529D02*
X209114342Y-39800148D01*
X209114342Y-39800148D02*
X209209580Y-39847767D01*
X209209580Y-39847767D02*
X209257200Y-39895386D01*
X209257200Y-39895386D02*
X209304819Y-39990624D01*
X209304819Y-39990624D02*
X209304819Y-40085862D01*
X209304819Y-40085862D02*
X209257200Y-40181100D01*
X209257200Y-40181100D02*
X209209580Y-40228719D01*
X209209580Y-40228719D02*
X209114342Y-40276338D01*
X209114342Y-40276338D02*
X208923866Y-40323957D01*
X208923866Y-40323957D02*
X208685771Y-40323957D01*
X208685771Y-40323957D02*
X208495295Y-40276338D01*
X208495295Y-40276338D02*
X208400057Y-40228719D01*
X208400057Y-40228719D02*
X208352438Y-40181100D01*
X208352438Y-40181100D02*
X208304819Y-40085862D01*
X208304819Y-39133481D02*
X208304819Y-39038243D01*
X208304819Y-39038243D02*
X208352438Y-38943005D01*
X208352438Y-38943005D02*
X208400057Y-38895386D01*
X208400057Y-38895386D02*
X208495295Y-38847767D01*
X208495295Y-38847767D02*
X208685771Y-38800148D01*
X208685771Y-38800148D02*
X208923866Y-38800148D01*
X208923866Y-38800148D02*
X209114342Y-38847767D01*
X209114342Y-38847767D02*
X209209580Y-38895386D01*
X209209580Y-38895386D02*
X209257200Y-38943005D01*
X209257200Y-38943005D02*
X209304819Y-39038243D01*
X209304819Y-39038243D02*
X209304819Y-39133481D01*
X209304819Y-39133481D02*
X209257200Y-39228719D01*
X209257200Y-39228719D02*
X209209580Y-39276338D01*
X209209580Y-39276338D02*
X209114342Y-39323957D01*
X209114342Y-39323957D02*
X208923866Y-39371576D01*
X208923866Y-39371576D02*
X208685771Y-39371576D01*
X208685771Y-39371576D02*
X208495295Y-39323957D01*
X208495295Y-39323957D02*
X208400057Y-39276338D01*
X208400057Y-39276338D02*
X208352438Y-39228719D01*
X208352438Y-39228719D02*
X208304819Y-39133481D01*
X209304819Y-37609671D02*
X208638152Y-37609671D01*
X208733390Y-37609671D02*
X208685771Y-37562052D01*
X208685771Y-37562052D02*
X208638152Y-37466814D01*
X208638152Y-37466814D02*
X208638152Y-37323957D01*
X208638152Y-37323957D02*
X208685771Y-37228719D01*
X208685771Y-37228719D02*
X208781009Y-37181100D01*
X208781009Y-37181100D02*
X209304819Y-37181100D01*
X208781009Y-37181100D02*
X208685771Y-37133481D01*
X208685771Y-37133481D02*
X208638152Y-37038243D01*
X208638152Y-37038243D02*
X208638152Y-36895386D01*
X208638152Y-36895386D02*
X208685771Y-36800147D01*
X208685771Y-36800147D02*
X208781009Y-36752528D01*
X208781009Y-36752528D02*
X209304819Y-36752528D01*
X209304819Y-36276338D02*
X208638152Y-36276338D01*
X208733390Y-36276338D02*
X208685771Y-36228719D01*
X208685771Y-36228719D02*
X208638152Y-36133481D01*
X208638152Y-36133481D02*
X208638152Y-35990624D01*
X208638152Y-35990624D02*
X208685771Y-35895386D01*
X208685771Y-35895386D02*
X208781009Y-35847767D01*
X208781009Y-35847767D02*
X209304819Y-35847767D01*
X208781009Y-35847767D02*
X208685771Y-35800148D01*
X208685771Y-35800148D02*
X208638152Y-35704910D01*
X208638152Y-35704910D02*
X208638152Y-35562053D01*
X208638152Y-35562053D02*
X208685771Y-35466814D01*
X208685771Y-35466814D02*
X208781009Y-35419195D01*
X208781009Y-35419195D02*
X209304819Y-35419195D01*
D10*
X196520000Y-30740625D02*
X210586420Y-30740625D01*
X210586420Y-49240625D02*
X195320000Y-49240625D01*
X210000000Y-30740625D02*
X210000000Y-49240625D01*
X210000000Y-30740625D02*
X210000000Y-49240625D01*
X210000000Y-30740625D02*
X210586421Y-31867129D01*
X210000000Y-30740625D02*
X209413579Y-31867129D01*
X210000000Y-49240625D02*
X209413579Y-48114121D01*
X210000000Y-49240625D02*
X210586421Y-48114121D01*
D11*
X129996191Y-130045444D02*
X130615238Y-130045444D01*
X130615238Y-130045444D02*
X130281905Y-130426396D01*
X130281905Y-130426396D02*
X130424762Y-130426396D01*
X130424762Y-130426396D02*
X130520000Y-130474015D01*
X130520000Y-130474015D02*
X130567619Y-130521634D01*
X130567619Y-130521634D02*
X130615238Y-130616872D01*
X130615238Y-130616872D02*
X130615238Y-130854967D01*
X130615238Y-130854967D02*
X130567619Y-130950205D01*
X130567619Y-130950205D02*
X130520000Y-130997825D01*
X130520000Y-130997825D02*
X130424762Y-131045444D01*
X130424762Y-131045444D02*
X130139048Y-131045444D01*
X130139048Y-131045444D02*
X130043810Y-130997825D01*
X130043810Y-130997825D02*
X129996191Y-130950205D01*
X131520000Y-130045444D02*
X131043810Y-130045444D01*
X131043810Y-130045444D02*
X130996191Y-130521634D01*
X130996191Y-130521634D02*
X131043810Y-130474015D01*
X131043810Y-130474015D02*
X131139048Y-130426396D01*
X131139048Y-130426396D02*
X131377143Y-130426396D01*
X131377143Y-130426396D02*
X131472381Y-130474015D01*
X131472381Y-130474015D02*
X131520000Y-130521634D01*
X131520000Y-130521634D02*
X131567619Y-130616872D01*
X131567619Y-130616872D02*
X131567619Y-130854967D01*
X131567619Y-130854967D02*
X131520000Y-130950205D01*
X131520000Y-130950205D02*
X131472381Y-130997825D01*
X131472381Y-130997825D02*
X131377143Y-131045444D01*
X131377143Y-131045444D02*
X131139048Y-131045444D01*
X131139048Y-131045444D02*
X131043810Y-130997825D01*
X131043810Y-130997825D02*
X130996191Y-130950205D01*
X132758096Y-131045444D02*
X132758096Y-130378777D01*
X132758096Y-130474015D02*
X132805715Y-130426396D01*
X132805715Y-130426396D02*
X132900953Y-130378777D01*
X132900953Y-130378777D02*
X133043810Y-130378777D01*
X133043810Y-130378777D02*
X133139048Y-130426396D01*
X133139048Y-130426396D02*
X133186667Y-130521634D01*
X133186667Y-130521634D02*
X133186667Y-131045444D01*
X133186667Y-130521634D02*
X133234286Y-130426396D01*
X133234286Y-130426396D02*
X133329524Y-130378777D01*
X133329524Y-130378777D02*
X133472381Y-130378777D01*
X133472381Y-130378777D02*
X133567620Y-130426396D01*
X133567620Y-130426396D02*
X133615239Y-130521634D01*
X133615239Y-130521634D02*
X133615239Y-131045444D01*
X134091429Y-131045444D02*
X134091429Y-130378777D01*
X134091429Y-130474015D02*
X134139048Y-130426396D01*
X134139048Y-130426396D02*
X134234286Y-130378777D01*
X134234286Y-130378777D02*
X134377143Y-130378777D01*
X134377143Y-130378777D02*
X134472381Y-130426396D01*
X134472381Y-130426396D02*
X134520000Y-130521634D01*
X134520000Y-130521634D02*
X134520000Y-131045444D01*
X134520000Y-130521634D02*
X134567619Y-130426396D01*
X134567619Y-130426396D02*
X134662857Y-130378777D01*
X134662857Y-130378777D02*
X134805714Y-130378777D01*
X134805714Y-130378777D02*
X134900953Y-130426396D01*
X134900953Y-130426396D02*
X134948572Y-130521634D01*
X134948572Y-130521634D02*
X134948572Y-131045444D01*
D10*
X150020000Y-72240625D02*
X150020000Y-132327045D01*
X115020000Y-132327045D02*
X115020000Y-97240625D01*
X150020000Y-131740625D02*
X115020000Y-131740625D01*
X150020000Y-131740625D02*
X115020000Y-131740625D01*
X150020000Y-131740625D02*
X148893496Y-132327046D01*
X150020000Y-131740625D02*
X148893496Y-131154204D01*
X115020000Y-131740625D02*
X116146504Y-131154204D01*
X115020000Y-131740625D02*
X116146504Y-132327046D01*
D12*
%TO.C,BT1*%
X160220000Y-71740625D02*
G75*
G02*
X139820000Y-71740625I-10200000J0D01*
G01*
X139820000Y-71740625D02*
G75*
G02*
X160220000Y-71740625I10200000J0D01*
G01*
%TD*%
M02*
