M48
; DRILL file {KiCad 8.0.6} date 2024-11-24T18:56:08-0300
; FORMAT={-:-/ absolute / metric / decimal}
; #@! TF.CreationDate,2024-11-24T18:56:08-03:00
; #@! TF.GenerationSoftware,Kicad,Pcbnew,8.0.6
; #@! TF.FileFunction,Plated,1,4,PTH
FMAT,2
METRIC
; #@! TA.AperFunction,Plated,PTH,ViaDrill
T1C0.300
; #@! TA.AperFunction,Plated,PTH,ComponentDrill
T2C0.600
; #@! TA.AperFunction,Plated,PTH,ComponentDrill
T3C0.700
; #@! TA.AperFunction,Plated,PTH,ComponentDrill
T4C1.000
%
G90
G05
T1
X104.12Y-93.741
X104.12Y-99.741
X105.02Y-41.741
X105.02Y-46.741
X105.02Y-51.741
X105.02Y-56.741
X105.02Y-61.741
X105.02Y-81.741
X105.02Y-86.741
X105.02Y-91.741
X105.02Y-96.741
X105.02Y-101.741
X106.27Y-68.741
X106.27Y-74.741
X107.07Y-69.241
X107.07Y-74.241
X108.02Y-69.241
X108.02Y-74.241
X109.52Y-62.741
X109.52Y-63.741
X109.52Y-79.741
X109.52Y-80.741
X109.52Y-95.991
X110.02Y-31.741
X110.02Y-36.741
X110.02Y-41.741
X110.02Y-51.741
X110.02Y-56.741
X110.02Y-61.741
X110.02Y-86.741
X110.02Y-91.741
X110.02Y-101.741
X110.02Y-106.741
X110.02Y-111.741
X110.07Y-71.741
X110.27Y-68.491
X110.27Y-74.991
X110.52Y-95.991
X111.02Y-68.991
X111.02Y-74.491
X112.02Y-107.741
X112.52Y-70.241
X112.52Y-71.741
X112.52Y-73.241
X113.12Y-84.891
X113.52Y-64.241
X113.52Y-70.241
X113.52Y-73.241
X113.52Y-79.241
X113.957Y-45.491
X113.97Y-42.878
X114.12Y-93.741
X114.12Y-99.741
X114.27Y-91.241
X114.27Y-92.241
X115.02Y-31.741
X115.02Y-36.741
X115.02Y-51.741
X115.02Y-56.741
X115.02Y-61.741
X115.02Y-64.241
X115.02Y-72.991
X115.02Y-75.991
X115.02Y-79.241
X115.02Y-81.741
X115.02Y-84.991
X115.02Y-96.741
X115.02Y-107.741
X115.02Y-111.741
X115.082Y-46.291
X115.845Y-102.241
X116.52Y-64.241
X116.52Y-79.241
X116.77Y-102.241
X116.92Y-84.891
X117.332Y-46.741
X117.332Y-47.741
X118.02Y-107.741
X119.52Y-69.491
X119.52Y-73.991
X119.77Y-40.241
X120.02Y-31.741
X120.02Y-36.741
X120.02Y-46.741
X120.02Y-51.741
X120.02Y-56.741
X120.02Y-61.741
X120.02Y-91.741
X120.02Y-101.741
X120.02Y-111.741
X120.27Y-68.241
X120.27Y-70.991
X120.27Y-75.241
X120.52Y-62.741
X120.52Y-63.741
X120.52Y-79.741
X120.52Y-80.741
X120.77Y-48.741
X120.77Y-50.991
X120.77Y-55.991
X121.52Y-94.741
X121.77Y-70.991
X122.42Y-94.941
X122.52Y-84.241
X122.77Y-68.241
X123.27Y-92.491
X123.52Y-70.991
X124.27Y-92.491
X124.62Y-37.451
X124.62Y-104.761
X125.02Y-31.741
X125.02Y-56.741
X125.02Y-61.741
X125.02Y-66.741
X125.02Y-81.741
X125.02Y-96.741
X125.02Y-111.741
X125.27Y-52.241
X125.27Y-92.491
X125.92Y-93.741
X125.92Y-99.741
X126.27Y-89.991
X126.82Y-44.241
X127.02Y-90.741
X127.16Y-37.451
X127.16Y-104.761
X128.52Y-50.991
X129.27Y-39.491
X129.27Y-47.491
X129.7Y-37.451
X129.7Y-104.761
X130.02Y-61.741
X130.02Y-66.741
X130.02Y-71.741
X130.02Y-76.741
X130.02Y-81.741
X130.02Y-86.741
X130.02Y-91.741
X130.02Y-96.741
X132.24Y-37.451
X132.24Y-104.761
X132.52Y-59.241
X132.52Y-94.241
X133.27Y-66.491
X133.27Y-68.241
X133.27Y-69.991
X133.52Y-47.611
X133.77Y-46.241
X134.52Y-65.741
X134.77Y-74.291
X134.78Y-37.451
X134.78Y-104.761
X135.02Y-61.741
X135.02Y-91.741
X136.02Y-65.741
X136.045Y-64.216
X136.52Y-74.491
X136.52Y-79.491
X137.02Y-45.741
X137.02Y-63.241
X137.32Y-37.451
X137.32Y-104.761
X137.52Y-84.241
X137.574Y-73.011
X137.77Y-46.741
X137.77Y-53.241
X138.27Y-84.991
X138.52Y-53.991
X138.59Y-45.706
X138.77Y-69.362
X139.02Y-81.741
X139.02Y-84.241
X139.52Y-46.741
X139.52Y-80.741
X139.77Y-52.918
X139.77Y-84.991
X139.86Y-37.451
X139.86Y-104.761
X139.882Y-72.353
X140.02Y-41.741
X140.495Y-45.741
X140.52Y-49.241
X140.52Y-84.241
X141.02Y-63.241
X141.27Y-46.491
X141.27Y-67.991
X141.27Y-84.991
X141.531Y-48.979
X142.02Y-84.241
X142.392Y-45.706
X142.4Y-37.451
X142.4Y-104.761
X142.52Y-67.991
X142.77Y-72.741
X142.77Y-84.991
X143.02Y-46.491
X143.02Y-65.269
X143.27Y-66.491
X143.52Y-63.741
X143.52Y-84.241
X144.27Y-65.631
X144.27Y-84.991
X144.305Y-45.706
X144.94Y-37.451
X144.94Y-104.761
X145.02Y-51.741
X145.02Y-62.741
X145.02Y-81.241
X145.02Y-84.241
X145.02Y-101.741
X145.27Y-65.491
X145.67Y-70.452
X145.76Y-68.991
X145.77Y-73.491
X145.77Y-84.991
X146.02Y-62.741
X146.02Y-81.241
X146.52Y-75.991
X146.52Y-84.241
X147.091Y-67.419
X147.27Y-84.991
X147.48Y-37.451
X147.48Y-104.761
X147.52Y-49.241
X147.52Y-75.991
X147.52Y-99.241
X148.02Y-84.241
X148.224Y-70.452
X149.02Y-71.741
X150.02Y-37.451
X150.02Y-41.741
X150.02Y-46.741
X150.02Y-51.741
X150.02Y-96.741
X150.02Y-104.761
X150.27Y-68.241
X151.77Y-68.241
X152.52Y-96.991
X152.56Y-37.451
X152.56Y-104.761
X153.02Y-75.991
X153.52Y-70.491
X154.02Y-75.991
X154.52Y-70.491
X154.77Y-82.991
X155.02Y-97.241
X155.1Y-89.521
X155.1Y-104.761
X156.02Y-59.741
X156.02Y-60.741
X156.02Y-76.241
X156.02Y-77.241
X156.02Y-80.991
X156.283Y-37.364
X157.005Y-51.421
X157.02Y-81.241
X157.52Y-97.241
X157.64Y-104.761
X157.77Y-79.741
X157.77Y-81.741
X158.02Y-89.521
X158.275Y-50.151
X158.52Y-64.991
X158.52Y-71.359
X158.52Y-81.241
X158.882Y-66.103
X158.91Y-37.451
X159.02Y-68.491
X159.27Y-81.741
X159.52Y-71.241
X160.02Y-66.491
X160.02Y-81.241
X160.02Y-97.241
X160.18Y-88.251
X160.18Y-104.761
X160.52Y-70.991
X160.77Y-43.741
X160.77Y-50.786
X160.815Y-52.056
X161.27Y-79.991
X161.45Y-37.451
X161.45Y-57.771
X161.52Y-56.491
X161.77Y-65.353
X162.52Y-79.991
X162.72Y-90.791
X162.72Y-104.761
X163.237Y-65.297
X163.99Y-37.451
X164.27Y-77.991
X164.27Y-78.991
X164.77Y-68.991
X164.77Y-74.741
X165.02Y-96.741
X165.26Y-104.761
X165.52Y-82.991
X165.77Y-79.741
X166.02Y-68.991
X166.137Y-78.746
X166.52Y-66.491
X166.53Y-37.451
X166.53Y-83.806
X166.77Y-71.741
X167.02Y-77.491
X167.52Y-66.491
X167.52Y-76.741
X167.8Y-104.761
X168.009Y-78.991
X168.38Y-50.786
X168.435Y-52.056
X168.52Y-66.491
X168.645Y-79.866
X169.07Y-37.451
X169.52Y-80.491
X170.02Y-41.741
X170.02Y-46.741
X170.02Y-56.741
X170.02Y-61.741
X170.02Y-66.741
X170.02Y-71.741
X170.02Y-86.741
X170.02Y-91.741
X170.02Y-101.741
X170.34Y-104.761
X170.77Y-40.241
X171.02Y-73.241
X171.02Y-74.741
X171.02Y-76.241
X171.61Y-37.451
X172.02Y-73.991
X172.02Y-75.491
X172.52Y-52.491
X172.52Y-59.241
X172.52Y-91.741
X172.77Y-76.241
X172.88Y-93.966
X172.88Y-104.761
X173.02Y-71.241
X174.15Y-37.451
X174.242Y-91.724
X174.27Y-72.241
X174.27Y-76.241
X175.02Y-31.741
X175.02Y-56.741
X175.02Y-61.741
X175.02Y-66.741
X175.02Y-71.241
X175.02Y-101.741
X175.02Y-111.741
X175.42Y-93.966
X175.52Y-46.991
X175.77Y-76.241
X175.77Y-91.741
X176.27Y-52.491
X177.02Y-71.241
X177.27Y-76.241
X177.52Y-91.741
X179.27Y-93.741
X179.27Y-99.741
X179.52Y-34.241
X179.52Y-87.241
X179.52Y-88.741
X180.02Y-31.741
X180.02Y-66.741
X180.02Y-96.741
X180.02Y-101.741
X180.02Y-106.741
X180.02Y-111.741
X180.52Y-87.241
X180.52Y-88.741
X180.77Y-82.741
X181.27Y-36.741
X181.27Y-40.241
X181.27Y-42.491
X181.27Y-44.741
X181.52Y-59.241
X182.02Y-74.991
X182.52Y-55.241
X183.02Y-74.991
X183.52Y-59.241
X184.27Y-82.791
X184.27Y-84.991
X185.02Y-31.741
X185.02Y-71.741
X185.02Y-74.241
X185.02Y-89.991
X185.02Y-95.916
X185.02Y-97.241
X185.02Y-101.741
X185.02Y-106.741
X185.02Y-111.741
X185.27Y-64.241
X185.27Y-66.741
X186.27Y-58.791
X186.77Y-72.741
X186.77Y-75.741
X186.77Y-91.241
X187.27Y-82.791
X187.27Y-84.991
X188.27Y-74.241
X188.27Y-82.741
X188.27Y-89.991
X188.77Y-58.791
X189.77Y-62.491
X189.77Y-65.991
X190.02Y-31.741
X190.02Y-36.741
X190.02Y-41.741
X190.02Y-46.741
X190.02Y-51.741
X190.02Y-56.741
X190.02Y-71.741
X190.02Y-76.741
X190.02Y-81.741
X190.02Y-86.741
X190.02Y-91.741
X190.02Y-96.741
X190.02Y-101.741
X190.02Y-106.741
X190.02Y-111.741
X190.77Y-93.741
X190.77Y-99.741
X194.27Y-74.241
X194.27Y-89.991
X195.02Y-41.741
X195.02Y-46.741
X195.02Y-51.741
X195.02Y-56.741
X195.02Y-71.741
X195.02Y-76.741
X195.02Y-81.741
X195.02Y-86.741
X195.02Y-91.741
X195.02Y-96.741
X195.02Y-101.741
X196.02Y-72.741
X196.02Y-75.241
X196.02Y-88.241
X196.02Y-91.241
X198.27Y-74.241
X198.27Y-89.991
T3
X110.02Y-44.241
X110.02Y-49.241
X146.21Y-55.941
X148.75Y-55.941
X151.29Y-55.941
X153.83Y-55.941
T4
X101.98Y-66.661
X101.98Y-69.201
X101.98Y-71.741
X101.98Y-74.281
X101.98Y-76.821
X102.02Y-40.491
X102.02Y-102.991
X104.52Y-66.661
X104.52Y-69.201
X104.52Y-71.741
X104.52Y-74.281
X104.52Y-76.821
X117.77Y-40.491
X122.77Y-58.741
X125.89Y-33.085
X125.89Y-35.625
X125.89Y-107.856
X125.89Y-110.396
X128.43Y-33.085
X128.43Y-35.625
X128.43Y-107.856
X128.43Y-110.396
X130.97Y-33.085
X130.97Y-35.625
X130.97Y-107.856
X130.97Y-110.396
X132.02Y-64.241
X132.02Y-76.241
X133.51Y-33.085
X133.51Y-35.625
X133.51Y-107.856
X133.51Y-110.396
X136.05Y-33.085
X136.05Y-35.625
X136.05Y-107.856
X136.05Y-110.396
X138.59Y-33.085
X138.59Y-35.625
X138.59Y-107.856
X138.59Y-110.396
X141.13Y-33.085
X141.13Y-35.625
X141.13Y-107.856
X141.13Y-110.396
X143.67Y-33.085
X143.67Y-35.625
X143.67Y-107.856
X143.67Y-110.396
X146.21Y-33.085
X146.21Y-35.625
X146.21Y-107.856
X146.21Y-110.396
X148.75Y-33.085
X148.75Y-35.625
X148.75Y-107.856
X148.75Y-110.396
X151.29Y-33.085
X151.29Y-35.625
X151.29Y-107.856
X151.29Y-110.396
X153.77Y-84.241
X153.83Y-33.085
X153.83Y-35.625
X153.83Y-107.856
X153.83Y-110.396
X156.37Y-33.085
X156.37Y-35.625
X156.37Y-107.856
X156.37Y-110.396
X158.91Y-33.085
X158.91Y-35.625
X158.91Y-107.856
X158.91Y-110.396
X161.45Y-33.085
X161.45Y-35.625
X161.45Y-107.856
X161.45Y-110.396
X163.99Y-33.085
X163.99Y-35.625
X163.99Y-107.856
X163.99Y-110.396
X166.53Y-33.085
X166.53Y-35.625
X166.53Y-107.856
X166.53Y-110.396
X168.02Y-60.741
X169.07Y-33.085
X169.07Y-35.625
X169.07Y-107.856
X169.07Y-110.396
X171.61Y-33.085
X171.61Y-35.625
X171.61Y-107.856
X171.61Y-110.396
X174.15Y-33.085
X174.15Y-35.625
X174.15Y-107.856
X174.15Y-110.396
X177.02Y-55.991
X177.02Y-60.741
X187.52Y-34.241
X187.52Y-69.241
X198.02Y-40.491
X198.02Y-56.741
X198.02Y-102.991
T2
G00X193.595Y-59.921
M15
G01X194.695Y-59.921
M16
G05
G00X193.595Y-68.561
M15
G01X194.695Y-68.561
M16
G05
G00X197.945Y-59.921
M15
G01X198.745Y-59.921
M16
G05
G00X197.945Y-68.561
M15
G01X198.745Y-68.561
M16
G05
T4
G00X187.52Y-50.541
M15
G01X187.52Y-47.941
M16
G05
G00X189.32Y-44.441
M15
G01X191.52Y-44.441
M16
G05
G00X193.82Y-50.341
M15
G01X193.82Y-48.141
M16
G05
M30
