%TF.GenerationSoftware,KiCad,Pcbnew,8.0.6*%
%TF.CreationDate,2025-01-05T13:15:25-03:00*%
%TF.ProjectId,EMBARCADOS - CURSO PCB,454d4241-5243-4414-944f-53202d204355,01*%
%TF.SameCoordinates,Original*%
%TF.FileFunction,Copper,L1,Top*%
%TF.FilePolarity,Positive*%
%FSLAX46Y46*%
G04 Gerber Fmt 4.6, Leading zero omitted, Abs format (unit mm)*
G04 Created by KiCad (PCBNEW 8.0.6) date 2025-01-05 13:15:25*
%MOMM*%
%LPD*%
G01*
G04 APERTURE LIST*
G04 Aperture macros list*
%AMRoundRect*
0 Rectangle with rounded corners*
0 $1 Rounding radius*
0 $2 $3 $4 $5 $6 $7 $8 $9 X,Y pos of 4 corners*
0 Add a 4 corners polygon primitive as box body*
4,1,4,$2,$3,$4,$5,$6,$7,$8,$9,$2,$3,0*
0 Add four circle primitives for the rounded corners*
1,1,$1+$1,$2,$3*
1,1,$1+$1,$4,$5*
1,1,$1+$1,$6,$7*
1,1,$1+$1,$8,$9*
0 Add four rect primitives between the rounded corners*
20,1,$1+$1,$2,$3,$4,$5,0*
20,1,$1+$1,$4,$5,$6,$7,0*
20,1,$1+$1,$6,$7,$8,$9,0*
20,1,$1+$1,$8,$9,$2,$3,0*%
%AMFreePoly0*
4,1,19,0.500000,-0.750000,0.000000,-0.750000,0.000000,-0.744911,-0.071157,-0.744911,-0.207708,-0.704816,-0.327430,-0.627875,-0.420627,-0.520320,-0.479746,-0.390866,-0.500000,-0.250000,-0.500000,0.250000,-0.479746,0.390866,-0.420627,0.520320,-0.327430,0.627875,-0.207708,0.704816,-0.071157,0.744911,0.000000,0.744911,0.000000,0.750000,0.500000,0.750000,0.500000,-0.750000,0.500000,-0.750000,
$1*%
%AMFreePoly1*
4,1,19,0.000000,0.744911,0.071157,0.744911,0.207708,0.704816,0.327430,0.627875,0.420627,0.520320,0.479746,0.390866,0.500000,0.250000,0.500000,-0.250000,0.479746,-0.390866,0.420627,-0.520320,0.327430,-0.627875,0.207708,-0.704816,0.071157,-0.744911,0.000000,-0.744911,0.000000,-0.750000,-0.500000,-0.750000,-0.500000,0.750000,0.000000,0.750000,0.000000,0.744911,0.000000,0.744911,
$1*%
G04 Aperture macros list end*
%ADD10C,0.100000*%
%ADD11C,0.150000*%
%ADD12C,0.300000*%
%ADD13C,0.400000*%
%TA.AperFunction,SMDPad,CuDef*%
%ADD14R,1.900000X0.700000*%
%TD*%
%TA.AperFunction,SMDPad,CuDef*%
%ADD15R,1.800000X1.700000*%
%TD*%
%TA.AperFunction,SMDPad,CuDef*%
%ADD16R,2.600000X1.400000*%
%TD*%
%TA.AperFunction,SMDPad,CuDef*%
%ADD17RoundRect,0.200000X0.275000X-0.200000X0.275000X0.200000X-0.275000X0.200000X-0.275000X-0.200000X0*%
%TD*%
%TA.AperFunction,SMDPad,CuDef*%
%ADD18RoundRect,0.225000X0.250000X-0.225000X0.250000X0.225000X-0.250000X0.225000X-0.250000X-0.225000X0*%
%TD*%
%TA.AperFunction,SMDPad,CuDef*%
%ADD19RoundRect,0.225000X-0.225000X-0.250000X0.225000X-0.250000X0.225000X0.250000X-0.225000X0.250000X0*%
%TD*%
%TA.AperFunction,SMDPad,CuDef*%
%ADD20RoundRect,0.225000X-0.250000X0.225000X-0.250000X-0.225000X0.250000X-0.225000X0.250000X0.225000X0*%
%TD*%
%TA.AperFunction,ComponentPad*%
%ADD21C,2.000000*%
%TD*%
%TA.AperFunction,SMDPad,CuDef*%
%ADD22RoundRect,0.200000X0.200000X0.275000X-0.200000X0.275000X-0.200000X-0.275000X0.200000X-0.275000X0*%
%TD*%
%TA.AperFunction,SMDPad,CuDef*%
%ADD23RoundRect,0.200000X-0.275000X0.200000X-0.275000X-0.200000X0.275000X-0.200000X0.275000X0.200000X0*%
%TD*%
%TA.AperFunction,SMDPad,CuDef*%
%ADD24RoundRect,0.175000X0.325000X0.175000X-0.325000X0.175000X-0.325000X-0.175000X0.325000X-0.175000X0*%
%TD*%
%TA.AperFunction,SMDPad,CuDef*%
%ADD25RoundRect,0.225000X-0.375000X0.225000X-0.375000X-0.225000X0.375000X-0.225000X0.375000X0.225000X0*%
%TD*%
%TA.AperFunction,SMDPad,CuDef*%
%ADD26R,0.250000X1.100000*%
%TD*%
%TA.AperFunction,SMDPad,CuDef*%
%ADD27RoundRect,0.250000X0.250000X0.475000X-0.250000X0.475000X-0.250000X-0.475000X0.250000X-0.475000X0*%
%TD*%
%TA.AperFunction,ComponentPad*%
%ADD28R,1.700000X1.700000*%
%TD*%
%TA.AperFunction,ComponentPad*%
%ADD29O,1.700000X1.700000*%
%TD*%
%TA.AperFunction,SMDPad,CuDef*%
%ADD30RoundRect,0.200000X-0.200000X-0.275000X0.200000X-0.275000X0.200000X0.275000X-0.200000X0.275000X0*%
%TD*%
%TA.AperFunction,SMDPad,CuDef*%
%ADD31R,1.240000X0.600000*%
%TD*%
%TA.AperFunction,SMDPad,CuDef*%
%ADD32R,1.240000X0.300000*%
%TD*%
%TA.AperFunction,ComponentPad*%
%ADD33O,2.100000X1.000000*%
%TD*%
%TA.AperFunction,ComponentPad*%
%ADD34O,1.800000X1.000000*%
%TD*%
%TA.AperFunction,SMDPad,CuDef*%
%ADD35C,0.750000*%
%TD*%
%TA.AperFunction,SMDPad,CuDef*%
%ADD36RoundRect,0.375000X0.375000X-0.625000X0.375000X0.625000X-0.375000X0.625000X-0.375000X-0.625000X0*%
%TD*%
%TA.AperFunction,SMDPad,CuDef*%
%ADD37RoundRect,0.500000X1.400000X-0.500000X1.400000X0.500000X-1.400000X0.500000X-1.400000X-0.500000X0*%
%TD*%
%TA.AperFunction,SMDPad,CuDef*%
%ADD38RoundRect,0.175000X-0.175000X0.325000X-0.175000X-0.325000X0.175000X-0.325000X0.175000X0.325000X0*%
%TD*%
%TA.AperFunction,SMDPad,CuDef*%
%ADD39RoundRect,0.175000X0.175000X-0.325000X0.175000X0.325000X-0.175000X0.325000X-0.175000X-0.325000X0*%
%TD*%
%TA.AperFunction,SMDPad,CuDef*%
%ADD40RoundRect,0.225000X0.225000X0.250000X-0.225000X0.250000X-0.225000X-0.250000X0.225000X-0.250000X0*%
%TD*%
%TA.AperFunction,SMDPad,CuDef*%
%ADD41RoundRect,0.275000X0.725000X-0.275000X0.725000X0.275000X-0.725000X0.275000X-0.725000X-0.275000X0*%
%TD*%
%TA.AperFunction,SMDPad,CuDef*%
%ADD42RoundRect,0.250000X0.475000X-0.250000X0.475000X0.250000X-0.475000X0.250000X-0.475000X-0.250000X0*%
%TD*%
%TA.AperFunction,SMDPad,CuDef*%
%ADD43RoundRect,0.175000X-0.325000X-0.175000X0.325000X-0.175000X0.325000X0.175000X-0.325000X0.175000X0*%
%TD*%
%TA.AperFunction,SMDPad,CuDef*%
%ADD44RoundRect,0.218750X-0.256250X0.218750X-0.256250X-0.218750X0.256250X-0.218750X0.256250X0.218750X0*%
%TD*%
%TA.AperFunction,SMDPad,CuDef*%
%ADD45RoundRect,0.075000X-0.700000X-0.075000X0.700000X-0.075000X0.700000X0.075000X-0.700000X0.075000X0*%
%TD*%
%TA.AperFunction,SMDPad,CuDef*%
%ADD46RoundRect,0.075000X-0.075000X-0.700000X0.075000X-0.700000X0.075000X0.700000X-0.075000X0.700000X0*%
%TD*%
%TA.AperFunction,SMDPad,CuDef*%
%ADD47FreePoly0,90.000000*%
%TD*%
%TA.AperFunction,SMDPad,CuDef*%
%ADD48FreePoly1,90.000000*%
%TD*%
%TA.AperFunction,SMDPad,CuDef*%
%ADD49RoundRect,0.150000X-0.150000X0.512500X-0.150000X-0.512500X0.150000X-0.512500X0.150000X0.512500X0*%
%TD*%
%TA.AperFunction,SMDPad,CuDef*%
%ADD50RoundRect,0.218750X0.256250X-0.218750X0.256250X0.218750X-0.256250X0.218750X-0.256250X-0.218750X0*%
%TD*%
%TA.AperFunction,SMDPad,CuDef*%
%ADD51RoundRect,0.150000X-0.512500X-0.150000X0.512500X-0.150000X0.512500X0.150000X-0.512500X0.150000X0*%
%TD*%
%TA.AperFunction,SMDPad,CuDef*%
%ADD52RoundRect,0.150000X0.587500X0.150000X-0.587500X0.150000X-0.587500X-0.150000X0.587500X-0.150000X0*%
%TD*%
%TA.AperFunction,SMDPad,CuDef*%
%ADD53RoundRect,0.218750X-0.218750X-0.256250X0.218750X-0.256250X0.218750X0.256250X-0.218750X0.256250X0*%
%TD*%
%TA.AperFunction,SMDPad,CuDef*%
%ADD54R,1.400000X2.000000*%
%TD*%
%TA.AperFunction,SMDPad,CuDef*%
%ADD55R,1.000000X2.000000*%
%TD*%
%TA.AperFunction,SMDPad,CuDef*%
%ADD56RoundRect,0.150000X0.400000X0.150000X-0.400000X0.150000X-0.400000X-0.150000X0.400000X-0.150000X0*%
%TD*%
%TA.AperFunction,ComponentPad*%
%ADD57R,2.000000X4.600000*%
%TD*%
%TA.AperFunction,ComponentPad*%
%ADD58O,2.000000X4.200000*%
%TD*%
%TA.AperFunction,ComponentPad*%
%ADD59O,4.200000X2.000000*%
%TD*%
%TA.AperFunction,ComponentPad*%
%ADD60C,1.500000*%
%TD*%
%TA.AperFunction,SMDPad,CuDef*%
%ADD61RoundRect,0.218750X0.218750X0.256250X-0.218750X0.256250X-0.218750X-0.256250X0.218750X-0.256250X0*%
%TD*%
%TA.AperFunction,SMDPad,CuDef*%
%ADD62RoundRect,0.250000X-0.475000X0.250000X-0.475000X-0.250000X0.475000X-0.250000X0.475000X0.250000X0*%
%TD*%
%TA.AperFunction,SMDPad,CuDef*%
%ADD63RoundRect,0.090000X0.360000X-0.660000X0.360000X0.660000X-0.360000X0.660000X-0.360000X-0.660000X0*%
%TD*%
%TA.AperFunction,SMDPad,CuDef*%
%ADD64R,1.200000X1.400000*%
%TD*%
%TA.AperFunction,SMDPad,CuDef*%
%ADD65R,1.000000X1.800000*%
%TD*%
%TA.AperFunction,SMDPad,CuDef*%
%ADD66RoundRect,0.250000X-0.250000X-0.475000X0.250000X-0.475000X0.250000X0.475000X-0.250000X0.475000X0*%
%TD*%
%TA.AperFunction,SMDPad,CuDef*%
%ADD67RoundRect,0.100000X-0.100000X0.637500X-0.100000X-0.637500X0.100000X-0.637500X0.100000X0.637500X0*%
%TD*%
%TA.AperFunction,ViaPad*%
%ADD68C,0.700000*%
%TD*%
%TA.AperFunction,Conductor*%
%ADD69C,0.700000*%
%TD*%
%TA.AperFunction,Conductor*%
%ADD70C,0.300000*%
%TD*%
%TA.AperFunction,Conductor*%
%ADD71C,0.600000*%
%TD*%
%TA.AperFunction,Conductor*%
%ADD72C,0.500000*%
%TD*%
%TA.AperFunction,Conductor*%
%ADD73C,0.250000*%
%TD*%
%TA.AperFunction,Conductor*%
%ADD74C,0.400000*%
%TD*%
%TA.AperFunction,Conductor*%
%ADD75C,0.381000*%
%TD*%
%TA.AperFunction,Conductor*%
%ADD76C,0.156464*%
%TD*%
%TA.AperFunction,Conductor*%
%ADD77C,0.151130*%
%TD*%
G04 APERTURE END LIST*
D10*
D11*
X177002200Y-166007200D02*
X285002200Y-166007200D01*
X285002200Y-198007200D01*
X177002200Y-198007200D01*
X177002200Y-166007200D01*
D10*
D11*
X10000000Y-10000000D02*
X287002200Y-10000000D01*
X287002200Y-200007200D01*
X10000000Y-200007200D01*
X10000000Y-10000000D01*
D10*
D11*
X12000000Y-12000000D02*
X285002200Y-12000000D01*
X285002200Y-198007200D01*
X12000000Y-198007200D01*
X12000000Y-12000000D01*
D10*
D11*
X60000000Y-12000000D02*
X60000000Y-10000000D01*
D10*
D11*
X110000000Y-12000000D02*
X110000000Y-10000000D01*
D10*
D11*
X160000000Y-12000000D02*
X160000000Y-10000000D01*
D10*
D11*
X210000000Y-12000000D02*
X210000000Y-10000000D01*
D10*
D11*
X260000000Y-12000000D02*
X260000000Y-10000000D01*
D10*
D11*
X36089160Y-11593604D02*
X35346303Y-11593604D01*
X35717731Y-11593604D02*
X35717731Y-10293604D01*
X35717731Y-10293604D02*
X35593922Y-10479319D01*
X35593922Y-10479319D02*
X35470112Y-10603128D01*
X35470112Y-10603128D02*
X35346303Y-10665033D01*
D10*
D11*
X85346303Y-10417414D02*
X85408207Y-10355509D01*
X85408207Y-10355509D02*
X85532017Y-10293604D01*
X85532017Y-10293604D02*
X85841541Y-10293604D01*
X85841541Y-10293604D02*
X85965350Y-10355509D01*
X85965350Y-10355509D02*
X86027255Y-10417414D01*
X86027255Y-10417414D02*
X86089160Y-10541223D01*
X86089160Y-10541223D02*
X86089160Y-10665033D01*
X86089160Y-10665033D02*
X86027255Y-10850747D01*
X86027255Y-10850747D02*
X85284398Y-11593604D01*
X85284398Y-11593604D02*
X86089160Y-11593604D01*
D10*
D11*
X135284398Y-10293604D02*
X136089160Y-10293604D01*
X136089160Y-10293604D02*
X135655826Y-10788842D01*
X135655826Y-10788842D02*
X135841541Y-10788842D01*
X135841541Y-10788842D02*
X135965350Y-10850747D01*
X135965350Y-10850747D02*
X136027255Y-10912652D01*
X136027255Y-10912652D02*
X136089160Y-11036461D01*
X136089160Y-11036461D02*
X136089160Y-11345985D01*
X136089160Y-11345985D02*
X136027255Y-11469795D01*
X136027255Y-11469795D02*
X135965350Y-11531700D01*
X135965350Y-11531700D02*
X135841541Y-11593604D01*
X135841541Y-11593604D02*
X135470112Y-11593604D01*
X135470112Y-11593604D02*
X135346303Y-11531700D01*
X135346303Y-11531700D02*
X135284398Y-11469795D01*
D10*
D11*
X185965350Y-10726938D02*
X185965350Y-11593604D01*
X185655826Y-10231700D02*
X185346303Y-11160271D01*
X185346303Y-11160271D02*
X186151064Y-11160271D01*
D10*
D11*
X236027255Y-10293604D02*
X235408207Y-10293604D01*
X235408207Y-10293604D02*
X235346303Y-10912652D01*
X235346303Y-10912652D02*
X235408207Y-10850747D01*
X235408207Y-10850747D02*
X235532017Y-10788842D01*
X235532017Y-10788842D02*
X235841541Y-10788842D01*
X235841541Y-10788842D02*
X235965350Y-10850747D01*
X235965350Y-10850747D02*
X236027255Y-10912652D01*
X236027255Y-10912652D02*
X236089160Y-11036461D01*
X236089160Y-11036461D02*
X236089160Y-11345985D01*
X236089160Y-11345985D02*
X236027255Y-11469795D01*
X236027255Y-11469795D02*
X235965350Y-11531700D01*
X235965350Y-11531700D02*
X235841541Y-11593604D01*
X235841541Y-11593604D02*
X235532017Y-11593604D01*
X235532017Y-11593604D02*
X235408207Y-11531700D01*
X235408207Y-11531700D02*
X235346303Y-11469795D01*
D10*
D11*
X285965350Y-10293604D02*
X285717731Y-10293604D01*
X285717731Y-10293604D02*
X285593922Y-10355509D01*
X285593922Y-10355509D02*
X285532017Y-10417414D01*
X285532017Y-10417414D02*
X285408207Y-10603128D01*
X285408207Y-10603128D02*
X285346303Y-10850747D01*
X285346303Y-10850747D02*
X285346303Y-11345985D01*
X285346303Y-11345985D02*
X285408207Y-11469795D01*
X285408207Y-11469795D02*
X285470112Y-11531700D01*
X285470112Y-11531700D02*
X285593922Y-11593604D01*
X285593922Y-11593604D02*
X285841541Y-11593604D01*
X285841541Y-11593604D02*
X285965350Y-11531700D01*
X285965350Y-11531700D02*
X286027255Y-11469795D01*
X286027255Y-11469795D02*
X286089160Y-11345985D01*
X286089160Y-11345985D02*
X286089160Y-11036461D01*
X286089160Y-11036461D02*
X286027255Y-10912652D01*
X286027255Y-10912652D02*
X285965350Y-10850747D01*
X285965350Y-10850747D02*
X285841541Y-10788842D01*
X285841541Y-10788842D02*
X285593922Y-10788842D01*
X285593922Y-10788842D02*
X285470112Y-10850747D01*
X285470112Y-10850747D02*
X285408207Y-10912652D01*
X285408207Y-10912652D02*
X285346303Y-11036461D01*
D10*
D11*
X60000000Y-198007200D02*
X60000000Y-200007200D01*
D10*
D11*
X110000000Y-198007200D02*
X110000000Y-200007200D01*
D10*
D11*
X160000000Y-198007200D02*
X160000000Y-200007200D01*
D10*
D11*
X210000000Y-198007200D02*
X210000000Y-200007200D01*
D10*
D11*
X260000000Y-198007200D02*
X260000000Y-200007200D01*
D10*
D11*
X36089160Y-199600804D02*
X35346303Y-199600804D01*
X35717731Y-199600804D02*
X35717731Y-198300804D01*
X35717731Y-198300804D02*
X35593922Y-198486519D01*
X35593922Y-198486519D02*
X35470112Y-198610328D01*
X35470112Y-198610328D02*
X35346303Y-198672233D01*
D10*
D11*
X85346303Y-198424614D02*
X85408207Y-198362709D01*
X85408207Y-198362709D02*
X85532017Y-198300804D01*
X85532017Y-198300804D02*
X85841541Y-198300804D01*
X85841541Y-198300804D02*
X85965350Y-198362709D01*
X85965350Y-198362709D02*
X86027255Y-198424614D01*
X86027255Y-198424614D02*
X86089160Y-198548423D01*
X86089160Y-198548423D02*
X86089160Y-198672233D01*
X86089160Y-198672233D02*
X86027255Y-198857947D01*
X86027255Y-198857947D02*
X85284398Y-199600804D01*
X85284398Y-199600804D02*
X86089160Y-199600804D01*
D10*
D11*
X135284398Y-198300804D02*
X136089160Y-198300804D01*
X136089160Y-198300804D02*
X135655826Y-198796042D01*
X135655826Y-198796042D02*
X135841541Y-198796042D01*
X135841541Y-198796042D02*
X135965350Y-198857947D01*
X135965350Y-198857947D02*
X136027255Y-198919852D01*
X136027255Y-198919852D02*
X136089160Y-199043661D01*
X136089160Y-199043661D02*
X136089160Y-199353185D01*
X136089160Y-199353185D02*
X136027255Y-199476995D01*
X136027255Y-199476995D02*
X135965350Y-199538900D01*
X135965350Y-199538900D02*
X135841541Y-199600804D01*
X135841541Y-199600804D02*
X135470112Y-199600804D01*
X135470112Y-199600804D02*
X135346303Y-199538900D01*
X135346303Y-199538900D02*
X135284398Y-199476995D01*
D10*
D11*
X185965350Y-198734138D02*
X185965350Y-199600804D01*
X185655826Y-198238900D02*
X185346303Y-199167471D01*
X185346303Y-199167471D02*
X186151064Y-199167471D01*
D10*
D11*
X236027255Y-198300804D02*
X235408207Y-198300804D01*
X235408207Y-198300804D02*
X235346303Y-198919852D01*
X235346303Y-198919852D02*
X235408207Y-198857947D01*
X235408207Y-198857947D02*
X235532017Y-198796042D01*
X235532017Y-198796042D02*
X235841541Y-198796042D01*
X235841541Y-198796042D02*
X235965350Y-198857947D01*
X235965350Y-198857947D02*
X236027255Y-198919852D01*
X236027255Y-198919852D02*
X236089160Y-199043661D01*
X236089160Y-199043661D02*
X236089160Y-199353185D01*
X236089160Y-199353185D02*
X236027255Y-199476995D01*
X236027255Y-199476995D02*
X235965350Y-199538900D01*
X235965350Y-199538900D02*
X235841541Y-199600804D01*
X235841541Y-199600804D02*
X235532017Y-199600804D01*
X235532017Y-199600804D02*
X235408207Y-199538900D01*
X235408207Y-199538900D02*
X235346303Y-199476995D01*
D10*
D11*
X285965350Y-198300804D02*
X285717731Y-198300804D01*
X285717731Y-198300804D02*
X285593922Y-198362709D01*
X285593922Y-198362709D02*
X285532017Y-198424614D01*
X285532017Y-198424614D02*
X285408207Y-198610328D01*
X285408207Y-198610328D02*
X285346303Y-198857947D01*
X285346303Y-198857947D02*
X285346303Y-199353185D01*
X285346303Y-199353185D02*
X285408207Y-199476995D01*
X285408207Y-199476995D02*
X285470112Y-199538900D01*
X285470112Y-199538900D02*
X285593922Y-199600804D01*
X285593922Y-199600804D02*
X285841541Y-199600804D01*
X285841541Y-199600804D02*
X285965350Y-199538900D01*
X285965350Y-199538900D02*
X286027255Y-199476995D01*
X286027255Y-199476995D02*
X286089160Y-199353185D01*
X286089160Y-199353185D02*
X286089160Y-199043661D01*
X286089160Y-199043661D02*
X286027255Y-198919852D01*
X286027255Y-198919852D02*
X285965350Y-198857947D01*
X285965350Y-198857947D02*
X285841541Y-198796042D01*
X285841541Y-198796042D02*
X285593922Y-198796042D01*
X285593922Y-198796042D02*
X285470112Y-198857947D01*
X285470112Y-198857947D02*
X285408207Y-198919852D01*
X285408207Y-198919852D02*
X285346303Y-199043661D01*
D10*
D11*
X10000000Y-60000000D02*
X12000000Y-60000000D01*
D10*
D11*
X10000000Y-110000000D02*
X12000000Y-110000000D01*
D10*
D11*
X10000000Y-160000000D02*
X12000000Y-160000000D01*
D10*
D11*
X10690476Y-35222176D02*
X11309523Y-35222176D01*
X10566666Y-35593604D02*
X10999999Y-34293604D01*
X10999999Y-34293604D02*
X11433333Y-35593604D01*
D10*
D11*
X11092857Y-84912652D02*
X11278571Y-84974557D01*
X11278571Y-84974557D02*
X11340476Y-85036461D01*
X11340476Y-85036461D02*
X11402380Y-85160271D01*
X11402380Y-85160271D02*
X11402380Y-85345985D01*
X11402380Y-85345985D02*
X11340476Y-85469795D01*
X11340476Y-85469795D02*
X11278571Y-85531700D01*
X11278571Y-85531700D02*
X11154761Y-85593604D01*
X11154761Y-85593604D02*
X10659523Y-85593604D01*
X10659523Y-85593604D02*
X10659523Y-84293604D01*
X10659523Y-84293604D02*
X11092857Y-84293604D01*
X11092857Y-84293604D02*
X11216666Y-84355509D01*
X11216666Y-84355509D02*
X11278571Y-84417414D01*
X11278571Y-84417414D02*
X11340476Y-84541223D01*
X11340476Y-84541223D02*
X11340476Y-84665033D01*
X11340476Y-84665033D02*
X11278571Y-84788842D01*
X11278571Y-84788842D02*
X11216666Y-84850747D01*
X11216666Y-84850747D02*
X11092857Y-84912652D01*
X11092857Y-84912652D02*
X10659523Y-84912652D01*
D10*
D11*
X11402380Y-135469795D02*
X11340476Y-135531700D01*
X11340476Y-135531700D02*
X11154761Y-135593604D01*
X11154761Y-135593604D02*
X11030952Y-135593604D01*
X11030952Y-135593604D02*
X10845238Y-135531700D01*
X10845238Y-135531700D02*
X10721428Y-135407890D01*
X10721428Y-135407890D02*
X10659523Y-135284080D01*
X10659523Y-135284080D02*
X10597619Y-135036461D01*
X10597619Y-135036461D02*
X10597619Y-134850747D01*
X10597619Y-134850747D02*
X10659523Y-134603128D01*
X10659523Y-134603128D02*
X10721428Y-134479319D01*
X10721428Y-134479319D02*
X10845238Y-134355509D01*
X10845238Y-134355509D02*
X11030952Y-134293604D01*
X11030952Y-134293604D02*
X11154761Y-134293604D01*
X11154761Y-134293604D02*
X11340476Y-134355509D01*
X11340476Y-134355509D02*
X11402380Y-134417414D01*
D10*
D11*
X10659523Y-185593604D02*
X10659523Y-184293604D01*
X10659523Y-184293604D02*
X10969047Y-184293604D01*
X10969047Y-184293604D02*
X11154761Y-184355509D01*
X11154761Y-184355509D02*
X11278571Y-184479319D01*
X11278571Y-184479319D02*
X11340476Y-184603128D01*
X11340476Y-184603128D02*
X11402380Y-184850747D01*
X11402380Y-184850747D02*
X11402380Y-185036461D01*
X11402380Y-185036461D02*
X11340476Y-185284080D01*
X11340476Y-185284080D02*
X11278571Y-185407890D01*
X11278571Y-185407890D02*
X11154761Y-185531700D01*
X11154761Y-185531700D02*
X10969047Y-185593604D01*
X10969047Y-185593604D02*
X10659523Y-185593604D01*
D10*
D11*
X287002200Y-60000000D02*
X285002200Y-60000000D01*
D10*
D11*
X287002200Y-110000000D02*
X285002200Y-110000000D01*
D10*
D11*
X287002200Y-160000000D02*
X285002200Y-160000000D01*
D10*
D11*
X285692676Y-35222176D02*
X286311723Y-35222176D01*
X285568866Y-35593604D02*
X286002199Y-34293604D01*
X286002199Y-34293604D02*
X286435533Y-35593604D01*
D10*
D11*
X286095057Y-84912652D02*
X286280771Y-84974557D01*
X286280771Y-84974557D02*
X286342676Y-85036461D01*
X286342676Y-85036461D02*
X286404580Y-85160271D01*
X286404580Y-85160271D02*
X286404580Y-85345985D01*
X286404580Y-85345985D02*
X286342676Y-85469795D01*
X286342676Y-85469795D02*
X286280771Y-85531700D01*
X286280771Y-85531700D02*
X286156961Y-85593604D01*
X286156961Y-85593604D02*
X285661723Y-85593604D01*
X285661723Y-85593604D02*
X285661723Y-84293604D01*
X285661723Y-84293604D02*
X286095057Y-84293604D01*
X286095057Y-84293604D02*
X286218866Y-84355509D01*
X286218866Y-84355509D02*
X286280771Y-84417414D01*
X286280771Y-84417414D02*
X286342676Y-84541223D01*
X286342676Y-84541223D02*
X286342676Y-84665033D01*
X286342676Y-84665033D02*
X286280771Y-84788842D01*
X286280771Y-84788842D02*
X286218866Y-84850747D01*
X286218866Y-84850747D02*
X286095057Y-84912652D01*
X286095057Y-84912652D02*
X285661723Y-84912652D01*
D10*
D11*
X286404580Y-135469795D02*
X286342676Y-135531700D01*
X286342676Y-135531700D02*
X286156961Y-135593604D01*
X286156961Y-135593604D02*
X286033152Y-135593604D01*
X286033152Y-135593604D02*
X285847438Y-135531700D01*
X285847438Y-135531700D02*
X285723628Y-135407890D01*
X285723628Y-135407890D02*
X285661723Y-135284080D01*
X285661723Y-135284080D02*
X285599819Y-135036461D01*
X285599819Y-135036461D02*
X285599819Y-134850747D01*
X285599819Y-134850747D02*
X285661723Y-134603128D01*
X285661723Y-134603128D02*
X285723628Y-134479319D01*
X285723628Y-134479319D02*
X285847438Y-134355509D01*
X285847438Y-134355509D02*
X286033152Y-134293604D01*
X286033152Y-134293604D02*
X286156961Y-134293604D01*
X286156961Y-134293604D02*
X286342676Y-134355509D01*
X286342676Y-134355509D02*
X286404580Y-134417414D01*
D10*
D11*
X285661723Y-185593604D02*
X285661723Y-184293604D01*
X285661723Y-184293604D02*
X285971247Y-184293604D01*
X285971247Y-184293604D02*
X286156961Y-184355509D01*
X286156961Y-184355509D02*
X286280771Y-184479319D01*
X286280771Y-184479319D02*
X286342676Y-184603128D01*
X286342676Y-184603128D02*
X286404580Y-184850747D01*
X286404580Y-184850747D02*
X286404580Y-185036461D01*
X286404580Y-185036461D02*
X286342676Y-185284080D01*
X286342676Y-185284080D02*
X286280771Y-185407890D01*
X286280771Y-185407890D02*
X286156961Y-185531700D01*
X286156961Y-185531700D02*
X285971247Y-185593604D01*
X285971247Y-185593604D02*
X285661723Y-185593604D01*
D10*
D11*
X200458026Y-193793328D02*
X200458026Y-192293328D01*
X200458026Y-192293328D02*
X200815169Y-192293328D01*
X200815169Y-192293328D02*
X201029455Y-192364757D01*
X201029455Y-192364757D02*
X201172312Y-192507614D01*
X201172312Y-192507614D02*
X201243741Y-192650471D01*
X201243741Y-192650471D02*
X201315169Y-192936185D01*
X201315169Y-192936185D02*
X201315169Y-193150471D01*
X201315169Y-193150471D02*
X201243741Y-193436185D01*
X201243741Y-193436185D02*
X201172312Y-193579042D01*
X201172312Y-193579042D02*
X201029455Y-193721900D01*
X201029455Y-193721900D02*
X200815169Y-193793328D01*
X200815169Y-193793328D02*
X200458026Y-193793328D01*
X202600884Y-193793328D02*
X202600884Y-193007614D01*
X202600884Y-193007614D02*
X202529455Y-192864757D01*
X202529455Y-192864757D02*
X202386598Y-192793328D01*
X202386598Y-192793328D02*
X202100884Y-192793328D01*
X202100884Y-192793328D02*
X201958026Y-192864757D01*
X202600884Y-193721900D02*
X202458026Y-193793328D01*
X202458026Y-193793328D02*
X202100884Y-193793328D01*
X202100884Y-193793328D02*
X201958026Y-193721900D01*
X201958026Y-193721900D02*
X201886598Y-193579042D01*
X201886598Y-193579042D02*
X201886598Y-193436185D01*
X201886598Y-193436185D02*
X201958026Y-193293328D01*
X201958026Y-193293328D02*
X202100884Y-193221900D01*
X202100884Y-193221900D02*
X202458026Y-193221900D01*
X202458026Y-193221900D02*
X202600884Y-193150471D01*
X203100884Y-192793328D02*
X203672312Y-192793328D01*
X203315169Y-192293328D02*
X203315169Y-193579042D01*
X203315169Y-193579042D02*
X203386598Y-193721900D01*
X203386598Y-193721900D02*
X203529455Y-193793328D01*
X203529455Y-193793328D02*
X203672312Y-193793328D01*
X204743741Y-193721900D02*
X204600884Y-193793328D01*
X204600884Y-193793328D02*
X204315170Y-193793328D01*
X204315170Y-193793328D02*
X204172312Y-193721900D01*
X204172312Y-193721900D02*
X204100884Y-193579042D01*
X204100884Y-193579042D02*
X204100884Y-193007614D01*
X204100884Y-193007614D02*
X204172312Y-192864757D01*
X204172312Y-192864757D02*
X204315170Y-192793328D01*
X204315170Y-192793328D02*
X204600884Y-192793328D01*
X204600884Y-192793328D02*
X204743741Y-192864757D01*
X204743741Y-192864757D02*
X204815170Y-193007614D01*
X204815170Y-193007614D02*
X204815170Y-193150471D01*
X204815170Y-193150471D02*
X204100884Y-193293328D01*
X205458026Y-193650471D02*
X205529455Y-193721900D01*
X205529455Y-193721900D02*
X205458026Y-193793328D01*
X205458026Y-193793328D02*
X205386598Y-193721900D01*
X205386598Y-193721900D02*
X205458026Y-193650471D01*
X205458026Y-193650471D02*
X205458026Y-193793328D01*
X205458026Y-192864757D02*
X205529455Y-192936185D01*
X205529455Y-192936185D02*
X205458026Y-193007614D01*
X205458026Y-193007614D02*
X205386598Y-192936185D01*
X205386598Y-192936185D02*
X205458026Y-192864757D01*
X205458026Y-192864757D02*
X205458026Y-193007614D01*
X207243741Y-192436185D02*
X207315169Y-192364757D01*
X207315169Y-192364757D02*
X207458027Y-192293328D01*
X207458027Y-192293328D02*
X207815169Y-192293328D01*
X207815169Y-192293328D02*
X207958027Y-192364757D01*
X207958027Y-192364757D02*
X208029455Y-192436185D01*
X208029455Y-192436185D02*
X208100884Y-192579042D01*
X208100884Y-192579042D02*
X208100884Y-192721900D01*
X208100884Y-192721900D02*
X208029455Y-192936185D01*
X208029455Y-192936185D02*
X207172312Y-193793328D01*
X207172312Y-193793328D02*
X208100884Y-193793328D01*
X209029455Y-192293328D02*
X209172312Y-192293328D01*
X209172312Y-192293328D02*
X209315169Y-192364757D01*
X209315169Y-192364757D02*
X209386598Y-192436185D01*
X209386598Y-192436185D02*
X209458026Y-192579042D01*
X209458026Y-192579042D02*
X209529455Y-192864757D01*
X209529455Y-192864757D02*
X209529455Y-193221900D01*
X209529455Y-193221900D02*
X209458026Y-193507614D01*
X209458026Y-193507614D02*
X209386598Y-193650471D01*
X209386598Y-193650471D02*
X209315169Y-193721900D01*
X209315169Y-193721900D02*
X209172312Y-193793328D01*
X209172312Y-193793328D02*
X209029455Y-193793328D01*
X209029455Y-193793328D02*
X208886598Y-193721900D01*
X208886598Y-193721900D02*
X208815169Y-193650471D01*
X208815169Y-193650471D02*
X208743740Y-193507614D01*
X208743740Y-193507614D02*
X208672312Y-193221900D01*
X208672312Y-193221900D02*
X208672312Y-192864757D01*
X208672312Y-192864757D02*
X208743740Y-192579042D01*
X208743740Y-192579042D02*
X208815169Y-192436185D01*
X208815169Y-192436185D02*
X208886598Y-192364757D01*
X208886598Y-192364757D02*
X209029455Y-192293328D01*
X210100883Y-192436185D02*
X210172311Y-192364757D01*
X210172311Y-192364757D02*
X210315169Y-192293328D01*
X210315169Y-192293328D02*
X210672311Y-192293328D01*
X210672311Y-192293328D02*
X210815169Y-192364757D01*
X210815169Y-192364757D02*
X210886597Y-192436185D01*
X210886597Y-192436185D02*
X210958026Y-192579042D01*
X210958026Y-192579042D02*
X210958026Y-192721900D01*
X210958026Y-192721900D02*
X210886597Y-192936185D01*
X210886597Y-192936185D02*
X210029454Y-193793328D01*
X210029454Y-193793328D02*
X210958026Y-193793328D01*
X212315168Y-192293328D02*
X211600882Y-192293328D01*
X211600882Y-192293328D02*
X211529454Y-193007614D01*
X211529454Y-193007614D02*
X211600882Y-192936185D01*
X211600882Y-192936185D02*
X211743740Y-192864757D01*
X211743740Y-192864757D02*
X212100882Y-192864757D01*
X212100882Y-192864757D02*
X212243740Y-192936185D01*
X212243740Y-192936185D02*
X212315168Y-193007614D01*
X212315168Y-193007614D02*
X212386597Y-193150471D01*
X212386597Y-193150471D02*
X212386597Y-193507614D01*
X212386597Y-193507614D02*
X212315168Y-193650471D01*
X212315168Y-193650471D02*
X212243740Y-193721900D01*
X212243740Y-193721900D02*
X212100882Y-193793328D01*
X212100882Y-193793328D02*
X211743740Y-193793328D01*
X211743740Y-193793328D02*
X211600882Y-193721900D01*
X211600882Y-193721900D02*
X211529454Y-193650471D01*
X213029453Y-193221900D02*
X214172311Y-193221900D01*
X215172311Y-192293328D02*
X215315168Y-192293328D01*
X215315168Y-192293328D02*
X215458025Y-192364757D01*
X215458025Y-192364757D02*
X215529454Y-192436185D01*
X215529454Y-192436185D02*
X215600882Y-192579042D01*
X215600882Y-192579042D02*
X215672311Y-192864757D01*
X215672311Y-192864757D02*
X215672311Y-193221900D01*
X215672311Y-193221900D02*
X215600882Y-193507614D01*
X215600882Y-193507614D02*
X215529454Y-193650471D01*
X215529454Y-193650471D02*
X215458025Y-193721900D01*
X215458025Y-193721900D02*
X215315168Y-193793328D01*
X215315168Y-193793328D02*
X215172311Y-193793328D01*
X215172311Y-193793328D02*
X215029454Y-193721900D01*
X215029454Y-193721900D02*
X214958025Y-193650471D01*
X214958025Y-193650471D02*
X214886596Y-193507614D01*
X214886596Y-193507614D02*
X214815168Y-193221900D01*
X214815168Y-193221900D02*
X214815168Y-192864757D01*
X214815168Y-192864757D02*
X214886596Y-192579042D01*
X214886596Y-192579042D02*
X214958025Y-192436185D01*
X214958025Y-192436185D02*
X215029454Y-192364757D01*
X215029454Y-192364757D02*
X215172311Y-192293328D01*
X217100882Y-193793328D02*
X216243739Y-193793328D01*
X216672310Y-193793328D02*
X216672310Y-192293328D01*
X216672310Y-192293328D02*
X216529453Y-192507614D01*
X216529453Y-192507614D02*
X216386596Y-192650471D01*
X216386596Y-192650471D02*
X216243739Y-192721900D01*
X217743738Y-193221900D02*
X218886596Y-193221900D01*
X219886596Y-192293328D02*
X220029453Y-192293328D01*
X220029453Y-192293328D02*
X220172310Y-192364757D01*
X220172310Y-192364757D02*
X220243739Y-192436185D01*
X220243739Y-192436185D02*
X220315167Y-192579042D01*
X220315167Y-192579042D02*
X220386596Y-192864757D01*
X220386596Y-192864757D02*
X220386596Y-193221900D01*
X220386596Y-193221900D02*
X220315167Y-193507614D01*
X220315167Y-193507614D02*
X220243739Y-193650471D01*
X220243739Y-193650471D02*
X220172310Y-193721900D01*
X220172310Y-193721900D02*
X220029453Y-193793328D01*
X220029453Y-193793328D02*
X219886596Y-193793328D01*
X219886596Y-193793328D02*
X219743739Y-193721900D01*
X219743739Y-193721900D02*
X219672310Y-193650471D01*
X219672310Y-193650471D02*
X219600881Y-193507614D01*
X219600881Y-193507614D02*
X219529453Y-193221900D01*
X219529453Y-193221900D02*
X219529453Y-192864757D01*
X219529453Y-192864757D02*
X219600881Y-192579042D01*
X219600881Y-192579042D02*
X219672310Y-192436185D01*
X219672310Y-192436185D02*
X219743739Y-192364757D01*
X219743739Y-192364757D02*
X219886596Y-192293328D01*
X221743738Y-192293328D02*
X221029452Y-192293328D01*
X221029452Y-192293328D02*
X220958024Y-193007614D01*
X220958024Y-193007614D02*
X221029452Y-192936185D01*
X221029452Y-192936185D02*
X221172310Y-192864757D01*
X221172310Y-192864757D02*
X221529452Y-192864757D01*
X221529452Y-192864757D02*
X221672310Y-192936185D01*
X221672310Y-192936185D02*
X221743738Y-193007614D01*
X221743738Y-193007614D02*
X221815167Y-193150471D01*
X221815167Y-193150471D02*
X221815167Y-193507614D01*
X221815167Y-193507614D02*
X221743738Y-193650471D01*
X221743738Y-193650471D02*
X221672310Y-193721900D01*
X221672310Y-193721900D02*
X221529452Y-193793328D01*
X221529452Y-193793328D02*
X221172310Y-193793328D01*
X221172310Y-193793328D02*
X221029452Y-193721900D01*
X221029452Y-193721900D02*
X220958024Y-193650471D01*
D10*
D11*
X177002200Y-194507200D02*
X285002200Y-194507200D01*
D10*
D11*
X178458026Y-196593328D02*
X178458026Y-195093328D01*
X179315169Y-196593328D02*
X178672312Y-195736185D01*
X179315169Y-195093328D02*
X178458026Y-195950471D01*
X179958026Y-196593328D02*
X179958026Y-195593328D01*
X179958026Y-195093328D02*
X179886598Y-195164757D01*
X179886598Y-195164757D02*
X179958026Y-195236185D01*
X179958026Y-195236185D02*
X180029455Y-195164757D01*
X180029455Y-195164757D02*
X179958026Y-195093328D01*
X179958026Y-195093328D02*
X179958026Y-195236185D01*
X181529455Y-196450471D02*
X181458027Y-196521900D01*
X181458027Y-196521900D02*
X181243741Y-196593328D01*
X181243741Y-196593328D02*
X181100884Y-196593328D01*
X181100884Y-196593328D02*
X180886598Y-196521900D01*
X180886598Y-196521900D02*
X180743741Y-196379042D01*
X180743741Y-196379042D02*
X180672312Y-196236185D01*
X180672312Y-196236185D02*
X180600884Y-195950471D01*
X180600884Y-195950471D02*
X180600884Y-195736185D01*
X180600884Y-195736185D02*
X180672312Y-195450471D01*
X180672312Y-195450471D02*
X180743741Y-195307614D01*
X180743741Y-195307614D02*
X180886598Y-195164757D01*
X180886598Y-195164757D02*
X181100884Y-195093328D01*
X181100884Y-195093328D02*
X181243741Y-195093328D01*
X181243741Y-195093328D02*
X181458027Y-195164757D01*
X181458027Y-195164757D02*
X181529455Y-195236185D01*
X182815170Y-196593328D02*
X182815170Y-195807614D01*
X182815170Y-195807614D02*
X182743741Y-195664757D01*
X182743741Y-195664757D02*
X182600884Y-195593328D01*
X182600884Y-195593328D02*
X182315170Y-195593328D01*
X182315170Y-195593328D02*
X182172312Y-195664757D01*
X182815170Y-196521900D02*
X182672312Y-196593328D01*
X182672312Y-196593328D02*
X182315170Y-196593328D01*
X182315170Y-196593328D02*
X182172312Y-196521900D01*
X182172312Y-196521900D02*
X182100884Y-196379042D01*
X182100884Y-196379042D02*
X182100884Y-196236185D01*
X182100884Y-196236185D02*
X182172312Y-196093328D01*
X182172312Y-196093328D02*
X182315170Y-196021900D01*
X182315170Y-196021900D02*
X182672312Y-196021900D01*
X182672312Y-196021900D02*
X182815170Y-195950471D01*
X184172313Y-196593328D02*
X184172313Y-195093328D01*
X184172313Y-196521900D02*
X184029455Y-196593328D01*
X184029455Y-196593328D02*
X183743741Y-196593328D01*
X183743741Y-196593328D02*
X183600884Y-196521900D01*
X183600884Y-196521900D02*
X183529455Y-196450471D01*
X183529455Y-196450471D02*
X183458027Y-196307614D01*
X183458027Y-196307614D02*
X183458027Y-195879042D01*
X183458027Y-195879042D02*
X183529455Y-195736185D01*
X183529455Y-195736185D02*
X183600884Y-195664757D01*
X183600884Y-195664757D02*
X183743741Y-195593328D01*
X183743741Y-195593328D02*
X184029455Y-195593328D01*
X184029455Y-195593328D02*
X184172313Y-195664757D01*
X186029455Y-195807614D02*
X186529455Y-195807614D01*
X186743741Y-196593328D02*
X186029455Y-196593328D01*
X186029455Y-196593328D02*
X186029455Y-195093328D01*
X186029455Y-195093328D02*
X186743741Y-195093328D01*
X187386598Y-196450471D02*
X187458027Y-196521900D01*
X187458027Y-196521900D02*
X187386598Y-196593328D01*
X187386598Y-196593328D02*
X187315170Y-196521900D01*
X187315170Y-196521900D02*
X187386598Y-196450471D01*
X187386598Y-196450471D02*
X187386598Y-196593328D01*
X188100884Y-196593328D02*
X188100884Y-195093328D01*
X188100884Y-195093328D02*
X188458027Y-195093328D01*
X188458027Y-195093328D02*
X188672313Y-195164757D01*
X188672313Y-195164757D02*
X188815170Y-195307614D01*
X188815170Y-195307614D02*
X188886599Y-195450471D01*
X188886599Y-195450471D02*
X188958027Y-195736185D01*
X188958027Y-195736185D02*
X188958027Y-195950471D01*
X188958027Y-195950471D02*
X188886599Y-196236185D01*
X188886599Y-196236185D02*
X188815170Y-196379042D01*
X188815170Y-196379042D02*
X188672313Y-196521900D01*
X188672313Y-196521900D02*
X188458027Y-196593328D01*
X188458027Y-196593328D02*
X188100884Y-196593328D01*
X189600884Y-196450471D02*
X189672313Y-196521900D01*
X189672313Y-196521900D02*
X189600884Y-196593328D01*
X189600884Y-196593328D02*
X189529456Y-196521900D01*
X189529456Y-196521900D02*
X189600884Y-196450471D01*
X189600884Y-196450471D02*
X189600884Y-196593328D01*
X190243742Y-196164757D02*
X190958028Y-196164757D01*
X190100885Y-196593328D02*
X190600885Y-195093328D01*
X190600885Y-195093328D02*
X191100885Y-196593328D01*
X191600884Y-196450471D02*
X191672313Y-196521900D01*
X191672313Y-196521900D02*
X191600884Y-196593328D01*
X191600884Y-196593328D02*
X191529456Y-196521900D01*
X191529456Y-196521900D02*
X191600884Y-196450471D01*
X191600884Y-196450471D02*
X191600884Y-196593328D01*
X193672313Y-195736185D02*
X193529456Y-195664757D01*
X193529456Y-195664757D02*
X193458027Y-195593328D01*
X193458027Y-195593328D02*
X193386599Y-195450471D01*
X193386599Y-195450471D02*
X193386599Y-195379042D01*
X193386599Y-195379042D02*
X193458027Y-195236185D01*
X193458027Y-195236185D02*
X193529456Y-195164757D01*
X193529456Y-195164757D02*
X193672313Y-195093328D01*
X193672313Y-195093328D02*
X193958027Y-195093328D01*
X193958027Y-195093328D02*
X194100885Y-195164757D01*
X194100885Y-195164757D02*
X194172313Y-195236185D01*
X194172313Y-195236185D02*
X194243742Y-195379042D01*
X194243742Y-195379042D02*
X194243742Y-195450471D01*
X194243742Y-195450471D02*
X194172313Y-195593328D01*
X194172313Y-195593328D02*
X194100885Y-195664757D01*
X194100885Y-195664757D02*
X193958027Y-195736185D01*
X193958027Y-195736185D02*
X193672313Y-195736185D01*
X193672313Y-195736185D02*
X193529456Y-195807614D01*
X193529456Y-195807614D02*
X193458027Y-195879042D01*
X193458027Y-195879042D02*
X193386599Y-196021900D01*
X193386599Y-196021900D02*
X193386599Y-196307614D01*
X193386599Y-196307614D02*
X193458027Y-196450471D01*
X193458027Y-196450471D02*
X193529456Y-196521900D01*
X193529456Y-196521900D02*
X193672313Y-196593328D01*
X193672313Y-196593328D02*
X193958027Y-196593328D01*
X193958027Y-196593328D02*
X194100885Y-196521900D01*
X194100885Y-196521900D02*
X194172313Y-196450471D01*
X194172313Y-196450471D02*
X194243742Y-196307614D01*
X194243742Y-196307614D02*
X194243742Y-196021900D01*
X194243742Y-196021900D02*
X194172313Y-195879042D01*
X194172313Y-195879042D02*
X194100885Y-195807614D01*
X194100885Y-195807614D02*
X193958027Y-195736185D01*
X194886598Y-196450471D02*
X194958027Y-196521900D01*
X194958027Y-196521900D02*
X194886598Y-196593328D01*
X194886598Y-196593328D02*
X194815170Y-196521900D01*
X194815170Y-196521900D02*
X194886598Y-196450471D01*
X194886598Y-196450471D02*
X194886598Y-196593328D01*
X195886599Y-195093328D02*
X196029456Y-195093328D01*
X196029456Y-195093328D02*
X196172313Y-195164757D01*
X196172313Y-195164757D02*
X196243742Y-195236185D01*
X196243742Y-195236185D02*
X196315170Y-195379042D01*
X196315170Y-195379042D02*
X196386599Y-195664757D01*
X196386599Y-195664757D02*
X196386599Y-196021900D01*
X196386599Y-196021900D02*
X196315170Y-196307614D01*
X196315170Y-196307614D02*
X196243742Y-196450471D01*
X196243742Y-196450471D02*
X196172313Y-196521900D01*
X196172313Y-196521900D02*
X196029456Y-196593328D01*
X196029456Y-196593328D02*
X195886599Y-196593328D01*
X195886599Y-196593328D02*
X195743742Y-196521900D01*
X195743742Y-196521900D02*
X195672313Y-196450471D01*
X195672313Y-196450471D02*
X195600884Y-196307614D01*
X195600884Y-196307614D02*
X195529456Y-196021900D01*
X195529456Y-196021900D02*
X195529456Y-195664757D01*
X195529456Y-195664757D02*
X195600884Y-195379042D01*
X195600884Y-195379042D02*
X195672313Y-195236185D01*
X195672313Y-195236185D02*
X195743742Y-195164757D01*
X195743742Y-195164757D02*
X195886599Y-195093328D01*
X197029455Y-196450471D02*
X197100884Y-196521900D01*
X197100884Y-196521900D02*
X197029455Y-196593328D01*
X197029455Y-196593328D02*
X196958027Y-196521900D01*
X196958027Y-196521900D02*
X197029455Y-196450471D01*
X197029455Y-196450471D02*
X197029455Y-196593328D01*
X198386599Y-195093328D02*
X198100884Y-195093328D01*
X198100884Y-195093328D02*
X197958027Y-195164757D01*
X197958027Y-195164757D02*
X197886599Y-195236185D01*
X197886599Y-195236185D02*
X197743741Y-195450471D01*
X197743741Y-195450471D02*
X197672313Y-195736185D01*
X197672313Y-195736185D02*
X197672313Y-196307614D01*
X197672313Y-196307614D02*
X197743741Y-196450471D01*
X197743741Y-196450471D02*
X197815170Y-196521900D01*
X197815170Y-196521900D02*
X197958027Y-196593328D01*
X197958027Y-196593328D02*
X198243741Y-196593328D01*
X198243741Y-196593328D02*
X198386599Y-196521900D01*
X198386599Y-196521900D02*
X198458027Y-196450471D01*
X198458027Y-196450471D02*
X198529456Y-196307614D01*
X198529456Y-196307614D02*
X198529456Y-195950471D01*
X198529456Y-195950471D02*
X198458027Y-195807614D01*
X198458027Y-195807614D02*
X198386599Y-195736185D01*
X198386599Y-195736185D02*
X198243741Y-195664757D01*
X198243741Y-195664757D02*
X197958027Y-195664757D01*
X197958027Y-195664757D02*
X197815170Y-195736185D01*
X197815170Y-195736185D02*
X197743741Y-195807614D01*
X197743741Y-195807614D02*
X197672313Y-195950471D01*
D10*
D11*
X177002200Y-191507200D02*
X285002200Y-191507200D01*
D10*
D12*
X264413853Y-193785528D02*
X263913853Y-193071242D01*
X263556710Y-193785528D02*
X263556710Y-192285528D01*
X263556710Y-192285528D02*
X264128139Y-192285528D01*
X264128139Y-192285528D02*
X264270996Y-192356957D01*
X264270996Y-192356957D02*
X264342425Y-192428385D01*
X264342425Y-192428385D02*
X264413853Y-192571242D01*
X264413853Y-192571242D02*
X264413853Y-192785528D01*
X264413853Y-192785528D02*
X264342425Y-192928385D01*
X264342425Y-192928385D02*
X264270996Y-192999814D01*
X264270996Y-192999814D02*
X264128139Y-193071242D01*
X264128139Y-193071242D02*
X263556710Y-193071242D01*
X265628139Y-193714100D02*
X265485282Y-193785528D01*
X265485282Y-193785528D02*
X265199568Y-193785528D01*
X265199568Y-193785528D02*
X265056710Y-193714100D01*
X265056710Y-193714100D02*
X264985282Y-193571242D01*
X264985282Y-193571242D02*
X264985282Y-192999814D01*
X264985282Y-192999814D02*
X265056710Y-192856957D01*
X265056710Y-192856957D02*
X265199568Y-192785528D01*
X265199568Y-192785528D02*
X265485282Y-192785528D01*
X265485282Y-192785528D02*
X265628139Y-192856957D01*
X265628139Y-192856957D02*
X265699568Y-192999814D01*
X265699568Y-192999814D02*
X265699568Y-193142671D01*
X265699568Y-193142671D02*
X264985282Y-193285528D01*
X266199567Y-192785528D02*
X266556710Y-193785528D01*
X266556710Y-193785528D02*
X266913853Y-192785528D01*
X267485281Y-193642671D02*
X267556710Y-193714100D01*
X267556710Y-193714100D02*
X267485281Y-193785528D01*
X267485281Y-193785528D02*
X267413853Y-193714100D01*
X267413853Y-193714100D02*
X267485281Y-193642671D01*
X267485281Y-193642671D02*
X267485281Y-193785528D01*
X267485281Y-192856957D02*
X267556710Y-192928385D01*
X267556710Y-192928385D02*
X267485281Y-192999814D01*
X267485281Y-192999814D02*
X267413853Y-192928385D01*
X267413853Y-192928385D02*
X267485281Y-192856957D01*
X267485281Y-192856957D02*
X267485281Y-192999814D01*
X269628139Y-192285528D02*
X269770996Y-192285528D01*
X269770996Y-192285528D02*
X269913853Y-192356957D01*
X269913853Y-192356957D02*
X269985282Y-192428385D01*
X269985282Y-192428385D02*
X270056710Y-192571242D01*
X270056710Y-192571242D02*
X270128139Y-192856957D01*
X270128139Y-192856957D02*
X270128139Y-193214100D01*
X270128139Y-193214100D02*
X270056710Y-193499814D01*
X270056710Y-193499814D02*
X269985282Y-193642671D01*
X269985282Y-193642671D02*
X269913853Y-193714100D01*
X269913853Y-193714100D02*
X269770996Y-193785528D01*
X269770996Y-193785528D02*
X269628139Y-193785528D01*
X269628139Y-193785528D02*
X269485282Y-193714100D01*
X269485282Y-193714100D02*
X269413853Y-193642671D01*
X269413853Y-193642671D02*
X269342424Y-193499814D01*
X269342424Y-193499814D02*
X269270996Y-193214100D01*
X269270996Y-193214100D02*
X269270996Y-192856957D01*
X269270996Y-192856957D02*
X269342424Y-192571242D01*
X269342424Y-192571242D02*
X269413853Y-192428385D01*
X269413853Y-192428385D02*
X269485282Y-192356957D01*
X269485282Y-192356957D02*
X269628139Y-192285528D01*
X271556710Y-193785528D02*
X270699567Y-193785528D01*
X271128138Y-193785528D02*
X271128138Y-192285528D01*
X271128138Y-192285528D02*
X270985281Y-192499814D01*
X270985281Y-192499814D02*
X270842424Y-192642671D01*
X270842424Y-192642671D02*
X270699567Y-192714100D01*
D10*
D11*
X178386598Y-193721900D02*
X178600884Y-193793328D01*
X178600884Y-193793328D02*
X178958026Y-193793328D01*
X178958026Y-193793328D02*
X179100884Y-193721900D01*
X179100884Y-193721900D02*
X179172312Y-193650471D01*
X179172312Y-193650471D02*
X179243741Y-193507614D01*
X179243741Y-193507614D02*
X179243741Y-193364757D01*
X179243741Y-193364757D02*
X179172312Y-193221900D01*
X179172312Y-193221900D02*
X179100884Y-193150471D01*
X179100884Y-193150471D02*
X178958026Y-193079042D01*
X178958026Y-193079042D02*
X178672312Y-193007614D01*
X178672312Y-193007614D02*
X178529455Y-192936185D01*
X178529455Y-192936185D02*
X178458026Y-192864757D01*
X178458026Y-192864757D02*
X178386598Y-192721900D01*
X178386598Y-192721900D02*
X178386598Y-192579042D01*
X178386598Y-192579042D02*
X178458026Y-192436185D01*
X178458026Y-192436185D02*
X178529455Y-192364757D01*
X178529455Y-192364757D02*
X178672312Y-192293328D01*
X178672312Y-192293328D02*
X179029455Y-192293328D01*
X179029455Y-192293328D02*
X179243741Y-192364757D01*
X179886597Y-193793328D02*
X179886597Y-192793328D01*
X179886597Y-192293328D02*
X179815169Y-192364757D01*
X179815169Y-192364757D02*
X179886597Y-192436185D01*
X179886597Y-192436185D02*
X179958026Y-192364757D01*
X179958026Y-192364757D02*
X179886597Y-192293328D01*
X179886597Y-192293328D02*
X179886597Y-192436185D01*
X180458026Y-192793328D02*
X181243741Y-192793328D01*
X181243741Y-192793328D02*
X180458026Y-193793328D01*
X180458026Y-193793328D02*
X181243741Y-193793328D01*
X182386598Y-193721900D02*
X182243741Y-193793328D01*
X182243741Y-193793328D02*
X181958027Y-193793328D01*
X181958027Y-193793328D02*
X181815169Y-193721900D01*
X181815169Y-193721900D02*
X181743741Y-193579042D01*
X181743741Y-193579042D02*
X181743741Y-193007614D01*
X181743741Y-193007614D02*
X181815169Y-192864757D01*
X181815169Y-192864757D02*
X181958027Y-192793328D01*
X181958027Y-192793328D02*
X182243741Y-192793328D01*
X182243741Y-192793328D02*
X182386598Y-192864757D01*
X182386598Y-192864757D02*
X182458027Y-193007614D01*
X182458027Y-193007614D02*
X182458027Y-193150471D01*
X182458027Y-193150471D02*
X181743741Y-193293328D01*
X183100883Y-193650471D02*
X183172312Y-193721900D01*
X183172312Y-193721900D02*
X183100883Y-193793328D01*
X183100883Y-193793328D02*
X183029455Y-193721900D01*
X183029455Y-193721900D02*
X183100883Y-193650471D01*
X183100883Y-193650471D02*
X183100883Y-193793328D01*
X183100883Y-192864757D02*
X183172312Y-192936185D01*
X183172312Y-192936185D02*
X183100883Y-193007614D01*
X183100883Y-193007614D02*
X183029455Y-192936185D01*
X183029455Y-192936185D02*
X183100883Y-192864757D01*
X183100883Y-192864757D02*
X183100883Y-193007614D01*
X184886598Y-193364757D02*
X185600884Y-193364757D01*
X184743741Y-193793328D02*
X185243741Y-192293328D01*
X185243741Y-192293328D02*
X185743741Y-193793328D01*
X186886598Y-192793328D02*
X186886598Y-193793328D01*
X186529455Y-192221900D02*
X186172312Y-193293328D01*
X186172312Y-193293328D02*
X187100883Y-193293328D01*
D10*
D11*
X263458026Y-196593328D02*
X263458026Y-195093328D01*
X264815170Y-196593328D02*
X264815170Y-195093328D01*
X264815170Y-196521900D02*
X264672312Y-196593328D01*
X264672312Y-196593328D02*
X264386598Y-196593328D01*
X264386598Y-196593328D02*
X264243741Y-196521900D01*
X264243741Y-196521900D02*
X264172312Y-196450471D01*
X264172312Y-196450471D02*
X264100884Y-196307614D01*
X264100884Y-196307614D02*
X264100884Y-195879042D01*
X264100884Y-195879042D02*
X264172312Y-195736185D01*
X264172312Y-195736185D02*
X264243741Y-195664757D01*
X264243741Y-195664757D02*
X264386598Y-195593328D01*
X264386598Y-195593328D02*
X264672312Y-195593328D01*
X264672312Y-195593328D02*
X264815170Y-195664757D01*
X265529455Y-196450471D02*
X265600884Y-196521900D01*
X265600884Y-196521900D02*
X265529455Y-196593328D01*
X265529455Y-196593328D02*
X265458027Y-196521900D01*
X265458027Y-196521900D02*
X265529455Y-196450471D01*
X265529455Y-196450471D02*
X265529455Y-196593328D01*
X265529455Y-195664757D02*
X265600884Y-195736185D01*
X265600884Y-195736185D02*
X265529455Y-195807614D01*
X265529455Y-195807614D02*
X265458027Y-195736185D01*
X265458027Y-195736185D02*
X265529455Y-195664757D01*
X265529455Y-195664757D02*
X265529455Y-195807614D01*
X268172313Y-196593328D02*
X267315170Y-196593328D01*
X267743741Y-196593328D02*
X267743741Y-195093328D01*
X267743741Y-195093328D02*
X267600884Y-195307614D01*
X267600884Y-195307614D02*
X267458027Y-195450471D01*
X267458027Y-195450471D02*
X267315170Y-195521900D01*
X269886598Y-195021900D02*
X268600884Y-196950471D01*
X271172313Y-196593328D02*
X270315170Y-196593328D01*
X270743741Y-196593328D02*
X270743741Y-195093328D01*
X270743741Y-195093328D02*
X270600884Y-195307614D01*
X270600884Y-195307614D02*
X270458027Y-195450471D01*
X270458027Y-195450471D02*
X270315170Y-195521900D01*
D10*
D11*
X177002200Y-187507200D02*
X285002200Y-187507200D01*
D10*
D13*
X178693928Y-188211638D02*
X179836785Y-188211638D01*
X179015357Y-190211638D02*
X179265357Y-188211638D01*
X180253452Y-190211638D02*
X180420119Y-188878304D01*
X180503452Y-188211638D02*
X180396309Y-188306876D01*
X180396309Y-188306876D02*
X180479643Y-188402114D01*
X180479643Y-188402114D02*
X180586786Y-188306876D01*
X180586786Y-188306876D02*
X180503452Y-188211638D01*
X180503452Y-188211638D02*
X180479643Y-188402114D01*
X181086786Y-188878304D02*
X181848690Y-188878304D01*
X181455833Y-188211638D02*
X181241548Y-189925923D01*
X181241548Y-189925923D02*
X181312976Y-190116400D01*
X181312976Y-190116400D02*
X181491548Y-190211638D01*
X181491548Y-190211638D02*
X181682024Y-190211638D01*
X182634405Y-190211638D02*
X182455833Y-190116400D01*
X182455833Y-190116400D02*
X182384405Y-189925923D01*
X182384405Y-189925923D02*
X182598690Y-188211638D01*
X184170119Y-190116400D02*
X183967738Y-190211638D01*
X183967738Y-190211638D02*
X183586785Y-190211638D01*
X183586785Y-190211638D02*
X183408214Y-190116400D01*
X183408214Y-190116400D02*
X183336785Y-189925923D01*
X183336785Y-189925923D02*
X183432024Y-189164019D01*
X183432024Y-189164019D02*
X183551071Y-188973542D01*
X183551071Y-188973542D02*
X183753452Y-188878304D01*
X183753452Y-188878304D02*
X184134404Y-188878304D01*
X184134404Y-188878304D02*
X184312976Y-188973542D01*
X184312976Y-188973542D02*
X184384404Y-189164019D01*
X184384404Y-189164019D02*
X184360595Y-189354495D01*
X184360595Y-189354495D02*
X183384404Y-189544971D01*
X185134405Y-190021161D02*
X185217738Y-190116400D01*
X185217738Y-190116400D02*
X185110595Y-190211638D01*
X185110595Y-190211638D02*
X185027262Y-190116400D01*
X185027262Y-190116400D02*
X185134405Y-190021161D01*
X185134405Y-190021161D02*
X185110595Y-190211638D01*
X185265357Y-188973542D02*
X185348690Y-189068780D01*
X185348690Y-189068780D02*
X185241548Y-189164019D01*
X185241548Y-189164019D02*
X185158214Y-189068780D01*
X185158214Y-189068780D02*
X185265357Y-188973542D01*
X185265357Y-188973542D02*
X185241548Y-189164019D01*
X187717739Y-189164019D02*
X188384405Y-189164019D01*
X188539167Y-190211638D02*
X187586786Y-190211638D01*
X187586786Y-190211638D02*
X187836786Y-188211638D01*
X187836786Y-188211638D02*
X188789167Y-188211638D01*
X189396310Y-190211638D02*
X189646310Y-188211638D01*
X189646310Y-188211638D02*
X190134405Y-189640209D01*
X190134405Y-189640209D02*
X190979644Y-188211638D01*
X190979644Y-188211638D02*
X190729644Y-190211638D01*
X192479643Y-189164019D02*
X192753453Y-189259257D01*
X192753453Y-189259257D02*
X192836786Y-189354495D01*
X192836786Y-189354495D02*
X192908215Y-189544971D01*
X192908215Y-189544971D02*
X192872500Y-189830685D01*
X192872500Y-189830685D02*
X192753453Y-190021161D01*
X192753453Y-190021161D02*
X192646310Y-190116400D01*
X192646310Y-190116400D02*
X192443929Y-190211638D01*
X192443929Y-190211638D02*
X191682024Y-190211638D01*
X191682024Y-190211638D02*
X191932024Y-188211638D01*
X191932024Y-188211638D02*
X192598691Y-188211638D01*
X192598691Y-188211638D02*
X192777262Y-188306876D01*
X192777262Y-188306876D02*
X192860596Y-188402114D01*
X192860596Y-188402114D02*
X192932024Y-188592590D01*
X192932024Y-188592590D02*
X192908215Y-188783066D01*
X192908215Y-188783066D02*
X192789167Y-188973542D01*
X192789167Y-188973542D02*
X192682024Y-189068780D01*
X192682024Y-189068780D02*
X192479643Y-189164019D01*
X192479643Y-189164019D02*
X191812977Y-189164019D01*
X193658215Y-189640209D02*
X194610596Y-189640209D01*
X193396310Y-190211638D02*
X194312977Y-188211638D01*
X194312977Y-188211638D02*
X194729643Y-190211638D01*
X196539167Y-190211638D02*
X195991548Y-189259257D01*
X195396310Y-190211638D02*
X195646310Y-188211638D01*
X195646310Y-188211638D02*
X196408215Y-188211638D01*
X196408215Y-188211638D02*
X196586786Y-188306876D01*
X196586786Y-188306876D02*
X196670120Y-188402114D01*
X196670120Y-188402114D02*
X196741548Y-188592590D01*
X196741548Y-188592590D02*
X196705834Y-188878304D01*
X196705834Y-188878304D02*
X196586786Y-189068780D01*
X196586786Y-189068780D02*
X196479644Y-189164019D01*
X196479644Y-189164019D02*
X196277263Y-189259257D01*
X196277263Y-189259257D02*
X195515358Y-189259257D01*
X198562977Y-190021161D02*
X198455834Y-190116400D01*
X198455834Y-190116400D02*
X198158215Y-190211638D01*
X198158215Y-190211638D02*
X197967739Y-190211638D01*
X197967739Y-190211638D02*
X197693929Y-190116400D01*
X197693929Y-190116400D02*
X197527263Y-189925923D01*
X197527263Y-189925923D02*
X197455834Y-189735447D01*
X197455834Y-189735447D02*
X197408215Y-189354495D01*
X197408215Y-189354495D02*
X197443929Y-189068780D01*
X197443929Y-189068780D02*
X197586786Y-188687828D01*
X197586786Y-188687828D02*
X197705834Y-188497352D01*
X197705834Y-188497352D02*
X197920120Y-188306876D01*
X197920120Y-188306876D02*
X198217739Y-188211638D01*
X198217739Y-188211638D02*
X198408215Y-188211638D01*
X198408215Y-188211638D02*
X198682025Y-188306876D01*
X198682025Y-188306876D02*
X198765358Y-188402114D01*
X199372501Y-189640209D02*
X200324882Y-189640209D01*
X199110596Y-190211638D02*
X200027263Y-188211638D01*
X200027263Y-188211638D02*
X200443929Y-190211638D01*
X201110596Y-190211638D02*
X201360596Y-188211638D01*
X201360596Y-188211638D02*
X201836787Y-188211638D01*
X201836787Y-188211638D02*
X202110596Y-188306876D01*
X202110596Y-188306876D02*
X202277263Y-188497352D01*
X202277263Y-188497352D02*
X202348691Y-188687828D01*
X202348691Y-188687828D02*
X202396311Y-189068780D01*
X202396311Y-189068780D02*
X202360596Y-189354495D01*
X202360596Y-189354495D02*
X202217739Y-189735447D01*
X202217739Y-189735447D02*
X202098691Y-189925923D01*
X202098691Y-189925923D02*
X201884406Y-190116400D01*
X201884406Y-190116400D02*
X201586787Y-190211638D01*
X201586787Y-190211638D02*
X201110596Y-190211638D01*
X203741549Y-188211638D02*
X204122501Y-188211638D01*
X204122501Y-188211638D02*
X204301072Y-188306876D01*
X204301072Y-188306876D02*
X204467739Y-188497352D01*
X204467739Y-188497352D02*
X204515358Y-188878304D01*
X204515358Y-188878304D02*
X204432025Y-189544971D01*
X204432025Y-189544971D02*
X204289168Y-189925923D01*
X204289168Y-189925923D02*
X204074882Y-190116400D01*
X204074882Y-190116400D02*
X203872501Y-190211638D01*
X203872501Y-190211638D02*
X203491549Y-190211638D01*
X203491549Y-190211638D02*
X203312977Y-190116400D01*
X203312977Y-190116400D02*
X203146311Y-189925923D01*
X203146311Y-189925923D02*
X203098691Y-189544971D01*
X203098691Y-189544971D02*
X203182025Y-188878304D01*
X203182025Y-188878304D02*
X203324882Y-188497352D01*
X203324882Y-188497352D02*
X203539168Y-188306876D01*
X203539168Y-188306876D02*
X203741549Y-188211638D01*
X205122501Y-190116400D02*
X205396310Y-190211638D01*
X205396310Y-190211638D02*
X205872501Y-190211638D01*
X205872501Y-190211638D02*
X206074882Y-190116400D01*
X206074882Y-190116400D02*
X206182025Y-190021161D01*
X206182025Y-190021161D02*
X206301072Y-189830685D01*
X206301072Y-189830685D02*
X206324882Y-189640209D01*
X206324882Y-189640209D02*
X206253453Y-189449733D01*
X206253453Y-189449733D02*
X206170120Y-189354495D01*
X206170120Y-189354495D02*
X205991549Y-189259257D01*
X205991549Y-189259257D02*
X205622501Y-189164019D01*
X205622501Y-189164019D02*
X205443929Y-189068780D01*
X205443929Y-189068780D02*
X205360596Y-188973542D01*
X205360596Y-188973542D02*
X205289168Y-188783066D01*
X205289168Y-188783066D02*
X205312977Y-188592590D01*
X205312977Y-188592590D02*
X205432025Y-188402114D01*
X205432025Y-188402114D02*
X205539168Y-188306876D01*
X205539168Y-188306876D02*
X205741549Y-188211638D01*
X205741549Y-188211638D02*
X206217739Y-188211638D01*
X206217739Y-188211638D02*
X206491549Y-188306876D01*
X208729644Y-189449733D02*
X210253454Y-189449733D01*
X213801073Y-190021161D02*
X213693930Y-190116400D01*
X213693930Y-190116400D02*
X213396311Y-190211638D01*
X213396311Y-190211638D02*
X213205835Y-190211638D01*
X213205835Y-190211638D02*
X212932025Y-190116400D01*
X212932025Y-190116400D02*
X212765359Y-189925923D01*
X212765359Y-189925923D02*
X212693930Y-189735447D01*
X212693930Y-189735447D02*
X212646311Y-189354495D01*
X212646311Y-189354495D02*
X212682025Y-189068780D01*
X212682025Y-189068780D02*
X212824882Y-188687828D01*
X212824882Y-188687828D02*
X212943930Y-188497352D01*
X212943930Y-188497352D02*
X213158216Y-188306876D01*
X213158216Y-188306876D02*
X213455835Y-188211638D01*
X213455835Y-188211638D02*
X213646311Y-188211638D01*
X213646311Y-188211638D02*
X213920121Y-188306876D01*
X213920121Y-188306876D02*
X214003454Y-188402114D01*
X214884406Y-188211638D02*
X214682025Y-189830685D01*
X214682025Y-189830685D02*
X214753454Y-190021161D01*
X214753454Y-190021161D02*
X214836787Y-190116400D01*
X214836787Y-190116400D02*
X215015359Y-190211638D01*
X215015359Y-190211638D02*
X215396311Y-190211638D01*
X215396311Y-190211638D02*
X215598692Y-190116400D01*
X215598692Y-190116400D02*
X215705835Y-190021161D01*
X215705835Y-190021161D02*
X215824882Y-189830685D01*
X215824882Y-189830685D02*
X216027263Y-188211638D01*
X217872501Y-190211638D02*
X217324882Y-189259257D01*
X216729644Y-190211638D02*
X216979644Y-188211638D01*
X216979644Y-188211638D02*
X217741549Y-188211638D01*
X217741549Y-188211638D02*
X217920120Y-188306876D01*
X217920120Y-188306876D02*
X218003454Y-188402114D01*
X218003454Y-188402114D02*
X218074882Y-188592590D01*
X218074882Y-188592590D02*
X218039168Y-188878304D01*
X218039168Y-188878304D02*
X217920120Y-189068780D01*
X217920120Y-189068780D02*
X217812978Y-189164019D01*
X217812978Y-189164019D02*
X217610597Y-189259257D01*
X217610597Y-189259257D02*
X216848692Y-189259257D01*
X218646311Y-190116400D02*
X218920120Y-190211638D01*
X218920120Y-190211638D02*
X219396311Y-190211638D01*
X219396311Y-190211638D02*
X219598692Y-190116400D01*
X219598692Y-190116400D02*
X219705835Y-190021161D01*
X219705835Y-190021161D02*
X219824882Y-189830685D01*
X219824882Y-189830685D02*
X219848692Y-189640209D01*
X219848692Y-189640209D02*
X219777263Y-189449733D01*
X219777263Y-189449733D02*
X219693930Y-189354495D01*
X219693930Y-189354495D02*
X219515359Y-189259257D01*
X219515359Y-189259257D02*
X219146311Y-189164019D01*
X219146311Y-189164019D02*
X218967739Y-189068780D01*
X218967739Y-189068780D02*
X218884406Y-188973542D01*
X218884406Y-188973542D02*
X218812978Y-188783066D01*
X218812978Y-188783066D02*
X218836787Y-188592590D01*
X218836787Y-188592590D02*
X218955835Y-188402114D01*
X218955835Y-188402114D02*
X219062978Y-188306876D01*
X219062978Y-188306876D02*
X219265359Y-188211638D01*
X219265359Y-188211638D02*
X219741549Y-188211638D01*
X219741549Y-188211638D02*
X220015359Y-188306876D01*
X221265359Y-188211638D02*
X221646311Y-188211638D01*
X221646311Y-188211638D02*
X221824882Y-188306876D01*
X221824882Y-188306876D02*
X221991549Y-188497352D01*
X221991549Y-188497352D02*
X222039168Y-188878304D01*
X222039168Y-188878304D02*
X221955835Y-189544971D01*
X221955835Y-189544971D02*
X221812978Y-189925923D01*
X221812978Y-189925923D02*
X221598692Y-190116400D01*
X221598692Y-190116400D02*
X221396311Y-190211638D01*
X221396311Y-190211638D02*
X221015359Y-190211638D01*
X221015359Y-190211638D02*
X220836787Y-190116400D01*
X220836787Y-190116400D02*
X220670121Y-189925923D01*
X220670121Y-189925923D02*
X220622501Y-189544971D01*
X220622501Y-189544971D02*
X220705835Y-188878304D01*
X220705835Y-188878304D02*
X220848692Y-188497352D01*
X220848692Y-188497352D02*
X221062978Y-188306876D01*
X221062978Y-188306876D02*
X221265359Y-188211638D01*
X224253454Y-190211638D02*
X224503454Y-188211638D01*
X224503454Y-188211638D02*
X225265359Y-188211638D01*
X225265359Y-188211638D02*
X225443930Y-188306876D01*
X225443930Y-188306876D02*
X225527264Y-188402114D01*
X225527264Y-188402114D02*
X225598692Y-188592590D01*
X225598692Y-188592590D02*
X225562978Y-188878304D01*
X225562978Y-188878304D02*
X225443930Y-189068780D01*
X225443930Y-189068780D02*
X225336788Y-189164019D01*
X225336788Y-189164019D02*
X225134407Y-189259257D01*
X225134407Y-189259257D02*
X224372502Y-189259257D01*
X227420121Y-190021161D02*
X227312978Y-190116400D01*
X227312978Y-190116400D02*
X227015359Y-190211638D01*
X227015359Y-190211638D02*
X226824883Y-190211638D01*
X226824883Y-190211638D02*
X226551073Y-190116400D01*
X226551073Y-190116400D02*
X226384407Y-189925923D01*
X226384407Y-189925923D02*
X226312978Y-189735447D01*
X226312978Y-189735447D02*
X226265359Y-189354495D01*
X226265359Y-189354495D02*
X226301073Y-189068780D01*
X226301073Y-189068780D02*
X226443930Y-188687828D01*
X226443930Y-188687828D02*
X226562978Y-188497352D01*
X226562978Y-188497352D02*
X226777264Y-188306876D01*
X226777264Y-188306876D02*
X227074883Y-188211638D01*
X227074883Y-188211638D02*
X227265359Y-188211638D01*
X227265359Y-188211638D02*
X227539169Y-188306876D01*
X227539169Y-188306876D02*
X227622502Y-188402114D01*
X229051073Y-189164019D02*
X229324883Y-189259257D01*
X229324883Y-189259257D02*
X229408216Y-189354495D01*
X229408216Y-189354495D02*
X229479645Y-189544971D01*
X229479645Y-189544971D02*
X229443930Y-189830685D01*
X229443930Y-189830685D02*
X229324883Y-190021161D01*
X229324883Y-190021161D02*
X229217740Y-190116400D01*
X229217740Y-190116400D02*
X229015359Y-190211638D01*
X229015359Y-190211638D02*
X228253454Y-190211638D01*
X228253454Y-190211638D02*
X228503454Y-188211638D01*
X228503454Y-188211638D02*
X229170121Y-188211638D01*
X229170121Y-188211638D02*
X229348692Y-188306876D01*
X229348692Y-188306876D02*
X229432026Y-188402114D01*
X229432026Y-188402114D02*
X229503454Y-188592590D01*
X229503454Y-188592590D02*
X229479645Y-188783066D01*
X229479645Y-188783066D02*
X229360597Y-188973542D01*
X229360597Y-188973542D02*
X229253454Y-189068780D01*
X229253454Y-189068780D02*
X229051073Y-189164019D01*
X229051073Y-189164019D02*
X228384407Y-189164019D01*
D10*
D11*
X178958026Y-185607614D02*
X178458026Y-185607614D01*
X178458026Y-186393328D02*
X178458026Y-184893328D01*
X178458026Y-184893328D02*
X179172312Y-184893328D01*
X179743740Y-186393328D02*
X179743740Y-185393328D01*
X179743740Y-184893328D02*
X179672312Y-184964757D01*
X179672312Y-184964757D02*
X179743740Y-185036185D01*
X179743740Y-185036185D02*
X179815169Y-184964757D01*
X179815169Y-184964757D02*
X179743740Y-184893328D01*
X179743740Y-184893328D02*
X179743740Y-185036185D01*
X180672312Y-186393328D02*
X180529455Y-186321900D01*
X180529455Y-186321900D02*
X180458026Y-186179042D01*
X180458026Y-186179042D02*
X180458026Y-184893328D01*
X181815169Y-186321900D02*
X181672312Y-186393328D01*
X181672312Y-186393328D02*
X181386598Y-186393328D01*
X181386598Y-186393328D02*
X181243740Y-186321900D01*
X181243740Y-186321900D02*
X181172312Y-186179042D01*
X181172312Y-186179042D02*
X181172312Y-185607614D01*
X181172312Y-185607614D02*
X181243740Y-185464757D01*
X181243740Y-185464757D02*
X181386598Y-185393328D01*
X181386598Y-185393328D02*
X181672312Y-185393328D01*
X181672312Y-185393328D02*
X181815169Y-185464757D01*
X181815169Y-185464757D02*
X181886598Y-185607614D01*
X181886598Y-185607614D02*
X181886598Y-185750471D01*
X181886598Y-185750471D02*
X181172312Y-185893328D01*
X182529454Y-186250471D02*
X182600883Y-186321900D01*
X182600883Y-186321900D02*
X182529454Y-186393328D01*
X182529454Y-186393328D02*
X182458026Y-186321900D01*
X182458026Y-186321900D02*
X182529454Y-186250471D01*
X182529454Y-186250471D02*
X182529454Y-186393328D01*
X182529454Y-185464757D02*
X182600883Y-185536185D01*
X182600883Y-185536185D02*
X182529454Y-185607614D01*
X182529454Y-185607614D02*
X182458026Y-185536185D01*
X182458026Y-185536185D02*
X182529454Y-185464757D01*
X182529454Y-185464757D02*
X182529454Y-185607614D01*
X184386597Y-185607614D02*
X184886597Y-185607614D01*
X185100883Y-186393328D02*
X184386597Y-186393328D01*
X184386597Y-186393328D02*
X184386597Y-184893328D01*
X184386597Y-184893328D02*
X185100883Y-184893328D01*
X185743740Y-186393328D02*
X185743740Y-184893328D01*
X185743740Y-184893328D02*
X186243740Y-185964757D01*
X186243740Y-185964757D02*
X186743740Y-184893328D01*
X186743740Y-184893328D02*
X186743740Y-186393328D01*
X187958026Y-185607614D02*
X188172312Y-185679042D01*
X188172312Y-185679042D02*
X188243741Y-185750471D01*
X188243741Y-185750471D02*
X188315169Y-185893328D01*
X188315169Y-185893328D02*
X188315169Y-186107614D01*
X188315169Y-186107614D02*
X188243741Y-186250471D01*
X188243741Y-186250471D02*
X188172312Y-186321900D01*
X188172312Y-186321900D02*
X188029455Y-186393328D01*
X188029455Y-186393328D02*
X187458026Y-186393328D01*
X187458026Y-186393328D02*
X187458026Y-184893328D01*
X187458026Y-184893328D02*
X187958026Y-184893328D01*
X187958026Y-184893328D02*
X188100884Y-184964757D01*
X188100884Y-184964757D02*
X188172312Y-185036185D01*
X188172312Y-185036185D02*
X188243741Y-185179042D01*
X188243741Y-185179042D02*
X188243741Y-185321900D01*
X188243741Y-185321900D02*
X188172312Y-185464757D01*
X188172312Y-185464757D02*
X188100884Y-185536185D01*
X188100884Y-185536185D02*
X187958026Y-185607614D01*
X187958026Y-185607614D02*
X187458026Y-185607614D01*
X188886598Y-185964757D02*
X189600884Y-185964757D01*
X188743741Y-186393328D02*
X189243741Y-184893328D01*
X189243741Y-184893328D02*
X189743741Y-186393328D01*
X191100883Y-186393328D02*
X190600883Y-185679042D01*
X190243740Y-186393328D02*
X190243740Y-184893328D01*
X190243740Y-184893328D02*
X190815169Y-184893328D01*
X190815169Y-184893328D02*
X190958026Y-184964757D01*
X190958026Y-184964757D02*
X191029455Y-185036185D01*
X191029455Y-185036185D02*
X191100883Y-185179042D01*
X191100883Y-185179042D02*
X191100883Y-185393328D01*
X191100883Y-185393328D02*
X191029455Y-185536185D01*
X191029455Y-185536185D02*
X190958026Y-185607614D01*
X190958026Y-185607614D02*
X190815169Y-185679042D01*
X190815169Y-185679042D02*
X190243740Y-185679042D01*
X192600883Y-186250471D02*
X192529455Y-186321900D01*
X192529455Y-186321900D02*
X192315169Y-186393328D01*
X192315169Y-186393328D02*
X192172312Y-186393328D01*
X192172312Y-186393328D02*
X191958026Y-186321900D01*
X191958026Y-186321900D02*
X191815169Y-186179042D01*
X191815169Y-186179042D02*
X191743740Y-186036185D01*
X191743740Y-186036185D02*
X191672312Y-185750471D01*
X191672312Y-185750471D02*
X191672312Y-185536185D01*
X191672312Y-185536185D02*
X191743740Y-185250471D01*
X191743740Y-185250471D02*
X191815169Y-185107614D01*
X191815169Y-185107614D02*
X191958026Y-184964757D01*
X191958026Y-184964757D02*
X192172312Y-184893328D01*
X192172312Y-184893328D02*
X192315169Y-184893328D01*
X192315169Y-184893328D02*
X192529455Y-184964757D01*
X192529455Y-184964757D02*
X192600883Y-185036185D01*
X193172312Y-185964757D02*
X193886598Y-185964757D01*
X193029455Y-186393328D02*
X193529455Y-184893328D01*
X193529455Y-184893328D02*
X194029455Y-186393328D01*
X194529454Y-186393328D02*
X194529454Y-184893328D01*
X194529454Y-184893328D02*
X194886597Y-184893328D01*
X194886597Y-184893328D02*
X195100883Y-184964757D01*
X195100883Y-184964757D02*
X195243740Y-185107614D01*
X195243740Y-185107614D02*
X195315169Y-185250471D01*
X195315169Y-185250471D02*
X195386597Y-185536185D01*
X195386597Y-185536185D02*
X195386597Y-185750471D01*
X195386597Y-185750471D02*
X195315169Y-186036185D01*
X195315169Y-186036185D02*
X195243740Y-186179042D01*
X195243740Y-186179042D02*
X195100883Y-186321900D01*
X195100883Y-186321900D02*
X194886597Y-186393328D01*
X194886597Y-186393328D02*
X194529454Y-186393328D01*
X196315169Y-184893328D02*
X196600883Y-184893328D01*
X196600883Y-184893328D02*
X196743740Y-184964757D01*
X196743740Y-184964757D02*
X196886597Y-185107614D01*
X196886597Y-185107614D02*
X196958026Y-185393328D01*
X196958026Y-185393328D02*
X196958026Y-185893328D01*
X196958026Y-185893328D02*
X196886597Y-186179042D01*
X196886597Y-186179042D02*
X196743740Y-186321900D01*
X196743740Y-186321900D02*
X196600883Y-186393328D01*
X196600883Y-186393328D02*
X196315169Y-186393328D01*
X196315169Y-186393328D02*
X196172312Y-186321900D01*
X196172312Y-186321900D02*
X196029454Y-186179042D01*
X196029454Y-186179042D02*
X195958026Y-185893328D01*
X195958026Y-185893328D02*
X195958026Y-185393328D01*
X195958026Y-185393328D02*
X196029454Y-185107614D01*
X196029454Y-185107614D02*
X196172312Y-184964757D01*
X196172312Y-184964757D02*
X196315169Y-184893328D01*
X197529455Y-186321900D02*
X197743741Y-186393328D01*
X197743741Y-186393328D02*
X198100883Y-186393328D01*
X198100883Y-186393328D02*
X198243741Y-186321900D01*
X198243741Y-186321900D02*
X198315169Y-186250471D01*
X198315169Y-186250471D02*
X198386598Y-186107614D01*
X198386598Y-186107614D02*
X198386598Y-185964757D01*
X198386598Y-185964757D02*
X198315169Y-185821900D01*
X198315169Y-185821900D02*
X198243741Y-185750471D01*
X198243741Y-185750471D02*
X198100883Y-185679042D01*
X198100883Y-185679042D02*
X197815169Y-185607614D01*
X197815169Y-185607614D02*
X197672312Y-185536185D01*
X197672312Y-185536185D02*
X197600883Y-185464757D01*
X197600883Y-185464757D02*
X197529455Y-185321900D01*
X197529455Y-185321900D02*
X197529455Y-185179042D01*
X197529455Y-185179042D02*
X197600883Y-185036185D01*
X197600883Y-185036185D02*
X197672312Y-184964757D01*
X197672312Y-184964757D02*
X197815169Y-184893328D01*
X197815169Y-184893328D02*
X198172312Y-184893328D01*
X198172312Y-184893328D02*
X198386598Y-184964757D01*
X200172311Y-185821900D02*
X201315169Y-185821900D01*
X204029454Y-186250471D02*
X203958026Y-186321900D01*
X203958026Y-186321900D02*
X203743740Y-186393328D01*
X203743740Y-186393328D02*
X203600883Y-186393328D01*
X203600883Y-186393328D02*
X203386597Y-186321900D01*
X203386597Y-186321900D02*
X203243740Y-186179042D01*
X203243740Y-186179042D02*
X203172311Y-186036185D01*
X203172311Y-186036185D02*
X203100883Y-185750471D01*
X203100883Y-185750471D02*
X203100883Y-185536185D01*
X203100883Y-185536185D02*
X203172311Y-185250471D01*
X203172311Y-185250471D02*
X203243740Y-185107614D01*
X203243740Y-185107614D02*
X203386597Y-184964757D01*
X203386597Y-184964757D02*
X203600883Y-184893328D01*
X203600883Y-184893328D02*
X203743740Y-184893328D01*
X203743740Y-184893328D02*
X203958026Y-184964757D01*
X203958026Y-184964757D02*
X204029454Y-185036185D01*
X204672311Y-184893328D02*
X204672311Y-186107614D01*
X204672311Y-186107614D02*
X204743740Y-186250471D01*
X204743740Y-186250471D02*
X204815169Y-186321900D01*
X204815169Y-186321900D02*
X204958026Y-186393328D01*
X204958026Y-186393328D02*
X205243740Y-186393328D01*
X205243740Y-186393328D02*
X205386597Y-186321900D01*
X205386597Y-186321900D02*
X205458026Y-186250471D01*
X205458026Y-186250471D02*
X205529454Y-186107614D01*
X205529454Y-186107614D02*
X205529454Y-184893328D01*
X207100883Y-186393328D02*
X206600883Y-185679042D01*
X206243740Y-186393328D02*
X206243740Y-184893328D01*
X206243740Y-184893328D02*
X206815169Y-184893328D01*
X206815169Y-184893328D02*
X206958026Y-184964757D01*
X206958026Y-184964757D02*
X207029455Y-185036185D01*
X207029455Y-185036185D02*
X207100883Y-185179042D01*
X207100883Y-185179042D02*
X207100883Y-185393328D01*
X207100883Y-185393328D02*
X207029455Y-185536185D01*
X207029455Y-185536185D02*
X206958026Y-185607614D01*
X206958026Y-185607614D02*
X206815169Y-185679042D01*
X206815169Y-185679042D02*
X206243740Y-185679042D01*
X207672312Y-186321900D02*
X207886598Y-186393328D01*
X207886598Y-186393328D02*
X208243740Y-186393328D01*
X208243740Y-186393328D02*
X208386598Y-186321900D01*
X208386598Y-186321900D02*
X208458026Y-186250471D01*
X208458026Y-186250471D02*
X208529455Y-186107614D01*
X208529455Y-186107614D02*
X208529455Y-185964757D01*
X208529455Y-185964757D02*
X208458026Y-185821900D01*
X208458026Y-185821900D02*
X208386598Y-185750471D01*
X208386598Y-185750471D02*
X208243740Y-185679042D01*
X208243740Y-185679042D02*
X207958026Y-185607614D01*
X207958026Y-185607614D02*
X207815169Y-185536185D01*
X207815169Y-185536185D02*
X207743740Y-185464757D01*
X207743740Y-185464757D02*
X207672312Y-185321900D01*
X207672312Y-185321900D02*
X207672312Y-185179042D01*
X207672312Y-185179042D02*
X207743740Y-185036185D01*
X207743740Y-185036185D02*
X207815169Y-184964757D01*
X207815169Y-184964757D02*
X207958026Y-184893328D01*
X207958026Y-184893328D02*
X208315169Y-184893328D01*
X208315169Y-184893328D02*
X208529455Y-184964757D01*
X209458026Y-184893328D02*
X209743740Y-184893328D01*
X209743740Y-184893328D02*
X209886597Y-184964757D01*
X209886597Y-184964757D02*
X210029454Y-185107614D01*
X210029454Y-185107614D02*
X210100883Y-185393328D01*
X210100883Y-185393328D02*
X210100883Y-185893328D01*
X210100883Y-185893328D02*
X210029454Y-186179042D01*
X210029454Y-186179042D02*
X209886597Y-186321900D01*
X209886597Y-186321900D02*
X209743740Y-186393328D01*
X209743740Y-186393328D02*
X209458026Y-186393328D01*
X209458026Y-186393328D02*
X209315169Y-186321900D01*
X209315169Y-186321900D02*
X209172311Y-186179042D01*
X209172311Y-186179042D02*
X209100883Y-185893328D01*
X209100883Y-185893328D02*
X209100883Y-185393328D01*
X209100883Y-185393328D02*
X209172311Y-185107614D01*
X209172311Y-185107614D02*
X209315169Y-184964757D01*
X209315169Y-184964757D02*
X209458026Y-184893328D01*
X211886597Y-186393328D02*
X211886597Y-184893328D01*
X211886597Y-184893328D02*
X212458026Y-184893328D01*
X212458026Y-184893328D02*
X212600883Y-184964757D01*
X212600883Y-184964757D02*
X212672312Y-185036185D01*
X212672312Y-185036185D02*
X212743740Y-185179042D01*
X212743740Y-185179042D02*
X212743740Y-185393328D01*
X212743740Y-185393328D02*
X212672312Y-185536185D01*
X212672312Y-185536185D02*
X212600883Y-185607614D01*
X212600883Y-185607614D02*
X212458026Y-185679042D01*
X212458026Y-185679042D02*
X211886597Y-185679042D01*
X214243740Y-186250471D02*
X214172312Y-186321900D01*
X214172312Y-186321900D02*
X213958026Y-186393328D01*
X213958026Y-186393328D02*
X213815169Y-186393328D01*
X213815169Y-186393328D02*
X213600883Y-186321900D01*
X213600883Y-186321900D02*
X213458026Y-186179042D01*
X213458026Y-186179042D02*
X213386597Y-186036185D01*
X213386597Y-186036185D02*
X213315169Y-185750471D01*
X213315169Y-185750471D02*
X213315169Y-185536185D01*
X213315169Y-185536185D02*
X213386597Y-185250471D01*
X213386597Y-185250471D02*
X213458026Y-185107614D01*
X213458026Y-185107614D02*
X213600883Y-184964757D01*
X213600883Y-184964757D02*
X213815169Y-184893328D01*
X213815169Y-184893328D02*
X213958026Y-184893328D01*
X213958026Y-184893328D02*
X214172312Y-184964757D01*
X214172312Y-184964757D02*
X214243740Y-185036185D01*
X215386597Y-185607614D02*
X215600883Y-185679042D01*
X215600883Y-185679042D02*
X215672312Y-185750471D01*
X215672312Y-185750471D02*
X215743740Y-185893328D01*
X215743740Y-185893328D02*
X215743740Y-186107614D01*
X215743740Y-186107614D02*
X215672312Y-186250471D01*
X215672312Y-186250471D02*
X215600883Y-186321900D01*
X215600883Y-186321900D02*
X215458026Y-186393328D01*
X215458026Y-186393328D02*
X214886597Y-186393328D01*
X214886597Y-186393328D02*
X214886597Y-184893328D01*
X214886597Y-184893328D02*
X215386597Y-184893328D01*
X215386597Y-184893328D02*
X215529455Y-184964757D01*
X215529455Y-184964757D02*
X215600883Y-185036185D01*
X215600883Y-185036185D02*
X215672312Y-185179042D01*
X215672312Y-185179042D02*
X215672312Y-185321900D01*
X215672312Y-185321900D02*
X215600883Y-185464757D01*
X215600883Y-185464757D02*
X215529455Y-185536185D01*
X215529455Y-185536185D02*
X215386597Y-185607614D01*
X215386597Y-185607614D02*
X214886597Y-185607614D01*
X216386597Y-186250471D02*
X216458026Y-186321900D01*
X216458026Y-186321900D02*
X216386597Y-186393328D01*
X216386597Y-186393328D02*
X216315169Y-186321900D01*
X216315169Y-186321900D02*
X216386597Y-186250471D01*
X216386597Y-186250471D02*
X216386597Y-186393328D01*
X217100883Y-186393328D02*
X217100883Y-184893328D01*
X217243741Y-185821900D02*
X217672312Y-186393328D01*
X217672312Y-185393328D02*
X217100883Y-185964757D01*
X218315169Y-186393328D02*
X218315169Y-185393328D01*
X218315169Y-184893328D02*
X218243741Y-184964757D01*
X218243741Y-184964757D02*
X218315169Y-185036185D01*
X218315169Y-185036185D02*
X218386598Y-184964757D01*
X218386598Y-184964757D02*
X218315169Y-184893328D01*
X218315169Y-184893328D02*
X218315169Y-185036185D01*
X219672313Y-186321900D02*
X219529455Y-186393328D01*
X219529455Y-186393328D02*
X219243741Y-186393328D01*
X219243741Y-186393328D02*
X219100884Y-186321900D01*
X219100884Y-186321900D02*
X219029455Y-186250471D01*
X219029455Y-186250471D02*
X218958027Y-186107614D01*
X218958027Y-186107614D02*
X218958027Y-185679042D01*
X218958027Y-185679042D02*
X219029455Y-185536185D01*
X219029455Y-185536185D02*
X219100884Y-185464757D01*
X219100884Y-185464757D02*
X219243741Y-185393328D01*
X219243741Y-185393328D02*
X219529455Y-185393328D01*
X219529455Y-185393328D02*
X219672313Y-185464757D01*
X220958027Y-186393328D02*
X220958027Y-185607614D01*
X220958027Y-185607614D02*
X220886598Y-185464757D01*
X220886598Y-185464757D02*
X220743741Y-185393328D01*
X220743741Y-185393328D02*
X220458027Y-185393328D01*
X220458027Y-185393328D02*
X220315169Y-185464757D01*
X220958027Y-186321900D02*
X220815169Y-186393328D01*
X220815169Y-186393328D02*
X220458027Y-186393328D01*
X220458027Y-186393328D02*
X220315169Y-186321900D01*
X220315169Y-186321900D02*
X220243741Y-186179042D01*
X220243741Y-186179042D02*
X220243741Y-186036185D01*
X220243741Y-186036185D02*
X220315169Y-185893328D01*
X220315169Y-185893328D02*
X220458027Y-185821900D01*
X220458027Y-185821900D02*
X220815169Y-185821900D01*
X220815169Y-185821900D02*
X220958027Y-185750471D01*
X222315170Y-186393328D02*
X222315170Y-184893328D01*
X222315170Y-186321900D02*
X222172312Y-186393328D01*
X222172312Y-186393328D02*
X221886598Y-186393328D01*
X221886598Y-186393328D02*
X221743741Y-186321900D01*
X221743741Y-186321900D02*
X221672312Y-186250471D01*
X221672312Y-186250471D02*
X221600884Y-186107614D01*
X221600884Y-186107614D02*
X221600884Y-185679042D01*
X221600884Y-185679042D02*
X221672312Y-185536185D01*
X221672312Y-185536185D02*
X221743741Y-185464757D01*
X221743741Y-185464757D02*
X221886598Y-185393328D01*
X221886598Y-185393328D02*
X222172312Y-185393328D01*
X222172312Y-185393328D02*
X222315170Y-185464757D01*
X222672313Y-186536185D02*
X223815170Y-186536185D01*
X224172312Y-185393328D02*
X224172312Y-186893328D01*
X224172312Y-185464757D02*
X224315170Y-185393328D01*
X224315170Y-185393328D02*
X224600884Y-185393328D01*
X224600884Y-185393328D02*
X224743741Y-185464757D01*
X224743741Y-185464757D02*
X224815170Y-185536185D01*
X224815170Y-185536185D02*
X224886598Y-185679042D01*
X224886598Y-185679042D02*
X224886598Y-186107614D01*
X224886598Y-186107614D02*
X224815170Y-186250471D01*
X224815170Y-186250471D02*
X224743741Y-186321900D01*
X224743741Y-186321900D02*
X224600884Y-186393328D01*
X224600884Y-186393328D02*
X224315170Y-186393328D01*
X224315170Y-186393328D02*
X224172312Y-186321900D01*
X226172313Y-186321900D02*
X226029455Y-186393328D01*
X226029455Y-186393328D02*
X225743741Y-186393328D01*
X225743741Y-186393328D02*
X225600884Y-186321900D01*
X225600884Y-186321900D02*
X225529455Y-186250471D01*
X225529455Y-186250471D02*
X225458027Y-186107614D01*
X225458027Y-186107614D02*
X225458027Y-185679042D01*
X225458027Y-185679042D02*
X225529455Y-185536185D01*
X225529455Y-185536185D02*
X225600884Y-185464757D01*
X225600884Y-185464757D02*
X225743741Y-185393328D01*
X225743741Y-185393328D02*
X226029455Y-185393328D01*
X226029455Y-185393328D02*
X226172313Y-185464757D01*
X226815169Y-186393328D02*
X226815169Y-184893328D01*
X226815169Y-185464757D02*
X226958027Y-185393328D01*
X226958027Y-185393328D02*
X227243741Y-185393328D01*
X227243741Y-185393328D02*
X227386598Y-185464757D01*
X227386598Y-185464757D02*
X227458027Y-185536185D01*
X227458027Y-185536185D02*
X227529455Y-185679042D01*
X227529455Y-185679042D02*
X227529455Y-186107614D01*
X227529455Y-186107614D02*
X227458027Y-186250471D01*
X227458027Y-186250471D02*
X227386598Y-186321900D01*
X227386598Y-186321900D02*
X227243741Y-186393328D01*
X227243741Y-186393328D02*
X226958027Y-186393328D01*
X226958027Y-186393328D02*
X226815169Y-186321900D01*
D10*
D11*
X177002200Y-181507200D02*
X285002200Y-181507200D01*
D10*
D11*
X178386598Y-183621900D02*
X178600884Y-183693328D01*
X178600884Y-183693328D02*
X178958026Y-183693328D01*
X178958026Y-183693328D02*
X179100884Y-183621900D01*
X179100884Y-183621900D02*
X179172312Y-183550471D01*
X179172312Y-183550471D02*
X179243741Y-183407614D01*
X179243741Y-183407614D02*
X179243741Y-183264757D01*
X179243741Y-183264757D02*
X179172312Y-183121900D01*
X179172312Y-183121900D02*
X179100884Y-183050471D01*
X179100884Y-183050471D02*
X178958026Y-182979042D01*
X178958026Y-182979042D02*
X178672312Y-182907614D01*
X178672312Y-182907614D02*
X178529455Y-182836185D01*
X178529455Y-182836185D02*
X178458026Y-182764757D01*
X178458026Y-182764757D02*
X178386598Y-182621900D01*
X178386598Y-182621900D02*
X178386598Y-182479042D01*
X178386598Y-182479042D02*
X178458026Y-182336185D01*
X178458026Y-182336185D02*
X178529455Y-182264757D01*
X178529455Y-182264757D02*
X178672312Y-182193328D01*
X178672312Y-182193328D02*
X179029455Y-182193328D01*
X179029455Y-182193328D02*
X179243741Y-182264757D01*
X179886597Y-183693328D02*
X179886597Y-182193328D01*
X180529455Y-183693328D02*
X180529455Y-182907614D01*
X180529455Y-182907614D02*
X180458026Y-182764757D01*
X180458026Y-182764757D02*
X180315169Y-182693328D01*
X180315169Y-182693328D02*
X180100883Y-182693328D01*
X180100883Y-182693328D02*
X179958026Y-182764757D01*
X179958026Y-182764757D02*
X179886597Y-182836185D01*
X181815169Y-183621900D02*
X181672312Y-183693328D01*
X181672312Y-183693328D02*
X181386598Y-183693328D01*
X181386598Y-183693328D02*
X181243740Y-183621900D01*
X181243740Y-183621900D02*
X181172312Y-183479042D01*
X181172312Y-183479042D02*
X181172312Y-182907614D01*
X181172312Y-182907614D02*
X181243740Y-182764757D01*
X181243740Y-182764757D02*
X181386598Y-182693328D01*
X181386598Y-182693328D02*
X181672312Y-182693328D01*
X181672312Y-182693328D02*
X181815169Y-182764757D01*
X181815169Y-182764757D02*
X181886598Y-182907614D01*
X181886598Y-182907614D02*
X181886598Y-183050471D01*
X181886598Y-183050471D02*
X181172312Y-183193328D01*
X183100883Y-183621900D02*
X182958026Y-183693328D01*
X182958026Y-183693328D02*
X182672312Y-183693328D01*
X182672312Y-183693328D02*
X182529454Y-183621900D01*
X182529454Y-183621900D02*
X182458026Y-183479042D01*
X182458026Y-183479042D02*
X182458026Y-182907614D01*
X182458026Y-182907614D02*
X182529454Y-182764757D01*
X182529454Y-182764757D02*
X182672312Y-182693328D01*
X182672312Y-182693328D02*
X182958026Y-182693328D01*
X182958026Y-182693328D02*
X183100883Y-182764757D01*
X183100883Y-182764757D02*
X183172312Y-182907614D01*
X183172312Y-182907614D02*
X183172312Y-183050471D01*
X183172312Y-183050471D02*
X182458026Y-183193328D01*
X183600883Y-182693328D02*
X184172311Y-182693328D01*
X183815168Y-182193328D02*
X183815168Y-183479042D01*
X183815168Y-183479042D02*
X183886597Y-183621900D01*
X183886597Y-183621900D02*
X184029454Y-183693328D01*
X184029454Y-183693328D02*
X184172311Y-183693328D01*
X184672311Y-183550471D02*
X184743740Y-183621900D01*
X184743740Y-183621900D02*
X184672311Y-183693328D01*
X184672311Y-183693328D02*
X184600883Y-183621900D01*
X184600883Y-183621900D02*
X184672311Y-183550471D01*
X184672311Y-183550471D02*
X184672311Y-183693328D01*
X184672311Y-182764757D02*
X184743740Y-182836185D01*
X184743740Y-182836185D02*
X184672311Y-182907614D01*
X184672311Y-182907614D02*
X184600883Y-182836185D01*
X184600883Y-182836185D02*
X184672311Y-182764757D01*
X184672311Y-182764757D02*
X184672311Y-182907614D01*
D10*
D12*
X178556710Y-180685528D02*
X178556710Y-179185528D01*
X178556710Y-179185528D02*
X179056710Y-180256957D01*
X179056710Y-180256957D02*
X179556710Y-179185528D01*
X179556710Y-179185528D02*
X179556710Y-180685528D01*
X180842425Y-180614100D02*
X180699568Y-180685528D01*
X180699568Y-180685528D02*
X180413854Y-180685528D01*
X180413854Y-180685528D02*
X180270996Y-180614100D01*
X180270996Y-180614100D02*
X180199568Y-180471242D01*
X180199568Y-180471242D02*
X180199568Y-179899814D01*
X180199568Y-179899814D02*
X180270996Y-179756957D01*
X180270996Y-179756957D02*
X180413854Y-179685528D01*
X180413854Y-179685528D02*
X180699568Y-179685528D01*
X180699568Y-179685528D02*
X180842425Y-179756957D01*
X180842425Y-179756957D02*
X180913854Y-179899814D01*
X180913854Y-179899814D02*
X180913854Y-180042671D01*
X180913854Y-180042671D02*
X180199568Y-180185528D01*
X182199568Y-180614100D02*
X182056710Y-180685528D01*
X182056710Y-180685528D02*
X181770996Y-180685528D01*
X181770996Y-180685528D02*
X181628139Y-180614100D01*
X181628139Y-180614100D02*
X181556710Y-180542671D01*
X181556710Y-180542671D02*
X181485282Y-180399814D01*
X181485282Y-180399814D02*
X181485282Y-179971242D01*
X181485282Y-179971242D02*
X181556710Y-179828385D01*
X181556710Y-179828385D02*
X181628139Y-179756957D01*
X181628139Y-179756957D02*
X181770996Y-179685528D01*
X181770996Y-179685528D02*
X182056710Y-179685528D01*
X182056710Y-179685528D02*
X182199568Y-179756957D01*
X182842424Y-180685528D02*
X182842424Y-179185528D01*
X183485282Y-180685528D02*
X183485282Y-179899814D01*
X183485282Y-179899814D02*
X183413853Y-179756957D01*
X183413853Y-179756957D02*
X183270996Y-179685528D01*
X183270996Y-179685528D02*
X183056710Y-179685528D01*
X183056710Y-179685528D02*
X182913853Y-179756957D01*
X182913853Y-179756957D02*
X182842424Y-179828385D01*
X184842425Y-180685528D02*
X184842425Y-179899814D01*
X184842425Y-179899814D02*
X184770996Y-179756957D01*
X184770996Y-179756957D02*
X184628139Y-179685528D01*
X184628139Y-179685528D02*
X184342425Y-179685528D01*
X184342425Y-179685528D02*
X184199567Y-179756957D01*
X184842425Y-180614100D02*
X184699567Y-180685528D01*
X184699567Y-180685528D02*
X184342425Y-180685528D01*
X184342425Y-180685528D02*
X184199567Y-180614100D01*
X184199567Y-180614100D02*
X184128139Y-180471242D01*
X184128139Y-180471242D02*
X184128139Y-180328385D01*
X184128139Y-180328385D02*
X184199567Y-180185528D01*
X184199567Y-180185528D02*
X184342425Y-180114100D01*
X184342425Y-180114100D02*
X184699567Y-180114100D01*
X184699567Y-180114100D02*
X184842425Y-180042671D01*
X185342425Y-179685528D02*
X185913853Y-179685528D01*
X185556710Y-179185528D02*
X185556710Y-180471242D01*
X185556710Y-180471242D02*
X185628139Y-180614100D01*
X185628139Y-180614100D02*
X185770996Y-180685528D01*
X185770996Y-180685528D02*
X185913853Y-180685528D01*
X186413853Y-180685528D02*
X186413853Y-179685528D01*
X186413853Y-179971242D02*
X186485282Y-179828385D01*
X186485282Y-179828385D02*
X186556711Y-179756957D01*
X186556711Y-179756957D02*
X186699568Y-179685528D01*
X186699568Y-179685528D02*
X186842425Y-179685528D01*
X187556710Y-180685528D02*
X187413853Y-180614100D01*
X187413853Y-180614100D02*
X187342424Y-180542671D01*
X187342424Y-180542671D02*
X187270996Y-180399814D01*
X187270996Y-180399814D02*
X187270996Y-179971242D01*
X187270996Y-179971242D02*
X187342424Y-179828385D01*
X187342424Y-179828385D02*
X187413853Y-179756957D01*
X187413853Y-179756957D02*
X187556710Y-179685528D01*
X187556710Y-179685528D02*
X187770996Y-179685528D01*
X187770996Y-179685528D02*
X187913853Y-179756957D01*
X187913853Y-179756957D02*
X187985282Y-179828385D01*
X187985282Y-179828385D02*
X188056710Y-179971242D01*
X188056710Y-179971242D02*
X188056710Y-180399814D01*
X188056710Y-180399814D02*
X187985282Y-180542671D01*
X187985282Y-180542671D02*
X187913853Y-180614100D01*
X187913853Y-180614100D02*
X187770996Y-180685528D01*
X187770996Y-180685528D02*
X187556710Y-180685528D01*
X188699567Y-179685528D02*
X188699567Y-180685528D01*
X188699567Y-179828385D02*
X188770996Y-179756957D01*
X188770996Y-179756957D02*
X188913853Y-179685528D01*
X188913853Y-179685528D02*
X189128139Y-179685528D01*
X189128139Y-179685528D02*
X189270996Y-179756957D01*
X189270996Y-179756957D02*
X189342425Y-179899814D01*
X189342425Y-179899814D02*
X189342425Y-180685528D01*
X190056710Y-180685528D02*
X190056710Y-179685528D01*
X190056710Y-179185528D02*
X189985282Y-179256957D01*
X189985282Y-179256957D02*
X190056710Y-179328385D01*
X190056710Y-179328385D02*
X190128139Y-179256957D01*
X190128139Y-179256957D02*
X190056710Y-179185528D01*
X190056710Y-179185528D02*
X190056710Y-179328385D01*
X190628139Y-180685528D02*
X191413854Y-179685528D01*
X190628139Y-179685528D02*
X191413854Y-180685528D01*
X193842425Y-180685528D02*
X193128139Y-180685528D01*
X193128139Y-180685528D02*
X193128139Y-179185528D01*
X194985283Y-180685528D02*
X194985283Y-179899814D01*
X194985283Y-179899814D02*
X194913854Y-179756957D01*
X194913854Y-179756957D02*
X194770997Y-179685528D01*
X194770997Y-179685528D02*
X194485283Y-179685528D01*
X194485283Y-179685528D02*
X194342425Y-179756957D01*
X194985283Y-180614100D02*
X194842425Y-180685528D01*
X194842425Y-180685528D02*
X194485283Y-180685528D01*
X194485283Y-180685528D02*
X194342425Y-180614100D01*
X194342425Y-180614100D02*
X194270997Y-180471242D01*
X194270997Y-180471242D02*
X194270997Y-180328385D01*
X194270997Y-180328385D02*
X194342425Y-180185528D01*
X194342425Y-180185528D02*
X194485283Y-180114100D01*
X194485283Y-180114100D02*
X194842425Y-180114100D01*
X194842425Y-180114100D02*
X194985283Y-180042671D01*
X195699568Y-180685528D02*
X195699568Y-179185528D01*
X195699568Y-179756957D02*
X195842426Y-179685528D01*
X195842426Y-179685528D02*
X196128140Y-179685528D01*
X196128140Y-179685528D02*
X196270997Y-179756957D01*
X196270997Y-179756957D02*
X196342426Y-179828385D01*
X196342426Y-179828385D02*
X196413854Y-179971242D01*
X196413854Y-179971242D02*
X196413854Y-180399814D01*
X196413854Y-180399814D02*
X196342426Y-180542671D01*
X196342426Y-180542671D02*
X196270997Y-180614100D01*
X196270997Y-180614100D02*
X196128140Y-180685528D01*
X196128140Y-180685528D02*
X195842426Y-180685528D01*
X195842426Y-180685528D02*
X195699568Y-180614100D01*
D10*
D11*
X178458026Y-176907614D02*
X178958026Y-176907614D01*
X179172312Y-177693328D02*
X178458026Y-177693328D01*
X178458026Y-177693328D02*
X178458026Y-176193328D01*
X178458026Y-176193328D02*
X179172312Y-176193328D01*
X179815169Y-176693328D02*
X179815169Y-177693328D01*
X179815169Y-176836185D02*
X179886598Y-176764757D01*
X179886598Y-176764757D02*
X180029455Y-176693328D01*
X180029455Y-176693328D02*
X180243741Y-176693328D01*
X180243741Y-176693328D02*
X180386598Y-176764757D01*
X180386598Y-176764757D02*
X180458027Y-176907614D01*
X180458027Y-176907614D02*
X180458027Y-177693328D01*
X181815170Y-176693328D02*
X181815170Y-177907614D01*
X181815170Y-177907614D02*
X181743741Y-178050471D01*
X181743741Y-178050471D02*
X181672312Y-178121900D01*
X181672312Y-178121900D02*
X181529455Y-178193328D01*
X181529455Y-178193328D02*
X181315170Y-178193328D01*
X181315170Y-178193328D02*
X181172312Y-178121900D01*
X181815170Y-177621900D02*
X181672312Y-177693328D01*
X181672312Y-177693328D02*
X181386598Y-177693328D01*
X181386598Y-177693328D02*
X181243741Y-177621900D01*
X181243741Y-177621900D02*
X181172312Y-177550471D01*
X181172312Y-177550471D02*
X181100884Y-177407614D01*
X181100884Y-177407614D02*
X181100884Y-176979042D01*
X181100884Y-176979042D02*
X181172312Y-176836185D01*
X181172312Y-176836185D02*
X181243741Y-176764757D01*
X181243741Y-176764757D02*
X181386598Y-176693328D01*
X181386598Y-176693328D02*
X181672312Y-176693328D01*
X181672312Y-176693328D02*
X181815170Y-176764757D01*
X182529455Y-177550471D02*
X182600884Y-177621900D01*
X182600884Y-177621900D02*
X182529455Y-177693328D01*
X182529455Y-177693328D02*
X182458027Y-177621900D01*
X182458027Y-177621900D02*
X182529455Y-177550471D01*
X182529455Y-177550471D02*
X182529455Y-177693328D01*
X184315170Y-177264757D02*
X185029456Y-177264757D01*
X184172313Y-177693328D02*
X184672313Y-176193328D01*
X184672313Y-176193328D02*
X185172313Y-177693328D01*
X185672312Y-176693328D02*
X185672312Y-177693328D01*
X185672312Y-176836185D02*
X185743741Y-176764757D01*
X185743741Y-176764757D02*
X185886598Y-176693328D01*
X185886598Y-176693328D02*
X186100884Y-176693328D01*
X186100884Y-176693328D02*
X186243741Y-176764757D01*
X186243741Y-176764757D02*
X186315170Y-176907614D01*
X186315170Y-176907614D02*
X186315170Y-177693328D01*
X187672313Y-177693328D02*
X187672313Y-176193328D01*
X187672313Y-177621900D02*
X187529455Y-177693328D01*
X187529455Y-177693328D02*
X187243741Y-177693328D01*
X187243741Y-177693328D02*
X187100884Y-177621900D01*
X187100884Y-177621900D02*
X187029455Y-177550471D01*
X187029455Y-177550471D02*
X186958027Y-177407614D01*
X186958027Y-177407614D02*
X186958027Y-176979042D01*
X186958027Y-176979042D02*
X187029455Y-176836185D01*
X187029455Y-176836185D02*
X187100884Y-176764757D01*
X187100884Y-176764757D02*
X187243741Y-176693328D01*
X187243741Y-176693328D02*
X187529455Y-176693328D01*
X187529455Y-176693328D02*
X187672313Y-176764757D01*
X188386598Y-177693328D02*
X188386598Y-176693328D01*
X188386598Y-176979042D02*
X188458027Y-176836185D01*
X188458027Y-176836185D02*
X188529456Y-176764757D01*
X188529456Y-176764757D02*
X188672313Y-176693328D01*
X188672313Y-176693328D02*
X188815170Y-176693328D01*
X189886598Y-177621900D02*
X189743741Y-177693328D01*
X189743741Y-177693328D02*
X189458027Y-177693328D01*
X189458027Y-177693328D02*
X189315169Y-177621900D01*
X189315169Y-177621900D02*
X189243741Y-177479042D01*
X189243741Y-177479042D02*
X189243741Y-176907614D01*
X189243741Y-176907614D02*
X189315169Y-176764757D01*
X189315169Y-176764757D02*
X189458027Y-176693328D01*
X189458027Y-176693328D02*
X189743741Y-176693328D01*
X189743741Y-176693328D02*
X189886598Y-176764757D01*
X189886598Y-176764757D02*
X189958027Y-176907614D01*
X189958027Y-176907614D02*
X189958027Y-177050471D01*
X189958027Y-177050471D02*
X189243741Y-177193328D01*
X189743741Y-176121900D02*
X189529455Y-176336185D01*
X191672312Y-177264757D02*
X192386598Y-177264757D01*
X191529455Y-177693328D02*
X192029455Y-176193328D01*
X192029455Y-176193328D02*
X192529455Y-177693328D01*
X193029454Y-177550471D02*
X193100883Y-177621900D01*
X193100883Y-177621900D02*
X193029454Y-177693328D01*
X193029454Y-177693328D02*
X192958026Y-177621900D01*
X192958026Y-177621900D02*
X193029454Y-177550471D01*
X193029454Y-177550471D02*
X193029454Y-177693328D01*
X194886597Y-177693328D02*
X194886597Y-176193328D01*
X194886597Y-176193328D02*
X195386597Y-177264757D01*
X195386597Y-177264757D02*
X195886597Y-176193328D01*
X195886597Y-176193328D02*
X195886597Y-177693328D01*
X196600883Y-177550471D02*
X196672312Y-177621900D01*
X196672312Y-177621900D02*
X196600883Y-177693328D01*
X196600883Y-177693328D02*
X196529455Y-177621900D01*
X196529455Y-177621900D02*
X196600883Y-177550471D01*
X196600883Y-177550471D02*
X196600883Y-177693328D01*
X198386598Y-177264757D02*
X199100884Y-177264757D01*
X198243741Y-177693328D02*
X198743741Y-176193328D01*
X198743741Y-176193328D02*
X199243741Y-177693328D01*
X199743740Y-177693328D02*
X199743740Y-176693328D01*
X199743740Y-176979042D02*
X199815169Y-176836185D01*
X199815169Y-176836185D02*
X199886598Y-176764757D01*
X199886598Y-176764757D02*
X200029455Y-176693328D01*
X200029455Y-176693328D02*
X200172312Y-176693328D01*
X201315169Y-177693328D02*
X201315169Y-176907614D01*
X201315169Y-176907614D02*
X201243740Y-176764757D01*
X201243740Y-176764757D02*
X201100883Y-176693328D01*
X201100883Y-176693328D02*
X200815169Y-176693328D01*
X200815169Y-176693328D02*
X200672311Y-176764757D01*
X201315169Y-177621900D02*
X201172311Y-177693328D01*
X201172311Y-177693328D02*
X200815169Y-177693328D01*
X200815169Y-177693328D02*
X200672311Y-177621900D01*
X200672311Y-177621900D02*
X200600883Y-177479042D01*
X200600883Y-177479042D02*
X200600883Y-177336185D01*
X200600883Y-177336185D02*
X200672311Y-177193328D01*
X200672311Y-177193328D02*
X200815169Y-177121900D01*
X200815169Y-177121900D02*
X201172311Y-177121900D01*
X201172311Y-177121900D02*
X201315169Y-177050471D01*
X202672312Y-176693328D02*
X202672312Y-177693328D01*
X202029454Y-176693328D02*
X202029454Y-177479042D01*
X202029454Y-177479042D02*
X202100883Y-177621900D01*
X202100883Y-177621900D02*
X202243740Y-177693328D01*
X202243740Y-177693328D02*
X202458026Y-177693328D01*
X202458026Y-177693328D02*
X202600883Y-177621900D01*
X202600883Y-177621900D02*
X202672312Y-177550471D01*
X202529454Y-176121900D02*
X202315169Y-176336185D01*
X203386597Y-176693328D02*
X203386597Y-177979042D01*
X203386597Y-177979042D02*
X203315169Y-178121900D01*
X203315169Y-178121900D02*
X203172312Y-178193328D01*
X203172312Y-178193328D02*
X203100883Y-178193328D01*
X203386597Y-176193328D02*
X203315169Y-176264757D01*
X203315169Y-176264757D02*
X203386597Y-176336185D01*
X203386597Y-176336185D02*
X203458026Y-176264757D01*
X203458026Y-176264757D02*
X203386597Y-176193328D01*
X203386597Y-176193328D02*
X203386597Y-176336185D01*
X204315169Y-177693328D02*
X204172312Y-177621900D01*
X204172312Y-177621900D02*
X204100883Y-177550471D01*
X204100883Y-177550471D02*
X204029455Y-177407614D01*
X204029455Y-177407614D02*
X204029455Y-176979042D01*
X204029455Y-176979042D02*
X204100883Y-176836185D01*
X204100883Y-176836185D02*
X204172312Y-176764757D01*
X204172312Y-176764757D02*
X204315169Y-176693328D01*
X204315169Y-176693328D02*
X204529455Y-176693328D01*
X204529455Y-176693328D02*
X204672312Y-176764757D01*
X204672312Y-176764757D02*
X204743741Y-176836185D01*
X204743741Y-176836185D02*
X204815169Y-176979042D01*
X204815169Y-176979042D02*
X204815169Y-177407614D01*
X204815169Y-177407614D02*
X204743741Y-177550471D01*
X204743741Y-177550471D02*
X204672312Y-177621900D01*
X204672312Y-177621900D02*
X204529455Y-177693328D01*
X204529455Y-177693328D02*
X204315169Y-177693328D01*
D10*
D11*
X197002200Y-191507200D02*
X197002200Y-194507200D01*
D10*
D11*
X261002200Y-191507200D02*
X261002200Y-198007200D01*
D14*
%TO.P,J5,1,DAT2*%
%TO.N,/IO/SD DAT2*%
X185820000Y-79490625D03*
%TO.P,J5,2,DAT3/CD*%
%TO.N,SPI NSS*%
X185820000Y-80590625D03*
%TO.P,J5,3,CMD*%
%TO.N,SPI MOSI*%
X185820000Y-81690625D03*
%TO.P,J5,4,VDD*%
%TO.N,+3.3V*%
X185820000Y-82790625D03*
%TO.P,J5,5,CLK*%
%TO.N,SPI SCK*%
X185820000Y-83890625D03*
%TO.P,J5,6,VSS*%
%TO.N,GND*%
X185820000Y-84990625D03*
%TO.P,J5,7,DAT0*%
%TO.N,/IO/SD DAT0*%
X185820000Y-86090625D03*
%TO.P,J5,8,DAT1*%
%TO.N,/IO/SD DAT1*%
X185820000Y-87190625D03*
%TO.P,J5,9,DET*%
%TO.N,SD CARD ~{IN}*%
X185820000Y-88290625D03*
D15*
%TO.P,J5,10,SHIELD*%
%TO.N,GND*%
X186670000Y-89840625D03*
%TO.P,J5,11,SHIELD*%
X186670000Y-74340625D03*
D16*
%TO.P,J5,12,SHIELD*%
X196270000Y-89590625D03*
%TO.P,J5,13,SHIELD*%
X196270000Y-73890625D03*
%TD*%
D17*
%TO.P,R7,1*%
%TO.N,SWDIO*%
X167800000Y-40180625D03*
%TO.P,R7,2*%
%TO.N,/IO/SWDIO CONN*%
X167800000Y-38530625D03*
%TD*%
D18*
%TO.P,C39,1*%
%TO.N,/ANALOG/AA3*%
X119520000Y-78265625D03*
%TO.P,C39,2*%
%TO.N,AIN3*%
X119520000Y-76715625D03*
%TD*%
D19*
%TO.P,C2,1*%
%TO.N,GND*%
X130195000Y-39490625D03*
%TO.P,C2,2*%
%TO.N,+5V*%
X131745000Y-39490625D03*
%TD*%
D20*
%TO.P,C20,1*%
%TO.N,GND*%
X113520000Y-65215625D03*
%TO.P,C20,2*%
%TO.N,/ANALOG/AA1+*%
X113520000Y-66765625D03*
%TD*%
D21*
%TO.P,TP14,1,1*%
%TO.N,GND*%
X102020000Y-102990625D03*
%TD*%
D22*
%TO.P,R28,1*%
%TO.N,A0*%
X119595000Y-63740625D03*
%TO.P,R28,2*%
%TO.N,/ANALOG/AA0*%
X117945000Y-63740625D03*
%TD*%
D17*
%TO.P,R6,1*%
%TO.N,SWCLK*%
X165260000Y-40180625D03*
%TO.P,R6,2*%
%TO.N,/IO/SWCLK CONN*%
X165260000Y-38530625D03*
%TD*%
D18*
%TO.P,C40,1*%
%TO.N,GND*%
X156020000Y-79765625D03*
%TO.P,C40,2*%
%TO.N,+3.3V*%
X156020000Y-78215625D03*
%TD*%
D23*
%TO.P,R29,1*%
%TO.N,/ANALOG/AA1*%
X112020000Y-65165625D03*
%TO.P,R29,2*%
%TO.N,/ANALOG/AA1+*%
X112020000Y-66815625D03*
%TD*%
D21*
%TO.P,TP5,1,1*%
%TO.N,+VSEL*%
X177020000Y-55990625D03*
%TD*%
D24*
%TO.P,SW9,1,A*%
%TO.N,GND*%
X118020000Y-108590625D03*
X112020000Y-108590625D03*
%TO.P,SW9,2,B*%
%TO.N,BUTTON DOWN*%
X118020000Y-104890625D03*
X112020000Y-104890625D03*
%TD*%
D25*
%TO.P,D3,1,K*%
%TO.N,+VSEL*%
X181270000Y-51090625D03*
%TO.P,D3,2,A*%
%TO.N,+VBUSF*%
X181270000Y-54390625D03*
%TD*%
D22*
%TO.P,R24,1*%
%TO.N,/IO/USB CC2*%
X190845000Y-61740625D03*
%TO.P,R24,2*%
%TO.N,GND*%
X189195000Y-61740625D03*
%TD*%
D26*
%TO.P,U5,1,ADDR*%
%TO.N,GND*%
X122770000Y-69590625D03*
%TO.P,U5,2,ALTER/RDY*%
%TO.N,unconnected-(U5-ALTER{slash}RDY-Pad2)*%
X122270000Y-69590625D03*
%TO.P,U5,3,GND*%
%TO.N,GND*%
X121770000Y-69590625D03*
%TO.P,U5,4,AIN0*%
%TO.N,AIN0*%
X121270000Y-69590625D03*
%TO.P,U5,5,AIN1*%
%TO.N,AIN1*%
X120770000Y-69590625D03*
%TO.P,U5,6,AIN2*%
%TO.N,AIN2*%
X120770000Y-73890625D03*
%TO.P,U5,7,AIN3*%
%TO.N,AIN3*%
X121270000Y-73890625D03*
%TO.P,U5,8,VDD*%
%TO.N,+5VA*%
X121770000Y-73890625D03*
%TO.P,U5,9,SDA*%
%TO.N,I2C SDA 5V*%
X122270000Y-73890625D03*
%TO.P,U5,10,SCL*%
%TO.N,I2C SCL 5V*%
X122770000Y-73890625D03*
%TD*%
D27*
%TO.P,C34,1*%
%TO.N,+3.3VA*%
X139470000Y-74490625D03*
%TO.P,C34,2*%
%TO.N,GND*%
X137570000Y-74490625D03*
%TD*%
D17*
%TO.P,R23,1*%
%TO.N,/MCU/MCU PB8*%
X147770000Y-61565625D03*
%TO.P,R23,2*%
%TO.N,I2C SCL 3.3V*%
X147770000Y-59915625D03*
%TD*%
D28*
%TO.P,J1,1,Pin_1*%
%TO.N,+3.3V*%
X174150000Y-35625000D03*
D29*
%TO.P,J1,2,Pin_2*%
%TO.N,GND*%
X174150000Y-33085000D03*
%TO.P,J1,3,Pin_3*%
X171610000Y-35625000D03*
%TO.P,J1,4,Pin_4*%
X171610000Y-33085000D03*
%TO.P,J1,5,Pin_5*%
%TO.N,/IO/SWDIO CONN*%
X169070000Y-35625000D03*
%TO.P,J1,6,Pin_6*%
%TO.N,GND*%
X169070000Y-33085000D03*
%TO.P,J1,7,Pin_7*%
%TO.N,/IO/SWCLK CONN*%
X166530000Y-35625000D03*
%TO.P,J1,8,Pin_8*%
%TO.N,GND*%
X166530000Y-33085000D03*
%TO.P,J1,9,Pin_9*%
%TO.N,/IO/SWO CONN*%
X163990000Y-35625000D03*
%TO.P,J1,10,Pin_10*%
%TO.N,GND*%
X163990000Y-33085000D03*
%TO.P,J1,11,Pin_11*%
%TO.N,/IO/NRST CONN*%
X161450000Y-35625000D03*
%TO.P,J1,12,Pin_12*%
%TO.N,GND*%
X161450000Y-33085000D03*
%TO.P,J1,13,Pin_13*%
%TO.N,DEBUG TX*%
X158910000Y-35625000D03*
%TO.P,J1,14,Pin_14*%
%TO.N,GND*%
X158910000Y-33085000D03*
%TO.P,J1,15,Pin_15*%
%TO.N,/IO/RX CONN*%
X156370000Y-35625000D03*
%TO.P,J1,16,Pin_16*%
%TO.N,GND*%
X156370000Y-33085000D03*
%TO.P,J1,17,Pin_17*%
%TO.N,I2C SDA 3.3V*%
X153830000Y-35625000D03*
%TO.P,J1,18,Pin_18*%
%TO.N,GND*%
X153830000Y-33085000D03*
%TO.P,J1,19,Pin_19*%
%TO.N,I2C SCL 3.3V*%
X151290000Y-35625000D03*
%TO.P,J1,20,Pin_20*%
%TO.N,GND*%
X151290000Y-33085000D03*
%TO.P,J1,21,Pin_21*%
%TO.N,PC3*%
X148750000Y-35625000D03*
%TO.P,J1,22,Pin_22*%
%TO.N,GND*%
X148750000Y-33085000D03*
%TO.P,J1,23,Pin_23*%
%TO.N,PC2*%
X146210000Y-35625000D03*
%TO.P,J1,24,Pin_24*%
%TO.N,GND*%
X146210000Y-33085000D03*
%TO.P,J1,25,Pin_25*%
%TO.N,PC1*%
X143670000Y-35625000D03*
%TO.P,J1,26,Pin_26*%
%TO.N,GND*%
X143670000Y-33085000D03*
%TO.P,J1,27,Pin_27*%
%TO.N,PC0*%
X141130000Y-35625000D03*
%TO.P,J1,28,Pin_28*%
%TO.N,GND*%
X141130000Y-33085000D03*
%TO.P,J1,29,Pin_29*%
X138590000Y-35625000D03*
%TO.P,J1,30,Pin_30*%
X138590000Y-33085000D03*
%TO.P,J1,31,Pin_31*%
%TO.N,I2C SDA 5V*%
X136050000Y-35625000D03*
%TO.P,J1,32,Pin_32*%
%TO.N,GND*%
X136050000Y-33085000D03*
%TO.P,J1,33,Pin_33*%
%TO.N,I2C SCL 5V*%
X133510000Y-35625000D03*
%TO.P,J1,34,Pin_34*%
%TO.N,GND*%
X133510000Y-33085000D03*
%TO.P,J1,35,Pin_35*%
%TO.N,NEOPIXEL DIN*%
X130970000Y-35625000D03*
%TO.P,J1,36,Pin_36*%
%TO.N,GND*%
X130970000Y-33085000D03*
%TO.P,J1,37,Pin_37*%
%TO.N,NEOPIXEL DOUT*%
X128430000Y-35625000D03*
%TO.P,J1,38,Pin_38*%
%TO.N,GND*%
X128430000Y-33085000D03*
%TO.P,J1,39,Pin_39*%
%TO.N,+5V*%
X125890000Y-35625000D03*
%TO.P,J1,40,Pin_40*%
%TO.N,GND*%
X125890000Y-33085000D03*
%TD*%
D17*
%TO.P,R10,1*%
%TO.N,DEBUG RX*%
X155100000Y-43990625D03*
%TO.P,R10,2*%
%TO.N,/IO/RX CONN*%
X155100000Y-42340625D03*
%TD*%
D30*
%TO.P,R49,1*%
%TO.N,+3.3V*%
X114195000Y-90240625D03*
%TO.P,R49,2*%
%TO.N,BUTTON UP*%
X115845000Y-90240625D03*
%TD*%
D20*
%TO.P,C15,1*%
%TO.N,GND*%
X182520000Y-59215625D03*
%TO.P,C15,2*%
%TO.N,/IO/VBUS T FLT*%
X182520000Y-60765625D03*
%TD*%
D31*
%TO.P,J3,A1,GND*%
%TO.N,GND*%
X193545000Y-67440625D03*
%TO.P,J3,A4,VBUS*%
%TO.N,+VBUS*%
X193545000Y-66640625D03*
D32*
%TO.P,J3,A5,CC1*%
%TO.N,/IO/USB CC1*%
X193545000Y-65490625D03*
%TO.P,J3,A6,D+*%
%TO.N,/IO/USB DATA+*%
X193545000Y-64490625D03*
%TO.P,J3,A7,D-*%
%TO.N,/IO/USB DATA-*%
X193545000Y-63990625D03*
%TO.P,J3,A8,SBU1*%
%TO.N,unconnected-(J3-SBU1-PadA8)*%
X193545000Y-62990625D03*
D31*
%TO.P,J3,A9,VBUS*%
%TO.N,+VBUS*%
X193545000Y-61840625D03*
%TO.P,J3,A12,GND*%
%TO.N,GND*%
X193545000Y-61040625D03*
%TO.P,J3,B1,GND*%
X193545000Y-61040625D03*
%TO.P,J3,B4,VBUS*%
%TO.N,+VBUS*%
X193545000Y-61840625D03*
D32*
%TO.P,J3,B5,CC2*%
%TO.N,/IO/USB CC2*%
X193545000Y-62490625D03*
%TO.P,J3,B6,D+*%
%TO.N,/IO/USB DATA+*%
X193545000Y-63490625D03*
%TO.P,J3,B7,D-*%
%TO.N,/IO/USB DATA-*%
X193545000Y-64990625D03*
%TO.P,J3,B8,SBU2*%
%TO.N,unconnected-(J3-SBU2-PadB8)*%
X193545000Y-65990625D03*
D31*
%TO.P,J3,B9,VBUS*%
%TO.N,+VBUS*%
X193545000Y-66640625D03*
%TO.P,J3,B12,GND*%
%TO.N,GND*%
X193545000Y-67440625D03*
D33*
%TO.P,J3,S1,SHIELD*%
X194145000Y-68560625D03*
D34*
X198345000Y-68560625D03*
D33*
X194145000Y-59920625D03*
D34*
X198345000Y-59920625D03*
%TD*%
D27*
%TO.P,C11,1*%
%TO.N,GND*%
X148430000Y-53740625D03*
%TO.P,C11,2*%
%TO.N,+3.3V*%
X146530000Y-53740625D03*
%TD*%
D35*
%TO.P,FID2,*%
%TO.N,*%
X192270000Y-32240625D03*
%TD*%
D36*
%TO.P,U3,1,GND*%
%TO.N,GND*%
X173220000Y-48640625D03*
%TO.P,U3,2,VO*%
%TO.N,+3.3V*%
X175520000Y-48640625D03*
D37*
X175520000Y-42340625D03*
D36*
%TO.P,U3,3,VI*%
%TO.N,+VSEL*%
X177820000Y-48640625D03*
%TD*%
D20*
%TO.P,C22,1*%
%TO.N,GND*%
X116520000Y-65215625D03*
%TO.P,C22,2*%
%TO.N,/ANALOG/AA0+*%
X116520000Y-66765625D03*
%TD*%
%TO.P,C21,1*%
%TO.N,GND*%
X115020000Y-65215625D03*
%TO.P,C21,2*%
%TO.N,+5VA*%
X115020000Y-66765625D03*
%TD*%
D17*
%TO.P,R26,1*%
%TO.N,/MCU/MCU PA15*%
X153270000Y-64065625D03*
%TO.P,R26,2*%
%TO.N,NEOPIXEL DIN*%
X153270000Y-62415625D03*
%TD*%
D21*
%TO.P,TP10,1,1*%
%TO.N,+3VBAT*%
X132020000Y-64240625D03*
%TD*%
D38*
%TO.P,SW1,1,A*%
%TO.N,GND*%
X160760000Y-43975625D03*
X160760000Y-49975625D03*
%TO.P,SW1,2,B*%
%TO.N,NRST*%
X157060000Y-43975625D03*
X157060000Y-49975625D03*
%TD*%
D22*
%TO.P,R54,1*%
%TO.N,+3.3V*%
X115845000Y-101240625D03*
%TO.P,R54,2*%
%TO.N,BUTTON CENTER*%
X114195000Y-101240625D03*
%TD*%
D39*
%TO.P,SW2,1,A*%
%TO.N,BOOT0*%
X164680000Y-49975625D03*
X164680000Y-43975625D03*
%TO.P,SW2,2,B*%
%TO.N,+3.3V*%
X168380000Y-49975625D03*
X168380000Y-43975625D03*
%TD*%
D28*
%TO.P,J4,1,Pin_1*%
%TO.N,A0*%
X104520000Y-66660625D03*
D29*
%TO.P,J4,2,Pin_2*%
%TO.N,GND*%
X101980000Y-66660625D03*
%TO.P,J4,3,Pin_3*%
%TO.N,A1*%
X104520000Y-69200625D03*
%TO.P,J4,4,Pin_4*%
%TO.N,GND*%
X101980000Y-69200625D03*
%TO.P,J4,5,Pin_5*%
%TO.N,+5VA*%
X104520000Y-71740625D03*
%TO.P,J4,6,Pin_6*%
%TO.N,GND*%
X101980000Y-71740625D03*
%TO.P,J4,7,Pin_7*%
%TO.N,A2*%
X104520000Y-74280625D03*
%TO.P,J4,8,Pin_8*%
%TO.N,GND*%
X101980000Y-74280625D03*
%TO.P,J4,9,Pin_9*%
%TO.N,A3*%
X104520000Y-76820625D03*
%TO.P,J4,10,Pin_10*%
%TO.N,GND*%
X101980000Y-76820625D03*
%TD*%
D40*
%TO.P,C18,1*%
%TO.N,GND*%
X146295000Y-63740625D03*
%TO.P,C18,2*%
%TO.N,+3.3V*%
X144745000Y-63740625D03*
%TD*%
D41*
%TO.P,L1,1,1*%
%TO.N,/POWER/BOOST IN*%
X184270000Y-45940625D03*
%TO.P,L1,2,2*%
%TO.N,/POWER/BOOST SW*%
X184270000Y-44040625D03*
%TD*%
D21*
%TO.P,TP8,1,1*%
%TO.N,+3.3V*%
X168020000Y-60740625D03*
%TD*%
D27*
%TO.P,C9,1*%
%TO.N,+3.3V*%
X174623750Y-50990625D03*
%TO.P,C9,2*%
%TO.N,GND*%
X172723750Y-50990625D03*
%TD*%
D25*
%TO.P,D1,1,K*%
%TO.N,/POWER/BOOST OUT*%
X184270000Y-39090625D03*
%TO.P,D1,2,A*%
%TO.N,/POWER/BOOST SW*%
X184270000Y-42390625D03*
%TD*%
D27*
%TO.P,C12,1*%
%TO.N,+5VA*%
X123720000Y-55990625D03*
%TO.P,C12,2*%
%TO.N,GND*%
X121820000Y-55990625D03*
%TD*%
D23*
%TO.P,R2,1*%
%TO.N,/POWER/BOOST FB*%
X180270000Y-35915625D03*
%TO.P,R2,2*%
%TO.N,GND*%
X180270000Y-37565625D03*
%TD*%
D42*
%TO.P,C30,1*%
%TO.N,+5VA*%
X118920000Y-72690625D03*
%TO.P,C30,2*%
%TO.N,GND*%
X118920000Y-70790625D03*
%TD*%
D30*
%TO.P,R45,1*%
%TO.N,/MCU/MCU PB12*%
X161695000Y-80990625D03*
%TO.P,R45,2*%
%TO.N,SPI NSS*%
X163345000Y-80990625D03*
%TD*%
D40*
%TO.P,C45,1*%
%TO.N,+3.3V*%
X183295000Y-82740625D03*
%TO.P,C45,2*%
%TO.N,GND*%
X181745000Y-82740625D03*
%TD*%
D39*
%TO.P,SW4,1,A*%
%TO.N,GND*%
X103170000Y-99740625D03*
X103170000Y-93740625D03*
%TO.P,SW4,2,B*%
%TO.N,BUTTON LEFT*%
X106870000Y-99740625D03*
X106870000Y-93740625D03*
%TD*%
D23*
%TO.P,R52,1*%
%TO.N,+3.3V*%
X183520000Y-95915625D03*
%TO.P,R52,2*%
%TO.N,BUTTON 1*%
X183520000Y-97565625D03*
%TD*%
D40*
%TO.P,C13,1*%
%TO.N,GND*%
X148255000Y-57740625D03*
%TO.P,C13,2*%
%TO.N,+3.3V*%
X146705000Y-57740625D03*
%TD*%
D23*
%TO.P,R50,1*%
%TO.N,+3.3V*%
X108520000Y-95915625D03*
%TO.P,R50,2*%
%TO.N,BUTTON LEFT*%
X108520000Y-97565625D03*
%TD*%
D43*
%TO.P,SW3,1,A*%
%TO.N,GND*%
X112020000Y-84890625D03*
X118020000Y-84890625D03*
%TO.P,SW3,2,B*%
%TO.N,BUTTON UP*%
X112020000Y-88590625D03*
X118020000Y-88590625D03*
%TD*%
D22*
%TO.P,R44,1*%
%TO.N,A3*%
X119595000Y-79740625D03*
%TO.P,R44,2*%
%TO.N,/ANALOG/AA3*%
X117945000Y-79740625D03*
%TD*%
D44*
%TO.P,FB1,1*%
%TO.N,+5V*%
X123770000Y-52703125D03*
%TO.P,FB1,2*%
%TO.N,+5VA*%
X123770000Y-54278125D03*
%TD*%
D40*
%TO.P,C25,1*%
%TO.N,+VBUS*%
X187795000Y-66740625D03*
%TO.P,C25,2*%
%TO.N,GND*%
X186245000Y-66740625D03*
%TD*%
D27*
%TO.P,C10,1*%
%TO.N,+VSEL*%
X178116250Y-50990625D03*
%TO.P,C10,2*%
%TO.N,GND*%
X176216250Y-50990625D03*
%TD*%
D20*
%TO.P,C23,1*%
%TO.N,/ANALOG/AA0*%
X119520000Y-65215625D03*
%TO.P,C23,2*%
%TO.N,AIN0*%
X119520000Y-66765625D03*
%TD*%
D23*
%TO.P,R51,1*%
%TO.N,+3.3V*%
X121520000Y-95915625D03*
%TO.P,R51,2*%
%TO.N,BUTTON RIGHT*%
X121520000Y-97565625D03*
%TD*%
D45*
%TO.P,U7,1,VBAT*%
%TO.N,+3VBAT*%
X144345000Y-67990625D03*
%TO.P,U7,2,PC13*%
%TO.N,unconnected-(U7-PC13-Pad2)*%
X144345000Y-68490625D03*
%TO.P,U7,3,PC14*%
%TO.N,/MCU/LSE IN*%
X144345000Y-68990625D03*
%TO.P,U7,4,PC15*%
%TO.N,/MCU/LSE OUT*%
X144345000Y-69490625D03*
%TO.P,U7,5,PH0*%
%TO.N,/MCU/HSE IN*%
X144345000Y-69990625D03*
%TO.P,U7,6,PH1*%
%TO.N,/MCU/HSE OUT*%
X144345000Y-70490625D03*
%TO.P,U7,7,NRST*%
%TO.N,NRST*%
X144345000Y-70990625D03*
%TO.P,U7,8,PC0*%
%TO.N,PC0*%
X144345000Y-71490625D03*
%TO.P,U7,9,PC1*%
%TO.N,PC1*%
X144345000Y-71990625D03*
%TO.P,U7,10,PC2*%
%TO.N,PC2*%
X144345000Y-72490625D03*
%TO.P,U7,11,PC3*%
%TO.N,PC3*%
X144345000Y-72990625D03*
%TO.P,U7,12,VSSA*%
%TO.N,GND*%
X144345000Y-73490625D03*
%TO.P,U7,13,VDDA*%
%TO.N,+3.3VA*%
X144345000Y-73990625D03*
%TO.P,U7,14,PA0*%
%TO.N,PA0*%
X144345000Y-74490625D03*
%TO.P,U7,15,PA1*%
%TO.N,PA1*%
X144345000Y-74990625D03*
%TO.P,U7,16,PA2*%
%TO.N,PA2*%
X144345000Y-75490625D03*
D46*
%TO.P,U7,17,PA3*%
%TO.N,PA3*%
X146270000Y-77415625D03*
%TO.P,U7,18,VSS*%
%TO.N,GND*%
X146770000Y-77415625D03*
%TO.P,U7,19,VDD*%
%TO.N,+3.3V*%
X147270000Y-77415625D03*
%TO.P,U7,20,PA4*%
%TO.N,PA4*%
X147770000Y-77415625D03*
%TO.P,U7,21,PA5*%
%TO.N,PA5*%
X148270000Y-77415625D03*
%TO.P,U7,22,PA6*%
%TO.N,PA6*%
X148770000Y-77415625D03*
%TO.P,U7,23,PA7*%
%TO.N,PA7*%
X149270000Y-77415625D03*
%TO.P,U7,24,PC4*%
%TO.N,BUTTON LEFT*%
X149770000Y-77415625D03*
%TO.P,U7,25,PC5*%
%TO.N,BUTTON RIGHT*%
X150270000Y-77415625D03*
%TO.P,U7,26,PB0*%
%TO.N,BUTTON UP*%
X150770000Y-77415625D03*
%TO.P,U7,27,PB1*%
%TO.N,BUTTON DOWN*%
X151270000Y-77415625D03*
%TO.P,U7,28,PB2*%
%TO.N,BUTTON CENTER*%
X151770000Y-77415625D03*
%TO.P,U7,29,PB10*%
%TO.N,unconnected-(U7-PB10-Pad29)*%
X152270000Y-77415625D03*
%TO.P,U7,30,VCAP1*%
%TO.N,+VCORE*%
X152770000Y-77415625D03*
%TO.P,U7,31,VSS*%
%TO.N,GND*%
X153270000Y-77415625D03*
%TO.P,U7,32,VDD*%
%TO.N,+3.3V*%
X153770000Y-77415625D03*
D45*
%TO.P,U7,33,PB12*%
%TO.N,/MCU/MCU PB12*%
X155695000Y-75490625D03*
%TO.P,U7,34,PB13*%
%TO.N,/MCU/MCU PB13*%
X155695000Y-74990625D03*
%TO.P,U7,35,PB14*%
%TO.N,SPI MISO*%
X155695000Y-74490625D03*
%TO.P,U7,36,PB15*%
%TO.N,/MCU/MCU PB15*%
X155695000Y-73990625D03*
%TO.P,U7,37,PC6*%
%TO.N,/MCU/MCU PC6*%
X155695000Y-73490625D03*
%TO.P,U7,38,PC7*%
%TO.N,/MCU/MCU PC7*%
X155695000Y-72990625D03*
%TO.P,U7,39,PC8*%
%TO.N,/MCU/MCU PC8*%
X155695000Y-72490625D03*
%TO.P,U7,40,PC9*%
%TO.N,/MCU/MCU PC9*%
X155695000Y-71990625D03*
%TO.P,U7,41,PA8*%
%TO.N,BUTTON 1*%
X155695000Y-71490625D03*
%TO.P,U7,42,PA9*%
%TO.N,BUTTON 2*%
X155695000Y-70990625D03*
%TO.P,U7,43,PA10*%
%TO.N,USB OTG ID*%
X155695000Y-70490625D03*
%TO.P,U7,44,PA11*%
%TO.N,USB D-*%
X155695000Y-69990625D03*
%TO.P,U7,45,PA12*%
%TO.N,USB D+*%
X155695000Y-69490625D03*
%TO.P,U7,46,PA13*%
%TO.N,SWDIO*%
X155695000Y-68990625D03*
%TO.P,U7,47,VSS*%
%TO.N,GND*%
X155695000Y-68490625D03*
%TO.P,U7,48,VDD*%
%TO.N,+3.3V*%
X155695000Y-67990625D03*
D46*
%TO.P,U7,49,PA14*%
%TO.N,SWCLK*%
X153770000Y-66065625D03*
%TO.P,U7,50,PA15*%
%TO.N,/MCU/MCU PA15*%
X153270000Y-66065625D03*
%TO.P,U7,51,PC10*%
%TO.N,SD CARD ~{IN}*%
X152770000Y-66065625D03*
%TO.P,U7,52,PC11*%
%TO.N,unconnected-(U7-PC11-Pad52)*%
X152270000Y-66065625D03*
%TO.P,U7,53,PC12*%
%TO.N,unconnected-(U7-PC12-Pad53)*%
X151770000Y-66065625D03*
%TO.P,U7,54,PD2*%
%TO.N,unconnected-(U7-PD2-Pad54)*%
X151270000Y-66065625D03*
%TO.P,U7,55,PB3*%
%TO.N,SWO*%
X150770000Y-66065625D03*
%TO.P,U7,56,PB4*%
%TO.N,unconnected-(U7-PB4-Pad56)*%
X150270000Y-66065625D03*
%TO.P,U7,57,PB5*%
%TO.N,unconnected-(U7-PB5-Pad57)*%
X149770000Y-66065625D03*
%TO.P,U7,58,PB6*%
%TO.N,/MCU/MCU PB6*%
X149270000Y-66065625D03*
%TO.P,U7,59,PB7*%
%TO.N,DEBUG RX*%
X148770000Y-66065625D03*
%TO.P,U7,60,BOOT0*%
%TO.N,BOOT0*%
X148270000Y-66065625D03*
%TO.P,U7,61,PB8*%
%TO.N,/MCU/MCU PB8*%
X147770000Y-66065625D03*
%TO.P,U7,62,PB9*%
%TO.N,/MCU/MCU PB9*%
X147270000Y-66065625D03*
%TO.P,U7,63,VSS*%
%TO.N,GND*%
X146770000Y-66065625D03*
%TO.P,U7,64,VDD*%
%TO.N,+3.3V*%
X146270000Y-66065625D03*
%TD*%
D17*
%TO.P,R39,1*%
%TO.N,/ANALOG/AA3*%
X118020000Y-78315625D03*
%TO.P,R39,2*%
%TO.N,/ANALOG/AA3+*%
X118020000Y-76665625D03*
%TD*%
D23*
%TO.P,R41,1*%
%TO.N,+3.3V*%
X183270000Y-77915625D03*
%TO.P,R41,2*%
%TO.N,/IO/SD DAT2*%
X183270000Y-79565625D03*
%TD*%
D30*
%TO.P,R18,1*%
%TO.N,BOOT0*%
X165705000Y-51420625D03*
%TO.P,R18,2*%
%TO.N,GND*%
X167355000Y-51420625D03*
%TD*%
D21*
%TO.P,TP9,1,1*%
%TO.N,+VBUSF*%
X177020000Y-60740625D03*
%TD*%
D47*
%TO.P,JP2,1,A*%
%TO.N,+VSEL*%
X184270000Y-49140625D03*
D48*
%TO.P,JP2,2,B*%
%TO.N,/POWER/BOOST IN*%
X184270000Y-47840625D03*
%TD*%
D30*
%TO.P,R46,1*%
%TO.N,SPI MISO*%
X181695000Y-85740625D03*
%TO.P,R46,2*%
%TO.N,/IO/SD DAT0*%
X183345000Y-85740625D03*
%TD*%
D20*
%TO.P,C16,1*%
%TO.N,GND*%
X138020000Y-62715625D03*
%TO.P,C16,2*%
%TO.N,/MCU/LSE OUT*%
X138020000Y-64265625D03*
%TD*%
D30*
%TO.P,R47,1*%
%TO.N,+3.3V*%
X181695000Y-87240625D03*
%TO.P,R47,2*%
%TO.N,/IO/SD DAT1*%
X183345000Y-87240625D03*
%TD*%
D17*
%TO.P,R5,1*%
%TO.N,SWO*%
X162720000Y-40180625D03*
%TO.P,R5,2*%
%TO.N,/IO/SWO CONN*%
X162720000Y-38530625D03*
%TD*%
D49*
%TO.P,D6,1,IO1*%
%TO.N,A0*%
X108970000Y-70603125D03*
%TO.P,D6,2,GND*%
%TO.N,GND*%
X108020000Y-70603125D03*
%TO.P,D6,3,IO2*%
%TO.N,A1*%
X107070000Y-70603125D03*
%TO.P,D6,4,IO3*%
%TO.N,A2*%
X107070000Y-72878125D03*
%TO.P,D6,5,IO4*%
%TO.N,+5VA*%
X108020000Y-72878125D03*
%TO.P,D6,6,IO5*%
%TO.N,A3*%
X108970000Y-72878125D03*
%TD*%
D28*
%TO.P,J6,1,Pin_1*%
%TO.N,PA0*%
X125890000Y-107856250D03*
D29*
%TO.P,J6,2,Pin_2*%
%TO.N,GND*%
X125890000Y-110396250D03*
%TO.P,J6,3,Pin_3*%
%TO.N,PA1*%
X128430000Y-107856250D03*
%TO.P,J6,4,Pin_4*%
%TO.N,GND*%
X128430000Y-110396250D03*
%TO.P,J6,5,Pin_5*%
%TO.N,PA2*%
X130970000Y-107856250D03*
%TO.P,J6,6,Pin_6*%
%TO.N,GND*%
X130970000Y-110396250D03*
%TO.P,J6,7,Pin_7*%
%TO.N,PA3*%
X133510000Y-107856250D03*
%TO.P,J6,8,Pin_8*%
%TO.N,GND*%
X133510000Y-110396250D03*
%TO.P,J6,9,Pin_9*%
%TO.N,PA4*%
X136050000Y-107856250D03*
%TO.P,J6,10,Pin_10*%
%TO.N,GND*%
X136050000Y-110396250D03*
%TO.P,J6,11,Pin_11*%
%TO.N,PA5*%
X138590000Y-107856250D03*
%TO.P,J6,12,Pin_12*%
%TO.N,GND*%
X138590000Y-110396250D03*
%TO.P,J6,13,Pin_13*%
%TO.N,PA6*%
X141130000Y-107856250D03*
%TO.P,J6,14,Pin_14*%
%TO.N,GND*%
X141130000Y-110396250D03*
%TO.P,J6,15,Pin_15*%
%TO.N,PA7*%
X143670000Y-107856250D03*
%TO.P,J6,16,Pin_16*%
%TO.N,GND*%
X143670000Y-110396250D03*
%TO.P,J6,17,Pin_17*%
X146210000Y-107856250D03*
%TO.P,J6,18,Pin_18*%
X146210000Y-110396250D03*
%TO.P,J6,19,Pin_19*%
%TO.N,SPI MISO*%
X148750000Y-107856250D03*
%TO.P,J6,20,Pin_20*%
%TO.N,GND*%
X148750000Y-110396250D03*
%TO.P,J6,21,Pin_21*%
%TO.N,SPI MOSI*%
X151290000Y-107856250D03*
%TO.P,J6,22,Pin_22*%
%TO.N,GND*%
X151290000Y-110396250D03*
%TO.P,J6,23,Pin_23*%
%TO.N,SPI SCK*%
X153830000Y-107856250D03*
%TO.P,J6,24,Pin_24*%
%TO.N,GND*%
X153830000Y-110396250D03*
%TO.P,J6,25,Pin_25*%
%TO.N,SPI NSS*%
X156370000Y-107856250D03*
%TO.P,J6,26,Pin_26*%
%TO.N,GND*%
X156370000Y-110396250D03*
%TO.P,J6,27,Pin_27*%
%TO.N,PWM RED*%
X158910000Y-107856250D03*
%TO.P,J6,28,Pin_28*%
%TO.N,GND*%
X158910000Y-110396250D03*
%TO.P,J6,29,Pin_29*%
%TO.N,PWM GREEN*%
X161450000Y-107856250D03*
%TO.P,J6,30,Pin_30*%
%TO.N,GND*%
X161450000Y-110396250D03*
%TO.P,J6,31,Pin_31*%
%TO.N,PWM BLUE*%
X163990000Y-107856250D03*
%TO.P,J6,32,Pin_32*%
%TO.N,GND*%
X163990000Y-110396250D03*
%TO.P,J6,33,Pin_33*%
%TO.N,PWM BUZZER*%
X166530000Y-107856250D03*
%TO.P,J6,34,Pin_34*%
%TO.N,GND*%
X166530000Y-110396250D03*
%TO.P,J6,35,Pin_35*%
%TO.N,USB OTG ID*%
X169070000Y-107856250D03*
%TO.P,J6,36,Pin_36*%
%TO.N,GND*%
X169070000Y-110396250D03*
%TO.P,J6,37,Pin_37*%
X171610000Y-107856250D03*
%TO.P,J6,38,Pin_38*%
X171610000Y-110396250D03*
%TO.P,J6,39,Pin_39*%
%TO.N,+3.3V*%
X174150000Y-107856250D03*
%TO.P,J6,40,Pin_40*%
%TO.N,GND*%
X174150000Y-110396250D03*
%TD*%
D47*
%TO.P,JP1,1,A*%
%TO.N,/POWER/BOOST OUT*%
X184270000Y-37390625D03*
D48*
%TO.P,JP1,2,B*%
%TO.N,+VBOOST*%
X184270000Y-36090625D03*
%TD*%
D17*
%TO.P,R12,1*%
%TO.N,PWM BUZZER*%
X116020000Y-48065625D03*
%TO.P,R12,2*%
%TO.N,GND*%
X116020000Y-46415625D03*
%TD*%
D23*
%TO.P,R30,1*%
%TO.N,/ANALOG/AA0*%
X118020000Y-65165625D03*
%TO.P,R30,2*%
%TO.N,/ANALOG/AA0+*%
X118020000Y-66815625D03*
%TD*%
%TO.P,R40,1*%
%TO.N,+3.3V*%
X181770000Y-77915625D03*
%TO.P,R40,2*%
%TO.N,SPI NSS*%
X181770000Y-79565625D03*
%TD*%
D30*
%TO.P,R1,1*%
%TO.N,GND*%
X180445000Y-34240625D03*
%TO.P,R1,2*%
%TO.N,/POWER/+VBOOST LED*%
X182095000Y-34240625D03*
%TD*%
D50*
%TO.P,LED4,1,K*%
%TO.N,/POWER/+VBUS LED*%
X180270000Y-57528125D03*
%TO.P,LED4,2,A*%
%TO.N,+VBUSF*%
X180270000Y-55953125D03*
%TD*%
D27*
%TO.P,C3,1*%
%TO.N,GND*%
X113970000Y-44240625D03*
%TO.P,C3,2*%
%TO.N,+VBOOST*%
X112070000Y-44240625D03*
%TD*%
D50*
%TO.P,LED5,1,K*%
%TO.N,/POWER/+VEXT LED*%
X184770000Y-57528125D03*
%TO.P,LED5,2,A*%
%TO.N,+VEXT*%
X184770000Y-55953125D03*
%TD*%
D21*
%TO.P,TP12,1,1*%
%TO.N,+3.3VA*%
X132020000Y-76240625D03*
%TD*%
D30*
%TO.P,R13,1*%
%TO.N,/POWER/BOOST ~{SHDN}*%
X180445000Y-47490625D03*
%TO.P,R13,2*%
%TO.N,/POWER/BOOST IN*%
X182095000Y-47490625D03*
%TD*%
D51*
%TO.P,D5,1,I/O1*%
%TO.N,/IO/USB DATA FLT +*%
X186382500Y-63290625D03*
%TO.P,D5,2,GND*%
%TO.N,GND*%
X186382500Y-64240625D03*
%TO.P,D5,3,I/O2*%
%TO.N,/IO/USB DATA FLT -*%
X186382500Y-65190625D03*
%TO.P,D5,4,I/O2*%
%TO.N,/IO/USB DATA-*%
X188657500Y-65190625D03*
%TO.P,D5,5,VBUS*%
%TO.N,+VBUS*%
X188657500Y-64240625D03*
%TO.P,D5,6,I/O1*%
%TO.N,/IO/USB DATA+*%
X188657500Y-63290625D03*
%TD*%
D38*
%TO.P,SW8,1,A*%
%TO.N,GND*%
X191870000Y-93740625D03*
X191870000Y-99740625D03*
%TO.P,SW8,2,B*%
%TO.N,BUTTON 2*%
X188170000Y-93740625D03*
X188170000Y-99740625D03*
%TD*%
D52*
%TO.P,Q3,1,G*%
%TO.N,+3.3V*%
X136395000Y-53690625D03*
%TO.P,Q3,2,S*%
%TO.N,I2C SDA 3.3V*%
X136395000Y-51790625D03*
%TO.P,Q3,3,D*%
%TO.N,I2C SDA 5V*%
X134520000Y-52740625D03*
%TD*%
D53*
%TO.P,LED2,1,K*%
%TO.N,/POWER/+5V LED*%
X123732500Y-40240625D03*
%TO.P,LED2,2,A*%
%TO.N,+5V*%
X125307500Y-40240625D03*
%TD*%
D49*
%TO.P,U1,1,SW*%
%TO.N,/POWER/BOOST SW*%
X182220000Y-41353125D03*
%TO.P,U1,2,GND*%
%TO.N,GND*%
X181270000Y-41353125D03*
%TO.P,U1,3,FB*%
%TO.N,/POWER/BOOST FB*%
X180320000Y-41353125D03*
%TO.P,U1,4,~{SHDN}*%
%TO.N,/POWER/BOOST ~{SHDN}*%
X180320000Y-43628125D03*
%TO.P,U1,5,IN*%
%TO.N,/POWER/BOOST IN*%
X182220000Y-43628125D03*
%TD*%
D35*
%TO.P,FID1,*%
%TO.N,*%
X107770000Y-32240625D03*
%TD*%
D30*
%TO.P,R43,1*%
%TO.N,A2*%
X110445000Y-79740625D03*
%TO.P,R43,2*%
%TO.N,/ANALOG/AA2*%
X112095000Y-79740625D03*
%TD*%
D54*
%TO.P,D7,1,RK*%
%TO.N,GND*%
X176820000Y-69540625D03*
%TO.P,D7,2,GK*%
%TO.N,PWM BLUE*%
X176820000Y-73940625D03*
D55*
%TO.P,D7,3,BK*%
%TO.N,GND*%
X175020000Y-69540625D03*
%TO.P,D7,4,BA*%
%TO.N,PWM RED*%
X175020000Y-73940625D03*
D54*
%TO.P,D7,5,GA*%
%TO.N,GND*%
X173220000Y-69540625D03*
%TO.P,D7,6,RA*%
%TO.N,PWM GREEN*%
X173220000Y-73940625D03*
%TD*%
D56*
%TO.P,L2,1,1*%
%TO.N,/IO/USB DATA FLT +*%
X183870000Y-63740625D03*
%TO.P,L2,2,2*%
%TO.N,USB D+*%
X181170000Y-63740625D03*
%TO.P,L2,3,3*%
%TO.N,USB D-*%
X181170000Y-64740625D03*
%TO.P,L2,4,4*%
%TO.N,/IO/USB DATA FLT -*%
X183870000Y-64740625D03*
%TD*%
D21*
%TO.P,TP6,1,1*%
%TO.N,+VEXT*%
X198020000Y-56740625D03*
%TD*%
D30*
%TO.P,R14,1*%
%TO.N,+5V*%
X131195000Y-49240625D03*
%TO.P,R14,2*%
%TO.N,I2C SCL 5V*%
X132845000Y-49240625D03*
%TD*%
D22*
%TO.P,R17,1*%
%TO.N,+3.3V*%
X159735000Y-51420625D03*
%TO.P,R17,2*%
%TO.N,NRST*%
X158085000Y-51420625D03*
%TD*%
D30*
%TO.P,R27,1*%
%TO.N,A1*%
X110445000Y-63740625D03*
%TO.P,R27,2*%
%TO.N,/ANALOG/AA1*%
X112095000Y-63740625D03*
%TD*%
D19*
%TO.P,C32,1*%
%TO.N,GND*%
X134495000Y-72990625D03*
%TO.P,C32,2*%
%TO.N,/MCU/HSE 1*%
X136045000Y-72990625D03*
%TD*%
D17*
%TO.P,R22,1*%
%TO.N,/MCU/MCU PB9*%
X146270000Y-61565625D03*
%TO.P,R22,2*%
%TO.N,I2C SDA 3.3V*%
X146270000Y-59915625D03*
%TD*%
D57*
%TO.P,J2,1*%
%TO.N,+VEXT*%
X187520000Y-49240625D03*
D58*
%TO.P,J2,2*%
%TO.N,GND*%
X193820000Y-49240625D03*
D59*
%TO.P,J2,3*%
%TO.N,unconnected-(J2-Pad3)*%
X190420000Y-44440625D03*
%TD*%
D21*
%TO.P,TP4,1,1*%
%TO.N,GND*%
X198020000Y-40490625D03*
%TD*%
D18*
%TO.P,C36,1*%
%TO.N,/ANALOG/AA2*%
X110520000Y-78265625D03*
%TO.P,C36,2*%
%TO.N,AIN2*%
X110520000Y-76715625D03*
%TD*%
D27*
%TO.P,C41,1*%
%TO.N,+3.3V*%
X139470000Y-79490625D03*
%TO.P,C41,2*%
%TO.N,GND*%
X137570000Y-79490625D03*
%TD*%
D40*
%TO.P,C42,1*%
%TO.N,GND*%
X154545000Y-79740625D03*
%TO.P,C42,2*%
%TO.N,+VCORE*%
X152995000Y-79740625D03*
%TD*%
D23*
%TO.P,R20,1*%
%TO.N,GND*%
X181770000Y-55915625D03*
%TO.P,R20,2*%
%TO.N,/POWER/+VBUS LED*%
X181770000Y-57565625D03*
%TD*%
D60*
%TO.P,U6,1,VCC*%
%TO.N,+3.3V*%
X146210000Y-55940625D03*
%TO.P,U6,2,GND*%
%TO.N,GND*%
X148750000Y-55940625D03*
%TO.P,U6,3,SCL*%
%TO.N,I2C SCL 3.3V*%
X151290000Y-55940625D03*
%TO.P,U6,4,SDA*%
%TO.N,I2C SDA 3.3V*%
X153830000Y-55940625D03*
%TD*%
D22*
%TO.P,R31,1*%
%TO.N,/IO/USB CC1*%
X190845000Y-66740625D03*
%TO.P,R31,2*%
%TO.N,GND*%
X189195000Y-66740625D03*
%TD*%
D61*
%TO.P,FB2,1*%
%TO.N,/IO/VBUS T FLT*%
X181057500Y-60740625D03*
%TO.P,FB2,2*%
%TO.N,+VBUSF*%
X179482500Y-60740625D03*
%TD*%
%TO.P,FB3,1*%
%TO.N,+VBUS*%
X185557500Y-60740625D03*
%TO.P,FB3,2*%
%TO.N,/IO/VBUS T FLT*%
X183982500Y-60740625D03*
%TD*%
D30*
%TO.P,R35,1*%
%TO.N,/MCU/MCU PC7*%
X161695000Y-73990625D03*
%TO.P,R35,2*%
%TO.N,PWM GREEN*%
X163345000Y-73990625D03*
%TD*%
D21*
%TO.P,TP13,1,1*%
%TO.N,+VCORE*%
X153770000Y-84240625D03*
%TD*%
D23*
%TO.P,R11,1*%
%TO.N,+VBOOST*%
X110020000Y-45915625D03*
%TO.P,R11,2*%
%TO.N,/INTERFACE/BUZZER DRAIN*%
X110020000Y-47565625D03*
%TD*%
D19*
%TO.P,C43,1*%
%TO.N,GND*%
X144995000Y-80240625D03*
%TO.P,C43,2*%
%TO.N,+3.3V*%
X146545000Y-80240625D03*
%TD*%
D17*
%TO.P,R4,1*%
%TO.N,NRST*%
X160180000Y-40180625D03*
%TO.P,R4,2*%
%TO.N,/IO/NRST CONN*%
X160180000Y-38530625D03*
%TD*%
D21*
%TO.P,TP15,1,1*%
%TO.N,GND*%
X198020000Y-102990625D03*
%TD*%
D20*
%TO.P,C17,1*%
%TO.N,GND*%
X139520000Y-62715625D03*
%TO.P,C17,2*%
%TO.N,/MCU/LSE IN*%
X139520000Y-64265625D03*
%TD*%
D53*
%TO.P,LED3,1,K*%
%TO.N,/POWER/+3.3V LED*%
X174732500Y-40240625D03*
%TO.P,LED3,2,A*%
%TO.N,+3.3V*%
X176307500Y-40240625D03*
%TD*%
D30*
%TO.P,R19,1*%
%TO.N,+5V*%
X131195000Y-52740625D03*
%TO.P,R19,2*%
%TO.N,I2C SDA 5V*%
X132845000Y-52740625D03*
%TD*%
D23*
%TO.P,R21,1*%
%TO.N,GND*%
X183270000Y-55915625D03*
%TO.P,R21,2*%
%TO.N,/POWER/+VEXT LED*%
X183270000Y-57565625D03*
%TD*%
D18*
%TO.P,C27,1*%
%TO.N,GND*%
X158020000Y-68515625D03*
%TO.P,C27,2*%
%TO.N,+3.3V*%
X158020000Y-66965625D03*
%TD*%
D30*
%TO.P,R32,1*%
%TO.N,/MCU/HSE 1*%
X137695000Y-70990625D03*
%TO.P,R32,2*%
%TO.N,/MCU/HSE OUT*%
X139345000Y-70990625D03*
%TD*%
D38*
%TO.P,SW6,1,A*%
%TO.N,GND*%
X126870000Y-93740625D03*
X126870000Y-99740625D03*
%TO.P,SW6,2,B*%
%TO.N,BUTTON RIGHT*%
X123170000Y-93740625D03*
X123170000Y-99740625D03*
%TD*%
D30*
%TO.P,R9,1*%
%TO.N,GND*%
X171695000Y-40240625D03*
%TO.P,R9,2*%
%TO.N,/POWER/+3.3V LED*%
X173345000Y-40240625D03*
%TD*%
%TO.P,R37,1*%
%TO.N,/MCU/MCU PB15*%
X161695000Y-76990625D03*
%TO.P,R37,2*%
%TO.N,SPI MOSI*%
X163345000Y-76990625D03*
%TD*%
D27*
%TO.P,C5,1*%
%TO.N,+5V*%
X123720000Y-50990625D03*
%TO.P,C5,2*%
%TO.N,GND*%
X121820000Y-50990625D03*
%TD*%
D20*
%TO.P,C19,1*%
%TO.N,/ANALOG/AA1*%
X110520000Y-65215625D03*
%TO.P,C19,2*%
%TO.N,AIN1*%
X110520000Y-66765625D03*
%TD*%
D62*
%TO.P,C14,1*%
%TO.N,GND*%
X187520000Y-58790625D03*
%TO.P,C14,2*%
%TO.N,+VBUS*%
X187520000Y-60690625D03*
%TD*%
D40*
%TO.P,C26,1*%
%TO.N,GND*%
X136045000Y-66990625D03*
%TO.P,C26,2*%
%TO.N,/MCU/HSE IN*%
X134495000Y-66990625D03*
%TD*%
D25*
%TO.P,D4,1,K*%
%TO.N,+VSEL*%
X183770000Y-51090625D03*
%TO.P,D4,2,A*%
%TO.N,+VEXT*%
X183770000Y-54390625D03*
%TD*%
D30*
%TO.P,R8,1*%
%TO.N,GND*%
X120695000Y-40240625D03*
%TO.P,R8,2*%
%TO.N,/POWER/+5V LED*%
X122345000Y-40240625D03*
%TD*%
%TO.P,R33,1*%
%TO.N,/MCU/MCU PC9*%
X161695000Y-70990625D03*
%TO.P,R33,2*%
%TO.N,PWM BUZZER*%
X163345000Y-70990625D03*
%TD*%
D62*
%TO.P,C29,1*%
%TO.N,+5VA*%
X111020000Y-70790625D03*
%TO.P,C29,2*%
%TO.N,GND*%
X111020000Y-72690625D03*
%TD*%
D63*
%TO.P,D2,1,VDD*%
%TO.N,+5V*%
X132620000Y-41350625D03*
%TO.P,D2,2,DOUT*%
%TO.N,NEOPIXEL DOUT*%
X129320000Y-41350625D03*
%TO.P,D2,3,VSS*%
%TO.N,GND*%
X129320000Y-46250625D03*
%TO.P,D2,4,DIN*%
%TO.N,NEOPIXEL DIN*%
X132620000Y-46250625D03*
%TD*%
D50*
%TO.P,FB4,1*%
%TO.N,+3.3V*%
X139520000Y-77778125D03*
%TO.P,FB4,2*%
%TO.N,+3.3VA*%
X139520000Y-76203125D03*
%TD*%
D20*
%TO.P,C33,1*%
%TO.N,GND*%
X141020000Y-72965625D03*
%TO.P,C33,2*%
%TO.N,+3.3VA*%
X141020000Y-74515625D03*
%TD*%
D27*
%TO.P,C4,1*%
%TO.N,/POWER/BOOST IN*%
X182220000Y-45740625D03*
%TO.P,C4,2*%
%TO.N,GND*%
X180320000Y-45740625D03*
%TD*%
D20*
%TO.P,C24,1*%
%TO.N,GND*%
X141770000Y-65215625D03*
%TO.P,C24,2*%
%TO.N,+3VBAT*%
X141770000Y-66765625D03*
%TD*%
D64*
%TO.P,Y2,1,1*%
%TO.N,/MCU/HSE 1*%
X136120000Y-71090625D03*
%TO.P,Y2,2,2*%
%TO.N,GND*%
X136120000Y-68890625D03*
%TO.P,Y2,3,3*%
%TO.N,/MCU/HSE IN*%
X134420000Y-68890625D03*
%TO.P,Y2,4,4*%
%TO.N,GND*%
X134420000Y-71090625D03*
%TD*%
D17*
%TO.P,R38,1*%
%TO.N,/ANALOG/AA2*%
X112020000Y-78315625D03*
%TO.P,R38,2*%
%TO.N,/ANALOG/AA2+*%
X112020000Y-76665625D03*
%TD*%
D30*
%TO.P,R42,1*%
%TO.N,/MCU/MCU PB13*%
X161695000Y-78990625D03*
%TO.P,R42,2*%
%TO.N,SPI SCK*%
X163345000Y-78990625D03*
%TD*%
D52*
%TO.P,Q2,1,G*%
%TO.N,+3.3V*%
X136395000Y-50190625D03*
%TO.P,Q2,2,S*%
%TO.N,I2C SCL 3.3V*%
X136395000Y-48290625D03*
%TO.P,Q2,3,D*%
%TO.N,I2C SCL 5V*%
X134520000Y-49240625D03*
%TD*%
D18*
%TO.P,C31,1*%
%TO.N,+5VA*%
X124520000Y-72515625D03*
%TO.P,C31,2*%
%TO.N,GND*%
X124520000Y-70965625D03*
%TD*%
D27*
%TO.P,C1,1*%
%TO.N,/POWER/BOOST OUT*%
X182220000Y-39240625D03*
%TO.P,C1,2*%
%TO.N,GND*%
X180320000Y-39240625D03*
%TD*%
D65*
%TO.P,Y1,1,1*%
%TO.N,/MCU/LSE OUT*%
X137520000Y-66240625D03*
%TO.P,Y1,2,2*%
%TO.N,/MCU/LSE IN*%
X140020000Y-66240625D03*
%TD*%
D18*
%TO.P,C37,1*%
%TO.N,GND*%
X113520000Y-78265625D03*
%TO.P,C37,2*%
%TO.N,/ANALOG/AA2+*%
X113520000Y-76715625D03*
%TD*%
D66*
%TO.P,C35,1*%
%TO.N,+3.3V*%
X181570000Y-76240625D03*
%TO.P,C35,2*%
%TO.N,GND*%
X183470000Y-76240625D03*
%TD*%
D23*
%TO.P,R15,1*%
%TO.N,+3.3V*%
X138270000Y-50165625D03*
%TO.P,R15,2*%
%TO.N,I2C SDA 3.3V*%
X138270000Y-51815625D03*
%TD*%
D30*
%TO.P,R36,1*%
%TO.N,/MCU/MCU PC6*%
X161695000Y-75490625D03*
%TO.P,R36,2*%
%TO.N,PWM RED*%
X163345000Y-75490625D03*
%TD*%
D21*
%TO.P,TP7,1,1*%
%TO.N,+5VA*%
X122770000Y-58740625D03*
%TD*%
D67*
%TO.P,U4,1*%
%TO.N,AIN0*%
X116970000Y-68878125D03*
%TO.P,U4,2,-*%
X116320000Y-68878125D03*
%TO.P,U4,3,+*%
%TO.N,/ANALOG/AA0+*%
X115670000Y-68878125D03*
%TO.P,U4,4,V+*%
%TO.N,+5VA*%
X115020000Y-68878125D03*
%TO.P,U4,5,+*%
%TO.N,/ANALOG/AA1+*%
X114370000Y-68878125D03*
%TO.P,U4,6,-*%
%TO.N,AIN1*%
X113720000Y-68878125D03*
%TO.P,U4,7*%
X113070000Y-68878125D03*
%TO.P,U4,8*%
%TO.N,AIN2*%
X113070000Y-74603125D03*
%TO.P,U4,9,-*%
X113720000Y-74603125D03*
%TO.P,U4,10,+*%
%TO.N,/ANALOG/AA2+*%
X114370000Y-74603125D03*
%TO.P,U4,11,V-*%
%TO.N,GND*%
X115020000Y-74603125D03*
%TO.P,U4,12,+*%
%TO.N,/ANALOG/AA3+*%
X115670000Y-74603125D03*
%TO.P,U4,13,-*%
%TO.N,AIN3*%
X116320000Y-74603125D03*
%TO.P,U4,14*%
X116970000Y-74603125D03*
%TD*%
D19*
%TO.P,C7,1*%
%TO.N,GND*%
X129495000Y-50990625D03*
%TO.P,C7,2*%
%TO.N,+5V*%
X131045000Y-50990625D03*
%TD*%
D22*
%TO.P,R55,1*%
%TO.N,+3.3V*%
X115845000Y-103240625D03*
%TO.P,R55,2*%
%TO.N,BUTTON DOWN*%
X114195000Y-103240625D03*
%TD*%
D30*
%TO.P,R34,1*%
%TO.N,/MCU/MCU PC8*%
X161695000Y-72490625D03*
%TO.P,R34,2*%
%TO.N,PWM BLUE*%
X163345000Y-72490625D03*
%TD*%
D18*
%TO.P,C8,1*%
%TO.N,GND*%
X139770000Y-51765625D03*
%TO.P,C8,2*%
%TO.N,+3.3V*%
X139770000Y-50215625D03*
%TD*%
D35*
%TO.P,FID3,*%
%TO.N,*%
X107770000Y-111240625D03*
%TD*%
D21*
%TO.P,TP11,1,1*%
%TO.N,+VBUS*%
X187520000Y-69240625D03*
%TD*%
D53*
%TO.P,LED1,1,K*%
%TO.N,/POWER/+VBOOST LED*%
X183482500Y-34240625D03*
%TO.P,LED1,2,A*%
%TO.N,+VBOOST*%
X185057500Y-34240625D03*
%TD*%
D30*
%TO.P,R48,1*%
%TO.N,+3.3V*%
X181695000Y-88740625D03*
%TO.P,R48,2*%
%TO.N,SD CARD ~{IN}*%
X183345000Y-88740625D03*
%TD*%
D52*
%TO.P,Q1,1,G*%
%TO.N,PWM BUZZER*%
X113957500Y-48190625D03*
%TO.P,Q1,2,S*%
%TO.N,GND*%
X113957500Y-46290625D03*
%TO.P,Q1,3,D*%
%TO.N,/INTERFACE/BUZZER DRAIN*%
X112082500Y-47240625D03*
%TD*%
D17*
%TO.P,R25,1*%
%TO.N,/MCU/MCU PB6*%
X149770000Y-64065625D03*
%TO.P,R25,2*%
%TO.N,DEBUG TX*%
X149770000Y-62415625D03*
%TD*%
D21*
%TO.P,TP2,1,1*%
%TO.N,GND*%
X102020000Y-40490625D03*
%TD*%
D66*
%TO.P,C44,1*%
%TO.N,+VCORE*%
X152820000Y-81490625D03*
%TO.P,C44,2*%
%TO.N,GND*%
X154720000Y-81490625D03*
%TD*%
D19*
%TO.P,C28,1*%
%TO.N,GND*%
X140745000Y-71490625D03*
%TO.P,C28,2*%
%TO.N,NRST*%
X142295000Y-71490625D03*
%TD*%
D36*
%TO.P,U2,1,GND*%
%TO.N,GND*%
X122220000Y-48640625D03*
%TO.P,U2,2,VO*%
%TO.N,+5V*%
X124520000Y-48640625D03*
D37*
X124520000Y-42340625D03*
D36*
%TO.P,U2,3,VI*%
%TO.N,+VBOOST*%
X126820000Y-48640625D03*
%TD*%
D17*
%TO.P,R3,1*%
%TO.N,/POWER/BOOST OUT*%
X182270000Y-37565625D03*
%TO.P,R3,2*%
%TO.N,/POWER/BOOST FB*%
X182270000Y-35915625D03*
%TD*%
D39*
%TO.P,SW7,1,A*%
%TO.N,GND*%
X178170000Y-99740625D03*
X178170000Y-93740625D03*
%TO.P,SW7,2,B*%
%TO.N,BUTTON 1*%
X181870000Y-99740625D03*
X181870000Y-93740625D03*
%TD*%
D23*
%TO.P,R53,1*%
%TO.N,+3.3V*%
X186520000Y-95915625D03*
%TO.P,R53,2*%
%TO.N,BUTTON 2*%
X186520000Y-97565625D03*
%TD*%
D27*
%TO.P,C6,1*%
%TO.N,+VBOOST*%
X127220000Y-50990625D03*
%TO.P,C6,2*%
%TO.N,GND*%
X125320000Y-50990625D03*
%TD*%
D21*
%TO.P,TP3,1,1*%
%TO.N,+5V*%
X117770000Y-40490625D03*
%TD*%
%TO.P,TP1,1,1*%
%TO.N,+VBOOST*%
X187520000Y-34240625D03*
%TD*%
D18*
%TO.P,C38,1*%
%TO.N,GND*%
X116520000Y-78265625D03*
%TO.P,C38,2*%
%TO.N,/ANALOG/AA3+*%
X116520000Y-76715625D03*
%TD*%
D23*
%TO.P,R16,1*%
%TO.N,+3.3V*%
X141270000Y-50165625D03*
%TO.P,R16,2*%
%TO.N,I2C SCL 3.3V*%
X141270000Y-51815625D03*
%TD*%
D39*
%TO.P,SW5,1,A*%
%TO.N,GND*%
X113170000Y-99740625D03*
X113170000Y-93740625D03*
%TO.P,SW5,2,B*%
%TO.N,BUTTON CENTER*%
X116870000Y-99740625D03*
X116870000Y-93740625D03*
%TD*%
D60*
%TO.P,LS1,1,1*%
%TO.N,+VBOOST*%
X110020000Y-44240625D03*
%TO.P,LS1,2,2*%
%TO.N,/INTERFACE/BUZZER DRAIN*%
X110020000Y-49240625D03*
%TD*%
D68*
%TO.N,GND*%
X188270000Y-74240625D03*
X109520000Y-62740625D03*
X175020000Y-31740625D03*
X198270000Y-74240625D03*
X142400000Y-37450625D03*
X190020000Y-56740625D03*
X185020000Y-106740625D03*
X173020000Y-71240625D03*
X166530000Y-37450625D03*
X115020000Y-81740625D03*
X115020000Y-64240625D03*
X125020000Y-81740625D03*
X134780000Y-37450625D03*
X158520000Y-64990625D03*
X134520000Y-65740625D03*
X190020000Y-101740625D03*
X168008602Y-78990625D03*
X120020000Y-111740625D03*
X145270000Y-65490625D03*
X171020000Y-76240625D03*
X183020000Y-74990625D03*
X119520000Y-73990625D03*
X175020000Y-111740625D03*
X185020000Y-31740625D03*
X130020000Y-96740625D03*
X143520000Y-63740625D03*
X169070000Y-37450625D03*
X144940000Y-104760625D03*
X115020000Y-51740625D03*
X195020000Y-81740625D03*
X186770000Y-75740625D03*
X105020000Y-96740625D03*
X180020000Y-66740625D03*
X190020000Y-76740625D03*
X175020000Y-101740625D03*
X150020000Y-51740625D03*
X172520000Y-52490625D03*
X142391768Y-45705625D03*
X125270000Y-52240625D03*
X113520000Y-79240625D03*
X120770000Y-48740625D03*
X185020000Y-89990625D03*
X190770000Y-99740625D03*
X132240000Y-104760625D03*
X181520000Y-59240625D03*
X105020000Y-46740625D03*
X179270000Y-93740625D03*
X116920000Y-84890625D03*
X165260000Y-104760625D03*
X120770000Y-50990625D03*
X130020000Y-71740625D03*
X146020000Y-62740625D03*
X109520000Y-80740625D03*
X189770000Y-65990625D03*
X177520000Y-91740625D03*
X156020000Y-76240625D03*
X105020000Y-61740625D03*
X141270000Y-84990625D03*
X165020000Y-96740625D03*
X128520000Y-50990625D03*
X170020000Y-101740625D03*
X168435000Y-52055625D03*
X134780000Y-104760625D03*
X142400000Y-104760625D03*
X160020000Y-97240625D03*
X130020000Y-76740625D03*
X158275000Y-50150625D03*
X122770000Y-68240625D03*
X185270000Y-64240625D03*
X160770000Y-43740625D03*
X161270000Y-79990625D03*
X120020000Y-91740625D03*
X141020000Y-63240625D03*
X125920000Y-93740625D03*
X179520000Y-88740625D03*
X190020000Y-46740625D03*
X115020000Y-107740625D03*
X156282960Y-37363585D03*
X190020000Y-71740625D03*
X150020000Y-96740625D03*
X172880000Y-104760625D03*
X156020000Y-80990625D03*
X172770000Y-76240625D03*
X195020000Y-86740625D03*
X124620000Y-37450625D03*
X125270000Y-92490625D03*
X115020000Y-96740625D03*
X115020000Y-61740625D03*
X130020000Y-91740625D03*
X129270000Y-39490625D03*
X159270000Y-81740625D03*
X112020000Y-107740625D03*
X157640000Y-104760625D03*
X170020000Y-41740625D03*
X177020000Y-71240625D03*
X110270000Y-68490625D03*
X153520000Y-70490625D03*
X152560000Y-104760625D03*
X122420000Y-94940625D03*
X181270000Y-36740625D03*
X135020000Y-91740625D03*
X190020000Y-51740625D03*
X195020000Y-51740625D03*
X125020000Y-31740625D03*
X152520000Y-96990625D03*
X105020000Y-81740625D03*
X159020000Y-68490625D03*
X195020000Y-96740625D03*
X181270000Y-44740625D03*
X176270000Y-52490625D03*
X110020000Y-56740625D03*
X130020000Y-66740625D03*
X195020000Y-76740625D03*
X155100000Y-89520625D03*
X139770000Y-52918125D03*
X164770000Y-68990625D03*
X115020000Y-111740625D03*
X167800000Y-104760625D03*
X186770000Y-72740625D03*
X175020000Y-71240625D03*
X147480000Y-104760625D03*
X105020000Y-51740625D03*
X105020000Y-101740625D03*
X172520000Y-59240625D03*
X160180000Y-104760625D03*
X120020000Y-101740625D03*
X181270000Y-42490625D03*
X182520000Y-55240625D03*
X139860000Y-104760625D03*
X166530000Y-83805625D03*
X180020000Y-101740625D03*
X175770000Y-91740625D03*
X190020000Y-86740625D03*
X188770000Y-58790625D03*
X133270000Y-69990625D03*
X162720000Y-104760625D03*
X119520000Y-69490625D03*
X166770000Y-71740625D03*
X190020000Y-96740625D03*
X198270000Y-89990625D03*
X110020000Y-86740625D03*
X139770000Y-84990625D03*
X146520000Y-75990625D03*
X104120000Y-93740625D03*
X164770000Y-74740625D03*
X155100000Y-104760625D03*
X117332500Y-46740625D03*
X137320000Y-104760625D03*
X140495000Y-45740625D03*
X147480000Y-37450625D03*
X124620000Y-104760625D03*
X142770000Y-84990625D03*
X112520000Y-73240625D03*
X175420000Y-93965625D03*
X125020000Y-66740625D03*
X132240000Y-37450625D03*
X160020000Y-66490625D03*
X190020000Y-81740625D03*
X188270000Y-82740625D03*
X132520000Y-59240625D03*
X125020000Y-111740625D03*
X194270000Y-89990625D03*
X185020000Y-74240625D03*
X145020000Y-51740625D03*
X105020000Y-41740625D03*
X137320000Y-37450625D03*
X170770000Y-40240625D03*
X139882500Y-72353125D03*
X177270000Y-76240625D03*
X125020000Y-96740625D03*
X174270000Y-76240625D03*
X170020000Y-56740625D03*
X183520000Y-59240625D03*
X145770000Y-84990625D03*
X110020000Y-91740625D03*
X115020000Y-31740625D03*
X170020000Y-91740625D03*
X139860000Y-37450625D03*
X170020000Y-71740625D03*
X161450000Y-37450625D03*
X147520000Y-49240625D03*
X164270000Y-77990625D03*
X147270000Y-84990625D03*
X116770000Y-102240625D03*
X145759598Y-68990625D03*
X116520000Y-79240625D03*
X126270000Y-89990625D03*
X104120000Y-99740625D03*
X190020000Y-41740625D03*
X120020000Y-46740625D03*
X190020000Y-31740625D03*
X170020000Y-61740625D03*
X175020000Y-66740625D03*
X147520000Y-99240625D03*
X122520000Y-84240625D03*
X110270000Y-74990625D03*
X147091286Y-67419339D03*
X130020000Y-81740625D03*
X190770000Y-93740625D03*
X125020000Y-56740625D03*
X113520000Y-64240625D03*
X110020000Y-36740625D03*
X119770000Y-40240625D03*
X129270000Y-47490625D03*
X185270000Y-66740625D03*
X114120000Y-99740625D03*
X158910000Y-37450625D03*
X134770000Y-74290625D03*
X125020000Y-61740625D03*
X140020000Y-41740625D03*
X180020000Y-111740625D03*
X145020000Y-101740625D03*
X179270000Y-99740625D03*
X110020000Y-31740625D03*
X196020000Y-91240625D03*
X138520000Y-53990625D03*
X115020000Y-75990625D03*
X170340000Y-104760625D03*
X112520000Y-70240625D03*
X156020000Y-60740625D03*
X110020000Y-106740625D03*
X116520000Y-64240625D03*
X162720000Y-90790625D03*
X179520000Y-87240625D03*
X188270000Y-89990625D03*
X115020000Y-56740625D03*
X184270000Y-84990625D03*
X138590000Y-45705625D03*
X190020000Y-106740625D03*
X194270000Y-74240625D03*
X185020000Y-97240625D03*
X163990000Y-37450625D03*
X187270000Y-84990625D03*
X137574000Y-73010625D03*
X170020000Y-46740625D03*
X115020000Y-72990625D03*
X170020000Y-66740625D03*
X196020000Y-72740625D03*
X190020000Y-91740625D03*
X106270000Y-74740625D03*
X150270000Y-68240625D03*
X137020000Y-45740625D03*
X141270000Y-67990625D03*
X132520000Y-94240625D03*
X157770000Y-81740625D03*
X157520000Y-97240625D03*
X129700000Y-104760625D03*
X105020000Y-86740625D03*
X115020000Y-79240625D03*
X195020000Y-91740625D03*
X171020000Y-74740625D03*
X120770000Y-55990625D03*
X144305000Y-45705625D03*
X137020000Y-63240625D03*
X136020000Y-65740625D03*
X120520000Y-80740625D03*
X154770000Y-82990625D03*
X125920000Y-99740625D03*
X115020000Y-36740625D03*
X138270000Y-84990625D03*
X120020000Y-31740625D03*
X110020000Y-61740625D03*
X179520000Y-34240625D03*
X135020000Y-61740625D03*
X150020000Y-104760625D03*
X168520000Y-66490625D03*
X108020000Y-69240625D03*
X153020000Y-75990625D03*
X106270000Y-68740625D03*
X149020000Y-71740625D03*
X185020000Y-111740625D03*
X171020000Y-73240625D03*
X185020000Y-71740625D03*
X150020000Y-37450625D03*
X157770000Y-79740625D03*
X195020000Y-56740625D03*
X133770000Y-46240625D03*
X136520000Y-74490625D03*
X159520000Y-71240625D03*
X141531397Y-48979228D03*
X150020000Y-46740625D03*
X180020000Y-96740625D03*
X181270000Y-40240625D03*
X180020000Y-106740625D03*
X174150000Y-37450625D03*
X186270000Y-58790625D03*
X105020000Y-56740625D03*
X120020000Y-51740625D03*
X175770000Y-76240625D03*
X127160000Y-104760625D03*
X145770000Y-73490625D03*
X110020000Y-41740625D03*
X175020000Y-61740625D03*
X120270000Y-70990625D03*
X175020000Y-56740625D03*
X174241688Y-91723961D03*
X169520000Y-80490625D03*
X166520000Y-66490625D03*
X133270000Y-68240625D03*
X195020000Y-101740625D03*
X171610000Y-37450625D03*
X158020000Y-89520625D03*
X115082500Y-46290625D03*
X113120000Y-84890625D03*
X114270000Y-92240625D03*
X165770000Y-79740625D03*
X172880000Y-93965625D03*
X115020000Y-84990625D03*
X160770000Y-50785625D03*
X110020000Y-101740625D03*
X130020000Y-61740625D03*
X136045000Y-64215625D03*
X144940000Y-37450625D03*
X144270000Y-84990625D03*
X150020000Y-41740625D03*
X186770000Y-91240625D03*
X195020000Y-71740625D03*
X121770000Y-70990625D03*
X161520000Y-56490625D03*
X114120000Y-93740625D03*
X123520000Y-70990625D03*
X195020000Y-41740625D03*
X145020000Y-81240625D03*
X118020000Y-107740625D03*
X170020000Y-86740625D03*
X190020000Y-111740625D03*
X190020000Y-36740625D03*
X130020000Y-86740625D03*
X138770000Y-69362393D03*
X110020000Y-51740625D03*
X195020000Y-46740625D03*
X133270000Y-66490625D03*
X120020000Y-36740625D03*
X113957500Y-45490625D03*
X155020000Y-97240625D03*
X139020000Y-81740625D03*
X180770000Y-82740625D03*
X172520000Y-91740625D03*
X123270000Y-92490625D03*
X120020000Y-61740625D03*
X105020000Y-91740625D03*
X120520000Y-62740625D03*
X196020000Y-88240625D03*
X136520000Y-79490625D03*
X152560000Y-37450625D03*
X113970000Y-42878125D03*
X120020000Y-56740625D03*
X196020000Y-75240625D03*
X185020000Y-101740625D03*
X163236544Y-65296875D03*
X127160000Y-37450625D03*
X110020000Y-111740625D03*
X167020000Y-77490625D03*
X160180000Y-88250625D03*
X129700000Y-37450625D03*
X110520000Y-95990625D03*
X180020000Y-31740625D03*
X110070000Y-71740625D03*
X189770000Y-62490625D03*
%TO.N,+3VBAT*%
X142520000Y-67990625D03*
%TO.N,+3.3V*%
X161770000Y-65353125D03*
X160815000Y-52055625D03*
X158882500Y-66103125D03*
X147520000Y-75990625D03*
X168380000Y-50785625D03*
X175520000Y-46990625D03*
X180520000Y-88740625D03*
X114270000Y-91240625D03*
X156020000Y-77240625D03*
X187270000Y-82790625D03*
X182020000Y-74990625D03*
X145020000Y-62740625D03*
X121520000Y-94740625D03*
X139520000Y-80740625D03*
X115845000Y-102240625D03*
X185020000Y-95915625D03*
X109520000Y-95990625D03*
X184270000Y-82790625D03*
X154020000Y-75990625D03*
X137770000Y-53240625D03*
X146020000Y-81240625D03*
X140520000Y-49240625D03*
X180520000Y-87240625D03*
%TO.N,+VBOOST*%
X126820000Y-44240625D03*
%TO.N,+5VA*%
X108020000Y-74240625D03*
X112520000Y-71740625D03*
%TO.N,AIN1*%
X120270000Y-68240625D03*
X113520000Y-70240625D03*
%TO.N,AIN2*%
X113520000Y-73240625D03*
X120270000Y-75240625D03*
%TO.N,NRST*%
X148223548Y-70452173D03*
X161450000Y-57770625D03*
X157005000Y-51420625D03*
X145669999Y-70452173D03*
%TO.N,A1*%
X107070000Y-69240625D03*
X109520000Y-63740625D03*
%TO.N,A0*%
X120520000Y-63740625D03*
X111020000Y-68990625D03*
%TO.N,A3*%
X111020000Y-74490625D03*
X120520000Y-79740625D03*
%TO.N,A2*%
X109520000Y-79740625D03*
X107070000Y-74240625D03*
%TO.N,NEOPIXEL DIN*%
X156020000Y-59740625D03*
X133520000Y-47610625D03*
%TO.N,PWM GREEN*%
X172020000Y-73990625D03*
%TO.N,PWM RED*%
X172020000Y-75490625D03*
%TO.N,PWM BLUE*%
X174270000Y-72240625D03*
%TO.N,PA6*%
X146520000Y-84240625D03*
%TO.N,PA1*%
X139020000Y-84240625D03*
%TO.N,SPI SCK*%
X164270000Y-78990625D03*
%TO.N,SPI MOSI*%
X166136656Y-78745737D03*
%TO.N,USB OTG ID*%
X154520000Y-70490625D03*
X157020000Y-81240625D03*
%TO.N,PA2*%
X140520000Y-84240625D03*
%TO.N,PWM BUZZER*%
X117332500Y-47740625D03*
X167520000Y-66490625D03*
X166020000Y-68990625D03*
%TO.N,SPI NSS*%
X165520000Y-82990625D03*
X168645000Y-79865625D03*
%TO.N,PA3*%
X142020000Y-84240625D03*
%TO.N,PA7*%
X148020000Y-84240625D03*
%TO.N,PA5*%
X145020000Y-84240625D03*
%TO.N,PA4*%
X143520000Y-84240625D03*
%TO.N,PA0*%
X137520000Y-84240625D03*
%TO.N,SPI MISO*%
X162520000Y-79990625D03*
%TO.N,PC0*%
X143270000Y-66490625D03*
X139520000Y-46740625D03*
%TO.N,PC3*%
X142770000Y-72740625D03*
X137770000Y-46740625D03*
%TO.N,PC1*%
X143020000Y-65269224D03*
X141270000Y-46490625D03*
%TO.N,PC2*%
X143020000Y-46490625D03*
X144270000Y-65630769D03*
%TO.N,SD CARD ~{IN}*%
X151770000Y-68240625D03*
X167520000Y-76740625D03*
%TO.N,BUTTON RIGHT*%
X124270000Y-92490625D03*
X127020000Y-90740625D03*
%TO.N,BUTTON 1*%
X158520000Y-81240625D03*
X158520000Y-71359161D03*
%TO.N,BUTTON 2*%
X160520000Y-70990625D03*
X160020000Y-81240625D03*
%TD*%
D69*
%TO.N,GND*%
X181745000Y-82740625D02*
X180770000Y-82740625D01*
X186770000Y-75740625D02*
X186770000Y-74690625D01*
X181270000Y-44790625D02*
X180320000Y-45740625D01*
X115020000Y-79240625D02*
X115020000Y-75990625D01*
X121820000Y-50990625D02*
X120770000Y-50990625D01*
X129270000Y-46300625D02*
X129320000Y-46250625D01*
D70*
X141270000Y-67990625D02*
X140945000Y-67665625D01*
X153020000Y-75990625D02*
X153270000Y-76240625D01*
D69*
X188270000Y-74240625D02*
X186520000Y-74240625D01*
X113970000Y-42878125D02*
X113970000Y-44240625D01*
X125920000Y-99740625D02*
X126870000Y-99740625D01*
X118920000Y-70790625D02*
X120070000Y-70790625D01*
X176216250Y-52436875D02*
X176270000Y-52490625D01*
X138020000Y-62715625D02*
X137545000Y-62715625D01*
X140975000Y-73010625D02*
X141020000Y-72965625D01*
X129270000Y-47490625D02*
X129270000Y-46300625D01*
X115020000Y-65215625D02*
X116520000Y-65215625D01*
X140495000Y-62715625D02*
X139520000Y-62715625D01*
X167990000Y-52055625D02*
X167355000Y-51420625D01*
X194270000Y-74240625D02*
X195670000Y-74240625D01*
X196370000Y-74240625D02*
X196020000Y-73890625D01*
X137570000Y-74490625D02*
X137570000Y-72940625D01*
X186770000Y-72740625D02*
X186770000Y-74240625D01*
X141020000Y-63240625D02*
X140495000Y-62715625D01*
X172723750Y-50990625D02*
X172723750Y-52286875D01*
X148255000Y-57740625D02*
X148255000Y-57505625D01*
X160770000Y-50785625D02*
X160760000Y-50775625D01*
X177020000Y-69740625D02*
X176820000Y-69540625D01*
X137570000Y-74490625D02*
X136520000Y-74490625D01*
X113520000Y-78265625D02*
X116520000Y-78265625D01*
X133270000Y-69990625D02*
X134370000Y-71090625D01*
X125920000Y-93740625D02*
X126870000Y-93740625D01*
X122120000Y-48740625D02*
X122220000Y-48640625D01*
X182495000Y-59240625D02*
X182520000Y-59215625D01*
X111570000Y-73240625D02*
X112520000Y-73240625D01*
X189195000Y-61740625D02*
X189195000Y-61915625D01*
X133270000Y-68240625D02*
X133270000Y-66490625D01*
X120770000Y-48740625D02*
X122120000Y-48740625D01*
X104120000Y-99740625D02*
X103170000Y-99740625D01*
X114120000Y-99740625D02*
X113170000Y-99740625D01*
X137570000Y-79490625D02*
X136520000Y-79490625D01*
X115020000Y-64240625D02*
X115020000Y-65215625D01*
X175020000Y-71240625D02*
X175020000Y-69540625D01*
X136120000Y-68890625D02*
X136591768Y-69362393D01*
D71*
X186382500Y-64240625D02*
X185270000Y-64240625D01*
D69*
X194270000Y-89990625D02*
X195620000Y-89990625D01*
X186520000Y-74240625D02*
X186420000Y-74340625D01*
X121820000Y-55990625D02*
X120770000Y-55990625D01*
X186770000Y-74690625D02*
X186420000Y-74340625D01*
X173020000Y-71240625D02*
X173020000Y-69740625D01*
D70*
X144345000Y-73490625D02*
X145770000Y-73490625D01*
D69*
X160770000Y-43965625D02*
X160770000Y-43740625D01*
X154770000Y-82990625D02*
X154770000Y-81540625D01*
X186270000Y-58790625D02*
X187520000Y-58790625D01*
X113120000Y-84890625D02*
X112020000Y-84890625D01*
X186770000Y-90190625D02*
X186420000Y-89840625D01*
X125270000Y-51040625D02*
X125320000Y-50990625D01*
X139020000Y-81740625D02*
X138520000Y-81240625D01*
X148750000Y-54970625D02*
X148750000Y-55940625D01*
X182520000Y-55915625D02*
X183270000Y-55915625D01*
X134020000Y-65740625D02*
X133270000Y-66490625D01*
X196020000Y-88240625D02*
X196020000Y-89590625D01*
D72*
X154720000Y-79915625D02*
X154545000Y-79740625D01*
D69*
X113520000Y-64240625D02*
X113520000Y-65215625D01*
X136591768Y-69362393D02*
X138770000Y-69362393D01*
X134520000Y-65740625D02*
X134020000Y-65740625D01*
X113957500Y-45490625D02*
X113957500Y-44253125D01*
X189195000Y-66565625D02*
X189770000Y-65990625D01*
X181270000Y-44740625D02*
X181270000Y-44790625D01*
X134770000Y-74290625D02*
X134495000Y-74015625D01*
X182520000Y-55240625D02*
X182520000Y-55915625D01*
D70*
X146520000Y-75990625D02*
X146770000Y-76240625D01*
D69*
X189195000Y-61915625D02*
X189770000Y-62490625D01*
X196020000Y-72740625D02*
X196020000Y-73890625D01*
D70*
X153270000Y-78465625D02*
X154545000Y-79740625D01*
D69*
X138157500Y-72353125D02*
X139882500Y-72353125D01*
X157770000Y-79740625D02*
X156045000Y-79740625D01*
X141020000Y-63240625D02*
X141020000Y-64465625D01*
X159020000Y-68490625D02*
X158045000Y-68490625D01*
D70*
X153270000Y-77415625D02*
X153270000Y-78465625D01*
D69*
X139520000Y-62715625D02*
X138020000Y-62715625D01*
X123520000Y-70990625D02*
X121770000Y-70990625D01*
D73*
X121770000Y-69590625D02*
X121770000Y-70990625D01*
D69*
X116520000Y-64240625D02*
X116520000Y-65215625D01*
X136045000Y-68815625D02*
X136120000Y-68890625D01*
X140745000Y-71554125D02*
X140745000Y-71490625D01*
X185020000Y-89990625D02*
X186270000Y-89990625D01*
X177020000Y-71240625D02*
X177020000Y-69740625D01*
X173020000Y-69740625D02*
X173220000Y-69540625D01*
X138520000Y-80440625D02*
X137570000Y-79490625D01*
X134495000Y-71165625D02*
X134420000Y-71090625D01*
X183470000Y-75440625D02*
X183470000Y-76240625D01*
X104120000Y-93740625D02*
X103170000Y-93740625D01*
X181270000Y-40240625D02*
X181270000Y-40190625D01*
X181270000Y-36740625D02*
X181095000Y-36740625D01*
X114495000Y-78265625D02*
X113520000Y-78265625D01*
X134770000Y-74290625D02*
X134970000Y-74490625D01*
D70*
X146770000Y-64215625D02*
X146295000Y-63740625D01*
D69*
X185020000Y-74240625D02*
X186320000Y-74240625D01*
X139946000Y-72353125D02*
X140745000Y-71554125D01*
X186245000Y-66740625D02*
X185270000Y-66740625D01*
X198270000Y-74240625D02*
X196370000Y-74240625D01*
X156020000Y-80990625D02*
X156020000Y-79765625D01*
X113520000Y-78265625D02*
X113520000Y-79240625D01*
D72*
X193545000Y-67440625D02*
X193545000Y-68535625D01*
D74*
X115020000Y-74603125D02*
X115020000Y-75990625D01*
D69*
X134495000Y-74015625D02*
X134495000Y-72990625D01*
X110070000Y-71740625D02*
X111020000Y-72690625D01*
D70*
X146770000Y-66065625D02*
X146770000Y-64215625D01*
D69*
X179270000Y-93740625D02*
X178170000Y-93740625D01*
X146295000Y-63015625D02*
X146295000Y-63740625D01*
X145020000Y-81240625D02*
X145020000Y-80265625D01*
X139770000Y-52918125D02*
X139770000Y-51765625D01*
X180445000Y-34240625D02*
X179520000Y-34240625D01*
X145020000Y-80265625D02*
X144995000Y-80240625D01*
X120695000Y-40240625D02*
X119770000Y-40240625D01*
X154770000Y-79965625D02*
X154545000Y-79740625D01*
X173220000Y-50494375D02*
X172723750Y-50990625D01*
X180320000Y-37615625D02*
X180270000Y-37565625D01*
D72*
X193545000Y-61040625D02*
X193545000Y-60145625D01*
D69*
X148430000Y-53740625D02*
X148430000Y-54650625D01*
D74*
X110070000Y-71740625D02*
X108270000Y-71740625D01*
D69*
X154770000Y-82990625D02*
X154770000Y-79965625D01*
X134520000Y-65740625D02*
X136045000Y-65740625D01*
X176216250Y-50990625D02*
X176216250Y-52436875D01*
X171695000Y-40240625D02*
X170770000Y-40240625D01*
X160760000Y-43975625D02*
X160770000Y-43965625D01*
X160760000Y-50775625D02*
X160760000Y-49975625D01*
D71*
X113957500Y-44253125D02*
X113970000Y-44240625D01*
D69*
X114120000Y-93740625D02*
X113170000Y-93740625D01*
X198270000Y-89990625D02*
X196420000Y-89990625D01*
X136045000Y-66990625D02*
X136045000Y-68815625D01*
X112020000Y-107740625D02*
X112020000Y-108590625D01*
X122220000Y-50590625D02*
X122220000Y-48640625D01*
X113520000Y-65215625D02*
X115020000Y-65215625D01*
X120270000Y-70990625D02*
X121770000Y-70990625D01*
D72*
X193545000Y-68535625D02*
X193520000Y-68560625D01*
D69*
X183020000Y-74990625D02*
X183470000Y-75440625D01*
X118020000Y-107740625D02*
X118020000Y-108590625D01*
X181270000Y-40190625D02*
X180320000Y-39240625D01*
X196020000Y-75240625D02*
X196020000Y-73890625D01*
D70*
X141545000Y-73490625D02*
X141020000Y-72965625D01*
D69*
X134970000Y-74490625D02*
X136520000Y-74490625D01*
X196020000Y-91240625D02*
X196020000Y-89590625D01*
X179270000Y-99740625D02*
X178170000Y-99740625D01*
X139882500Y-72353125D02*
X140540000Y-73010625D01*
X182545000Y-59240625D02*
X182520000Y-59215625D01*
X186270000Y-89990625D02*
X186420000Y-89840625D01*
X190770000Y-99740625D02*
X191870000Y-99740625D01*
X117332500Y-46740625D02*
X116345000Y-46740625D01*
D71*
X108020000Y-69240625D02*
X108020000Y-70603125D01*
X113957500Y-46290625D02*
X113957500Y-45490625D01*
D73*
X122770000Y-69590625D02*
X122770000Y-68240625D01*
D69*
X139882500Y-72353125D02*
X139946000Y-72353125D01*
X186570000Y-89990625D02*
X186420000Y-89840625D01*
X181270000Y-41353125D02*
X181270000Y-42490625D01*
X140540000Y-73010625D02*
X140975000Y-73010625D01*
D70*
X146948714Y-67419339D02*
X147091286Y-67419339D01*
X153270000Y-76240625D02*
X153270000Y-77415625D01*
D69*
X133270000Y-69990625D02*
X133270000Y-68240625D01*
X116920000Y-84890625D02*
X118020000Y-84890625D01*
X148750000Y-57010625D02*
X148750000Y-55940625D01*
X181095000Y-36740625D02*
X180270000Y-37565625D01*
X196420000Y-89990625D02*
X196020000Y-89590625D01*
X116345000Y-46740625D02*
X116020000Y-46415625D01*
X168435000Y-52055625D02*
X167990000Y-52055625D01*
X134495000Y-72990625D02*
X134495000Y-71165625D01*
X188770000Y-58790625D02*
X187520000Y-58790625D01*
D71*
X115895000Y-46290625D02*
X116020000Y-46415625D01*
D69*
X184270000Y-84990625D02*
X187270000Y-84990625D01*
D70*
X146770000Y-67240625D02*
X146948714Y-67419339D01*
D69*
X195620000Y-89990625D02*
X196020000Y-89590625D01*
X181520000Y-59240625D02*
X182495000Y-59240625D01*
X146020000Y-62740625D02*
X146295000Y-63015625D01*
X180320000Y-39240625D02*
X180320000Y-37615625D01*
X116520000Y-79240625D02*
X116520000Y-78265625D01*
X121820000Y-50990625D02*
X122220000Y-50590625D01*
X186320000Y-74240625D02*
X186420000Y-74340625D01*
D70*
X146770000Y-77415625D02*
X146770000Y-78465625D01*
D69*
X128520000Y-50990625D02*
X129495000Y-50990625D01*
X181270000Y-41353125D02*
X181270000Y-40240625D01*
D70*
X157995000Y-68490625D02*
X158020000Y-68515625D01*
D69*
X111020000Y-72690625D02*
X111570000Y-73240625D01*
X189195000Y-66740625D02*
X189195000Y-66565625D01*
X173220000Y-48640625D02*
X173220000Y-50494375D01*
D74*
X108020000Y-71490625D02*
X108020000Y-70603125D01*
D69*
X137545000Y-62715625D02*
X136045000Y-64215625D01*
X134370000Y-71090625D02*
X134420000Y-71090625D01*
D74*
X108270000Y-71740625D02*
X108020000Y-71490625D01*
D69*
X183520000Y-59240625D02*
X182545000Y-59240625D01*
D72*
X193545000Y-60145625D02*
X193770000Y-59920625D01*
D69*
X125270000Y-52240625D02*
X125270000Y-51040625D01*
X141020000Y-64465625D02*
X141770000Y-65215625D01*
X158045000Y-68490625D02*
X158020000Y-68515625D01*
D70*
X155695000Y-68490625D02*
X157995000Y-68490625D01*
D69*
X137570000Y-72940625D02*
X138157500Y-72353125D01*
X138520000Y-81240625D02*
X138520000Y-80440625D01*
X148430000Y-54650625D02*
X148750000Y-54970625D01*
X136045000Y-65740625D02*
X136045000Y-66990625D01*
X181270000Y-42490625D02*
X181270000Y-44740625D01*
D70*
X140945000Y-66040625D02*
X141770000Y-65215625D01*
X144345000Y-73490625D02*
X141545000Y-73490625D01*
X146770000Y-78465625D02*
X144995000Y-80240625D01*
D74*
X115020000Y-72990625D02*
X115020000Y-74603125D01*
D69*
X156045000Y-79740625D02*
X156020000Y-79765625D01*
X124495000Y-70990625D02*
X123520000Y-70990625D01*
X129270000Y-39490625D02*
X130195000Y-39490625D01*
X186770000Y-91240625D02*
X186770000Y-90190625D01*
X148255000Y-57505625D02*
X148750000Y-57010625D01*
X181770000Y-55915625D02*
X182520000Y-55915625D01*
X136045000Y-64215625D02*
X136045000Y-66990625D01*
X190770000Y-93740625D02*
X191870000Y-93740625D01*
X154770000Y-81540625D02*
X154720000Y-81490625D01*
X156020000Y-79765625D02*
X154570000Y-79765625D01*
D70*
X141020000Y-71765625D02*
X140745000Y-71490625D01*
D71*
X115082500Y-46290625D02*
X115895000Y-46290625D01*
D70*
X146770000Y-76240625D02*
X146770000Y-77415625D01*
D69*
X124520000Y-70965625D02*
X124495000Y-70990625D01*
D71*
X113957500Y-46290625D02*
X115082500Y-46290625D01*
D69*
X172723750Y-52286875D02*
X172520000Y-52490625D01*
X120070000Y-70790625D02*
X120270000Y-70990625D01*
D70*
X146770000Y-66065625D02*
X146770000Y-67240625D01*
D69*
X195670000Y-74240625D02*
X196020000Y-73890625D01*
D70*
X140945000Y-67665625D02*
X140945000Y-66040625D01*
D69*
X188270000Y-89990625D02*
X186570000Y-89990625D01*
D70*
%TO.N,+3VBAT*%
X144345000Y-67990625D02*
X142520000Y-67990625D01*
D75*
X141770000Y-67240625D02*
X142520000Y-67990625D01*
X141770000Y-66765625D02*
X141770000Y-67240625D01*
D69*
%TO.N,+VSEL*%
X184270000Y-50590625D02*
X184270000Y-49140625D01*
X183770000Y-51090625D02*
X184270000Y-50590625D01*
X177820000Y-48640625D02*
X177820000Y-50694375D01*
D73*
X177020000Y-55990625D02*
X178116250Y-54894375D01*
D69*
X178216250Y-51090625D02*
X178116250Y-50990625D01*
X183770000Y-51090625D02*
X181270000Y-51090625D01*
X177820000Y-50694375D02*
X178116250Y-50990625D01*
X181270000Y-51090625D02*
X181170000Y-50990625D01*
D73*
X178116250Y-54894375D02*
X178116250Y-50990625D01*
D69*
X181270000Y-51090625D02*
X178216250Y-51090625D01*
D70*
%TO.N,/POWER/BOOST IN*%
X182095000Y-47490625D02*
X182095000Y-45865625D01*
X182095000Y-45865625D02*
X182220000Y-45740625D01*
D69*
X184270000Y-47840625D02*
X184270000Y-45940625D01*
X182220000Y-43628125D02*
X182220000Y-45740625D01*
X182420000Y-45940625D02*
X182220000Y-45740625D01*
X184270000Y-45940625D02*
X182420000Y-45940625D01*
%TO.N,+3.3V*%
X146530000Y-54730625D02*
X146210000Y-55050625D01*
X146705000Y-57740625D02*
X146705000Y-57425625D01*
X138320000Y-50215625D02*
X138270000Y-50165625D01*
X182020000Y-74990625D02*
X181570000Y-75440625D01*
X184270000Y-82790625D02*
X187270000Y-82790625D01*
D70*
X155495000Y-78740625D02*
X156020000Y-78215625D01*
D69*
X174623750Y-54136875D02*
X174623750Y-50990625D01*
X160370000Y-52055625D02*
X159735000Y-51420625D01*
D70*
X147270000Y-77415625D02*
X147270000Y-79515625D01*
D69*
X140520000Y-49240625D02*
X140520000Y-50165625D01*
X139820000Y-50165625D02*
X139770000Y-50215625D01*
X168020000Y-60740625D02*
X174623750Y-54136875D01*
D71*
X137320000Y-53690625D02*
X137770000Y-53240625D01*
X136395000Y-50190625D02*
X138245000Y-50190625D01*
D69*
X115845000Y-101240625D02*
X115845000Y-102240625D01*
D70*
X153770000Y-78240625D02*
X154270000Y-78740625D01*
D76*
X145020000Y-63740625D02*
X144745000Y-63740625D01*
D69*
X158882500Y-66103125D02*
X158020000Y-66965625D01*
D70*
X146270000Y-65240625D02*
X144770000Y-63740625D01*
D69*
X176307500Y-37782500D02*
X174150000Y-35625000D01*
X139520000Y-77778125D02*
X139520000Y-80740625D01*
X146210000Y-55050625D02*
X146210000Y-55940625D01*
X146210000Y-56930625D02*
X146210000Y-55940625D01*
X141270000Y-50165625D02*
X140520000Y-50165625D01*
D71*
X136395000Y-53690625D02*
X137320000Y-53690625D01*
D69*
X146020000Y-81240625D02*
X146545000Y-80715625D01*
X183270000Y-77915625D02*
X181770000Y-77915625D01*
X175520000Y-46990625D02*
X175520000Y-42340625D01*
X145020000Y-62740625D02*
X144745000Y-63015625D01*
X114195000Y-91165625D02*
X114195000Y-90240625D01*
X175520000Y-42340625D02*
X175520000Y-41028125D01*
D70*
X155695000Y-67990625D02*
X156995000Y-67990625D01*
D69*
X181570000Y-75440625D02*
X181570000Y-76240625D01*
X114270000Y-91240625D02*
X114195000Y-91165625D01*
X168380000Y-50785625D02*
X168380000Y-49975625D01*
X140520000Y-50165625D02*
X139820000Y-50165625D01*
X115845000Y-102240625D02*
X115845000Y-103240625D01*
X176307500Y-40240625D02*
X176270000Y-40203125D01*
X109445000Y-95915625D02*
X108520000Y-95915625D01*
D70*
X146270000Y-66065625D02*
X146270000Y-65240625D01*
D69*
X175520000Y-42340625D02*
X175020000Y-42840625D01*
D70*
X153770000Y-76240625D02*
X153770000Y-77415625D01*
D69*
X174623750Y-50990625D02*
X174623750Y-49536875D01*
X156020000Y-77240625D02*
X156020000Y-78215625D01*
D70*
X154020000Y-75990625D02*
X153770000Y-76240625D01*
X147520000Y-75990625D02*
X147270000Y-76240625D01*
X147270000Y-79515625D02*
X146545000Y-80240625D01*
D69*
X160815000Y-52055625D02*
X160370000Y-52055625D01*
X175520000Y-42340625D02*
X174468000Y-42340625D01*
X144745000Y-63015625D02*
X144745000Y-63740625D01*
X183520000Y-95915625D02*
X186520000Y-95915625D01*
X146705000Y-57425625D02*
X146210000Y-56930625D01*
D70*
X156995000Y-67990625D02*
X158020000Y-66965625D01*
D69*
X180520000Y-88740625D02*
X181695000Y-88740625D01*
D70*
X144770000Y-63740625D02*
X144745000Y-63740625D01*
D69*
X146545000Y-80715625D02*
X146545000Y-80240625D01*
D70*
X154270000Y-78740625D02*
X155495000Y-78740625D01*
D69*
X168020000Y-60740625D02*
X166382500Y-60740625D01*
X174623750Y-49536875D02*
X175520000Y-48640625D01*
X139770000Y-50215625D02*
X138320000Y-50215625D01*
X183345000Y-82790625D02*
X183295000Y-82740625D01*
X166382500Y-60740625D02*
X161770000Y-65353125D01*
X184270000Y-82790625D02*
X183345000Y-82790625D01*
X161770000Y-65353125D02*
X159632500Y-65353125D01*
X175520000Y-46990625D02*
X175520000Y-48640625D01*
X174468000Y-42340625D02*
X174150000Y-42022625D01*
X176307500Y-40240625D02*
X176307500Y-37782500D01*
X109520000Y-95990625D02*
X109445000Y-95915625D01*
X168380000Y-43975625D02*
X168380000Y-50785625D01*
X121520000Y-94740625D02*
X121520000Y-95915625D01*
D70*
X153770000Y-77415625D02*
X153770000Y-78240625D01*
X147270000Y-76240625D02*
X147270000Y-77415625D01*
D69*
X146530000Y-53740625D02*
X146530000Y-54730625D01*
X180520000Y-87240625D02*
X181695000Y-87240625D01*
X139520000Y-79440625D02*
X139470000Y-79490625D01*
D71*
X138245000Y-50190625D02*
X138270000Y-50165625D01*
D69*
X159632500Y-65353125D02*
X158882500Y-66103125D01*
X175520000Y-41028125D02*
X176307500Y-40240625D01*
X181570000Y-76240625D02*
X181570000Y-77715625D01*
X181570000Y-77715625D02*
X181770000Y-77915625D01*
X139520000Y-77778125D02*
X139520000Y-79440625D01*
%TO.N,+VBOOST*%
X110020000Y-44240625D02*
X110020000Y-45915625D01*
X110020000Y-44240625D02*
X112070000Y-44240625D01*
X185057500Y-34240625D02*
X187520000Y-34240625D01*
X185057500Y-34240625D02*
X184270000Y-35028125D01*
X126820000Y-50590625D02*
X127220000Y-50990625D01*
X126820000Y-48640625D02*
X126820000Y-50590625D01*
X126820000Y-44240625D02*
X126820000Y-48640625D01*
X127220000Y-49040625D02*
X126820000Y-48640625D01*
X184270000Y-35028125D02*
X184270000Y-36090625D01*
%TO.N,+5V*%
X125700000Y-42340625D02*
X125890000Y-42530625D01*
X132620000Y-41590625D02*
X132620000Y-41350625D01*
X130970000Y-47415625D02*
X130970000Y-43240625D01*
X124520000Y-41028125D02*
X125307500Y-40240625D01*
X132620000Y-41350625D02*
X132620000Y-40365625D01*
X124520000Y-42340625D02*
X127620000Y-42340625D01*
X128520000Y-43240625D02*
X130970000Y-43240625D01*
X130970000Y-43240625D02*
X132620000Y-41590625D01*
X130970000Y-52515625D02*
X131195000Y-52740625D01*
X125890000Y-39658125D02*
X125307500Y-40240625D01*
X123770000Y-49390625D02*
X124520000Y-48640625D01*
X124520000Y-42340625D02*
X124520000Y-41028125D01*
X124520000Y-42340625D02*
X125700000Y-42340625D01*
X124520000Y-42340625D02*
X119620000Y-42340625D01*
X123770000Y-52703125D02*
X123770000Y-49390625D01*
X119620000Y-42340625D02*
X117770000Y-40490625D01*
X123770000Y-52703125D02*
X123770000Y-51040625D01*
X124520000Y-42340625D02*
X124520000Y-48640625D01*
X123770000Y-51040625D02*
X123720000Y-50990625D01*
X127620000Y-42340625D02*
X128520000Y-43240625D01*
X130970000Y-46740625D02*
X130970000Y-52515625D01*
X125890000Y-35625000D02*
X125890000Y-39658125D01*
X132620000Y-40365625D02*
X131745000Y-39490625D01*
%TO.N,/POWER/BOOST OUT*%
X182220000Y-37615625D02*
X182270000Y-37565625D01*
X184095000Y-37565625D02*
X184270000Y-37390625D01*
X184270000Y-39090625D02*
X182370000Y-39090625D01*
X182270000Y-37565625D02*
X184095000Y-37565625D01*
X182370000Y-39090625D02*
X182220000Y-39240625D01*
X182220000Y-39240625D02*
X182220000Y-37615625D01*
%TO.N,+5VA*%
X123720000Y-55990625D02*
X123720000Y-57790625D01*
D71*
X119020000Y-72690625D02*
X118920000Y-72690625D01*
X119220000Y-72490625D02*
X119020000Y-72690625D01*
D69*
X125770000Y-69490625D02*
X125770000Y-71490625D01*
X123720000Y-57790625D02*
X122770000Y-58740625D01*
X125770000Y-71490625D02*
X124745000Y-72515625D01*
X110720000Y-70790625D02*
X111020000Y-70790625D01*
X124520000Y-72515625D02*
X124495000Y-72490625D01*
X124495000Y-72490625D02*
X119220000Y-72490625D01*
X111970000Y-71740625D02*
X112520000Y-71740625D01*
X122770000Y-66490625D02*
X125770000Y-69490625D01*
D75*
X115020000Y-68878125D02*
X115020000Y-66765625D01*
D71*
X108020000Y-72878125D02*
X108020000Y-74240625D01*
D69*
X115020000Y-71740625D02*
X112520000Y-71740625D01*
D73*
X121770000Y-73890625D02*
X121770000Y-72740625D01*
D75*
X115020000Y-68878125D02*
X115020000Y-71740625D01*
D69*
X111020000Y-70790625D02*
X111970000Y-71740625D01*
X123720000Y-55990625D02*
X123770000Y-56040625D01*
X117920000Y-71740625D02*
X118670000Y-72490625D01*
X118670000Y-72490625D02*
X119270000Y-72490625D01*
X115020000Y-71740625D02*
X117920000Y-71740625D01*
X111320000Y-70790625D02*
X111020000Y-70790625D01*
X123770000Y-55940625D02*
X123720000Y-55990625D01*
X122770000Y-58740625D02*
X122770000Y-66490625D01*
X123770000Y-54278125D02*
X123770000Y-55940625D01*
D73*
%TO.N,+3.3VA*%
X132020000Y-76240625D02*
X139482500Y-76240625D01*
D70*
X144345000Y-73990625D02*
X141545000Y-73990625D01*
D69*
X139520000Y-74540625D02*
X139470000Y-74490625D01*
X139520000Y-76203125D02*
X139520000Y-74540625D01*
X139495000Y-74515625D02*
X141020000Y-74515625D01*
D73*
X139482500Y-76240625D02*
X139520000Y-76203125D01*
D70*
X141545000Y-73990625D02*
X141020000Y-74515625D01*
D76*
%TO.N,/MCU/LSE IN*%
X141020000Y-68990625D02*
X140020000Y-67990625D01*
X144345000Y-68990625D02*
X141020000Y-68990625D01*
X140020000Y-67990625D02*
X140020000Y-66240625D01*
X140020000Y-64765625D02*
X139520000Y-64265625D01*
X140020000Y-66240625D02*
X140020000Y-64765625D01*
%TO.N,/MCU/LSE OUT*%
X137520000Y-66240625D02*
X137520000Y-64765625D01*
X140020000Y-69490625D02*
X137520000Y-66990625D01*
X144345000Y-69490625D02*
X140020000Y-69490625D01*
X137520000Y-66990625D02*
X137520000Y-66240625D01*
X137520000Y-64765625D02*
X138020000Y-64265625D01*
%TO.N,/MCU/HSE IN*%
X134495000Y-66990625D02*
X134495000Y-68815625D01*
X134495000Y-68815625D02*
X134420000Y-68890625D01*
X135520000Y-69990625D02*
X134420000Y-68890625D01*
X144345000Y-69990625D02*
X135520000Y-69990625D01*
%TO.N,/MCU/HSE 1*%
X136220000Y-70990625D02*
X136120000Y-71090625D01*
X137695000Y-70990625D02*
X136220000Y-70990625D01*
X136045000Y-72990625D02*
X136045000Y-71165625D01*
X136045000Y-71165625D02*
X136120000Y-71090625D01*
D72*
%TO.N,+VCORE*%
X152820000Y-79915625D02*
X152995000Y-79740625D01*
D70*
X152770000Y-83240625D02*
X153770000Y-84240625D01*
D72*
X152820000Y-81490625D02*
X152820000Y-79915625D01*
D70*
X152770000Y-77415625D02*
X152770000Y-83240625D01*
D72*
%TO.N,/IO/VBUS T FLT*%
X182495000Y-60740625D02*
X182520000Y-60765625D01*
X181057500Y-60740625D02*
X182495000Y-60740625D01*
X183982500Y-60740625D02*
X182545000Y-60740625D01*
X182545000Y-60740625D02*
X182520000Y-60765625D01*
%TO.N,+VBUS*%
X188092316Y-64240625D02*
X187545000Y-64787941D01*
D69*
X187470000Y-60740625D02*
X187520000Y-60690625D01*
D71*
X192585000Y-66640625D02*
X191510000Y-67715625D01*
X188770000Y-67715625D02*
X188699508Y-67715625D01*
X192620000Y-61840625D02*
X191470000Y-60690625D01*
D72*
X187545000Y-64787941D02*
X187545000Y-66490625D01*
X187545000Y-66490625D02*
X187795000Y-66740625D01*
D71*
X188770000Y-67715625D02*
X187520000Y-68965625D01*
D69*
X185557500Y-60740625D02*
X187470000Y-60740625D01*
D71*
X193545000Y-66640625D02*
X192585000Y-66640625D01*
D72*
X188657500Y-64240625D02*
X188092316Y-64240625D01*
D71*
X187795000Y-66811117D02*
X187795000Y-66740625D01*
X191470000Y-60690625D02*
X187520000Y-60690625D01*
D72*
X188092316Y-64240625D02*
X187520000Y-63668309D01*
D71*
X193545000Y-61840625D02*
X192620000Y-61840625D01*
D72*
X187520000Y-63668309D02*
X187520000Y-60690625D01*
D71*
X188699508Y-67715625D02*
X187795000Y-66811117D01*
X187520000Y-68965625D02*
X187520000Y-69240625D01*
X191510000Y-67715625D02*
X188770000Y-67715625D01*
D76*
%TO.N,/ANALOG/AA0*%
X118020000Y-63815625D02*
X118020000Y-65165625D01*
X119470000Y-65165625D02*
X119520000Y-65215625D01*
X118020000Y-65165625D02*
X119470000Y-65165625D01*
%TO.N,AIN0*%
X116520000Y-67740625D02*
X117020000Y-67740625D01*
X121270000Y-67740625D02*
X121270000Y-69590625D01*
X120295000Y-66765625D02*
X121270000Y-67740625D01*
X116970000Y-67790625D02*
X117020000Y-67740625D01*
X119520000Y-66765625D02*
X120295000Y-66765625D01*
X116970000Y-68878125D02*
X116970000Y-67790625D01*
X118545000Y-67740625D02*
X119520000Y-66765625D01*
X116320000Y-68878125D02*
X116320000Y-67940625D01*
X117020000Y-67740625D02*
X118545000Y-67740625D01*
X116320000Y-67940625D02*
X116520000Y-67740625D01*
%TO.N,/ANALOG/AA0+*%
X117970000Y-66765625D02*
X116520000Y-66765625D01*
X115670000Y-68878125D02*
X115670000Y-67615625D01*
X118020000Y-66815625D02*
X117970000Y-66765625D01*
X115670000Y-67615625D02*
X116520000Y-66765625D01*
%TO.N,/ANALOG/AA1*%
X112020000Y-63815625D02*
X112020000Y-65165625D01*
X111970000Y-65215625D02*
X110520000Y-65215625D01*
X112020000Y-65165625D02*
X111970000Y-65215625D01*
%TO.N,AIN1*%
X113070000Y-67790625D02*
X113020000Y-67740625D01*
X113720000Y-67940625D02*
X113520000Y-67740625D01*
X113070000Y-68878125D02*
X113070000Y-67790625D01*
X120270000Y-68240625D02*
X120770000Y-68740625D01*
X113520000Y-70240625D02*
X113070000Y-69790625D01*
X113720000Y-68878125D02*
X113720000Y-67940625D01*
X120770000Y-68740625D02*
X120770000Y-69590625D01*
X113520000Y-67740625D02*
X113020000Y-67740625D01*
X113070000Y-69790625D02*
X113070000Y-68878125D01*
X111495000Y-67740625D02*
X110520000Y-66765625D01*
X113020000Y-67740625D02*
X111495000Y-67740625D01*
%TO.N,/ANALOG/AA1+*%
X114370000Y-67615625D02*
X113520000Y-66765625D01*
X113470000Y-66815625D02*
X113520000Y-66765625D01*
X112020000Y-66815625D02*
X113470000Y-66815625D01*
X114370000Y-68878125D02*
X114370000Y-67615625D01*
%TO.N,AIN2*%
X113070000Y-75690625D02*
X113020000Y-75740625D01*
X113070000Y-74603125D02*
X113070000Y-75690625D01*
X111495000Y-75740625D02*
X110520000Y-76715625D01*
X113020000Y-75740625D02*
X111495000Y-75740625D01*
X113720000Y-74603125D02*
X113720000Y-75540625D01*
X113720000Y-75540625D02*
X113520000Y-75740625D01*
X113520000Y-75740625D02*
X113020000Y-75740625D01*
X120770000Y-73890625D02*
X120770000Y-74740625D01*
X120770000Y-74740625D02*
X120270000Y-75240625D01*
X113520000Y-73240625D02*
X113070000Y-73690625D01*
X113070000Y-73690625D02*
X113070000Y-74603125D01*
%TO.N,/ANALOG/AA2*%
X110520000Y-78265625D02*
X111970000Y-78265625D01*
X112020000Y-78315625D02*
X112020000Y-79665625D01*
X111970000Y-78265625D02*
X112020000Y-78315625D01*
%TO.N,/ANALOG/AA2+*%
X114370000Y-75865625D02*
X113520000Y-76715625D01*
X112020000Y-76665625D02*
X113470000Y-76665625D01*
X114370000Y-74603125D02*
X114370000Y-75865625D01*
X113470000Y-76665625D02*
X113520000Y-76715625D01*
%TO.N,AIN3*%
X120295000Y-76715625D02*
X121270000Y-75740625D01*
X116970000Y-74603125D02*
X116970000Y-75690625D01*
X119520000Y-76715625D02*
X120295000Y-76715625D01*
X116320000Y-74603125D02*
X116320000Y-75540625D01*
X118545000Y-75740625D02*
X119520000Y-76715625D01*
X121270000Y-75740625D02*
X121270000Y-73890625D01*
X117020000Y-75740625D02*
X118545000Y-75740625D01*
X116320000Y-75540625D02*
X116520000Y-75740625D01*
X116520000Y-75740625D02*
X117020000Y-75740625D01*
X116970000Y-75690625D02*
X117020000Y-75740625D01*
%TO.N,/ANALOG/AA3*%
X118020000Y-78315625D02*
X118020000Y-79665625D01*
X119470000Y-78315625D02*
X119520000Y-78265625D01*
X118020000Y-78315625D02*
X119470000Y-78315625D01*
%TO.N,/ANALOG/AA3+*%
X115670000Y-74603125D02*
X115670000Y-75865625D01*
X118020000Y-76665625D02*
X116570000Y-76665625D01*
X115670000Y-75865625D02*
X116520000Y-76715625D01*
X116570000Y-76665625D02*
X116520000Y-76715625D01*
%TO.N,NRST*%
X157060000Y-43110625D02*
X159990000Y-40180625D01*
X151290000Y-70470625D02*
X153520000Y-68240625D01*
X157060000Y-49975625D02*
X157060000Y-43975625D01*
X157005000Y-51420625D02*
X157060000Y-51365625D01*
X159990000Y-40180625D02*
X160180000Y-40180625D01*
X145669999Y-70452173D02*
X145669999Y-70489077D01*
X148242000Y-70470625D02*
X151290000Y-70470625D01*
X144345000Y-70990625D02*
X142795000Y-70990625D01*
X157005000Y-51420625D02*
X158085000Y-51420625D01*
X142795000Y-70990625D02*
X142295000Y-71490625D01*
X145669999Y-70489077D02*
X145168451Y-70990625D01*
X161450000Y-57770625D02*
X161450000Y-60310625D01*
X157060000Y-43975625D02*
X157060000Y-43110625D01*
X157060000Y-51365625D02*
X157060000Y-49975625D01*
X161450000Y-60310625D02*
X153520000Y-68240625D01*
X148223548Y-70452173D02*
X148242000Y-70470625D01*
X145168451Y-70990625D02*
X144345000Y-70990625D01*
D69*
%TO.N,+VEXT*%
X183770000Y-54390625D02*
X183920000Y-54390625D01*
X187520000Y-50803125D02*
X183932500Y-54390625D01*
X183932500Y-54390625D02*
X183770000Y-54390625D01*
X187520000Y-49240625D02*
X187520000Y-50803125D01*
X183920000Y-54390625D02*
X184770000Y-55240625D01*
X184770000Y-55240625D02*
X184770000Y-55953125D01*
%TO.N,+VBUSF*%
X179482500Y-60740625D02*
X179020000Y-60278125D01*
X181270000Y-54390625D02*
X180620000Y-54390625D01*
D73*
X177020000Y-60740625D02*
X178020000Y-59740625D01*
D69*
X180620000Y-54390625D02*
X180270000Y-54740625D01*
X179020000Y-57203125D02*
X180270000Y-55953125D01*
X179020000Y-60278125D02*
X179020000Y-57203125D01*
X180270000Y-54740625D02*
X180270000Y-55953125D01*
D73*
X178020000Y-59740625D02*
X179020000Y-59740625D01*
D71*
%TO.N,/POWER/BOOST SW*%
X183232500Y-41353125D02*
X184270000Y-42390625D01*
D69*
X184270000Y-44040625D02*
X184270000Y-42390625D01*
D71*
X182220000Y-41353125D02*
X183232500Y-41353125D01*
D76*
%TO.N,A1*%
X107070000Y-69240625D02*
X107070000Y-70603125D01*
D72*
X104520000Y-69200625D02*
X105922500Y-70603125D01*
D76*
X109520000Y-63740625D02*
X110445000Y-63740625D01*
D72*
X105922500Y-70603125D02*
X107070000Y-70603125D01*
D76*
%TO.N,A0*%
X109407500Y-70603125D02*
X108970000Y-70603125D01*
X111020000Y-68990625D02*
X109407500Y-70603125D01*
D72*
X108970000Y-68690625D02*
X108970000Y-70603125D01*
D76*
X120520000Y-63740625D02*
X119595000Y-63740625D01*
D72*
X106940000Y-66660625D02*
X108970000Y-68690625D01*
X104520000Y-66660625D02*
X106940000Y-66660625D01*
D76*
%TO.N,A3*%
X111020000Y-74490625D02*
X109407500Y-72878125D01*
D72*
X104520000Y-76820625D02*
X106571371Y-76820625D01*
X108970000Y-74421996D02*
X108970000Y-72878125D01*
X106571371Y-76820625D02*
X108970000Y-74421996D01*
D76*
X120520000Y-79740625D02*
X119595000Y-79740625D01*
X109407500Y-72878125D02*
X108970000Y-72878125D01*
%TO.N,A2*%
X107070000Y-74240625D02*
X107070000Y-72878125D01*
D72*
X104520000Y-74280625D02*
X105922500Y-72878125D01*
X105922500Y-72878125D02*
X107070000Y-72878125D01*
D76*
X109520000Y-79740625D02*
X110445000Y-79740625D01*
%TO.N,NEOPIXEL DOUT*%
X128430000Y-35180625D02*
X128430000Y-40181875D01*
X128430000Y-40181875D02*
X129320000Y-41071875D01*
X129320000Y-41071875D02*
X129320000Y-41350625D01*
%TO.N,NEOPIXEL DIN*%
X153345000Y-62415625D02*
X153270000Y-62415625D01*
X156020000Y-59740625D02*
X153345000Y-62415625D01*
X133770000Y-40043750D02*
X133770000Y-42971875D01*
X130970000Y-37243750D02*
X133770000Y-40043750D01*
X132890000Y-47610625D02*
X132620000Y-47340625D01*
X133520000Y-47610625D02*
X132890000Y-47610625D01*
X132620000Y-44121875D02*
X132620000Y-46250625D01*
X130970000Y-35180625D02*
X130970000Y-37243750D01*
X132620000Y-47340625D02*
X132620000Y-46250625D01*
X133770000Y-42971875D02*
X132620000Y-44121875D01*
%TO.N,PWM GREEN*%
X173170000Y-73990625D02*
X173220000Y-73940625D01*
X163345000Y-73990625D02*
X173170000Y-73990625D01*
%TO.N,PWM RED*%
X172020000Y-75490625D02*
X174770000Y-75490625D01*
X174770000Y-75490625D02*
X175020000Y-75240625D01*
X175020000Y-75240625D02*
X175020000Y-73940625D01*
X172020000Y-75490625D02*
X163345000Y-75490625D01*
%TO.N,PWM BLUE*%
X176820000Y-72665625D02*
X176820000Y-73940625D01*
X174270000Y-72240625D02*
X176395000Y-72240625D01*
X172270000Y-72240625D02*
X172020000Y-72490625D01*
X174270000Y-72240625D02*
X172270000Y-72240625D01*
X172020000Y-72490625D02*
X163345000Y-72490625D01*
X176395000Y-72240625D02*
X176820000Y-72665625D01*
%TO.N,PA6*%
X146520000Y-84240625D02*
X148770000Y-81990625D01*
X148770000Y-81990625D02*
X148770000Y-77415625D01*
%TO.N,PA1*%
X142270000Y-80990625D02*
X142270000Y-75740625D01*
X139020000Y-84240625D02*
X142270000Y-80990625D01*
X142270000Y-75740625D02*
X143020000Y-74990625D01*
X143020000Y-74990625D02*
X144345000Y-74990625D01*
%TO.N,SPI SCK*%
X168920000Y-83890625D02*
X185570000Y-83890625D01*
X164270000Y-78990625D02*
X164270000Y-79240625D01*
X164270000Y-78990625D02*
X163345000Y-78990625D01*
X164270000Y-79240625D02*
X168920000Y-83890625D01*
%TO.N,SPI MOSI*%
X169220000Y-81690625D02*
X185570000Y-81690625D01*
X166275112Y-78745737D02*
X169220000Y-81690625D01*
X166136656Y-78663054D02*
X164464227Y-76990625D01*
X166136656Y-78745737D02*
X166136656Y-78663054D01*
X166136656Y-78745737D02*
X166275112Y-78745737D01*
X164464227Y-76990625D02*
X163345000Y-76990625D01*
D77*
%TO.N,USB OTG ID*%
X157020000Y-92740625D02*
X169070000Y-104790625D01*
X155695000Y-70490625D02*
X154520000Y-70490625D01*
X169070000Y-104790625D02*
X169070000Y-107300625D01*
X157020000Y-81240625D02*
X157020000Y-92740625D01*
D76*
%TO.N,PA2*%
X143270000Y-75490625D02*
X144345000Y-75490625D01*
X140520000Y-84240625D02*
X143020000Y-81740625D01*
X143020000Y-75740625D02*
X143270000Y-75490625D01*
X143020000Y-81740625D02*
X143020000Y-75740625D01*
%TO.N,PWM BUZZER*%
X117007500Y-48065625D02*
X117332500Y-47740625D01*
X116020000Y-48065625D02*
X114082500Y-48065625D01*
X116020000Y-48065625D02*
X117007500Y-48065625D01*
X167520000Y-67490625D02*
X166020000Y-68990625D01*
X164020000Y-70990625D02*
X163345000Y-70990625D01*
X167520000Y-66490625D02*
X167520000Y-67490625D01*
X166020000Y-68990625D02*
X164020000Y-70990625D01*
X114082500Y-48065625D02*
X113957500Y-48190625D01*
%TO.N,SPI NSS*%
X163345000Y-81890625D02*
X163345000Y-80990625D01*
X168945000Y-79565625D02*
X181770000Y-79565625D01*
X185570000Y-80590625D02*
X182795000Y-80590625D01*
X164445000Y-82990625D02*
X163345000Y-81890625D01*
X165520000Y-82990625D02*
X164445000Y-82990625D01*
X168645000Y-79865625D02*
X168945000Y-79565625D01*
X182795000Y-80590625D02*
X181770000Y-79565625D01*
%TO.N,PA3*%
X144270000Y-78740625D02*
X145770000Y-78740625D01*
X143770000Y-79240625D02*
X144270000Y-78740625D01*
X145770000Y-78740625D02*
X146270000Y-78240625D01*
X142020000Y-84240625D02*
X143770000Y-82490625D01*
X146270000Y-78240625D02*
X146270000Y-77415625D01*
X143770000Y-82490625D02*
X143770000Y-79240625D01*
%TO.N,PA7*%
X148020000Y-84240625D02*
X149270000Y-82990625D01*
X149270000Y-82990625D02*
X149270000Y-77415625D01*
%TO.N,PA5*%
X145020000Y-84240625D02*
X148270000Y-80990625D01*
X148270000Y-80990625D02*
X148270000Y-77415625D01*
%TO.N,PA4*%
X143520000Y-84240625D02*
X145520000Y-82240625D01*
X146020000Y-82240625D02*
X147770000Y-80490625D01*
X145520000Y-82240625D02*
X146020000Y-82240625D01*
X147770000Y-80490625D02*
X147770000Y-77415625D01*
%TO.N,PA0*%
X141520000Y-80240625D02*
X141520000Y-75740625D01*
X137520000Y-84240625D02*
X141520000Y-80240625D01*
X141520000Y-75740625D02*
X142770000Y-74490625D01*
X142770000Y-74490625D02*
X144345000Y-74490625D01*
%TO.N,SPI MISO*%
X162520000Y-78240625D02*
X162270000Y-77990625D01*
X162520000Y-79990625D02*
X163770000Y-79990625D01*
X169520000Y-85740625D02*
X181695000Y-85740625D01*
X162520000Y-79990625D02*
X162520000Y-78240625D01*
X163770000Y-79990625D02*
X169520000Y-85740625D01*
X162270000Y-77990625D02*
X161020000Y-77990625D01*
X157520000Y-74490625D02*
X155695000Y-74490625D01*
X161020000Y-77990625D02*
X157520000Y-74490625D01*
%TO.N,/IO/NRST CONN*%
X160180000Y-38530625D02*
X160180000Y-36498125D01*
X160180000Y-36498125D02*
X161450000Y-35228125D01*
%TO.N,I2C SDA 3.3V*%
X146270000Y-59915625D02*
X147095000Y-60740625D01*
X146270000Y-59915625D02*
X145445000Y-59915625D01*
X153820000Y-55940625D02*
X153830000Y-55940625D01*
X138070000Y-51790625D02*
X136395000Y-51790625D01*
X153830000Y-55940625D02*
X153830000Y-35228125D01*
X138270000Y-51815625D02*
X138095000Y-51815625D01*
X138095000Y-51815625D02*
X138070000Y-51790625D01*
X145445000Y-59915625D02*
X138270000Y-52740625D01*
X138270000Y-52740625D02*
X138270000Y-51815625D01*
X149020000Y-60740625D02*
X153820000Y-55940625D01*
X147095000Y-60740625D02*
X149020000Y-60740625D01*
X153810000Y-55920625D02*
X153830000Y-55940625D01*
%TO.N,/IO/RX CONN*%
X155100000Y-42340625D02*
X155100000Y-36895000D01*
X155100000Y-36895000D02*
X156370000Y-35625000D01*
%TO.N,/IO/SWDIO CONN*%
X167800000Y-36895000D02*
X169070000Y-35625000D01*
X167800000Y-38530625D02*
X167800000Y-36895000D01*
%TO.N,PC0*%
X141130000Y-35180625D02*
X141130000Y-43242170D01*
X146520000Y-68744741D02*
X145015884Y-67240625D01*
X144345000Y-71490625D02*
X145520000Y-71490625D01*
X146520000Y-70490625D02*
X146520000Y-68744741D01*
X144020000Y-67240625D02*
X143270000Y-66490625D01*
X139520000Y-44852170D02*
X141130000Y-43242170D01*
X145015884Y-67240625D02*
X144020000Y-67240625D01*
X145520000Y-71490625D02*
X146520000Y-70490625D01*
X139520000Y-46740625D02*
X139520000Y-44852170D01*
%TO.N,I2C SCL 3.3V*%
X147770000Y-59915625D02*
X148470000Y-59915625D01*
X141270000Y-53740625D02*
X141270000Y-51815625D01*
X142270000Y-50815625D02*
X141270000Y-51815625D01*
X147445000Y-59915625D02*
X141270000Y-53740625D01*
X142270000Y-48829376D02*
X142270000Y-50815625D01*
X151290000Y-35180625D02*
X151290000Y-55940625D01*
X141731249Y-48290625D02*
X142270000Y-48829376D01*
X148470000Y-59915625D02*
X151290000Y-57095625D01*
X151290000Y-57095625D02*
X151290000Y-55940625D01*
X136395000Y-48290625D02*
X141731249Y-48290625D01*
X151270000Y-55920625D02*
X151290000Y-55940625D01*
X147770000Y-59915625D02*
X147445000Y-59915625D01*
%TO.N,/IO/SWO CONN*%
X162720000Y-38530625D02*
X162720000Y-36895000D01*
X162720000Y-36895000D02*
X163990000Y-35625000D01*
%TO.N,PC3*%
X144345000Y-72990625D02*
X143020000Y-72990625D01*
X137770000Y-46740625D02*
X138770000Y-47740625D01*
X138770000Y-47740625D02*
X143540000Y-47740625D01*
X143540000Y-47740625D02*
X148750000Y-42530625D01*
X143020000Y-72990625D02*
X142770000Y-72740625D01*
X148750000Y-35180625D02*
X148750000Y-42530625D01*
%TO.N,PC1*%
X145524116Y-71990625D02*
X146913536Y-70601205D01*
X146913536Y-70601205D02*
X146913536Y-68634161D01*
X144491401Y-66740625D02*
X143020000Y-65269224D01*
X143670000Y-35180625D02*
X143670000Y-42530625D01*
X144345000Y-71990625D02*
X145524116Y-71990625D01*
X145020000Y-66740625D02*
X144491401Y-66740625D01*
X146913536Y-68634161D02*
X145020000Y-66740625D01*
X143020000Y-65240625D02*
X143020000Y-65269224D01*
X141270000Y-44930625D02*
X143670000Y-42530625D01*
X141270000Y-46490625D02*
X141270000Y-44930625D01*
%TO.N,I2C SCL 5V*%
X123020000Y-74990625D02*
X122770000Y-74740625D01*
X132782500Y-49490625D02*
X132770000Y-49490625D01*
X127770000Y-57490625D02*
X127770000Y-71990625D01*
X127770000Y-71990625D02*
X124770000Y-74990625D01*
X134526000Y-39101625D02*
X134526000Y-49234625D01*
X134520000Y-49240625D02*
X133032500Y-49240625D01*
X132020000Y-53240625D02*
X127770000Y-57490625D01*
X133032500Y-49240625D02*
X132782500Y-49490625D01*
X122770000Y-74740625D02*
X122770000Y-73890625D01*
X134526000Y-49234625D02*
X134520000Y-49240625D01*
X124770000Y-74990625D02*
X123020000Y-74990625D01*
X132770000Y-49490625D02*
X132020000Y-50240625D01*
X132020000Y-50240625D02*
X132020000Y-53240625D01*
X133510000Y-35180625D02*
X133510000Y-38085625D01*
X133510000Y-38085625D02*
X134526000Y-39101625D01*
%TO.N,PC2*%
X146210000Y-35180625D02*
X146210000Y-41895625D01*
X143020000Y-45085625D02*
X146210000Y-41895625D01*
X143020000Y-46490625D02*
X143020000Y-45085625D01*
X145528232Y-72490625D02*
X147270000Y-70748857D01*
X147270000Y-68486509D02*
X144414260Y-65630769D01*
X147270000Y-70748857D02*
X147270000Y-68486509D01*
X144414260Y-65630769D02*
X144270000Y-65630769D01*
X144345000Y-72490625D02*
X145528232Y-72490625D01*
X144270000Y-65490625D02*
X144270000Y-65630769D01*
%TO.N,DEBUG TX*%
X149845000Y-62415625D02*
X150426000Y-61834625D01*
X149770000Y-62415625D02*
X149845000Y-62415625D01*
X150426000Y-61834625D02*
X150926000Y-61834625D01*
X150926000Y-61834625D02*
X156370000Y-56390625D01*
X156370000Y-38165000D02*
X158910000Y-35625000D01*
X156370000Y-56390625D02*
X156370000Y-38165000D01*
%TO.N,I2C SDA 5V*%
X129270000Y-72490625D02*
X129270000Y-57490625D01*
X134526000Y-50658625D02*
X134526000Y-52734625D01*
X132845000Y-53915625D02*
X132845000Y-52490625D01*
X136050000Y-35180625D02*
X136050000Y-46975625D01*
X125270000Y-76490625D02*
X129270000Y-72490625D01*
X133095000Y-52740625D02*
X134520000Y-52740625D01*
X134526000Y-52734625D02*
X134520000Y-52740625D01*
X129270000Y-57490625D02*
X132845000Y-53915625D01*
X132845000Y-52490625D02*
X133095000Y-52740625D01*
X123270000Y-76490625D02*
X125270000Y-76490625D01*
X122270000Y-75490625D02*
X123270000Y-76490625D01*
X135270000Y-47755625D02*
X135270000Y-48577991D01*
X136050000Y-46975625D02*
X135270000Y-47755625D01*
X135542000Y-49642625D02*
X134526000Y-50658625D01*
X122270000Y-73890625D02*
X122270000Y-75490625D01*
X135542000Y-48849991D02*
X135542000Y-49642625D01*
X135270000Y-48577991D02*
X135542000Y-48849991D01*
%TO.N,/IO/SWCLK CONN*%
X165260000Y-38530625D02*
X165260000Y-36895000D01*
X165260000Y-36895000D02*
X166530000Y-35625000D01*
%TO.N,/IO/USB CC2*%
X191595000Y-62490625D02*
X190845000Y-61740625D01*
X193545000Y-62490625D02*
X191595000Y-62490625D01*
D77*
%TO.N,/IO/USB DATA+*%
X189270000Y-63290625D02*
X190055535Y-64076160D01*
X192804822Y-63490625D02*
X193545000Y-63490625D01*
X190055535Y-64076160D02*
X192219287Y-64076160D01*
X194545000Y-64240625D02*
X194295000Y-64490625D01*
X192219287Y-64076160D02*
X192804822Y-63490625D01*
X194295000Y-64490625D02*
X193545000Y-64490625D01*
X194545000Y-63740625D02*
X194545000Y-64240625D01*
X188657500Y-63290625D02*
X189270000Y-63290625D01*
X194295000Y-63490625D02*
X194545000Y-63740625D01*
X193545000Y-63490625D02*
X194295000Y-63490625D01*
D76*
%TO.N,/IO/USB CC1*%
X193545000Y-65490625D02*
X192095000Y-65490625D01*
X192095000Y-65490625D02*
X190845000Y-66740625D01*
D77*
%TO.N,/IO/USB DATA-*%
X192768270Y-64990625D02*
X193545000Y-64990625D01*
X192520000Y-64407808D02*
X192520000Y-64742355D01*
X192770000Y-63990625D02*
X192520000Y-64240625D01*
X188657500Y-65190625D02*
X189270000Y-65190625D01*
X192517282Y-64405090D02*
X192520000Y-64407808D01*
X192520000Y-64240625D02*
X192520000Y-64407808D01*
X192520000Y-64742355D02*
X192768270Y-64990625D01*
X193545000Y-63990625D02*
X192770000Y-63990625D01*
X189270000Y-65190625D02*
X190055535Y-64405090D01*
X190055535Y-64405090D02*
X192517282Y-64405090D01*
D76*
%TO.N,/IO/SD DAT0*%
X184495000Y-86090625D02*
X185820000Y-86090625D01*
X184145000Y-85740625D02*
X184495000Y-86090625D01*
X183345000Y-85740625D02*
X184145000Y-85740625D01*
%TO.N,/IO/SD DAT2*%
X185570000Y-79490625D02*
X183345000Y-79490625D01*
X183345000Y-79490625D02*
X183270000Y-79565625D01*
%TO.N,SD CARD ~{IN}*%
X167520000Y-76740625D02*
X168520000Y-77740625D01*
X183345000Y-88740625D02*
X184045000Y-88740625D01*
X152770000Y-67240625D02*
X152770000Y-66065625D01*
X189020000Y-86490625D02*
X187220000Y-88290625D01*
X151770000Y-68240625D02*
X152770000Y-67240625D01*
X184045000Y-88740625D02*
X184495000Y-88290625D01*
X179020000Y-77740625D02*
X180020000Y-78740625D01*
X184495000Y-88290625D02*
X185820000Y-88290625D01*
X168520000Y-77740625D02*
X179020000Y-77740625D01*
X187020000Y-78740625D02*
X189020000Y-80740625D01*
X180020000Y-78740625D02*
X187020000Y-78740625D01*
X189020000Y-80740625D02*
X189020000Y-86490625D01*
X187220000Y-88290625D02*
X185820000Y-88290625D01*
%TO.N,/IO/SD DAT1*%
X183395000Y-87190625D02*
X183345000Y-87240625D01*
X185570000Y-87190625D02*
X183395000Y-87190625D01*
D77*
%TO.N,/IO/USB DATA FLT +*%
X183870000Y-63740625D02*
X184802659Y-63740625D01*
X185252659Y-63290625D02*
X186382500Y-63290625D01*
X186382500Y-63290625D02*
X186888749Y-63290625D01*
X184802659Y-63740625D02*
X185252659Y-63290625D01*
%TO.N,/IO/USB DATA FLT -*%
X185252659Y-65190625D02*
X186382500Y-65190625D01*
X184802659Y-64740625D02*
X185252659Y-65190625D01*
X183870000Y-64740625D02*
X184802659Y-64740625D01*
X186382500Y-65190625D02*
X186888749Y-65190625D01*
%TO.N,USB D-*%
X166838125Y-64405090D02*
X161338125Y-69905090D01*
X156943036Y-69905090D02*
X156857501Y-69990625D01*
X181170000Y-64740625D02*
X180344999Y-64740625D01*
X156857501Y-69990625D02*
X155695000Y-69990625D01*
X161338125Y-69905090D02*
X156943036Y-69905090D01*
X180009464Y-64405090D02*
X166838125Y-64405090D01*
X180344999Y-64740625D02*
X180009464Y-64405090D01*
%TO.N,USB D+*%
X181170000Y-63740625D02*
X180344999Y-63740625D01*
X180344999Y-63740625D02*
X180009464Y-64076160D01*
X166701875Y-64076160D02*
X161201875Y-69576160D01*
X156943036Y-69576160D02*
X156857501Y-69490625D01*
X156857501Y-69490625D02*
X155695000Y-69490625D01*
X180009464Y-64076160D02*
X166701875Y-64076160D01*
X161201875Y-69576160D02*
X156943036Y-69576160D01*
D71*
%TO.N,/POWER/+VEXT LED*%
X183270000Y-57565625D02*
X184732500Y-57565625D01*
X184732500Y-57565625D02*
X184770000Y-57528125D01*
%TO.N,/POWER/+VBUS LED*%
X180307500Y-57565625D02*
X180270000Y-57528125D01*
X181770000Y-57565625D02*
X180307500Y-57565625D01*
D69*
%TO.N,/POWER/+VBOOST LED*%
X183482500Y-34240625D02*
X182095000Y-34240625D01*
%TO.N,/POWER/+5V LED*%
X123732500Y-40240625D02*
X122345000Y-40240625D01*
%TO.N,/POWER/+3.3V LED*%
X174732500Y-40240625D02*
X173345000Y-40240625D01*
D71*
%TO.N,/INTERFACE/BUZZER DRAIN*%
X111007500Y-47565625D02*
X110020000Y-47565625D01*
X112082500Y-47240625D02*
X111332500Y-47240625D01*
X110020000Y-47565625D02*
X110020000Y-49240625D01*
X111332500Y-47240625D02*
X111007500Y-47565625D01*
D70*
%TO.N,/POWER/BOOST ~{SHDN}*%
X180320000Y-44040625D02*
X180320000Y-43628125D01*
X179270000Y-46315625D02*
X179270000Y-45090625D01*
X179270000Y-45090625D02*
X180320000Y-44040625D01*
X180445000Y-47490625D02*
X179270000Y-46315625D01*
%TO.N,/POWER/BOOST FB*%
X179270000Y-36915625D02*
X180270000Y-35915625D01*
X182270000Y-35915625D02*
X180270000Y-35915625D01*
X179270000Y-39965625D02*
X179270000Y-36915625D01*
X180320000Y-41015625D02*
X179270000Y-39965625D01*
X180320000Y-41353125D02*
X180320000Y-41015625D01*
D76*
%TO.N,/MCU/HSE OUT*%
X144345000Y-70490625D02*
X139845000Y-70490625D01*
X139845000Y-70490625D02*
X139345000Y-70990625D01*
%TO.N,/MCU/MCU PB15*%
X155695000Y-73990625D02*
X158020000Y-73990625D01*
X161020000Y-76990625D02*
X161695000Y-76990625D01*
X158020000Y-73990625D02*
X161020000Y-76990625D01*
%TO.N,/MCU/MCU PB13*%
X161270000Y-78990625D02*
X161695000Y-78990625D01*
X157270000Y-74990625D02*
X161270000Y-78990625D01*
X155695000Y-74990625D02*
X157270000Y-74990625D01*
%TO.N,/MCU/MCU PB12*%
X155695000Y-75490625D02*
X156770000Y-75490625D01*
X156770000Y-75490625D02*
X158770000Y-77490625D01*
X161020000Y-80990625D02*
X161695000Y-80990625D01*
X158770000Y-78740625D02*
X161020000Y-80990625D01*
X158770000Y-77490625D02*
X158770000Y-78740625D01*
%TO.N,/MCU/MCU PB6*%
X149270000Y-66065625D02*
X149270000Y-64565625D01*
X149270000Y-64565625D02*
X149770000Y-64065625D01*
%TO.N,/MCU/MCU PB8*%
X147770000Y-66065625D02*
X147770000Y-61565625D01*
%TO.N,/MCU/MCU PB9*%
X147270000Y-66065625D02*
X147270000Y-62565625D01*
X147270000Y-62565625D02*
X146270000Y-61565625D01*
%TO.N,/MCU/MCU PC6*%
X161020000Y-75490625D02*
X161695000Y-75490625D01*
X155695000Y-73490625D02*
X159020000Y-73490625D01*
X159020000Y-73490625D02*
X161020000Y-75490625D01*
%TO.N,/MCU/MCU PC7*%
X155695000Y-72990625D02*
X160020000Y-72990625D01*
X160020000Y-72990625D02*
X161020000Y-73990625D01*
X161020000Y-73990625D02*
X161695000Y-73990625D01*
%TO.N,/MCU/MCU PC8*%
X155695000Y-72490625D02*
X161695000Y-72490625D01*
%TO.N,/MCU/MCU PC9*%
X160698232Y-71987393D02*
X161695000Y-70990625D01*
X155695000Y-71990625D02*
X155698232Y-71987393D01*
X155698232Y-71987393D02*
X160698232Y-71987393D01*
%TO.N,/MCU/MCU PA15*%
X153270000Y-66065625D02*
X153270000Y-64065625D01*
%TO.N,SWDIO*%
X154270000Y-68139001D02*
X162720000Y-59689001D01*
X154520000Y-68990625D02*
X154270000Y-68740625D01*
X166530000Y-51823625D02*
X166530000Y-41450625D01*
X155695000Y-68990625D02*
X154520000Y-68990625D01*
X154270000Y-68740625D02*
X154270000Y-68139001D01*
X162720000Y-55633625D02*
X166530000Y-51823625D01*
X162720000Y-59689001D02*
X162720000Y-55633625D01*
X166530000Y-41450625D02*
X167800000Y-40180625D01*
%TO.N,SWCLK*%
X158910000Y-59850625D02*
X158910000Y-55350625D01*
X162720000Y-51540625D02*
X162720000Y-42720625D01*
X158910000Y-55350625D02*
X162720000Y-51540625D01*
X153770000Y-66065625D02*
X153770000Y-64990625D01*
X162720000Y-42720625D02*
X165260000Y-40180625D01*
X153770000Y-64990625D02*
X158910000Y-59850625D01*
%TO.N,SWO*%
X150770000Y-66065625D02*
X150770000Y-63240625D01*
X158910000Y-52600625D02*
X158910000Y-43990625D01*
X157640000Y-53870625D02*
X158910000Y-52600625D01*
X150770000Y-63240625D02*
X157640000Y-56370625D01*
X157640000Y-56370625D02*
X157640000Y-53870625D01*
X158910000Y-43990625D02*
X162720000Y-40180625D01*
%TO.N,DEBUG RX*%
X149270000Y-61240625D02*
X150270000Y-61240625D01*
X148770000Y-61740625D02*
X149270000Y-61240625D01*
X148770000Y-66065625D02*
X148770000Y-61740625D01*
X150270000Y-61240625D02*
X155100000Y-56410625D01*
X155100000Y-56410625D02*
X155100000Y-43990625D01*
%TO.N,BUTTON UP*%
X118020000Y-88590625D02*
X116020000Y-88590625D01*
X122620000Y-88590625D02*
X118020000Y-88590625D01*
X150770000Y-77415625D02*
X150770000Y-87490625D01*
X126520000Y-92490625D02*
X122620000Y-88590625D01*
X145770000Y-92490625D02*
X126520000Y-92490625D01*
X116020000Y-90065625D02*
X116020000Y-88590625D01*
X116020000Y-88590625D02*
X112020000Y-88590625D01*
X115845000Y-90240625D02*
X116020000Y-90065625D01*
X150770000Y-87490625D02*
X145770000Y-92490625D01*
%TO.N,BUTTON DOWN*%
X114195000Y-103240625D02*
X114195000Y-104861212D01*
X138520000Y-101490625D02*
X121420000Y-101490625D01*
X151270000Y-88740625D02*
X138520000Y-101490625D01*
X121420000Y-101490625D02*
X118020000Y-104890625D01*
X118020000Y-104890625D02*
X112020000Y-104890625D01*
X151270000Y-77415625D02*
X151270000Y-88740625D01*
X114195000Y-104861212D02*
X114165587Y-104890625D01*
%TO.N,BUTTON LEFT*%
X125270000Y-86740625D02*
X111520000Y-86740625D01*
X149770000Y-77415625D02*
X149770000Y-84990625D01*
X106870000Y-91390625D02*
X106870000Y-93740625D01*
X149770000Y-84990625D02*
X145520000Y-89240625D01*
X127770000Y-89240625D02*
X125270000Y-86740625D01*
X106870000Y-97490625D02*
X106870000Y-99740625D01*
X108520000Y-97565625D02*
X106895000Y-97565625D01*
X106870000Y-93740625D02*
X106870000Y-97490625D01*
X111520000Y-86740625D02*
X106870000Y-91390625D01*
X106895000Y-97565625D02*
X106890000Y-97560625D01*
X145520000Y-89240625D02*
X127770000Y-89240625D01*
%TO.N,BUTTON RIGHT*%
X123170000Y-93740625D02*
X123170000Y-97490625D01*
X124270000Y-92490625D02*
X123170000Y-93590625D01*
X150270000Y-86240625D02*
X145770000Y-90740625D01*
X123170000Y-97490625D02*
X123170000Y-99740625D01*
X150270000Y-77415625D02*
X150270000Y-86240625D01*
X123170000Y-93590625D02*
X123170000Y-93740625D01*
X123155000Y-97565625D02*
X123160000Y-97560625D01*
X145770000Y-90740625D02*
X127020000Y-90740625D01*
X121520000Y-97565625D02*
X123155000Y-97565625D01*
%TO.N,BUTTON CENTER*%
X124485000Y-102990625D02*
X120735000Y-106740625D01*
X116870000Y-97490625D02*
X116870000Y-93740625D01*
X115695000Y-99740625D02*
X114195000Y-101240625D01*
X116870000Y-99740625D02*
X116870000Y-99890625D01*
X116870000Y-99740625D02*
X116870000Y-97490625D01*
X151770000Y-89990625D02*
X138770000Y-102990625D01*
X151770000Y-77415625D02*
X151770000Y-89990625D01*
X111770000Y-106740625D02*
X110770000Y-105740625D01*
X110770000Y-103990625D02*
X113520000Y-101240625D01*
X116870000Y-99740625D02*
X115695000Y-99740625D01*
X110770000Y-105740625D02*
X110770000Y-103990625D01*
X113520000Y-101240625D02*
X114195000Y-101240625D01*
X138770000Y-102990625D02*
X124485000Y-102990625D01*
X120735000Y-106740625D02*
X111770000Y-106740625D01*
%TO.N,BUTTON 1*%
X181870000Y-97490625D02*
X181870000Y-93740625D01*
X158520000Y-81240625D02*
X158520000Y-88240625D01*
X181945000Y-97565625D02*
X181870000Y-97490625D01*
X180870000Y-92740625D02*
X181870000Y-93740625D01*
X183520000Y-97565625D02*
X181945000Y-97565625D01*
X158520000Y-71359161D02*
X158388536Y-71490625D01*
X158388536Y-71490625D02*
X155695000Y-71490625D01*
X181870000Y-99740625D02*
X181870000Y-97490625D01*
X158520000Y-88240625D02*
X163020000Y-92740625D01*
X163020000Y-92740625D02*
X180870000Y-92740625D01*
%TO.N,BUTTON 2*%
X186520000Y-97565625D02*
X188095000Y-97565625D01*
X164145000Y-90740625D02*
X181895000Y-90740625D01*
X188170000Y-97490625D02*
X188170000Y-93740625D01*
X160520000Y-70990625D02*
X160141768Y-70612393D01*
X184895000Y-93740625D02*
X188170000Y-93740625D01*
X188095000Y-97565625D02*
X188170000Y-97490625D01*
X188170000Y-99740625D02*
X188170000Y-97490625D01*
X160020000Y-81240625D02*
X160020000Y-86615625D01*
X158148232Y-70612393D02*
X157770000Y-70990625D01*
X160020000Y-86615625D02*
X164145000Y-90740625D01*
X181895000Y-90740625D02*
X184895000Y-93740625D01*
X160141768Y-70612393D02*
X158148232Y-70612393D01*
X157770000Y-70990625D02*
X155695000Y-70990625D01*
%TO.N,BOOT0*%
X165705000Y-51000625D02*
X164680000Y-49975625D01*
X165705000Y-51420625D02*
X165705000Y-51000625D01*
X149770000Y-69490625D02*
X151621624Y-69490625D01*
X165197000Y-51420625D02*
X165705000Y-51420625D01*
X148270000Y-66065625D02*
X148270000Y-67990625D01*
X151621624Y-69490625D02*
X160180000Y-60932249D01*
X148270000Y-67990625D02*
X149770000Y-69490625D01*
X164680000Y-49975625D02*
X164680000Y-43975625D01*
X160180000Y-60932249D02*
X160180000Y-56437625D01*
X160180000Y-56437625D02*
X165197000Y-51420625D01*
%TD*%
M02*
